%FSAX24Y24*%
%MOIN*%
G70*
G01*
G75*
%ADD10R,0.0512X0.0748*%
%ADD11R,0.0700X0.0650*%
%ADD12R,0.0350X0.0350*%
%ADD13R,0.0350X0.0350*%
%ADD14R,0.3500X0.4200*%
%ADD15R,0.0900X0.0700*%
%ADD16R,0.0374X0.0189*%
%ADD17R,0.0550X0.0400*%
%ADD18R,0.0650X0.0700*%
%ADD19R,0.0512X0.0110*%
%ADD20R,0.0110X0.0512*%
%ADD21R,0.0600X0.0650*%
G04:AMPARAMS|DCode=22|XSize=65mil|YSize=60mil|CornerRadius=15mil|HoleSize=0mil|Usage=FLASHONLY|Rotation=270.000|XOffset=0mil|YOffset=0mil|HoleType=Round|Shape=RoundedRectangle|*
%AMROUNDEDRECTD22*
21,1,0.0650,0.0300,0,0,270.0*
21,1,0.0350,0.0600,0,0,270.0*
1,1,0.0300,-0.0150,-0.0175*
1,1,0.0300,-0.0150,0.0175*
1,1,0.0300,0.0150,0.0175*
1,1,0.0300,0.0150,-0.0175*
%
%ADD22ROUNDEDRECTD22*%
%ADD23R,0.0236X0.0472*%
%ADD24R,0.0260X0.0800*%
%ADD25R,0.0709X0.0551*%
G04:AMPARAMS|DCode=26|XSize=70.9mil|YSize=55.1mil|CornerRadius=13.8mil|HoleSize=0mil|Usage=FLASHONLY|Rotation=180.000|XOffset=0mil|YOffset=0mil|HoleType=Round|Shape=RoundedRectangle|*
%AMROUNDEDRECTD26*
21,1,0.0709,0.0276,0,0,180.0*
21,1,0.0433,0.0551,0,0,180.0*
1,1,0.0276,-0.0217,0.0138*
1,1,0.0276,0.0217,0.0138*
1,1,0.0276,0.0217,-0.0138*
1,1,0.0276,-0.0217,-0.0138*
%
%ADD26ROUNDEDRECTD26*%
%ADD27R,0.1280X0.0846*%
%ADD28R,0.0374X0.0846*%
%ADD29R,0.0800X0.0260*%
%ADD30R,0.0140X0.0701*%
%ADD31R,0.0787X0.0472*%
%ADD32R,0.0591X0.0394*%
%ADD33R,0.0532X0.0138*%
%ADD34R,0.0138X0.0532*%
%ADD35R,0.0400X0.0550*%
%ADD36R,0.0098X0.0610*%
%ADD37R,0.0571X0.0098*%
%ADD38R,0.0571X0.0177*%
%ADD39R,0.1500X0.0800*%
%ADD40R,0.0800X0.1500*%
%ADD41C,0.0100*%
%ADD42C,0.0120*%
%ADD43C,0.0110*%
%ADD44C,0.0150*%
%ADD45C,0.0130*%
%ADD46C,0.0200*%
%ADD47C,0.0300*%
%ADD48C,0.0600*%
%ADD49R,0.0600X0.0600*%
%ADD50R,0.0600X0.0600*%
%ADD51C,0.0591*%
%ADD52C,0.0551*%
%ADD53C,0.0886*%
%ADD54C,0.1772*%
%ADD55C,0.0220*%
%ADD56C,0.0250*%
%ADD57C,0.1600*%
%ADD58C,0.0689*%
%ADD59C,0.0300*%
%ADD60C,0.0500*%
%ADD61C,0.0400*%
%ADD62C,0.2500*%
%ADD63C,0.0079*%
%ADD64C,0.0500*%
%ADD65C,0.0060*%
%ADD66C,0.0070*%
%ADD67C,0.0020*%
%ADD68R,0.0434X0.0249*%
%ADD69R,0.0320X0.0860*%
%ADD70R,0.1340X0.0906*%
%ADD71R,0.0434X0.0906*%
%ADD72R,0.0860X0.0320*%
%ADD73R,0.0180X0.0741*%
%ADD74R,0.0610X0.0138*%
%ADD75R,0.0591X0.0197*%
%ADD76R,0.8500X1.1250*%
%ADD77R,0.5000X0.2750*%
%ADD78C,0.0050*%
%ADD79C,0.0067*%
%ADD80C,0.0040*%
D78*
X054550Y018000D02*
X054950D01*
X054750Y017800D02*
Y018200D01*
X054550Y016000D02*
X054950D01*
X054750Y015800D02*
Y016200D01*
X054550Y017000D02*
X054950D01*
X054750Y016800D02*
Y017200D01*
X053550Y016000D02*
X053950D01*
X053750Y015800D02*
Y016200D01*
X053550Y014000D02*
X053950D01*
X053750Y013800D02*
Y014200D01*
X054550Y014000D02*
X054950D01*
X054750Y013800D02*
Y014200D01*
X054550Y015000D02*
X054950D01*
X054750Y014800D02*
Y015200D01*
X053550Y015000D02*
X053950D01*
X053750Y014800D02*
Y015200D01*
X053550Y017000D02*
X053950D01*
X053750Y016800D02*
Y017200D01*
X053550Y018000D02*
X053950D01*
X053750Y017800D02*
Y018200D01*
X054550Y019000D02*
X054950D01*
X054750Y018800D02*
Y019200D01*
X053550Y019000D02*
X053950D01*
X053750Y018800D02*
Y019200D01*
X054550Y020000D02*
X054950D01*
X054750Y019800D02*
Y020200D01*
X053550Y020000D02*
X053950D01*
X053750Y019800D02*
Y020200D01*
X054550Y021000D02*
X054950D01*
X054750Y020800D02*
Y021200D01*
X053550Y021000D02*
X053950D01*
X053750Y020800D02*
Y021200D01*
X054550Y022000D02*
X054950D01*
X054750Y021800D02*
Y022200D01*
X053550Y022000D02*
X053950D01*
X053750Y021800D02*
Y022200D01*
X054550Y023000D02*
X054950D01*
X054750Y022800D02*
Y023200D01*
X053550Y023000D02*
X053950D01*
X053750Y022800D02*
Y023200D01*
X037650Y030850D02*
X038050D01*
X037850Y030650D02*
Y031050D01*
X038650Y030850D02*
X039050D01*
X038850Y030650D02*
Y031050D01*
X036650Y030850D02*
X037050D01*
X036850Y030650D02*
Y031050D01*
X019604Y020746D02*
X020037D01*
X019820Y020530D02*
Y020963D01*
X019604Y019746D02*
X020037D01*
X019820Y019530D02*
Y019963D01*
X019604Y016054D02*
X020037D01*
X019820Y015837D02*
Y016270D01*
X019604Y015054D02*
X020037D01*
X019820Y014837D02*
Y015270D01*
X018651Y019896D02*
X019044D01*
X018848Y019699D02*
Y020093D01*
X018651Y015900D02*
X019044D01*
X018848Y015703D02*
Y016097D01*
X012893Y014723D02*
X013511D01*
X013202Y014414D02*
Y015032D01*
X012861Y021109D02*
X013480D01*
X013170Y020800D02*
Y021418D01*
X013810Y015400D02*
X015090D01*
X014450Y014760D02*
Y016040D01*
X013810Y020400D02*
X015090D01*
X014450Y019760D02*
Y021040D01*
X014525Y048050D02*
X014975D01*
X014750Y047825D02*
Y048275D01*
X014525Y049231D02*
X014975D01*
X014750Y049006D02*
Y049456D01*
X014525Y050412D02*
X014975D01*
X014750Y050187D02*
Y050637D01*
X014525Y051593D02*
X014975D01*
X014750Y051368D02*
Y051818D01*
X014525Y052774D02*
X014975D01*
X014750Y052549D02*
Y052999D01*
X014525Y053955D02*
X014975D01*
X014750Y053731D02*
Y054180D01*
X014525Y055137D02*
X014975D01*
X014750Y054912D02*
Y055362D01*
X015509Y048641D02*
X015959D01*
X015734Y048416D02*
Y048866D01*
X015509Y049822D02*
X015959D01*
X015734Y049597D02*
Y050047D01*
X015509Y051003D02*
X015959D01*
X015734Y050778D02*
Y051228D01*
X015509Y052184D02*
X015959D01*
X015734Y051959D02*
Y052409D01*
X015509Y053365D02*
X015959D01*
X015734Y053140D02*
Y053590D01*
X015509Y054546D02*
X015959D01*
X015734Y054321D02*
Y054771D01*
X016690Y048641D02*
X017140D01*
X016915Y048416D02*
Y048866D01*
X016690Y049822D02*
X017140D01*
X016915Y049597D02*
Y050047D01*
X016690Y051003D02*
X017140D01*
X016915Y050778D02*
Y051228D01*
X016690Y052184D02*
X017140D01*
X016915Y051959D02*
Y052409D01*
X016690Y053365D02*
X017140D01*
X016915Y053140D02*
Y053590D01*
X016690Y054546D02*
X017140D01*
X016915Y054321D02*
Y054771D01*
X017675Y048050D02*
X018125D01*
X017900Y047825D02*
Y048275D01*
X017675Y049231D02*
X018125D01*
X017900Y049006D02*
Y049456D01*
X017675Y050412D02*
X018125D01*
X017900Y050187D02*
Y050637D01*
X017675Y051593D02*
X018125D01*
X017900Y051368D02*
Y051818D01*
X017675Y052774D02*
X018125D01*
X017900Y052549D02*
Y052999D01*
X017675Y053956D02*
X018125D01*
X017900Y053731D02*
Y054181D01*
X017675Y055137D02*
X018125D01*
X017900Y054912D02*
Y055362D01*
X014525Y030400D02*
X014975D01*
X014750Y030175D02*
Y030625D01*
X014525Y031581D02*
X014975D01*
X014750Y031356D02*
Y031806D01*
X014525Y032762D02*
X014975D01*
X014750Y032537D02*
Y032987D01*
X014525Y033943D02*
X014975D01*
X014750Y033718D02*
Y034168D01*
X014525Y035124D02*
X014975D01*
X014750Y034899D02*
Y035349D01*
X014525Y036305D02*
X014975D01*
X014750Y036081D02*
Y036530D01*
X014525Y037487D02*
X014975D01*
X014750Y037262D02*
Y037712D01*
X015509Y030991D02*
X015959D01*
X015734Y030766D02*
Y031216D01*
X015509Y032172D02*
X015959D01*
X015734Y031947D02*
Y032397D01*
X015509Y033353D02*
X015959D01*
X015734Y033128D02*
Y033578D01*
X015509Y034534D02*
X015959D01*
X015734Y034309D02*
Y034759D01*
X015509Y035715D02*
X015959D01*
X015734Y035490D02*
Y035940D01*
X015509Y036896D02*
X015959D01*
X015734Y036671D02*
Y037121D01*
X016690Y030991D02*
X017140D01*
X016915Y030766D02*
Y031216D01*
X016690Y032172D02*
X017140D01*
X016915Y031947D02*
Y032397D01*
X016690Y033353D02*
X017140D01*
X016915Y033128D02*
Y033578D01*
X016690Y034534D02*
X017140D01*
X016915Y034309D02*
Y034759D01*
X016690Y035715D02*
X017140D01*
X016915Y035490D02*
Y035940D01*
X016690Y036896D02*
X017140D01*
X016915Y036671D02*
Y037121D01*
X017675Y030400D02*
X018125D01*
X017900Y030175D02*
Y030625D01*
X017675Y031581D02*
X018125D01*
X017900Y031356D02*
Y031806D01*
X017675Y032762D02*
X018125D01*
X017900Y032537D02*
Y032987D01*
X017675Y033943D02*
X018125D01*
X017900Y033718D02*
Y034168D01*
X017675Y035124D02*
X018125D01*
X017900Y034899D02*
Y035349D01*
X017675Y036306D02*
X018125D01*
X017900Y036081D02*
Y036531D01*
X017675Y037487D02*
X018125D01*
X017900Y037262D02*
Y037712D01*
X018651Y019097D02*
X019044D01*
X018848Y018900D02*
Y019294D01*
X018651Y018298D02*
X019044D01*
X018848Y018101D02*
Y018494D01*
X018651Y017498D02*
X019044D01*
X018848Y017302D02*
Y017695D01*
X018651Y016699D02*
X019044D01*
X018848Y016502D02*
Y016896D01*
X050800Y014100D02*
X051200D01*
X051000Y013900D02*
Y014300D01*
X050800Y013100D02*
X051200D01*
X051000Y012900D02*
Y013300D01*
X050800Y015100D02*
X051200D01*
X051000Y014900D02*
Y015300D01*
X050800Y016500D02*
X051200D01*
X051000Y016300D02*
Y016700D01*
X050800Y017500D02*
X051200D01*
X051000Y017300D02*
Y017700D01*
X016550Y023750D02*
X016950D01*
X016750Y023550D02*
Y023950D01*
X015550Y023750D02*
X015950D01*
X015750Y023550D02*
Y023950D01*
X052850Y011200D02*
X053250D01*
X053050Y011000D02*
Y011400D01*
X053850Y011200D02*
X054250D01*
X054050Y011000D02*
Y011400D01*
X050050Y011200D02*
X050450D01*
X050250Y011000D02*
Y011400D01*
X051050Y011200D02*
X051450D01*
X051250Y011000D02*
Y011400D01*
X049050Y011200D02*
X049450D01*
X049250Y011000D02*
Y011400D01*
X032890Y014200D02*
X033010D01*
X032950Y014140D02*
Y014260D01*
X039940Y048350D02*
X040060D01*
X040000Y048290D02*
Y048410D01*
X029290Y041850D02*
X029410D01*
X029350Y041790D02*
Y041910D01*
X024240Y043150D02*
X024360D01*
X024300Y043090D02*
Y043210D01*
X029340Y047250D02*
X029460D01*
X029400Y047190D02*
Y047310D01*
X024040Y047250D02*
X024160D01*
X024100Y047190D02*
Y047310D01*
X024390Y053450D02*
X024510D01*
X024450Y053390D02*
Y053510D01*
X029240Y052650D02*
X029360D01*
X029300Y052590D02*
Y052710D01*
X029390Y058050D02*
X029510D01*
X029450Y057990D02*
Y058110D01*
X024090Y058050D02*
X024210D01*
X024150Y057990D02*
Y058110D01*
X038690Y022500D02*
X038810D01*
X038750Y022440D02*
Y022560D01*
X039190Y014850D02*
X039310D01*
X039250Y014790D02*
Y014910D01*
X039540Y013600D02*
X039660D01*
X039600Y013540D02*
Y013660D01*
X037790Y015450D02*
X037910D01*
X037850Y015390D02*
Y015510D01*
X030840Y019850D02*
X030960D01*
X030900Y019790D02*
Y019910D01*
X030340Y019900D02*
X030460D01*
X030400Y019840D02*
Y019960D01*
X029890Y019850D02*
X030010D01*
X029950Y019790D02*
Y019910D01*
X037940Y012350D02*
X038060D01*
X038000Y012290D02*
Y012410D01*
X037940Y011000D02*
X038060D01*
X038000Y010940D02*
Y011060D01*
X043990Y027650D02*
X044110D01*
X044050Y027590D02*
Y027710D01*
X044340Y023200D02*
X044460D01*
X044400Y023140D02*
Y023260D01*
X044790Y023200D02*
X044910D01*
X044850Y023140D02*
Y023260D01*
X043990Y026250D02*
X044110D01*
X044050Y026190D02*
Y026310D01*
X046740Y027450D02*
X046860D01*
X046800Y027390D02*
Y027510D01*
X021690Y035750D02*
X021810D01*
X021750Y035690D02*
Y035810D01*
X021490Y025500D02*
X021610D01*
X021550Y025440D02*
Y025560D01*
X046590Y025500D02*
X046710D01*
X046650Y025440D02*
Y025560D01*
X038640Y025050D02*
X038760D01*
X038700Y024990D02*
Y025110D01*
X037490Y013300D02*
X037610D01*
X037550Y013240D02*
Y013360D01*
X047640Y011250D02*
X047760D01*
X047700Y011190D02*
Y011310D01*
X027350Y021100D02*
X027450D01*
X027400Y021050D02*
Y021150D01*
X028700Y019950D02*
X028800D01*
X028750Y019900D02*
Y020000D01*
X027900Y019950D02*
X028000D01*
X027950Y019900D02*
Y020000D01*
X033800Y015300D02*
X033900D01*
X033850Y015250D02*
Y015350D01*
X029800Y015000D02*
X029900D01*
X029850Y014950D02*
Y015050D01*
X029200Y016900D02*
X029300D01*
X029250Y016850D02*
Y016950D01*
X030000Y016400D02*
X030100D01*
X030050Y016350D02*
Y016450D01*
X029950Y012200D02*
X030050D01*
X030000Y012150D02*
Y012250D01*
X028750Y015300D02*
X028850D01*
X028800Y015250D02*
Y015350D01*
X029100Y015300D02*
X029200D01*
X029150Y015250D02*
Y015350D01*
X028850Y017050D02*
X028950D01*
X028900Y017000D02*
Y017100D01*
X028850Y017400D02*
X028950D01*
X028900Y017350D02*
Y017450D01*
X022300Y015050D02*
X022400D01*
X022350Y015000D02*
Y015100D01*
X022300Y019850D02*
X022400D01*
X022350Y019800D02*
Y019900D01*
X029500Y013250D02*
X029600D01*
X029550Y013200D02*
Y013300D01*
X026050Y051900D02*
X026150D01*
X026100Y051850D02*
Y051950D01*
X031350Y051900D02*
X031450D01*
X031400Y051850D02*
Y051950D01*
X030850Y051050D02*
X030950D01*
X030900Y051000D02*
Y051100D01*
X025550Y051050D02*
X025650D01*
X025600Y051000D02*
Y051100D01*
X031350Y057300D02*
X031450D01*
X031400Y057250D02*
Y057350D01*
X030850Y056400D02*
X030950D01*
X030900Y056350D02*
Y056450D01*
X031350Y046450D02*
X031450D01*
X031400Y046400D02*
Y046500D01*
X030850Y045650D02*
X030950D01*
X030900Y045600D02*
Y045700D01*
X026050Y046450D02*
X026150D01*
X026100Y046400D02*
Y046500D01*
X025550Y045600D02*
X025650D01*
X025600Y045550D02*
Y045650D01*
X030850Y040200D02*
X030950D01*
X030900Y040150D02*
Y040250D01*
X031350Y041050D02*
X031450D01*
X031400Y041000D02*
Y041100D01*
X025550Y040150D02*
X025650D01*
X025600Y040100D02*
Y040200D01*
X026025Y041100D02*
X026175D01*
X026100Y041025D02*
Y041175D01*
X038890Y026950D02*
X039010D01*
X038950Y026890D02*
Y027010D01*
X043440Y025800D02*
X043560D01*
X043500Y025740D02*
Y025860D01*
X043190Y032150D02*
X043310D01*
X043250Y032090D02*
Y032210D01*
X043640Y036100D02*
X043760D01*
X043700Y036040D02*
Y036160D01*
X045050Y036700D02*
X045150D01*
X045100Y036650D02*
Y036750D01*
X032050Y052400D02*
X032150D01*
X032100Y052350D02*
Y052450D01*
X032050Y050500D02*
X032150D01*
X032100Y050450D02*
Y050550D01*
X026750Y052400D02*
X026850D01*
X026800Y052350D02*
Y052450D01*
X026750Y050500D02*
X026850D01*
X026800Y050450D02*
Y050550D01*
X032050Y057800D02*
X032150D01*
X032100Y057750D02*
Y057850D01*
X032050Y055900D02*
X032150D01*
X032100Y055850D02*
Y055950D01*
X032050Y047000D02*
X032150D01*
X032100Y046950D02*
Y047050D01*
X032050Y045100D02*
X032150D01*
X032100Y045050D02*
Y045150D01*
X026750Y041600D02*
X026850D01*
X026800Y041550D02*
Y041650D01*
X026750Y039700D02*
X026850D01*
X026800Y039650D02*
Y039750D01*
X032050Y041600D02*
X032150D01*
X032100Y041550D02*
Y041650D01*
X032050Y039700D02*
X032150D01*
X032100Y039650D02*
Y039750D01*
X026750Y045100D02*
X026850D01*
X026800Y045050D02*
Y045150D01*
X026750Y047000D02*
X026850D01*
X026800Y046950D02*
Y047050D01*
X011521Y045196D02*
X012861D01*
X012191Y044526D02*
Y045866D01*
X011521Y057991D02*
X012861D01*
X012191Y057321D02*
Y058661D01*
X011521Y027546D02*
X012861D01*
X012191Y026876D02*
Y028216D01*
X011521Y040341D02*
X012861D01*
X012191Y039671D02*
Y041011D01*
X055126Y030891D02*
X055716D01*
X055421Y030596D02*
Y031186D01*
X055126Y040399D02*
X055716D01*
X055421Y040104D02*
Y040694D01*
X026750Y055900D02*
X026850D01*
X026800Y055850D02*
Y055950D01*
X026750Y057750D02*
X026850D01*
X026800Y057700D02*
Y057800D01*
X020950Y045750D02*
X021050D01*
X021000Y045700D02*
Y045800D01*
X019897Y045353D02*
X019997D01*
X019947Y045303D02*
Y045403D01*
X019897Y044447D02*
X019997D01*
X019947Y044397D02*
Y044497D01*
X020950Y044000D02*
X021050D01*
X021000Y043950D02*
Y044050D01*
X020950Y048100D02*
X021050D01*
X021000Y048050D02*
Y048150D01*
X019850Y047600D02*
X019950D01*
X019900Y047550D02*
Y047650D01*
X020950Y057150D02*
X021050D01*
X021000Y057100D02*
Y057200D01*
X019800Y057600D02*
X019900D01*
X019850Y057550D02*
Y057650D01*
X019800Y058500D02*
X019900D01*
X019850Y058450D02*
Y058550D01*
X020950Y059000D02*
X021050D01*
X021000Y058950D02*
Y059050D01*
X019850Y046700D02*
X019950D01*
X019900Y046650D02*
Y046750D01*
X020950Y046250D02*
X021050D01*
X021000Y046200D02*
Y046300D01*
X019900Y055450D02*
X020000D01*
X019950Y055400D02*
Y055500D01*
X019850Y056350D02*
X019950D01*
X019900Y056300D02*
Y056400D01*
X020950Y056800D02*
X021050D01*
X021000Y056750D02*
Y056850D01*
X020950Y055000D02*
X021050D01*
X021000Y054950D02*
Y055050D01*
X020950Y048450D02*
X021050D01*
X021000Y048400D02*
Y048500D01*
X019850Y048850D02*
X019950D01*
X019900Y048800D02*
Y048900D01*
X019850Y049800D02*
X019950D01*
X019900Y049750D02*
Y049850D01*
X020950Y050250D02*
X021050D01*
X021000Y050200D02*
Y050300D01*
X020950Y050650D02*
X021050D01*
X021000Y050600D02*
Y050700D01*
X019850Y051100D02*
X019950D01*
X019900Y051050D02*
Y051150D01*
X019850Y052000D02*
X019950D01*
X019900Y051950D02*
Y052050D01*
X020950Y052450D02*
X021050D01*
X021000Y052400D02*
Y052500D01*
X043990Y023950D02*
X044110D01*
X044050Y023890D02*
Y024010D01*
X048790Y019250D02*
X048910D01*
X048850Y019190D02*
Y019310D01*
X048790Y018650D02*
X048910D01*
X048850Y018590D02*
Y018710D01*
X048790Y017450D02*
X048910D01*
X048850Y017390D02*
Y017510D01*
X048790Y016850D02*
X048910D01*
X048850Y016790D02*
Y016910D01*
X046440Y012200D02*
X046560D01*
X046500Y012140D02*
Y012260D01*
X045840Y012200D02*
X045960D01*
X045900Y012140D02*
Y012260D01*
X043740Y012200D02*
X043860D01*
X043800Y012140D02*
Y012260D01*
X043140Y012200D02*
X043260D01*
X043200Y012140D02*
Y012260D01*
X041590Y012200D02*
X041710D01*
X041650Y012140D02*
Y012260D01*
X040990Y012200D02*
X041110D01*
X041050Y012140D02*
Y012260D01*
X036490Y016700D02*
X036610D01*
X036550Y016640D02*
Y016760D01*
X036490Y017300D02*
X036610D01*
X036550Y017240D02*
Y017360D01*
X036490Y018650D02*
X036610D01*
X036550Y018590D02*
Y018710D01*
X036490Y019250D02*
X036610D01*
X036550Y019190D02*
Y019310D01*
X036490Y021350D02*
X036610D01*
X036550Y021290D02*
Y021410D01*
X036490Y021950D02*
X036610D01*
X036550Y021890D02*
Y022010D01*
X045040Y024550D02*
X045160D01*
X045100Y024490D02*
Y024610D01*
X042940Y024550D02*
X043060D01*
X043000Y024490D02*
Y024610D01*
X022290Y016000D02*
X022410D01*
X022350Y015940D02*
Y016060D01*
X022300Y020600D02*
X022400D01*
X022350Y020550D02*
Y020650D01*
X026000Y019750D02*
X026100D01*
X026050Y019700D02*
Y019800D01*
X024200Y019250D02*
X024300D01*
X024250Y019200D02*
Y019300D01*
X024200Y016250D02*
X024300D01*
X024250Y016200D02*
Y016300D01*
X026000Y016750D02*
X026100D01*
X026050Y016700D02*
Y016800D01*
X028700Y018250D02*
X028800D01*
X028750Y018200D02*
Y018300D01*
X031450Y015900D02*
X031550D01*
X031500Y015850D02*
Y015950D01*
X032100Y018900D02*
X032200D01*
X032150Y018850D02*
Y018950D01*
X030750Y021300D02*
X030850D01*
X030800Y021250D02*
Y021350D01*
X032850Y021300D02*
X032950D01*
X032900Y021250D02*
Y021350D01*
X020600Y051550D02*
X020700D01*
X020650Y051500D02*
Y051600D01*
X020600Y058050D02*
X020700D01*
X020650Y058000D02*
Y058100D01*
X020600Y055900D02*
X020700D01*
X020650Y055850D02*
Y055950D01*
X020600Y049350D02*
X020700D01*
X020650Y049300D02*
Y049400D01*
X020600Y047150D02*
X020700D01*
X020650Y047100D02*
Y047200D01*
X020600Y044900D02*
X020700D01*
X020650Y044850D02*
Y044950D01*
X033950Y047550D02*
X034050D01*
X034000Y047500D02*
Y047600D01*
X034700Y049150D02*
X034800D01*
X034750Y049100D02*
Y049200D01*
X042550Y051750D02*
X042650D01*
X042600Y051700D02*
Y051800D01*
X044600Y050850D02*
X044700D01*
X044650Y050800D02*
Y050900D01*
X043500Y049700D02*
X043600D01*
X043550Y049650D02*
Y049750D01*
X039450Y049700D02*
X039550D01*
X039500Y049650D02*
Y049750D01*
X045600Y048450D02*
X045700D01*
X045650Y048400D02*
Y048500D01*
X044700Y046350D02*
X044800D01*
X044750Y046300D02*
Y046400D01*
X047950Y055950D02*
X048050D01*
X048000Y055900D02*
Y056000D01*
X021800Y051700D02*
X021900D01*
X021850Y051650D02*
Y051750D01*
X021400Y049800D02*
X021500D01*
X021450Y049750D02*
Y049850D01*
X021850Y054650D02*
X021950D01*
X021900Y054600D02*
Y054700D01*
X022100Y055000D02*
X022200D01*
X022150Y054950D02*
Y055050D01*
X019900Y038800D02*
X020000D01*
X019950Y038750D02*
Y038850D01*
X019800Y041050D02*
X019900D01*
X019850Y041000D02*
Y041100D01*
X020500Y037900D02*
X020600D01*
X020550Y037850D02*
Y037950D01*
X028450Y025200D02*
X028550D01*
X028500Y025150D02*
Y025250D01*
X028450Y025800D02*
X028550D01*
X028500Y025750D02*
Y025850D01*
X028550Y035400D02*
X028650D01*
X028600Y035350D02*
Y035450D01*
X028550Y036000D02*
X028650D01*
X028600Y035950D02*
Y036050D01*
X020575Y028850D02*
X020725D01*
X020650Y028775D02*
Y028925D01*
X021375Y032950D02*
X021525D01*
X021450Y032875D02*
Y033025D01*
X020550Y037500D02*
X020650D01*
X020600Y037450D02*
Y037550D01*
X020900Y037400D02*
X021000D01*
X020950Y037350D02*
Y037450D01*
X021650Y037150D02*
X021750D01*
X021700Y037100D02*
Y037200D01*
X022100Y037250D02*
X022200D01*
X022150Y037200D02*
Y037300D01*
X022450Y037400D02*
X022550D01*
X022500Y037350D02*
Y037450D01*
X022800Y037550D02*
X022900D01*
X022850Y037500D02*
Y037600D01*
X023050Y037800D02*
X023150D01*
X023100Y037750D02*
Y037850D01*
X021700Y034350D02*
X021800D01*
X021750Y034300D02*
Y034400D01*
X022200Y036150D02*
X022300D01*
X022250Y036100D02*
Y036200D01*
X044240Y052750D02*
X044360D01*
X044300Y052690D02*
Y052810D01*
X020425Y030600D02*
X020575D01*
X020500Y030525D02*
Y030675D01*
X033040Y031750D02*
X033160D01*
X033100Y031690D02*
Y031810D01*
X037950Y032650D02*
X038250D01*
X038100Y032500D02*
Y032800D01*
X039090Y051750D02*
X039210D01*
X039150Y051690D02*
Y051810D01*
X030590Y017850D02*
X030710D01*
X030650Y017790D02*
Y017910D01*
X031890Y018200D02*
X032010D01*
X031950Y018140D02*
Y018260D01*
X034090Y017200D02*
X034210D01*
X034150Y017140D02*
Y017260D01*
X032040Y017400D02*
X032160D01*
X032100Y017340D02*
Y017460D01*
X028090Y015700D02*
X028210D01*
X028150Y015640D02*
Y015760D01*
X034790Y019950D02*
X034910D01*
X034850Y019890D02*
Y020010D01*
X035190Y019400D02*
X035310D01*
X035250Y019340D02*
Y019460D01*
X035490Y019100D02*
X035610D01*
X035550Y019040D02*
Y019160D01*
X036990Y046100D02*
X037110D01*
X037050Y046040D02*
Y046160D01*
X037790Y050550D02*
X037910D01*
X037850Y050490D02*
Y050610D01*
X037540Y050850D02*
X037660D01*
X037600Y050790D02*
Y050910D01*
X037290Y051150D02*
X037410D01*
X037350Y051090D02*
Y051210D01*
X038190Y046400D02*
X038310D01*
X038250Y046340D02*
Y046460D01*
X037290Y051650D02*
X037410D01*
X037350Y051590D02*
Y051710D01*
X040440Y016700D02*
X040560D01*
X040500Y016640D02*
Y016760D01*
X040090Y016900D02*
X040210D01*
X040150Y016840D02*
Y016960D01*
X039790Y017300D02*
X039910D01*
X039850Y017240D02*
Y017360D01*
X039590Y017650D02*
X039710D01*
X039650Y017590D02*
Y017710D01*
X039390Y018000D02*
X039510D01*
X039450Y017940D02*
Y018060D01*
X039190Y019700D02*
X039310D01*
X039250Y019640D02*
Y019760D01*
X039190Y020250D02*
X039310D01*
X039250Y020190D02*
Y020310D01*
X042140Y044650D02*
X042260D01*
X042200Y044590D02*
Y044710D01*
X040840Y044650D02*
X040960D01*
X040900Y044590D02*
Y044710D01*
X043440Y044650D02*
X043560D01*
X043500Y044590D02*
Y044710D01*
X045490Y023200D02*
X045610D01*
X045550Y023140D02*
Y023260D01*
X045940Y023200D02*
X046060D01*
X046000Y023140D02*
Y023260D01*
X046390Y023200D02*
X046510D01*
X046450Y023140D02*
Y023260D01*
X048640Y047950D02*
X048760D01*
X048700Y047890D02*
Y048010D01*
X034525Y028000D02*
X034675D01*
X034600Y027925D02*
Y028075D01*
X026950Y031750D02*
X027150D01*
X027050Y031650D02*
Y031850D01*
X028300Y031750D02*
X028500D01*
X028400Y031650D02*
Y031850D01*
X028300Y029650D02*
X028500D01*
X028400Y029550D02*
Y029750D01*
X026950Y029650D02*
X027150D01*
X027050Y029550D02*
Y029750D01*
X038090Y022600D02*
X038210D01*
X038150Y022540D02*
Y022660D01*
X039950Y012900D02*
X040050D01*
X040000Y012850D02*
Y012950D01*
X043390Y015050D02*
X043510D01*
X043450Y014990D02*
Y015110D01*
X020540Y036900D02*
X020660D01*
X020600Y036840D02*
Y036960D01*
X032690Y020450D02*
X032810D01*
X032750Y020390D02*
Y020510D01*
X037840Y015950D02*
X037960D01*
X037900Y015890D02*
Y016010D01*
X037690Y016350D02*
X037810D01*
X037750Y016290D02*
Y016410D01*
X033840Y017750D02*
X033960D01*
X033900Y017690D02*
Y017810D01*
X039190Y016000D02*
X039310D01*
X039250Y015940D02*
Y016060D01*
X034090Y025550D02*
X034210D01*
X034150Y025490D02*
Y025610D01*
X032819Y034950D02*
X032969D01*
X032894Y034875D02*
Y035025D01*
X030990Y026250D02*
X031110D01*
X031050Y026190D02*
Y026310D01*
X037275Y026300D02*
X037425D01*
X037350Y026225D02*
Y026375D01*
X050640Y021250D02*
X050760D01*
X050700Y021190D02*
Y021310D01*
X049090Y021700D02*
X049210D01*
X049150Y021640D02*
Y021760D01*
X048725Y022800D02*
X048875D01*
X048800Y022725D02*
Y022875D01*
X033475Y029150D02*
X033625D01*
X033550Y029075D02*
Y029225D01*
X036940Y014450D02*
X037060D01*
X037000Y014390D02*
Y014510D01*
X035325Y023550D02*
X035475D01*
X035400Y023475D02*
Y023625D01*
X039140Y024050D02*
X039260D01*
X039200Y023990D02*
Y024110D01*
X037790Y023800D02*
X037910D01*
X037850Y023740D02*
Y023860D01*
X054540Y029500D02*
X054660D01*
X054600Y029440D02*
Y029560D01*
X054040Y042050D02*
X054160D01*
X054100Y041990D02*
Y042110D01*
X044190Y035400D02*
X044310D01*
X044250Y035340D02*
Y035460D01*
X044190Y033750D02*
X044310D01*
X044250Y033690D02*
Y033810D01*
X032540Y036300D02*
X032660D01*
X032600Y036240D02*
Y036360D01*
X045190Y014850D02*
X045310D01*
X045250Y014790D02*
Y014910D01*
X044740Y016150D02*
X044860D01*
X044800Y016090D02*
Y016210D01*
X042590Y020750D02*
X042710D01*
X042650Y020690D02*
Y020810D01*
X046690Y022400D02*
X046810D01*
X046750Y022340D02*
Y022460D01*
X050690Y023250D02*
X050810D01*
X050750Y023190D02*
Y023310D01*
X048490Y014600D02*
X048610D01*
X048550Y014540D02*
Y014660D01*
X039390Y011500D02*
X039510D01*
X039450Y011440D02*
Y011560D01*
X046090Y015850D02*
X046210D01*
X046150Y015790D02*
Y015910D01*
X046090Y015350D02*
X046210D01*
X046150Y015290D02*
Y015410D01*
X045540Y015200D02*
X045660D01*
X045600Y015140D02*
Y015260D01*
X046140Y016300D02*
X046260D01*
X046200Y016240D02*
Y016360D01*
X042690Y037400D02*
X042810D01*
X042750Y037340D02*
Y037460D01*
X045050Y037400D02*
X045150D01*
X045100Y037350D02*
Y037450D01*
X044313Y015323D02*
X044433D01*
X044373Y015263D02*
Y015383D01*
X045050Y031700D02*
X045150D01*
X045100Y031650D02*
Y031750D01*
X043890Y015250D02*
X044010D01*
X043950Y015190D02*
Y015310D01*
X045050Y032400D02*
X045150D01*
X045100Y032350D02*
Y032450D01*
X047490Y015800D02*
X047610D01*
X047550Y015740D02*
Y015860D01*
X045040Y034400D02*
X045160D01*
X045100Y034340D02*
Y034460D01*
X047790Y015500D02*
X047910D01*
X047850Y015440D02*
Y015560D01*
X042690Y038350D02*
X042810D01*
X042750Y038290D02*
Y038410D01*
X045050Y038350D02*
X045150D01*
X045100Y038300D02*
Y038400D01*
X047890Y015100D02*
X048010D01*
X047950Y015040D02*
Y015160D01*
X045050Y039300D02*
X045150D01*
X045100Y039250D02*
Y039350D01*
X040940Y023150D02*
X041060D01*
X041000Y023090D02*
Y023210D01*
X040940Y035700D02*
X041060D01*
X041000Y035640D02*
Y035760D01*
X053525Y026000D02*
X054975D01*
X054250Y025275D02*
Y026725D01*
X012025Y012000D02*
X013475D01*
X012750Y011275D02*
Y012725D01*
X053525Y056250D02*
X054975D01*
X054250Y055525D02*
Y056975D01*
M02*
