%FSAX24Y24*%
%MOIN*%
G70*
G01*
G75*
G04 Layer_Color=16711935*
%ADD10R,0.0512X0.0748*%
%ADD11R,0.0700X0.0650*%
%ADD12R,0.0350X0.0350*%
%ADD13R,0.0350X0.0350*%
%ADD14R,0.3500X0.4200*%
%ADD15R,0.0900X0.0700*%
%ADD16R,0.0374X0.0189*%
%ADD17R,0.0550X0.0400*%
%ADD18R,0.0650X0.0700*%
%ADD19R,0.0512X0.0110*%
%ADD20R,0.0110X0.0512*%
%ADD21R,0.0600X0.0650*%
G04:AMPARAMS|DCode=22|XSize=65mil|YSize=60mil|CornerRadius=15mil|HoleSize=0mil|Usage=FLASHONLY|Rotation=270.000|XOffset=0mil|YOffset=0mil|HoleType=Round|Shape=RoundedRectangle|*
%AMROUNDEDRECTD22*
21,1,0.0650,0.0300,0,0,270.0*
21,1,0.0350,0.0600,0,0,270.0*
1,1,0.0300,-0.0150,-0.0175*
1,1,0.0300,-0.0150,0.0175*
1,1,0.0300,0.0150,0.0175*
1,1,0.0300,0.0150,-0.0175*
%
%ADD22ROUNDEDRECTD22*%
%ADD23R,0.0236X0.0472*%
%ADD24R,0.0260X0.0800*%
%ADD25R,0.0709X0.0551*%
G04:AMPARAMS|DCode=26|XSize=70.9mil|YSize=55.1mil|CornerRadius=13.8mil|HoleSize=0mil|Usage=FLASHONLY|Rotation=180.000|XOffset=0mil|YOffset=0mil|HoleType=Round|Shape=RoundedRectangle|*
%AMROUNDEDRECTD26*
21,1,0.0709,0.0276,0,0,180.0*
21,1,0.0433,0.0551,0,0,180.0*
1,1,0.0276,-0.0217,0.0138*
1,1,0.0276,0.0217,0.0138*
1,1,0.0276,0.0217,-0.0138*
1,1,0.0276,-0.0217,-0.0138*
%
%ADD26ROUNDEDRECTD26*%
%ADD27R,0.1280X0.0846*%
%ADD28R,0.0374X0.0846*%
%ADD29R,0.0800X0.0260*%
%ADD30R,0.0140X0.0701*%
%ADD31R,0.0787X0.0472*%
%ADD32R,0.0591X0.0394*%
%ADD33R,0.0532X0.0138*%
%ADD34R,0.0138X0.0532*%
%ADD35R,0.0400X0.0550*%
%ADD36R,0.0098X0.0610*%
%ADD37R,0.0571X0.0098*%
%ADD38R,0.0571X0.0177*%
%ADD39R,0.1500X0.0800*%
%ADD40R,0.0800X0.1500*%
%ADD41C,0.0100*%
%ADD42C,0.0120*%
%ADD43C,0.0110*%
%ADD44C,0.0150*%
%ADD45C,0.0130*%
%ADD46C,0.0200*%
%ADD47C,0.0300*%
%ADD48C,0.0600*%
%ADD49R,0.0600X0.0600*%
%ADD50R,0.0600X0.0600*%
%ADD51C,0.0591*%
%ADD52C,0.0551*%
%ADD53C,0.0886*%
%ADD54C,0.1772*%
%ADD55C,0.0220*%
%ADD56C,0.0250*%
%ADD57C,0.1600*%
%ADD58C,0.0689*%
%ADD59C,0.0300*%
%ADD60C,0.0500*%
%ADD61C,0.0400*%
%ADD62C,0.2500*%
%ADD63C,0.0079*%
%ADD64C,0.0500*%
%ADD65C,0.0060*%
%ADD66C,0.0070*%
%ADD67C,0.0020*%
%ADD68R,0.0434X0.0249*%
%ADD69R,0.0320X0.0860*%
%ADD70R,0.1340X0.0906*%
%ADD71R,0.0434X0.0906*%
%ADD72R,0.0860X0.0320*%
%ADD73R,0.0180X0.0741*%
%ADD74R,0.0610X0.0138*%
%ADD75R,0.0591X0.0197*%
%ADD76R,0.8500X1.1250*%
%ADD77R,0.5000X0.2750*%
D12*
X031300Y016400D02*
D03*
X030700D02*
D03*
D13*
X029600Y017500D02*
D03*
Y018100D02*
D03*
D48*
X054750Y018000D02*
D03*
Y016000D02*
D03*
Y017000D02*
D03*
X053750Y016000D02*
D03*
Y014000D02*
D03*
X054750Y015000D02*
D03*
X053750D02*
D03*
Y017000D02*
D03*
Y018000D02*
D03*
X054750Y019000D02*
D03*
X053750D02*
D03*
X054750Y020000D02*
D03*
X053750D02*
D03*
X054750Y021000D02*
D03*
X053750D02*
D03*
X054750Y022000D02*
D03*
X053750D02*
D03*
X054750Y023000D02*
D03*
X053750D02*
D03*
X037850Y030850D02*
D03*
X036850D02*
D03*
X014750Y048050D02*
D03*
Y049231D02*
D03*
Y050412D02*
D03*
Y051593D02*
D03*
Y052774D02*
D03*
Y053955D02*
D03*
Y055137D02*
D03*
X015734Y048641D02*
D03*
Y049822D02*
D03*
Y051003D02*
D03*
Y052184D02*
D03*
Y053365D02*
D03*
Y054546D02*
D03*
X016915Y048641D02*
D03*
Y049822D02*
D03*
Y051003D02*
D03*
Y052184D02*
D03*
Y053365D02*
D03*
Y054546D02*
D03*
X017900Y048050D02*
D03*
Y049231D02*
D03*
Y050412D02*
D03*
Y051593D02*
D03*
Y052774D02*
D03*
Y053956D02*
D03*
Y055137D02*
D03*
X014750Y030400D02*
D03*
Y031581D02*
D03*
Y032762D02*
D03*
Y033943D02*
D03*
Y035124D02*
D03*
Y036305D02*
D03*
Y037487D02*
D03*
X015734Y030991D02*
D03*
Y032172D02*
D03*
Y033353D02*
D03*
Y034534D02*
D03*
Y035715D02*
D03*
Y036896D02*
D03*
X016915Y030991D02*
D03*
Y032172D02*
D03*
Y033353D02*
D03*
Y034534D02*
D03*
Y035715D02*
D03*
Y036896D02*
D03*
X017900Y030400D02*
D03*
Y031581D02*
D03*
Y032762D02*
D03*
Y033943D02*
D03*
Y035124D02*
D03*
Y036306D02*
D03*
Y037487D02*
D03*
X051000Y014100D02*
D03*
Y015100D02*
D03*
Y017500D02*
D03*
X015750Y023750D02*
D03*
X054050Y011200D02*
D03*
X050250D02*
D03*
X049250D02*
D03*
D49*
X054750Y014000D02*
D03*
X051000Y013100D02*
D03*
Y016500D02*
D03*
D50*
X038850Y030850D02*
D03*
X016750Y023750D02*
D03*
X053050Y011200D02*
D03*
X051250D02*
D03*
D51*
X019820Y020746D02*
D03*
Y019746D02*
D03*
Y016054D02*
D03*
Y015054D02*
D03*
D52*
X018848Y019896D02*
D03*
Y015900D02*
D03*
Y019097D02*
D03*
Y018298D02*
D03*
Y017498D02*
D03*
Y016699D02*
D03*
D53*
X013202Y014723D02*
D03*
X013170Y021109D02*
D03*
D54*
X014450Y015400D02*
D03*
Y020400D02*
D03*
D55*
X032950Y014200D02*
D03*
X040000Y048350D02*
D03*
X029350Y041850D02*
D03*
X024300Y043150D02*
D03*
X029400Y047250D02*
D03*
X024100D02*
D03*
X024450Y053450D02*
D03*
X029300Y052650D02*
D03*
X029450Y058050D02*
D03*
X024150D02*
D03*
X038750Y022500D02*
D03*
X039250Y014850D02*
D03*
X039600Y013600D02*
D03*
X037850Y015450D02*
D03*
X027400Y021100D02*
D03*
X028750Y019950D02*
D03*
X027950D02*
D03*
X033850Y015300D02*
D03*
X029850Y015000D02*
D03*
X029250Y016900D02*
D03*
X030050Y016400D02*
D03*
X030000Y012200D02*
D03*
X028800Y015300D02*
D03*
X029150D02*
D03*
X028900Y017050D02*
D03*
Y017400D02*
D03*
X022350Y015050D02*
D03*
Y019850D02*
D03*
X029550Y013250D02*
D03*
X026100Y051900D02*
D03*
X031400D02*
D03*
X030900Y051050D02*
D03*
X025600D02*
D03*
X031400Y057300D02*
D03*
X030900Y056400D02*
D03*
X031400Y046450D02*
D03*
X030900Y045650D02*
D03*
X026100Y046450D02*
D03*
X025600Y045600D02*
D03*
X030900Y040200D02*
D03*
X031400Y041050D02*
D03*
X025600Y040150D02*
D03*
X045100Y036700D02*
D03*
X032100Y052400D02*
D03*
Y050500D02*
D03*
X026800Y052400D02*
D03*
Y050500D02*
D03*
X032100Y057800D02*
D03*
Y055900D02*
D03*
Y047000D02*
D03*
Y045100D02*
D03*
X026800Y041600D02*
D03*
Y039700D02*
D03*
X032100Y041600D02*
D03*
Y039700D02*
D03*
X026800Y045100D02*
D03*
Y047000D02*
D03*
Y055900D02*
D03*
Y057750D02*
D03*
X021000Y045750D02*
D03*
X019947Y045353D02*
D03*
Y044447D02*
D03*
X021000Y044000D02*
D03*
Y048100D02*
D03*
X019900Y047600D02*
D03*
X021000Y057150D02*
D03*
X019850Y057600D02*
D03*
Y058500D02*
D03*
X021000Y059000D02*
D03*
X019900Y046700D02*
D03*
X021000Y046250D02*
D03*
X019950Y055450D02*
D03*
X019900Y056350D02*
D03*
X021000Y056800D02*
D03*
Y055000D02*
D03*
Y048450D02*
D03*
X019900Y048850D02*
D03*
Y049800D02*
D03*
X021000Y050250D02*
D03*
Y050650D02*
D03*
X019900Y051100D02*
D03*
Y052000D02*
D03*
X021000Y052450D02*
D03*
X022350Y020600D02*
D03*
X026050Y019750D02*
D03*
X024250Y019250D02*
D03*
Y016250D02*
D03*
X026050Y016750D02*
D03*
X028750Y018250D02*
D03*
X031500Y015900D02*
D03*
X032150Y018900D02*
D03*
X030800Y021300D02*
D03*
X032900D02*
D03*
X020650Y051550D02*
D03*
Y058050D02*
D03*
Y055900D02*
D03*
Y049350D02*
D03*
Y047150D02*
D03*
Y044900D02*
D03*
X034000Y047550D02*
D03*
X034750Y049150D02*
D03*
X042600Y051750D02*
D03*
X044650Y050850D02*
D03*
X043550Y049700D02*
D03*
X039500D02*
D03*
X045650Y048450D02*
D03*
X044750Y046350D02*
D03*
X048000Y055950D02*
D03*
X021850Y051700D02*
D03*
X021450Y049800D02*
D03*
X021900Y054650D02*
D03*
X022150Y055000D02*
D03*
X019950Y038800D02*
D03*
X019850Y041050D02*
D03*
X020550Y037900D02*
D03*
X028500Y025200D02*
D03*
Y025800D02*
D03*
X028600Y035400D02*
D03*
Y036000D02*
D03*
X020600Y037500D02*
D03*
X020950Y037400D02*
D03*
X021700Y037150D02*
D03*
X022150Y037250D02*
D03*
X022500Y037400D02*
D03*
X022850Y037550D02*
D03*
X023100Y037800D02*
D03*
X021750Y034350D02*
D03*
X022250Y036150D02*
D03*
X030650Y017850D02*
D03*
X031950Y018200D02*
D03*
X034150Y017200D02*
D03*
X032100Y017400D02*
D03*
X034850Y019950D02*
D03*
X035250Y019400D02*
D03*
X035550Y019100D02*
D03*
X037850Y050550D02*
D03*
X037600Y050850D02*
D03*
X037350Y051150D02*
D03*
X038250Y046400D02*
D03*
X037350Y051650D02*
D03*
X040500Y016700D02*
D03*
X040150Y016900D02*
D03*
X039850Y017300D02*
D03*
X039650Y017650D02*
D03*
X039450Y018000D02*
D03*
X039250Y019700D02*
D03*
Y020250D02*
D03*
X043500Y044650D02*
D03*
X045550Y023200D02*
D03*
X046000D02*
D03*
X046450D02*
D03*
X048700Y047950D02*
D03*
X038150Y022600D02*
D03*
X040000Y012900D02*
D03*
X043450Y015050D02*
D03*
X020600Y036900D02*
D03*
X032750Y020450D02*
D03*
X037900Y015950D02*
D03*
X037750Y016350D02*
D03*
X033900Y017750D02*
D03*
X039250Y016000D02*
D03*
X034150Y025550D02*
D03*
X031050Y026250D02*
D03*
X037000Y014450D02*
D03*
X039200Y024050D02*
D03*
X037850Y023800D02*
D03*
X054600Y029500D02*
D03*
X054100Y042050D02*
D03*
X044250Y035400D02*
D03*
Y033750D02*
D03*
X032600Y036300D02*
D03*
X045250Y014850D02*
D03*
X044800Y016150D02*
D03*
X042650Y020750D02*
D03*
X046750Y022400D02*
D03*
X050750Y023250D02*
D03*
X048550Y014600D02*
D03*
X046150Y015850D02*
D03*
Y015350D02*
D03*
X045600Y015200D02*
D03*
X046200Y016300D02*
D03*
X042750Y037400D02*
D03*
X045100D02*
D03*
X044373Y015323D02*
D03*
X045100Y031700D02*
D03*
X043950Y015250D02*
D03*
X045100Y032400D02*
D03*
X047550Y015800D02*
D03*
X045100Y034400D02*
D03*
X047850Y015500D02*
D03*
X042750Y038350D02*
D03*
X045100D02*
D03*
X047950Y015100D02*
D03*
X045100Y039300D02*
D03*
X041000Y023150D02*
D03*
Y035700D02*
D03*
D56*
X030900Y019850D02*
D03*
X030400Y019900D02*
D03*
X029950Y019850D02*
D03*
X038000Y012350D02*
D03*
Y011000D02*
D03*
X044050Y027650D02*
D03*
X044400Y023200D02*
D03*
X044850D02*
D03*
X044050Y026250D02*
D03*
X046800Y027450D02*
D03*
X021750Y035750D02*
D03*
X021550Y025500D02*
D03*
X046650D02*
D03*
X038700Y025050D02*
D03*
X037550Y013300D02*
D03*
X047700Y011250D02*
D03*
X026100Y041100D02*
D03*
X038950Y026950D02*
D03*
X043500Y025800D02*
D03*
X043250Y032150D02*
D03*
X043700Y036100D02*
D03*
X044050Y023950D02*
D03*
X048850Y019250D02*
D03*
Y018650D02*
D03*
Y017450D02*
D03*
Y016850D02*
D03*
X046500Y012200D02*
D03*
X045900D02*
D03*
X043800D02*
D03*
X043200D02*
D03*
X041650D02*
D03*
X041050D02*
D03*
X036550Y016700D02*
D03*
Y017300D02*
D03*
Y018650D02*
D03*
Y019250D02*
D03*
Y021350D02*
D03*
Y021950D02*
D03*
X045100Y024550D02*
D03*
X043000D02*
D03*
X022350Y016000D02*
D03*
X044300Y052750D02*
D03*
X033100Y031750D02*
D03*
X039150Y051750D02*
D03*
X028150Y015700D02*
D03*
X037050Y046100D02*
D03*
X042200Y044650D02*
D03*
X040900D02*
D03*
X050700Y021250D02*
D03*
X049150Y021700D02*
D03*
X039450Y011500D02*
D03*
D57*
X012191Y045196D02*
D03*
Y057991D02*
D03*
Y027546D02*
D03*
Y040341D02*
D03*
D58*
X055421Y030891D02*
D03*
Y040399D02*
D03*
D59*
X020650Y028850D02*
D03*
X021450Y032950D02*
D03*
X020500Y030600D02*
D03*
X034600Y028000D02*
D03*
X032894Y034950D02*
D03*
X037350Y026300D02*
D03*
X048800Y022800D02*
D03*
X033550Y029150D02*
D03*
X035400Y023550D02*
D03*
D60*
X038100Y032650D02*
D03*
D61*
X027050Y031750D02*
D03*
X028400D02*
D03*
Y029650D02*
D03*
X027050D02*
D03*
D62*
X054250Y026000D02*
D03*
X012750Y012000D02*
D03*
X054250Y056250D02*
D03*
D76*
X026250Y027375D02*
D03*
D77*
X033500Y036875D02*
D03*
M02*
