%FSAX24Y24*%
%MOIN*%
G70*
G01*
G75*
G04 Layer_Physical_Order=2*
G04 Layer_Color=36540*
%ADD10R,0.0512X0.0748*%
%ADD11R,0.0700X0.0650*%
%ADD12R,0.0350X0.0350*%
%ADD13R,0.0350X0.0350*%
%ADD14R,0.3500X0.4200*%
%ADD15R,0.0900X0.0700*%
%ADD16R,0.0374X0.0189*%
%ADD17R,0.0550X0.0400*%
%ADD18R,0.0650X0.0700*%
%ADD19R,0.0512X0.0110*%
%ADD20R,0.0110X0.0512*%
%ADD21R,0.0600X0.0650*%
G04:AMPARAMS|DCode=22|XSize=65mil|YSize=60mil|CornerRadius=15mil|HoleSize=0mil|Usage=FLASHONLY|Rotation=270.000|XOffset=0mil|YOffset=0mil|HoleType=Round|Shape=RoundedRectangle|*
%AMROUNDEDRECTD22*
21,1,0.0650,0.0300,0,0,270.0*
21,1,0.0350,0.0600,0,0,270.0*
1,1,0.0300,-0.0150,-0.0175*
1,1,0.0300,-0.0150,0.0175*
1,1,0.0300,0.0150,0.0175*
1,1,0.0300,0.0150,-0.0175*
%
%ADD22ROUNDEDRECTD22*%
%ADD23R,0.0236X0.0472*%
%ADD24R,0.0260X0.0800*%
%ADD25R,0.0709X0.0551*%
G04:AMPARAMS|DCode=26|XSize=70.9mil|YSize=55.1mil|CornerRadius=13.8mil|HoleSize=0mil|Usage=FLASHONLY|Rotation=180.000|XOffset=0mil|YOffset=0mil|HoleType=Round|Shape=RoundedRectangle|*
%AMROUNDEDRECTD26*
21,1,0.0709,0.0276,0,0,180.0*
21,1,0.0433,0.0551,0,0,180.0*
1,1,0.0276,-0.0217,0.0138*
1,1,0.0276,0.0217,0.0138*
1,1,0.0276,0.0217,-0.0138*
1,1,0.0276,-0.0217,-0.0138*
%
%ADD26ROUNDEDRECTD26*%
%ADD27R,0.1280X0.0846*%
%ADD28R,0.0374X0.0846*%
%ADD29R,0.0800X0.0260*%
%ADD30R,0.0140X0.0701*%
%ADD31R,0.0787X0.0472*%
%ADD32R,0.0591X0.0394*%
%ADD33R,0.0532X0.0138*%
%ADD34R,0.0138X0.0532*%
%ADD35R,0.0400X0.0550*%
%ADD36R,0.0098X0.0610*%
%ADD37R,0.0571X0.0098*%
%ADD38R,0.0571X0.0177*%
%ADD39R,0.1500X0.0800*%
%ADD40R,0.0800X0.1500*%
%ADD41C,0.0100*%
%ADD42C,0.0120*%
%ADD43C,0.0110*%
%ADD44C,0.0150*%
%ADD45C,0.0130*%
%ADD46C,0.0200*%
%ADD47C,0.0300*%
%ADD48C,0.0600*%
%ADD49R,0.0600X0.0600*%
%ADD50R,0.0600X0.0600*%
%ADD51C,0.0591*%
%ADD52C,0.0551*%
%ADD53C,0.0886*%
%ADD54C,0.1772*%
%ADD55C,0.0220*%
%ADD56C,0.0250*%
%ADD57C,0.1600*%
%ADD58C,0.0689*%
%ADD59C,0.0300*%
%ADD60C,0.0500*%
%ADD61C,0.0400*%
%ADD62C,0.2500*%
G36*
X057296Y010204D02*
X010239Y010204D01*
X010204Y010239D01*
Y014296D01*
X011950D01*
X011988Y014312D01*
X012004Y014350D01*
Y021500D01*
X011988Y021538D01*
X011950Y021554D01*
X010204D01*
Y059796D01*
X057296D01*
Y010204D01*
D02*
G37*
%LPC*%
G36*
X053700Y021397D02*
X053646Y021390D01*
X053548Y021349D01*
X053465Y021285D01*
X053401Y021202D01*
X053360Y021104D01*
X053353Y021050D01*
X053700D01*
Y021397D01*
D02*
G37*
G36*
X053800D02*
Y021050D01*
X054147D01*
X054140Y021104D01*
X054099Y021202D01*
X054035Y021285D01*
X053952Y021349D01*
X053854Y021390D01*
X053800Y021397D01*
D02*
G37*
G36*
X050919Y021200D02*
X050750D01*
Y021031D01*
X050788Y021038D01*
X050862Y021088D01*
X050912Y021162D01*
X050919Y021200D01*
D02*
G37*
G36*
X027400Y021263D02*
X027338Y021251D01*
X027285Y021215D01*
X027249Y021162D01*
X027237Y021100D01*
X027249Y021038D01*
X027285Y020985D01*
X027338Y020949D01*
X027400Y020937D01*
X027462Y020949D01*
X027515Y020985D01*
X027551Y021038D01*
X027563Y021100D01*
X027551Y021162D01*
X027515Y021215D01*
X027462Y021251D01*
X027400Y021263D01*
D02*
G37*
G36*
X050650Y021200D02*
X050481D01*
X050488Y021162D01*
X050538Y021088D01*
X050612Y021038D01*
X050650Y021031D01*
Y021200D01*
D02*
G37*
G36*
X013120Y021650D02*
X013029Y021638D01*
X012897Y021583D01*
X012783Y021496D01*
X012696Y021382D01*
X012642Y021250D01*
X012629Y021159D01*
X013120D01*
Y021650D01*
D02*
G37*
G36*
X036550Y021528D02*
X036482Y021515D01*
X036424Y021476D01*
X036385Y021418D01*
X036372Y021350D01*
X036385Y021282D01*
X036424Y021224D01*
X036482Y021185D01*
X036550Y021172D01*
X036618Y021185D01*
X036676Y021224D01*
X036715Y021282D01*
X036728Y021350D01*
X036715Y021418D01*
X036676Y021476D01*
X036618Y021515D01*
X036550Y021528D01*
D02*
G37*
G36*
X030800Y021463D02*
X030738Y021451D01*
X030685Y021415D01*
X030649Y021362D01*
X030637Y021300D01*
X030649Y021238D01*
X030685Y021185D01*
X030738Y021149D01*
X030800Y021137D01*
X030862Y021149D01*
X030915Y021185D01*
X030951Y021238D01*
X030963Y021300D01*
X030951Y021362D01*
X030915Y021415D01*
X030862Y021451D01*
X030800Y021463D01*
D02*
G37*
G36*
X032850Y021250D02*
X032696D01*
X032702Y021218D01*
X032749Y021149D01*
X032818Y021102D01*
X032850Y021096D01*
Y021250D01*
D02*
G37*
G36*
X033104D02*
X032950D01*
Y021096D01*
X032982Y021102D01*
X033051Y021149D01*
X033098Y021218D01*
X033104Y021250D01*
D02*
G37*
G36*
X013120Y021059D02*
X012629D01*
X012642Y020967D01*
X012696Y020835D01*
X012783Y020721D01*
X012897Y020634D01*
X013029Y020580D01*
X013120Y020568D01*
Y021059D01*
D02*
G37*
G36*
X042650Y020913D02*
X042588Y020901D01*
X042535Y020865D01*
X042499Y020812D01*
X042487Y020750D01*
X042499Y020688D01*
X042535Y020635D01*
X042588Y020599D01*
X042650Y020587D01*
X042712Y020599D01*
X042765Y020635D01*
X042801Y020688D01*
X042813Y020750D01*
X042801Y020812D01*
X042765Y020865D01*
X042712Y020901D01*
X042650Y020913D01*
D02*
G37*
G36*
X014500Y021386D02*
Y020450D01*
X015436D01*
X015422Y020593D01*
X015365Y020779D01*
X015274Y020950D01*
X015150Y021100D01*
X015000Y021224D01*
X014829Y021315D01*
X014643Y021372D01*
X014500Y021386D01*
D02*
G37*
G36*
X019820Y021095D02*
X019730Y021083D01*
X019646Y021048D01*
X019574Y020993D01*
X019518Y020921D01*
X019484Y020837D01*
X019472Y020746D01*
X019484Y020656D01*
X019518Y020572D01*
X019574Y020500D01*
X019646Y020445D01*
X019730Y020410D01*
X019820Y020398D01*
X019910Y020410D01*
X019994Y020445D01*
X020066Y020500D01*
X020122Y020572D01*
X020156Y020656D01*
X020168Y020746D01*
X020156Y020837D01*
X020122Y020921D01*
X020066Y020993D01*
X019994Y021048D01*
X019910Y021083D01*
X019820Y021095D01*
D02*
G37*
G36*
X013220Y021650D02*
Y021109D01*
Y020568D01*
X013312Y020580D01*
X013444Y020634D01*
X013481Y020601D01*
X013478Y020593D01*
X013464Y020450D01*
X014400D01*
Y021386D01*
X014257Y021372D01*
X014071Y021315D01*
X013900Y021224D01*
X013762Y021111D01*
X013715Y021129D01*
X013699Y021250D01*
X013645Y021382D01*
X013558Y021496D01*
X013444Y021583D01*
X013312Y021638D01*
X013220Y021650D01*
D02*
G37*
G36*
X022300Y020804D02*
X022268Y020798D01*
X022199Y020751D01*
X022152Y020682D01*
X022146Y020650D01*
X022300D01*
Y020804D01*
D02*
G37*
G36*
X022400D02*
Y020650D01*
X022554D01*
X022548Y020682D01*
X022501Y020751D01*
X022432Y020798D01*
X022400Y020804D01*
D02*
G37*
G36*
X054750Y021353D02*
X054659Y021341D01*
X054573Y021306D01*
X054500Y021250D01*
X054444Y021177D01*
X054409Y021091D01*
X054397Y021000D01*
X054409Y020909D01*
X054444Y020823D01*
X054500Y020750D01*
X054573Y020694D01*
X054659Y020659D01*
X054750Y020647D01*
X054841Y020659D01*
X054927Y020694D01*
X055000Y020750D01*
X055056Y020823D01*
X055091Y020909D01*
X055103Y021000D01*
X055091Y021091D01*
X055056Y021177D01*
X055000Y021250D01*
X054927Y021306D01*
X054841Y021341D01*
X054750Y021353D01*
D02*
G37*
G36*
X053700Y020950D02*
X053353D01*
X053360Y020896D01*
X053401Y020798D01*
X053465Y020715D01*
X053548Y020651D01*
X053646Y020610D01*
X053700Y020603D01*
Y020950D01*
D02*
G37*
G36*
X054147D02*
X053800D01*
Y020603D01*
X053854Y020610D01*
X053952Y020651D01*
X054035Y020715D01*
X054099Y020798D01*
X054140Y020896D01*
X054147Y020950D01*
D02*
G37*
G36*
X036500Y022169D02*
X036462Y022162D01*
X036388Y022112D01*
X036338Y022038D01*
X036331Y022000D01*
X036500D01*
Y022169D01*
D02*
G37*
G36*
X036600D02*
Y022000D01*
X036769D01*
X036762Y022038D01*
X036712Y022112D01*
X036638Y022162D01*
X036600Y022169D01*
D02*
G37*
G36*
X049200Y021919D02*
Y021750D01*
X049369D01*
X049362Y021788D01*
X049312Y021862D01*
X049238Y021912D01*
X049200Y021919D01*
D02*
G37*
G36*
X036769Y021900D02*
X036600D01*
Y021731D01*
X036638Y021738D01*
X036712Y021788D01*
X036762Y021862D01*
X036769Y021900D01*
D02*
G37*
G36*
X049100Y021919D02*
X049062Y021912D01*
X048988Y021862D01*
X048938Y021788D01*
X048931Y021750D01*
X049100D01*
Y021919D01*
D02*
G37*
G36*
X038750Y022663D02*
X038688Y022651D01*
X038635Y022615D01*
X038599Y022562D01*
X038587Y022500D01*
X038599Y022438D01*
X038635Y022385D01*
X038688Y022349D01*
X038750Y022337D01*
X038812Y022349D01*
X038865Y022385D01*
X038901Y022438D01*
X038913Y022500D01*
X038901Y022562D01*
X038865Y022615D01*
X038812Y022651D01*
X038750Y022663D01*
D02*
G37*
G36*
X038150Y022763D02*
X038088Y022751D01*
X038035Y022715D01*
X037999Y022662D01*
X037987Y022600D01*
X037999Y022538D01*
X038035Y022485D01*
X038088Y022449D01*
X038150Y022437D01*
X038212Y022449D01*
X038265Y022485D01*
X038301Y022538D01*
X038313Y022600D01*
X038301Y022662D01*
X038265Y022715D01*
X038212Y022751D01*
X038150Y022763D01*
D02*
G37*
G36*
X046750Y022563D02*
X046688Y022551D01*
X046635Y022515D01*
X046599Y022462D01*
X046587Y022400D01*
X046599Y022338D01*
X046635Y022285D01*
X046688Y022249D01*
X046750Y022237D01*
X046812Y022249D01*
X046865Y022285D01*
X046901Y022338D01*
X046913Y022400D01*
X046901Y022462D01*
X046865Y022515D01*
X046812Y022551D01*
X046750Y022563D01*
D02*
G37*
G36*
X053700Y022397D02*
X053646Y022390D01*
X053548Y022349D01*
X053465Y022285D01*
X053401Y022202D01*
X053360Y022104D01*
X053353Y022050D01*
X053700D01*
Y022397D01*
D02*
G37*
G36*
X053800D02*
Y022050D01*
X054147D01*
X054140Y022104D01*
X054099Y022202D01*
X054035Y022285D01*
X053952Y022349D01*
X053854Y022390D01*
X053800Y022397D01*
D02*
G37*
G36*
X032950Y021504D02*
Y021350D01*
X033104D01*
X033098Y021382D01*
X033051Y021451D01*
X032982Y021498D01*
X032950Y021504D01*
D02*
G37*
G36*
X049100Y021650D02*
X048931D01*
X048938Y021612D01*
X048988Y021538D01*
X049062Y021488D01*
X049100Y021481D01*
Y021650D01*
D02*
G37*
G36*
X032850Y021504D02*
X032818Y021498D01*
X032749Y021451D01*
X032702Y021382D01*
X032696Y021350D01*
X032850D01*
Y021504D01*
D02*
G37*
G36*
X050650Y021469D02*
X050612Y021462D01*
X050538Y021412D01*
X050488Y021338D01*
X050481Y021300D01*
X050650D01*
Y021469D01*
D02*
G37*
G36*
X050750D02*
Y021300D01*
X050919D01*
X050912Y021338D01*
X050862Y021412D01*
X050788Y021462D01*
X050750Y021469D01*
D02*
G37*
G36*
X054750Y022353D02*
X054659Y022341D01*
X054573Y022306D01*
X054500Y022250D01*
X054444Y022177D01*
X054409Y022091D01*
X054397Y022000D01*
X054409Y021909D01*
X054444Y021823D01*
X054500Y021750D01*
X054573Y021694D01*
X054659Y021659D01*
X054750Y021647D01*
X054841Y021659D01*
X054927Y021694D01*
X055000Y021750D01*
X055056Y021823D01*
X055091Y021909D01*
X055103Y022000D01*
X055091Y022091D01*
X055056Y022177D01*
X055000Y022250D01*
X054927Y022306D01*
X054841Y022341D01*
X054750Y022353D01*
D02*
G37*
G36*
X036500Y021900D02*
X036331D01*
X036338Y021862D01*
X036388Y021788D01*
X036462Y021738D01*
X036500Y021731D01*
Y021900D01*
D02*
G37*
G36*
X054147Y021950D02*
X053800D01*
Y021603D01*
X053854Y021610D01*
X053952Y021651D01*
X054035Y021715D01*
X054099Y021798D01*
X054140Y021896D01*
X054147Y021950D01*
D02*
G37*
G36*
X049369Y021650D02*
X049200D01*
Y021481D01*
X049238Y021488D01*
X049312Y021538D01*
X049362Y021612D01*
X049369Y021650D01*
D02*
G37*
G36*
X053700Y021950D02*
X053353D01*
X053360Y021896D01*
X053401Y021798D01*
X053465Y021715D01*
X053548Y021651D01*
X053646Y021610D01*
X053700Y021603D01*
Y021950D01*
D02*
G37*
G36*
X022554Y020550D02*
X022400D01*
Y020396D01*
X022432Y020402D01*
X022501Y020449D01*
X022548Y020518D01*
X022554Y020550D01*
D02*
G37*
G36*
X048850Y019428D02*
X048782Y019415D01*
X048724Y019376D01*
X048685Y019318D01*
X048672Y019250D01*
X048685Y019182D01*
X048724Y019124D01*
X048782Y019085D01*
X048850Y019072D01*
X048918Y019085D01*
X048976Y019124D01*
X049015Y019182D01*
X049028Y019250D01*
X049015Y019318D01*
X048976Y019376D01*
X048918Y019415D01*
X048850Y019428D01*
D02*
G37*
G36*
X035250Y019563D02*
X035188Y019551D01*
X035135Y019515D01*
X035099Y019462D01*
X035087Y019400D01*
X035099Y019338D01*
X035135Y019285D01*
X035188Y019249D01*
X035250Y019237D01*
X035312Y019249D01*
X035365Y019285D01*
X035401Y019338D01*
X035413Y019400D01*
X035401Y019462D01*
X035365Y019515D01*
X035312Y019551D01*
X035250Y019563D01*
D02*
G37*
G36*
X053800Y019397D02*
Y019050D01*
X054147D01*
X054140Y019104D01*
X054099Y019202D01*
X054035Y019285D01*
X053952Y019349D01*
X053854Y019390D01*
X053800Y019397D01*
D02*
G37*
G36*
X024454Y019200D02*
X024300D01*
Y019046D01*
X024332Y019052D01*
X024401Y019099D01*
X024448Y019168D01*
X024454Y019200D01*
D02*
G37*
G36*
X053700Y019397D02*
X053646Y019390D01*
X053548Y019349D01*
X053465Y019285D01*
X053401Y019202D01*
X053360Y019104D01*
X053353Y019050D01*
X053700D01*
Y019397D01*
D02*
G37*
G36*
X036600Y019469D02*
Y019300D01*
X036769D01*
X036762Y019338D01*
X036712Y019412D01*
X036638Y019462D01*
X036600Y019469D01*
D02*
G37*
G36*
X019820Y020095D02*
X019730Y020083D01*
X019646Y020048D01*
X019574Y019993D01*
X019518Y019921D01*
X019484Y019837D01*
X019472Y019746D01*
X019484Y019656D01*
X019518Y019572D01*
X019574Y019500D01*
X019646Y019445D01*
X019730Y019410D01*
X019820Y019398D01*
X019910Y019410D01*
X019994Y019445D01*
X020066Y019500D01*
X020122Y019572D01*
X020156Y019656D01*
X020168Y019746D01*
X020156Y019837D01*
X020122Y019921D01*
X020066Y019993D01*
X019994Y020048D01*
X019910Y020083D01*
X019820Y020095D01*
D02*
G37*
G36*
X036500Y019469D02*
X036462Y019462D01*
X036388Y019412D01*
X036338Y019338D01*
X036331Y019300D01*
X036500D01*
Y019469D01*
D02*
G37*
G36*
X024200Y019454D02*
X024168Y019448D01*
X024099Y019401D01*
X024052Y019332D01*
X024046Y019300D01*
X024200D01*
Y019454D01*
D02*
G37*
G36*
X024300D02*
Y019300D01*
X024454D01*
X024448Y019332D01*
X024401Y019401D01*
X024332Y019448D01*
X024300Y019454D01*
D02*
G37*
G36*
X018848Y019425D02*
X018763Y019414D01*
X018683Y019381D01*
X018615Y019329D01*
X018563Y019261D01*
X018530Y019182D01*
X018519Y019097D01*
X018530Y019012D01*
X018563Y018933D01*
X018615Y018865D01*
X018683Y018812D01*
X018763Y018780D01*
X018848Y018768D01*
X018933Y018780D01*
X019012Y018812D01*
X019080Y018865D01*
X019132Y018933D01*
X019165Y019012D01*
X019176Y019097D01*
X019165Y019182D01*
X019132Y019261D01*
X019080Y019329D01*
X019012Y019381D01*
X018933Y019414D01*
X018848Y019425D01*
D02*
G37*
G36*
X035550Y019263D02*
X035488Y019251D01*
X035435Y019215D01*
X035399Y019162D01*
X035387Y019100D01*
X035399Y019038D01*
X035435Y018985D01*
X035488Y018949D01*
X035550Y018937D01*
X035612Y018949D01*
X035665Y018985D01*
X035701Y019038D01*
X035713Y019100D01*
X035701Y019162D01*
X035665Y019215D01*
X035612Y019251D01*
X035550Y019263D01*
D02*
G37*
G36*
X048900Y018869D02*
Y018700D01*
X049069D01*
X049062Y018738D01*
X049012Y018812D01*
X048938Y018862D01*
X048900Y018869D01*
D02*
G37*
G36*
X032354Y018850D02*
X032200D01*
Y018696D01*
X032232Y018702D01*
X032301Y018749D01*
X032348Y018818D01*
X032354Y018850D01*
D02*
G37*
G36*
X048800Y018869D02*
X048762Y018862D01*
X048688Y018812D01*
X048638Y018738D01*
X048631Y018700D01*
X048800D01*
Y018869D01*
D02*
G37*
G36*
X036769Y019200D02*
X036600D01*
Y019031D01*
X036638Y019038D01*
X036712Y019088D01*
X036762Y019162D01*
X036769Y019200D01*
D02*
G37*
G36*
X024200D02*
X024046D01*
X024052Y019168D01*
X024099Y019099D01*
X024168Y019052D01*
X024200Y019046D01*
Y019200D01*
D02*
G37*
G36*
X036500D02*
X036331D01*
X036338Y019162D01*
X036388Y019088D01*
X036462Y019038D01*
X036500Y019031D01*
Y019200D01*
D02*
G37*
G36*
X032100Y019104D02*
X032068Y019098D01*
X031999Y019051D01*
X031952Y018982D01*
X031946Y018950D01*
X032100D01*
Y019104D01*
D02*
G37*
G36*
X032200D02*
Y018950D01*
X032354D01*
X032348Y018982D01*
X032301Y019051D01*
X032232Y019098D01*
X032200Y019104D01*
D02*
G37*
G36*
X028750Y020113D02*
X028688Y020101D01*
X028635Y020065D01*
X028599Y020012D01*
X028587Y019950D01*
X028599Y019888D01*
X028635Y019835D01*
X028688Y019799D01*
X028750Y019787D01*
X028812Y019799D01*
X028865Y019835D01*
X028901Y019888D01*
X028913Y019950D01*
X028901Y020012D01*
X028865Y020065D01*
X028812Y020101D01*
X028750Y020113D01*
D02*
G37*
G36*
X034850D02*
X034788Y020101D01*
X034735Y020065D01*
X034699Y020012D01*
X034687Y019950D01*
X034699Y019888D01*
X034735Y019835D01*
X034788Y019799D01*
X034850Y019787D01*
X034912Y019799D01*
X034965Y019835D01*
X035001Y019888D01*
X035013Y019950D01*
X035001Y020012D01*
X034965Y020065D01*
X034912Y020101D01*
X034850Y020113D01*
D02*
G37*
G36*
X027950D02*
X027888Y020101D01*
X027835Y020065D01*
X027799Y020012D01*
X027787Y019950D01*
X027799Y019888D01*
X027835Y019835D01*
X027888Y019799D01*
X027950Y019787D01*
X028012Y019799D01*
X028065Y019835D01*
X028101Y019888D01*
X028113Y019950D01*
X028101Y020012D01*
X028065Y020065D01*
X028012Y020101D01*
X027950Y020113D01*
D02*
G37*
G36*
X022350Y020013D02*
X022288Y020001D01*
X022235Y019965D01*
X022199Y019912D01*
X022187Y019850D01*
X022199Y019788D01*
X022235Y019735D01*
X022288Y019699D01*
X022350Y019687D01*
X022412Y019699D01*
X022465Y019735D01*
X022501Y019788D01*
X022513Y019850D01*
X022501Y019912D01*
X022465Y019965D01*
X022412Y020001D01*
X022350Y020013D01*
D02*
G37*
G36*
X030400Y020078D02*
X030332Y020065D01*
X030274Y020026D01*
X030235Y019968D01*
X030222Y019900D01*
X030235Y019832D01*
X030274Y019774D01*
X030332Y019735D01*
X030400Y019722D01*
X030468Y019735D01*
X030526Y019774D01*
X030565Y019832D01*
X030578Y019900D01*
X030565Y019968D01*
X030526Y020026D01*
X030468Y020065D01*
X030400Y020078D01*
D02*
G37*
G36*
X032750Y020613D02*
X032688Y020601D01*
X032635Y020565D01*
X032599Y020512D01*
X032587Y020450D01*
X032599Y020388D01*
X032635Y020335D01*
X032688Y020299D01*
X032750Y020287D01*
X032812Y020299D01*
X032865Y020335D01*
X032901Y020388D01*
X032913Y020450D01*
X032901Y020512D01*
X032865Y020565D01*
X032812Y020601D01*
X032750Y020613D01*
D02*
G37*
G36*
X022300Y020550D02*
X022146D01*
X022152Y020518D01*
X022199Y020449D01*
X022268Y020402D01*
X022300Y020396D01*
Y020550D01*
D02*
G37*
G36*
X039250Y020413D02*
X039188Y020401D01*
X039135Y020365D01*
X039099Y020312D01*
X039087Y020250D01*
X039099Y020188D01*
X039135Y020135D01*
X039188Y020099D01*
X039250Y020087D01*
X039312Y020099D01*
X039365Y020135D01*
X039401Y020188D01*
X039413Y020250D01*
X039401Y020312D01*
X039365Y020365D01*
X039312Y020401D01*
X039250Y020413D01*
D02*
G37*
G36*
X053700Y020397D02*
X053646Y020390D01*
X053548Y020349D01*
X053465Y020285D01*
X053401Y020202D01*
X053360Y020104D01*
X053353Y020050D01*
X053700D01*
Y020397D01*
D02*
G37*
G36*
X053800D02*
Y020050D01*
X054147D01*
X054140Y020104D01*
X054099Y020202D01*
X054035Y020285D01*
X053952Y020349D01*
X053854Y020390D01*
X053800Y020397D01*
D02*
G37*
G36*
X018600Y021504D02*
X017150D01*
X017112Y021488D01*
X017096Y021450D01*
Y020050D01*
X017112Y020012D01*
X017150Y019996D01*
X018494D01*
X018527Y019958D01*
X018519Y019896D01*
X018530Y019811D01*
X018563Y019732D01*
X018615Y019664D01*
X018683Y019612D01*
X018763Y019579D01*
X018848Y019568D01*
X018933Y019579D01*
X019012Y019612D01*
X019080Y019664D01*
X019132Y019732D01*
X019165Y019811D01*
X019176Y019896D01*
X019165Y019981D01*
X019132Y020060D01*
X019080Y020128D01*
X019012Y020180D01*
X018933Y020213D01*
X018848Y020224D01*
X018763Y020213D01*
X018696Y020186D01*
X018654Y020213D01*
Y021450D01*
X018638Y021488D01*
X018600Y021504D01*
D02*
G37*
G36*
X026050Y019913D02*
X025988Y019901D01*
X025935Y019865D01*
X025899Y019812D01*
X025887Y019750D01*
X025899Y019688D01*
X025935Y019635D01*
X025988Y019599D01*
X026050Y019587D01*
X026112Y019599D01*
X026165Y019635D01*
X026201Y019688D01*
X026213Y019750D01*
X026201Y019812D01*
X026165Y019865D01*
X026112Y019901D01*
X026050Y019913D01*
D02*
G37*
G36*
X039250Y019863D02*
X039188Y019851D01*
X039135Y019815D01*
X039099Y019762D01*
X039087Y019700D01*
X039099Y019638D01*
X039135Y019585D01*
X039188Y019549D01*
X039250Y019537D01*
X039312Y019549D01*
X039365Y019585D01*
X039401Y019638D01*
X039413Y019700D01*
X039401Y019762D01*
X039365Y019815D01*
X039312Y019851D01*
X039250Y019863D01*
D02*
G37*
G36*
X014400Y020350D02*
X013464D01*
X013478Y020207D01*
X013535Y020021D01*
X013626Y019850D01*
X013750Y019700D01*
X013900Y019576D01*
X014071Y019485D01*
X014257Y019428D01*
X014400Y019414D01*
Y020350D01*
D02*
G37*
G36*
X015436D02*
X014500D01*
Y019414D01*
X014643Y019428D01*
X014829Y019485D01*
X015000Y019576D01*
X015150Y019700D01*
X015274Y019850D01*
X015365Y020021D01*
X015422Y020207D01*
X015436Y020350D01*
D02*
G37*
G36*
X029950Y020028D02*
X029882Y020015D01*
X029824Y019976D01*
X029785Y019918D01*
X029772Y019850D01*
X029785Y019782D01*
X029824Y019724D01*
X029882Y019685D01*
X029950Y019672D01*
X030018Y019685D01*
X030076Y019724D01*
X030115Y019782D01*
X030128Y019850D01*
X030115Y019918D01*
X030076Y019976D01*
X030018Y020015D01*
X029950Y020028D01*
D02*
G37*
G36*
X030900D02*
X030832Y020015D01*
X030774Y019976D01*
X030735Y019918D01*
X030722Y019850D01*
X030735Y019782D01*
X030774Y019724D01*
X030832Y019685D01*
X030900Y019672D01*
X030968Y019685D01*
X031026Y019724D01*
X031065Y019782D01*
X031078Y019850D01*
X031065Y019918D01*
X031026Y019976D01*
X030968Y020015D01*
X030900Y020028D01*
D02*
G37*
G36*
X054750Y020353D02*
X054659Y020341D01*
X054573Y020306D01*
X054500Y020250D01*
X054444Y020177D01*
X054409Y020091D01*
X054397Y020000D01*
X054409Y019909D01*
X054444Y019823D01*
X054500Y019750D01*
X054573Y019694D01*
X054659Y019659D01*
X054750Y019647D01*
X054841Y019659D01*
X054927Y019694D01*
X055000Y019750D01*
X055056Y019823D01*
X055091Y019909D01*
X055103Y020000D01*
X055091Y020091D01*
X055056Y020177D01*
X055000Y020250D01*
X054927Y020306D01*
X054841Y020341D01*
X054750Y020353D01*
D02*
G37*
G36*
X053700Y019950D02*
X053353D01*
X053360Y019896D01*
X053401Y019798D01*
X053465Y019715D01*
X053548Y019651D01*
X053646Y019610D01*
X053700Y019603D01*
Y019950D01*
D02*
G37*
G36*
X054147D02*
X053800D01*
Y019603D01*
X053854Y019610D01*
X053952Y019651D01*
X054035Y019715D01*
X054099Y019798D01*
X054140Y019896D01*
X054147Y019950D01*
D02*
G37*
G36*
X043450Y026019D02*
X043412Y026012D01*
X043338Y025962D01*
X043288Y025888D01*
X043281Y025850D01*
X043450D01*
Y026019D01*
D02*
G37*
G36*
X043550D02*
Y025850D01*
X043719D01*
X043712Y025888D01*
X043662Y025962D01*
X043588Y026012D01*
X043550Y026019D01*
D02*
G37*
G36*
X028500Y025963D02*
X028438Y025951D01*
X028385Y025915D01*
X028349Y025862D01*
X028337Y025800D01*
X028349Y025738D01*
X028385Y025685D01*
X028438Y025649D01*
X028500Y025637D01*
X028562Y025649D01*
X028615Y025685D01*
X028651Y025738D01*
X028663Y025800D01*
X028651Y025862D01*
X028615Y025915D01*
X028562Y025951D01*
X028500Y025963D01*
D02*
G37*
G36*
X043450Y025750D02*
X043281D01*
X043288Y025712D01*
X043338Y025638D01*
X043412Y025588D01*
X043450Y025581D01*
Y025750D01*
D02*
G37*
G36*
X043719D02*
X043550D01*
Y025581D01*
X043588Y025588D01*
X043662Y025638D01*
X043712Y025712D01*
X043719Y025750D01*
D02*
G37*
G36*
X012191Y028400D02*
X012024Y028384D01*
X011864Y028335D01*
X011716Y028256D01*
X011587Y028150D01*
X011481Y028021D01*
X011402Y027873D01*
X011353Y027713D01*
X011337Y027546D01*
X011353Y027379D01*
X011402Y027219D01*
X011481Y027071D01*
X011587Y026942D01*
X011716Y026836D01*
X011864Y026757D01*
X012024Y026708D01*
X012191Y026692D01*
X012358Y026708D01*
X012518Y026757D01*
X012666Y026836D01*
X012795Y026942D01*
X012901Y027071D01*
X012980Y027219D01*
X013029Y027379D01*
X013045Y027546D01*
X013029Y027713D01*
X012980Y027873D01*
X012901Y028021D01*
X012795Y028150D01*
X012666Y028256D01*
X012518Y028335D01*
X012358Y028384D01*
X012191Y028400D01*
D02*
G37*
G36*
X038900Y026900D02*
X038731D01*
X038738Y026862D01*
X038788Y026788D01*
X038862Y026738D01*
X038900Y026731D01*
Y026900D01*
D02*
G37*
G36*
X037350Y026504D02*
X037272Y026488D01*
X037206Y026444D01*
X037162Y026378D01*
X037146Y026300D01*
X037162Y026222D01*
X037206Y026156D01*
X037272Y026112D01*
X037350Y026096D01*
X037428Y026112D01*
X037494Y026156D01*
X037538Y026222D01*
X037554Y026300D01*
X037538Y026378D01*
X037494Y026444D01*
X037428Y026488D01*
X037350Y026504D01*
D02*
G37*
G36*
X044050Y026428D02*
X043982Y026415D01*
X043924Y026376D01*
X043885Y026318D01*
X043872Y026250D01*
X043885Y026182D01*
X043924Y026124D01*
X043982Y026085D01*
X044050Y026072D01*
X044118Y026085D01*
X044176Y026124D01*
X044215Y026182D01*
X044228Y026250D01*
X044215Y026318D01*
X044176Y026376D01*
X044118Y026415D01*
X044050Y026428D01*
D02*
G37*
G36*
X031050Y026413D02*
X030988Y026401D01*
X030935Y026365D01*
X030899Y026312D01*
X030887Y026250D01*
X030899Y026188D01*
X030935Y026135D01*
X030988Y026099D01*
X031050Y026087D01*
X031112Y026099D01*
X031165Y026135D01*
X031201Y026188D01*
X031213Y026250D01*
X031201Y026312D01*
X031165Y026365D01*
X031112Y026401D01*
X031050Y026413D01*
D02*
G37*
G36*
X046600Y025450D02*
X046431D01*
X046438Y025412D01*
X046488Y025338D01*
X046562Y025288D01*
X046600Y025281D01*
Y025450D01*
D02*
G37*
G36*
X046869D02*
X046700D01*
Y025281D01*
X046738Y025288D01*
X046812Y025338D01*
X046862Y025412D01*
X046869Y025450D01*
D02*
G37*
G36*
X021769D02*
X021600D01*
Y025281D01*
X021638Y025288D01*
X021712Y025338D01*
X021762Y025412D01*
X021769Y025450D01*
D02*
G37*
G36*
X028550Y025404D02*
Y025250D01*
X028704D01*
X028698Y025282D01*
X028651Y025351D01*
X028582Y025398D01*
X028550Y025404D01*
D02*
G37*
G36*
X021500Y025450D02*
X021331D01*
X021338Y025412D01*
X021388Y025338D01*
X021462Y025288D01*
X021500Y025281D01*
Y025450D01*
D02*
G37*
G36*
X046600Y025719D02*
X046562Y025712D01*
X046488Y025662D01*
X046438Y025588D01*
X046431Y025550D01*
X046600D01*
Y025719D01*
D02*
G37*
G36*
X046700D02*
Y025550D01*
X046869D01*
X046862Y025588D01*
X046812Y025662D01*
X046738Y025712D01*
X046700Y025719D01*
D02*
G37*
G36*
X021600D02*
Y025550D01*
X021769D01*
X021762Y025588D01*
X021712Y025662D01*
X021638Y025712D01*
X021600Y025719D01*
D02*
G37*
G36*
X034150Y025713D02*
X034088Y025701D01*
X034035Y025665D01*
X033999Y025612D01*
X033987Y025550D01*
X033999Y025488D01*
X034035Y025435D01*
X034088Y025399D01*
X034150Y025387D01*
X034212Y025399D01*
X034265Y025435D01*
X034301Y025488D01*
X034313Y025550D01*
X034301Y025612D01*
X034265Y025665D01*
X034212Y025701D01*
X034150Y025713D01*
D02*
G37*
G36*
X021500Y025719D02*
X021462Y025712D01*
X021388Y025662D01*
X021338Y025588D01*
X021331Y025550D01*
X021500D01*
Y025719D01*
D02*
G37*
G36*
X033550Y029354D02*
X033472Y029338D01*
X033406Y029294D01*
X033362Y029228D01*
X033346Y029150D01*
X033362Y029072D01*
X033406Y029006D01*
X033472Y028962D01*
X033550Y028946D01*
X033628Y028962D01*
X033694Y029006D01*
X033738Y029072D01*
X033754Y029150D01*
X033738Y029228D01*
X033694Y029294D01*
X033628Y029338D01*
X033550Y029354D01*
D02*
G37*
G36*
X054550Y029450D02*
X054396D01*
X054402Y029418D01*
X054449Y029349D01*
X054518Y029302D01*
X054550Y029296D01*
Y029450D01*
D02*
G37*
G36*
X020700Y029095D02*
Y028900D01*
X020895D01*
X020886Y028948D01*
X020830Y029030D01*
X020748Y029086D01*
X020700Y029095D01*
D02*
G37*
G36*
X020895Y028800D02*
X020700D01*
Y028605D01*
X020748Y028614D01*
X020830Y028670D01*
X020886Y028752D01*
X020895Y028800D01*
D02*
G37*
G36*
X020600Y029095D02*
X020552Y029086D01*
X020470Y029030D01*
X020415Y028948D01*
X020405Y028900D01*
X020600D01*
Y029095D01*
D02*
G37*
G36*
X054550Y029704D02*
X054518Y029698D01*
X054449Y029651D01*
X054402Y029582D01*
X054396Y029550D01*
X054550D01*
Y029704D01*
D02*
G37*
G36*
X054650D02*
Y029550D01*
X054804D01*
X054798Y029582D01*
X054751Y029651D01*
X054682Y029698D01*
X054650Y029704D01*
D02*
G37*
G36*
X028400Y029905D02*
X028302Y029885D01*
X028220Y029830D01*
X028165Y029748D01*
X028145Y029650D01*
X028165Y029552D01*
X028220Y029470D01*
X028302Y029415D01*
X028400Y029395D01*
X028498Y029415D01*
X028580Y029470D01*
X028635Y029552D01*
X028655Y029650D01*
X028635Y029748D01*
X028580Y029830D01*
X028498Y029885D01*
X028400Y029905D01*
D02*
G37*
G36*
X054804Y029450D02*
X054650D01*
Y029296D01*
X054682Y029302D01*
X054751Y029349D01*
X054798Y029418D01*
X054804Y029450D01*
D02*
G37*
G36*
X027050Y029905D02*
X026952Y029885D01*
X026870Y029830D01*
X026814Y029748D01*
X026795Y029650D01*
X026814Y029552D01*
X026870Y029470D01*
X026952Y029415D01*
X027050Y029395D01*
X027148Y029415D01*
X027230Y029470D01*
X027285Y029552D01*
X027305Y029650D01*
X027285Y029748D01*
X027230Y029830D01*
X027148Y029885D01*
X027050Y029905D01*
D02*
G37*
G36*
X046750Y027400D02*
X046581D01*
X046588Y027362D01*
X046638Y027288D01*
X046712Y027238D01*
X046750Y027231D01*
Y027400D01*
D02*
G37*
G36*
X047019D02*
X046850D01*
Y027231D01*
X046888Y027238D01*
X046962Y027288D01*
X047012Y027362D01*
X047019Y027400D01*
D02*
G37*
G36*
X039000Y027169D02*
Y027000D01*
X039169D01*
X039162Y027038D01*
X039112Y027112D01*
X039038Y027162D01*
X039000Y027169D01*
D02*
G37*
G36*
X039169Y026900D02*
X039000D01*
Y026731D01*
X039038Y026738D01*
X039112Y026788D01*
X039162Y026862D01*
X039169Y026900D01*
D02*
G37*
G36*
X038900Y027169D02*
X038862Y027162D01*
X038788Y027112D01*
X038738Y027038D01*
X038731Y027000D01*
X038900D01*
Y027169D01*
D02*
G37*
G36*
X034600Y028204D02*
X034522Y028188D01*
X034456Y028144D01*
X034412Y028078D01*
X034396Y028000D01*
X034412Y027922D01*
X034456Y027856D01*
X034522Y027812D01*
X034600Y027796D01*
X034678Y027812D01*
X034744Y027856D01*
X034788Y027922D01*
X034804Y028000D01*
X034788Y028078D01*
X034744Y028144D01*
X034678Y028188D01*
X034600Y028204D01*
D02*
G37*
G36*
X020600Y028800D02*
X020405D01*
X020415Y028752D01*
X020470Y028670D01*
X020552Y028614D01*
X020600Y028605D01*
Y028800D01*
D02*
G37*
G36*
X046850Y027669D02*
Y027500D01*
X047019D01*
X047012Y027538D01*
X046962Y027612D01*
X046888Y027662D01*
X046850Y027669D01*
D02*
G37*
G36*
X044050Y027828D02*
X043982Y027815D01*
X043924Y027776D01*
X043885Y027718D01*
X043872Y027650D01*
X043885Y027582D01*
X043924Y027524D01*
X043982Y027485D01*
X044050Y027472D01*
X044118Y027485D01*
X044176Y027524D01*
X044215Y027582D01*
X044228Y027650D01*
X044215Y027718D01*
X044176Y027776D01*
X044118Y027815D01*
X044050Y027828D01*
D02*
G37*
G36*
X046750Y027669D02*
X046712Y027662D01*
X046638Y027612D01*
X046588Y027538D01*
X046581Y027500D01*
X046750D01*
Y027669D01*
D02*
G37*
G36*
X028450Y025404D02*
X028418Y025398D01*
X028349Y025351D01*
X028302Y025282D01*
X028296Y025250D01*
X028450D01*
Y025404D01*
D02*
G37*
G36*
X035350Y023500D02*
X035155D01*
X035164Y023452D01*
X035220Y023370D01*
X035302Y023314D01*
X035350Y023305D01*
Y023500D01*
D02*
G37*
G36*
X035645D02*
X035450D01*
Y023305D01*
X035498Y023314D01*
X035580Y023370D01*
X035635Y023452D01*
X035645Y023500D01*
D02*
G37*
G36*
X050750Y023413D02*
X050688Y023401D01*
X050635Y023365D01*
X050599Y023312D01*
X050587Y023250D01*
X050599Y023188D01*
X050635Y023135D01*
X050688Y023099D01*
X050750Y023087D01*
X050812Y023099D01*
X050865Y023135D01*
X050901Y023188D01*
X050913Y023250D01*
X050901Y023312D01*
X050865Y023365D01*
X050812Y023401D01*
X050750Y023413D01*
D02*
G37*
G36*
X053700Y023397D02*
X053646Y023390D01*
X053548Y023349D01*
X053465Y023285D01*
X053401Y023202D01*
X053360Y023104D01*
X053353Y023050D01*
X053700D01*
Y023397D01*
D02*
G37*
G36*
X053800D02*
Y023050D01*
X054147D01*
X054140Y023104D01*
X054099Y023202D01*
X054035Y023285D01*
X053952Y023349D01*
X053854Y023390D01*
X053800Y023397D01*
D02*
G37*
G36*
X037800Y023750D02*
X037646D01*
X037652Y023718D01*
X037699Y023649D01*
X037768Y023602D01*
X037800Y023596D01*
Y023750D01*
D02*
G37*
G36*
X038054D02*
X037900D01*
Y023596D01*
X037932Y023602D01*
X038001Y023649D01*
X038048Y023718D01*
X038054Y023750D01*
D02*
G37*
G36*
X017100Y024100D02*
X016400D01*
Y023400D01*
X017100D01*
Y024100D01*
D02*
G37*
G36*
X015700Y023700D02*
X015353D01*
X015360Y023646D01*
X015401Y023548D01*
X015465Y023465D01*
X015548Y023401D01*
X015646Y023360D01*
X015700Y023353D01*
Y023700D01*
D02*
G37*
G36*
X016147D02*
X015800D01*
Y023353D01*
X015854Y023360D01*
X015952Y023401D01*
X016035Y023465D01*
X016099Y023548D01*
X016140Y023646D01*
X016147Y023700D01*
D02*
G37*
G36*
X054750Y023353D02*
X054659Y023341D01*
X054573Y023306D01*
X054500Y023250D01*
X054444Y023177D01*
X054409Y023091D01*
X054397Y023000D01*
X054409Y022909D01*
X054444Y022823D01*
X054500Y022750D01*
X054573Y022694D01*
X054659Y022659D01*
X054750Y022647D01*
X054841Y022659D01*
X054927Y022694D01*
X055000Y022750D01*
X055056Y022823D01*
X055091Y022909D01*
X055103Y023000D01*
X055091Y023091D01*
X055056Y023177D01*
X055000Y023250D01*
X054927Y023306D01*
X054841Y023341D01*
X054750Y023353D01*
D02*
G37*
G36*
X041000Y023313D02*
X040938Y023301D01*
X040885Y023265D01*
X040849Y023212D01*
X040837Y023150D01*
X040849Y023088D01*
X040885Y023035D01*
X040938Y022999D01*
X041000Y022987D01*
X041062Y022999D01*
X041115Y023035D01*
X041151Y023088D01*
X041163Y023150D01*
X041151Y023212D01*
X041115Y023265D01*
X041062Y023301D01*
X041000Y023313D01*
D02*
G37*
G36*
X054147Y022950D02*
X053800D01*
Y022603D01*
X053854Y022610D01*
X053952Y022651D01*
X054035Y022715D01*
X054099Y022798D01*
X054140Y022896D01*
X054147Y022950D01*
D02*
G37*
G36*
X048800Y023004D02*
X048722Y022988D01*
X048656Y022944D01*
X048612Y022878D01*
X048596Y022800D01*
X048612Y022722D01*
X048656Y022656D01*
X048722Y022612D01*
X048800Y022596D01*
X048878Y022612D01*
X048944Y022656D01*
X048988Y022722D01*
X049004Y022800D01*
X048988Y022878D01*
X048944Y022944D01*
X048878Y022988D01*
X048800Y023004D01*
D02*
G37*
G36*
X053700Y022950D02*
X053353D01*
X053360Y022896D01*
X053401Y022798D01*
X053465Y022715D01*
X053548Y022651D01*
X053646Y022610D01*
X053700Y022603D01*
Y022950D01*
D02*
G37*
G36*
X046000Y023363D02*
X045938Y023351D01*
X045885Y023315D01*
X045849Y023262D01*
X045837Y023200D01*
X045849Y023138D01*
X045885Y023085D01*
X045938Y023049D01*
X046000Y023037D01*
X046062Y023049D01*
X046115Y023085D01*
X046151Y023138D01*
X046163Y023200D01*
X046151Y023262D01*
X046115Y023315D01*
X046062Y023351D01*
X046000Y023363D01*
D02*
G37*
G36*
X046450D02*
X046388Y023351D01*
X046335Y023315D01*
X046299Y023262D01*
X046287Y023200D01*
X046299Y023138D01*
X046335Y023085D01*
X046388Y023049D01*
X046450Y023037D01*
X046512Y023049D01*
X046565Y023085D01*
X046601Y023138D01*
X046613Y023200D01*
X046601Y023262D01*
X046565Y023315D01*
X046512Y023351D01*
X046450Y023363D01*
D02*
G37*
G36*
X045550D02*
X045488Y023351D01*
X045435Y023315D01*
X045399Y023262D01*
X045387Y023200D01*
X045399Y023138D01*
X045435Y023085D01*
X045488Y023049D01*
X045550Y023037D01*
X045612Y023049D01*
X045665Y023085D01*
X045701Y023138D01*
X045713Y023200D01*
X045701Y023262D01*
X045665Y023315D01*
X045612Y023351D01*
X045550Y023363D01*
D02*
G37*
G36*
X044400Y023378D02*
X044332Y023365D01*
X044274Y023326D01*
X044235Y023268D01*
X044222Y023200D01*
X044235Y023132D01*
X044274Y023074D01*
X044332Y023035D01*
X044400Y023022D01*
X044468Y023035D01*
X044526Y023074D01*
X044565Y023132D01*
X044578Y023200D01*
X044565Y023268D01*
X044526Y023326D01*
X044468Y023365D01*
X044400Y023378D01*
D02*
G37*
G36*
X044850D02*
X044782Y023365D01*
X044724Y023326D01*
X044685Y023268D01*
X044672Y023200D01*
X044685Y023132D01*
X044724Y023074D01*
X044782Y023035D01*
X044850Y023022D01*
X044918Y023035D01*
X044976Y023074D01*
X045015Y023132D01*
X045028Y023200D01*
X045015Y023268D01*
X044976Y023326D01*
X044918Y023365D01*
X044850Y023378D01*
D02*
G37*
G36*
X054250Y027304D02*
X054046Y027288D01*
X053847Y027240D01*
X053658Y027162D01*
X053484Y027055D01*
X053328Y026922D01*
X053195Y026766D01*
X053088Y026592D01*
X053010Y026403D01*
X052962Y026204D01*
X052946Y026000D01*
X052962Y025796D01*
X053010Y025597D01*
X053088Y025408D01*
X053195Y025234D01*
X053328Y025078D01*
X053484Y024945D01*
X053658Y024838D01*
X053847Y024760D01*
X054046Y024712D01*
X054250Y024696D01*
X054454Y024712D01*
X054653Y024760D01*
X054842Y024838D01*
X055016Y024945D01*
X055172Y025078D01*
X055305Y025234D01*
X055412Y025408D01*
X055490Y025597D01*
X055538Y025796D01*
X055554Y026000D01*
X055538Y026204D01*
X055490Y026403D01*
X055412Y026592D01*
X055305Y026766D01*
X055172Y026922D01*
X055016Y027055D01*
X054842Y027162D01*
X054653Y027240D01*
X054454Y027288D01*
X054250Y027304D01*
D02*
G37*
G36*
X038650Y025000D02*
X038481D01*
X038488Y024962D01*
X038538Y024888D01*
X038612Y024838D01*
X038650Y024831D01*
Y025000D01*
D02*
G37*
G36*
X045100Y024728D02*
X045032Y024715D01*
X044974Y024676D01*
X044935Y024618D01*
X044922Y024550D01*
X044935Y024482D01*
X044974Y024424D01*
X045032Y024385D01*
X045100Y024372D01*
X045168Y024385D01*
X045226Y024424D01*
X045265Y024482D01*
X045278Y024550D01*
X045265Y024618D01*
X045226Y024676D01*
X045168Y024715D01*
X045100Y024728D01*
D02*
G37*
G36*
X044100Y024169D02*
Y024000D01*
X044269D01*
X044262Y024038D01*
X044212Y024112D01*
X044138Y024162D01*
X044100Y024169D01*
D02*
G37*
G36*
X043000Y024728D02*
X042932Y024715D01*
X042874Y024676D01*
X042835Y024618D01*
X042822Y024550D01*
X042835Y024482D01*
X042874Y024424D01*
X042932Y024385D01*
X043000Y024372D01*
X043068Y024385D01*
X043126Y024424D01*
X043165Y024482D01*
X043178Y024550D01*
X043165Y024618D01*
X043126Y024676D01*
X043068Y024715D01*
X043000Y024728D01*
D02*
G37*
G36*
X038650Y025269D02*
X038612Y025262D01*
X038538Y025212D01*
X038488Y025138D01*
X038481Y025100D01*
X038650D01*
Y025269D01*
D02*
G37*
G36*
X038750D02*
Y025100D01*
X038919D01*
X038912Y025138D01*
X038862Y025212D01*
X038788Y025262D01*
X038750Y025269D01*
D02*
G37*
G36*
X028704Y025150D02*
X028550D01*
Y024996D01*
X028582Y025002D01*
X028651Y025049D01*
X028698Y025118D01*
X028704Y025150D01*
D02*
G37*
G36*
X038919Y025000D02*
X038750D01*
Y024831D01*
X038788Y024838D01*
X038862Y024888D01*
X038912Y024962D01*
X038919Y025000D01*
D02*
G37*
G36*
X028450Y025150D02*
X028296D01*
X028302Y025118D01*
X028349Y025049D01*
X028418Y025002D01*
X028450Y024996D01*
Y025150D01*
D02*
G37*
G36*
X044269Y023900D02*
X044100D01*
Y023731D01*
X044138Y023738D01*
X044212Y023788D01*
X044262Y023862D01*
X044269Y023900D01*
D02*
G37*
G36*
X015700Y024147D02*
X015646Y024140D01*
X015548Y024099D01*
X015465Y024035D01*
X015401Y023952D01*
X015360Y023854D01*
X015353Y023800D01*
X015700D01*
Y024147D01*
D02*
G37*
G36*
X044000Y023900D02*
X043831D01*
X043838Y023862D01*
X043888Y023788D01*
X043962Y023738D01*
X044000Y023731D01*
Y023900D01*
D02*
G37*
G36*
X035350Y023795D02*
X035302Y023786D01*
X035220Y023730D01*
X035164Y023648D01*
X035155Y023600D01*
X035350D01*
Y023795D01*
D02*
G37*
G36*
X035450D02*
Y023600D01*
X035645D01*
X035635Y023648D01*
X035580Y023730D01*
X035498Y023786D01*
X035450Y023795D01*
D02*
G37*
G36*
X039200Y024213D02*
X039138Y024201D01*
X039085Y024165D01*
X039049Y024112D01*
X039037Y024050D01*
X039049Y023988D01*
X039085Y023935D01*
X039138Y023899D01*
X039200Y023887D01*
X039262Y023899D01*
X039315Y023935D01*
X039351Y023988D01*
X039363Y024050D01*
X039351Y024112D01*
X039315Y024165D01*
X039262Y024201D01*
X039200Y024213D01*
D02*
G37*
G36*
X044000Y024169D02*
X043962Y024162D01*
X043888Y024112D01*
X043838Y024038D01*
X043831Y024000D01*
X044000D01*
Y024169D01*
D02*
G37*
G36*
X037900Y024004D02*
Y023850D01*
X038054D01*
X038048Y023882D01*
X038001Y023951D01*
X037932Y023998D01*
X037900Y024004D01*
D02*
G37*
G36*
X015800Y024147D02*
Y023800D01*
X016147D01*
X016140Y023854D01*
X016099Y023952D01*
X016035Y024035D01*
X015952Y024099D01*
X015854Y024140D01*
X015800Y024147D01*
D02*
G37*
G36*
X037800Y024004D02*
X037768Y023998D01*
X037699Y023951D01*
X037652Y023882D01*
X037646Y023850D01*
X037800D01*
Y024004D01*
D02*
G37*
G36*
X037000Y014613D02*
X036938Y014601D01*
X036885Y014565D01*
X036849Y014512D01*
X036837Y014450D01*
X036849Y014388D01*
X036885Y014335D01*
X036938Y014299D01*
X037000Y014287D01*
X037062Y014299D01*
X037115Y014335D01*
X037151Y014388D01*
X037163Y014450D01*
X037151Y014512D01*
X037115Y014565D01*
X037062Y014601D01*
X037000Y014613D01*
D02*
G37*
G36*
X015436Y015350D02*
X014500D01*
Y014414D01*
X014643Y014428D01*
X014829Y014485D01*
X015000Y014576D01*
X015150Y014700D01*
X015274Y014850D01*
X015365Y015021D01*
X015422Y015207D01*
X015436Y015350D01*
D02*
G37*
G36*
X033000Y014404D02*
Y014250D01*
X033154D01*
X033148Y014282D01*
X033101Y014351D01*
X033032Y014398D01*
X033000Y014404D01*
D02*
G37*
G36*
X013152Y014673D02*
X012661D01*
X012673Y014581D01*
X012728Y014449D01*
X012815Y014336D01*
X012928Y014249D01*
X013060Y014194D01*
X013152Y014182D01*
Y014673D01*
D02*
G37*
G36*
X032900Y014404D02*
X032868Y014398D01*
X032799Y014351D01*
X032752Y014282D01*
X032746Y014250D01*
X032900D01*
Y014404D01*
D02*
G37*
G36*
X054750Y015353D02*
X054659Y015341D01*
X054573Y015306D01*
X054500Y015250D01*
X054444Y015177D01*
X054409Y015091D01*
X054397Y015000D01*
X054409Y014909D01*
X054444Y014823D01*
X054500Y014750D01*
X054573Y014694D01*
X054659Y014659D01*
X054750Y014647D01*
X054841Y014659D01*
X054927Y014694D01*
X055000Y014750D01*
X055056Y014823D01*
X055091Y014909D01*
X055103Y015000D01*
X055091Y015091D01*
X055056Y015177D01*
X055000Y015250D01*
X054927Y015306D01*
X054841Y015341D01*
X054750Y015353D01*
D02*
G37*
G36*
X039250Y015013D02*
X039188Y015001D01*
X039135Y014965D01*
X039099Y014912D01*
X039087Y014850D01*
X039099Y014788D01*
X039135Y014735D01*
X039188Y014699D01*
X039250Y014687D01*
X039312Y014699D01*
X039365Y014735D01*
X039401Y014788D01*
X039413Y014850D01*
X039401Y014912D01*
X039365Y014965D01*
X039312Y015001D01*
X039250Y015013D01*
D02*
G37*
G36*
X054147Y014950D02*
X053800D01*
Y014603D01*
X053854Y014610D01*
X053952Y014651D01*
X054035Y014715D01*
X054099Y014798D01*
X054140Y014896D01*
X054147Y014950D01*
D02*
G37*
G36*
X048550Y014763D02*
X048488Y014751D01*
X048435Y014715D01*
X048399Y014662D01*
X048387Y014600D01*
X048399Y014538D01*
X048435Y014485D01*
X048488Y014449D01*
X048550Y014437D01*
X048612Y014449D01*
X048665Y014485D01*
X048701Y014538D01*
X048713Y014600D01*
X048701Y014662D01*
X048665Y014715D01*
X048612Y014751D01*
X048550Y014763D01*
D02*
G37*
G36*
X053700Y014950D02*
X053353D01*
X053360Y014896D01*
X053401Y014798D01*
X053465Y014715D01*
X053548Y014651D01*
X053646Y014610D01*
X053700Y014603D01*
Y014950D01*
D02*
G37*
G36*
X037600Y013519D02*
Y013350D01*
X037769D01*
X037762Y013388D01*
X037712Y013462D01*
X037638Y013512D01*
X037600Y013519D01*
D02*
G37*
G36*
X039600Y013763D02*
X039538Y013751D01*
X039485Y013715D01*
X039449Y013662D01*
X039437Y013600D01*
X039449Y013538D01*
X039485Y013485D01*
X039538Y013449D01*
X039600Y013437D01*
X039662Y013449D01*
X039715Y013485D01*
X039751Y013538D01*
X039763Y013600D01*
X039751Y013662D01*
X039715Y013715D01*
X039662Y013751D01*
X039600Y013763D01*
D02*
G37*
G36*
X037500Y013519D02*
X037462Y013512D01*
X037388Y013462D01*
X037338Y013388D01*
X037331Y013350D01*
X037500D01*
Y013519D01*
D02*
G37*
G36*
X037769Y013250D02*
X037600D01*
Y013081D01*
X037638Y013088D01*
X037712Y013138D01*
X037762Y013212D01*
X037769Y013250D01*
D02*
G37*
G36*
X029550Y013413D02*
X029488Y013401D01*
X029435Y013365D01*
X029399Y013312D01*
X029387Y013250D01*
X029399Y013188D01*
X029435Y013135D01*
X029488Y013099D01*
X029550Y013087D01*
X029612Y013099D01*
X029665Y013135D01*
X029701Y013188D01*
X029713Y013250D01*
X029701Y013312D01*
X029665Y013365D01*
X029612Y013401D01*
X029550Y013413D01*
D02*
G37*
G36*
X032900Y014150D02*
X032746D01*
X032752Y014118D01*
X032799Y014049D01*
X032868Y014002D01*
X032900Y013996D01*
Y014150D01*
D02*
G37*
G36*
X033154D02*
X033000D01*
Y013996D01*
X033032Y014002D01*
X033101Y014049D01*
X033148Y014118D01*
X033154Y014150D01*
D02*
G37*
G36*
X051000Y014453D02*
X050909Y014441D01*
X050823Y014406D01*
X050750Y014350D01*
X050694Y014277D01*
X050659Y014191D01*
X050647Y014100D01*
X050659Y014009D01*
X050694Y013923D01*
X050750Y013850D01*
X050823Y013794D01*
X050909Y013759D01*
X051000Y013747D01*
X051091Y013759D01*
X051177Y013794D01*
X051250Y013850D01*
X051306Y013923D01*
X051341Y014009D01*
X051353Y014100D01*
X051341Y014191D01*
X051306Y014277D01*
X051250Y014350D01*
X051177Y014406D01*
X051091Y014441D01*
X051000Y014453D01*
D02*
G37*
G36*
X053750Y014353D02*
X053659Y014341D01*
X053573Y014306D01*
X053500Y014250D01*
X053444Y014177D01*
X053409Y014091D01*
X053397Y014000D01*
X053409Y013909D01*
X053444Y013823D01*
X053500Y013750D01*
X053573Y013694D01*
X053659Y013659D01*
X053750Y013647D01*
X053841Y013659D01*
X053927Y013694D01*
X054000Y013750D01*
X054056Y013823D01*
X054091Y013909D01*
X054103Y014000D01*
X054091Y014091D01*
X054056Y014177D01*
X054000Y014250D01*
X053927Y014306D01*
X053841Y014341D01*
X053750Y014353D01*
D02*
G37*
G36*
X055100Y014350D02*
X054400D01*
Y013650D01*
X055100D01*
Y014350D01*
D02*
G37*
G36*
X044373Y015486D02*
X044311Y015474D01*
X044258Y015439D01*
X044223Y015386D01*
X044210Y015323D01*
X044223Y015261D01*
X044258Y015208D01*
X044311Y015173D01*
X044373Y015160D01*
X044436Y015173D01*
X044489Y015208D01*
X044524Y015261D01*
X044536Y015323D01*
X044524Y015386D01*
X044489Y015439D01*
X044436Y015474D01*
X044373Y015486D01*
D02*
G37*
G36*
X046150Y015513D02*
X046088Y015501D01*
X046035Y015465D01*
X045999Y015412D01*
X045987Y015350D01*
X045999Y015288D01*
X046035Y015235D01*
X046088Y015199D01*
X046150Y015187D01*
X046212Y015199D01*
X046265Y015235D01*
X046301Y015288D01*
X046313Y015350D01*
X046301Y015412D01*
X046265Y015465D01*
X046212Y015501D01*
X046150Y015513D01*
D02*
G37*
G36*
X033850Y015463D02*
X033788Y015451D01*
X033735Y015415D01*
X033699Y015362D01*
X033687Y015300D01*
X033699Y015238D01*
X033735Y015185D01*
X033788Y015149D01*
X033850Y015137D01*
X033912Y015149D01*
X033965Y015185D01*
X034001Y015238D01*
X034013Y015300D01*
X034001Y015362D01*
X033965Y015415D01*
X033912Y015451D01*
X033850Y015463D01*
D02*
G37*
G36*
X053800Y015397D02*
Y015050D01*
X054147D01*
X054140Y015104D01*
X054099Y015202D01*
X054035Y015285D01*
X053952Y015349D01*
X053854Y015390D01*
X053800Y015397D01*
D02*
G37*
G36*
X043950Y015413D02*
X043888Y015401D01*
X043835Y015365D01*
X043799Y015312D01*
X043787Y015250D01*
X043799Y015188D01*
X043835Y015135D01*
X043888Y015099D01*
X043950Y015087D01*
X044012Y015099D01*
X044065Y015135D01*
X044101Y015188D01*
X044113Y015250D01*
X044101Y015312D01*
X044065Y015365D01*
X044012Y015401D01*
X043950Y015413D01*
D02*
G37*
G36*
X029150Y015463D02*
X029088Y015451D01*
X029035Y015415D01*
X029000Y015364D01*
X028950D01*
X028915Y015415D01*
X028862Y015451D01*
X028800Y015463D01*
X028738Y015451D01*
X028685Y015415D01*
X028649Y015362D01*
X028637Y015300D01*
X028649Y015238D01*
X028685Y015185D01*
X028738Y015149D01*
X028800Y015137D01*
X028862Y015149D01*
X028915Y015185D01*
X028950Y015237D01*
X029000D01*
X029035Y015185D01*
X029088Y015149D01*
X029150Y015137D01*
X029212Y015149D01*
X029265Y015185D01*
X029301Y015238D01*
X029313Y015300D01*
X029301Y015362D01*
X029265Y015415D01*
X029212Y015451D01*
X029150Y015463D01*
D02*
G37*
G36*
X014400Y016386D02*
X014257Y016372D01*
X014071Y016315D01*
X013900Y016224D01*
X013750Y016100D01*
X013626Y015950D01*
X013535Y015779D01*
X013478Y015593D01*
X013464Y015450D01*
X014400D01*
Y016386D01*
D02*
G37*
G36*
X047850Y015663D02*
X047788Y015651D01*
X047735Y015615D01*
X047699Y015562D01*
X047687Y015500D01*
X047699Y015438D01*
X047735Y015385D01*
X047788Y015349D01*
X047850Y015337D01*
X047912Y015349D01*
X047965Y015385D01*
X048001Y015438D01*
X048013Y015500D01*
X048001Y015562D01*
X047965Y015615D01*
X047912Y015651D01*
X047850Y015663D01*
D02*
G37*
G36*
X014400Y015350D02*
X013464D01*
X013475Y015244D01*
X013435Y015214D01*
X013344Y015252D01*
X013252Y015264D01*
Y014723D01*
Y014182D01*
X013344Y014194D01*
X013476Y014249D01*
X013589Y014336D01*
X013676Y014449D01*
X013731Y014581D01*
X013740Y014651D01*
X013787Y014669D01*
X013900Y014576D01*
X014071Y014485D01*
X014257Y014428D01*
X014400Y014414D01*
Y015350D01*
D02*
G37*
G36*
X037850Y015613D02*
X037788Y015601D01*
X037735Y015565D01*
X037699Y015512D01*
X037687Y015450D01*
X037699Y015388D01*
X037735Y015335D01*
X037788Y015299D01*
X037850Y015287D01*
X037912Y015299D01*
X037965Y015335D01*
X038001Y015388D01*
X038013Y015450D01*
X038001Y015512D01*
X037965Y015565D01*
X037912Y015601D01*
X037850Y015613D01*
D02*
G37*
G36*
X013152Y015264D02*
X013060Y015252D01*
X012928Y015197D01*
X012815Y015110D01*
X012728Y014997D01*
X012673Y014865D01*
X012661Y014773D01*
X013152D01*
Y015264D01*
D02*
G37*
G36*
X029850Y015163D02*
X029788Y015151D01*
X029735Y015115D01*
X029699Y015062D01*
X029687Y015000D01*
X029699Y014938D01*
X029735Y014885D01*
X029788Y014849D01*
X029850Y014837D01*
X029912Y014849D01*
X029965Y014885D01*
X030001Y014938D01*
X030013Y015000D01*
X030001Y015062D01*
X029965Y015115D01*
X029912Y015151D01*
X029850Y015163D01*
D02*
G37*
G36*
X051000Y015453D02*
X050909Y015441D01*
X050823Y015406D01*
X050750Y015350D01*
X050694Y015277D01*
X050659Y015191D01*
X050647Y015100D01*
X050659Y015009D01*
X050694Y014923D01*
X050750Y014850D01*
X050823Y014794D01*
X050909Y014759D01*
X051000Y014747D01*
X051091Y014759D01*
X051177Y014794D01*
X051250Y014850D01*
X051306Y014923D01*
X051341Y015009D01*
X051353Y015100D01*
X051341Y015191D01*
X051306Y015277D01*
X051250Y015350D01*
X051177Y015406D01*
X051091Y015441D01*
X051000Y015453D01*
D02*
G37*
G36*
X045250Y015013D02*
X045188Y015001D01*
X045135Y014965D01*
X045099Y014912D01*
X045087Y014850D01*
X045099Y014788D01*
X045135Y014735D01*
X045188Y014699D01*
X045250Y014687D01*
X045312Y014699D01*
X045365Y014735D01*
X045401Y014788D01*
X045413Y014850D01*
X045401Y014912D01*
X045365Y014965D01*
X045312Y015001D01*
X045250Y015013D01*
D02*
G37*
G36*
X019820Y015402D02*
X019730Y015390D01*
X019646Y015355D01*
X019574Y015300D01*
X019518Y015228D01*
X019484Y015144D01*
X019472Y015054D01*
X019484Y014963D01*
X019518Y014879D01*
X019574Y014807D01*
X019646Y014752D01*
X019730Y014717D01*
X019820Y014705D01*
X019910Y014717D01*
X019994Y014752D01*
X020066Y014807D01*
X020122Y014879D01*
X020156Y014963D01*
X020168Y015054D01*
X020156Y015144D01*
X020122Y015228D01*
X020066Y015300D01*
X019994Y015355D01*
X019910Y015390D01*
X019820Y015402D01*
D02*
G37*
G36*
X045600Y015363D02*
X045538Y015351D01*
X045485Y015315D01*
X045449Y015262D01*
X045437Y015200D01*
X045449Y015138D01*
X045485Y015085D01*
X045538Y015049D01*
X045600Y015037D01*
X045662Y015049D01*
X045715Y015085D01*
X045751Y015138D01*
X045763Y015200D01*
X045751Y015262D01*
X045715Y015315D01*
X045662Y015351D01*
X045600Y015363D01*
D02*
G37*
G36*
X053700Y015397D02*
X053646Y015390D01*
X053548Y015349D01*
X053465Y015285D01*
X053401Y015202D01*
X053360Y015104D01*
X053353Y015050D01*
X053700D01*
Y015397D01*
D02*
G37*
G36*
X047950Y015263D02*
X047888Y015251D01*
X047835Y015215D01*
X047799Y015162D01*
X047787Y015100D01*
X047799Y015038D01*
X047835Y014985D01*
X047888Y014949D01*
X047950Y014937D01*
X048012Y014949D01*
X048065Y014985D01*
X048101Y015038D01*
X048113Y015100D01*
X048101Y015162D01*
X048065Y015215D01*
X048012Y015251D01*
X047950Y015263D01*
D02*
G37*
G36*
X022350Y015213D02*
X022288Y015201D01*
X022235Y015165D01*
X022199Y015112D01*
X022187Y015050D01*
X022199Y014988D01*
X022235Y014935D01*
X022288Y014899D01*
X022350Y014887D01*
X022412Y014899D01*
X022465Y014935D01*
X022501Y014988D01*
X022513Y015050D01*
X022501Y015112D01*
X022465Y015165D01*
X022412Y015201D01*
X022350Y015213D01*
D02*
G37*
G36*
X043450D02*
X043388Y015201D01*
X043335Y015165D01*
X043299Y015112D01*
X043287Y015050D01*
X043299Y014988D01*
X043335Y014935D01*
X043388Y014899D01*
X043450Y014887D01*
X043512Y014899D01*
X043565Y014935D01*
X043601Y014988D01*
X043613Y015050D01*
X043601Y015112D01*
X043565Y015165D01*
X043512Y015201D01*
X043450Y015213D01*
D02*
G37*
G36*
X037500Y013250D02*
X037331D01*
X037338Y013212D01*
X037388Y013138D01*
X037462Y013088D01*
X037500Y013081D01*
Y013250D01*
D02*
G37*
G36*
X039669Y011450D02*
X039500D01*
Y011281D01*
X039538Y011288D01*
X039612Y011338D01*
X039662Y011412D01*
X039669Y011450D01*
D02*
G37*
G36*
X047650Y011469D02*
X047612Y011462D01*
X047538Y011412D01*
X047488Y011338D01*
X047481Y011300D01*
X047650D01*
Y011469D01*
D02*
G37*
G36*
X039400Y011450D02*
X039231D01*
X039238Y011412D01*
X039288Y011338D01*
X039362Y011288D01*
X039400Y011281D01*
Y011450D01*
D02*
G37*
G36*
X037950Y011219D02*
X037912Y011212D01*
X037838Y011162D01*
X037788Y011088D01*
X037781Y011050D01*
X037950D01*
Y011219D01*
D02*
G37*
G36*
X038050D02*
Y011050D01*
X038219D01*
X038212Y011088D01*
X038162Y011162D01*
X038088Y011212D01*
X038050Y011219D01*
D02*
G37*
G36*
X041000Y012150D02*
X040831D01*
X040838Y012112D01*
X040888Y012038D01*
X040962Y011988D01*
X041000Y011981D01*
Y012150D01*
D02*
G37*
G36*
X041269D02*
X041100D01*
Y011981D01*
X041138Y011988D01*
X041212Y012038D01*
X041262Y012112D01*
X041269Y012150D01*
D02*
G37*
G36*
X039500Y011719D02*
Y011550D01*
X039669D01*
X039662Y011588D01*
X039612Y011662D01*
X039538Y011712D01*
X039500Y011719D01*
D02*
G37*
G36*
X047750Y011469D02*
Y011300D01*
X047919D01*
X047912Y011338D01*
X047862Y011412D01*
X047788Y011462D01*
X047750Y011469D01*
D02*
G37*
G36*
X039400Y011719D02*
X039362Y011712D01*
X039288Y011662D01*
X039238Y011588D01*
X039231Y011550D01*
X039400D01*
Y011719D01*
D02*
G37*
G36*
X049250Y011553D02*
X049159Y011541D01*
X049073Y011506D01*
X049000Y011450D01*
X048944Y011377D01*
X048909Y011291D01*
X048897Y011200D01*
X048909Y011109D01*
X048944Y011023D01*
X049000Y010950D01*
X049073Y010894D01*
X049159Y010859D01*
X049250Y010847D01*
X049341Y010859D01*
X049427Y010894D01*
X049500Y010950D01*
X049556Y011023D01*
X049591Y011109D01*
X049603Y011200D01*
X049591Y011291D01*
X049556Y011377D01*
X049500Y011450D01*
X049427Y011506D01*
X049341Y011541D01*
X049250Y011553D01*
D02*
G37*
G36*
X050250D02*
X050159Y011541D01*
X050073Y011506D01*
X050000Y011450D01*
X049944Y011377D01*
X049909Y011291D01*
X049897Y011200D01*
X049909Y011109D01*
X049944Y011023D01*
X050000Y010950D01*
X050073Y010894D01*
X050159Y010859D01*
X050250Y010847D01*
X050341Y010859D01*
X050427Y010894D01*
X050500Y010950D01*
X050556Y011023D01*
X050591Y011109D01*
X050603Y011200D01*
X050591Y011291D01*
X050556Y011377D01*
X050500Y011450D01*
X050427Y011506D01*
X050341Y011541D01*
X050250Y011553D01*
D02*
G37*
G36*
X038219Y010950D02*
X038050D01*
Y010781D01*
X038088Y010788D01*
X038162Y010838D01*
X038212Y010912D01*
X038219Y010950D01*
D02*
G37*
G36*
X012750Y013304D02*
X012546Y013288D01*
X012347Y013240D01*
X012158Y013162D01*
X011984Y013055D01*
X011828Y012922D01*
X011695Y012766D01*
X011588Y012592D01*
X011510Y012403D01*
X011462Y012204D01*
X011446Y012000D01*
X011462Y011796D01*
X011510Y011597D01*
X011588Y011408D01*
X011695Y011234D01*
X011828Y011078D01*
X011984Y010945D01*
X012158Y010838D01*
X012347Y010760D01*
X012546Y010712D01*
X012750Y010696D01*
X012954Y010712D01*
X013153Y010760D01*
X013342Y010838D01*
X013516Y010945D01*
X013672Y011078D01*
X013805Y011234D01*
X013912Y011408D01*
X013990Y011597D01*
X014038Y011796D01*
X014054Y012000D01*
X014038Y012204D01*
X013990Y012403D01*
X013912Y012592D01*
X013805Y012766D01*
X013672Y012922D01*
X013516Y013055D01*
X013342Y013162D01*
X013153Y013240D01*
X012954Y013288D01*
X012750Y013304D01*
D02*
G37*
G36*
X037950Y010950D02*
X037781D01*
X037788Y010912D01*
X037838Y010838D01*
X037912Y010788D01*
X037950Y010781D01*
Y010950D01*
D02*
G37*
G36*
X047650Y011200D02*
X047481D01*
X047488Y011162D01*
X047538Y011088D01*
X047612Y011038D01*
X047650Y011031D01*
Y011200D01*
D02*
G37*
G36*
X047919D02*
X047750D01*
Y011031D01*
X047788Y011038D01*
X047862Y011088D01*
X047912Y011162D01*
X047919Y011200D01*
D02*
G37*
G36*
X053400Y011550D02*
X052700D01*
Y010850D01*
X053400D01*
Y011550D01*
D02*
G37*
G36*
X054050Y011553D02*
X053959Y011541D01*
X053873Y011506D01*
X053800Y011450D01*
X053744Y011377D01*
X053709Y011291D01*
X053697Y011200D01*
X053709Y011109D01*
X053744Y011023D01*
X053800Y010950D01*
X053873Y010894D01*
X053959Y010859D01*
X054050Y010847D01*
X054141Y010859D01*
X054227Y010894D01*
X054300Y010950D01*
X054356Y011023D01*
X054391Y011109D01*
X054403Y011200D01*
X054391Y011291D01*
X054356Y011377D01*
X054300Y011450D01*
X054227Y011506D01*
X054141Y011541D01*
X054050Y011553D01*
D02*
G37*
G36*
X051600Y011550D02*
X050900D01*
Y010850D01*
X051600D01*
Y011550D01*
D02*
G37*
G36*
X043250Y012419D02*
Y012250D01*
X043419D01*
X043412Y012288D01*
X043362Y012362D01*
X043288Y012412D01*
X043250Y012419D01*
D02*
G37*
G36*
X045850D02*
X045812Y012412D01*
X045738Y012362D01*
X045688Y012288D01*
X045681Y012250D01*
X045850D01*
Y012419D01*
D02*
G37*
G36*
X043150D02*
X043112Y012412D01*
X043038Y012362D01*
X042988Y012288D01*
X042981Y012250D01*
X043150D01*
Y012419D01*
D02*
G37*
G36*
X041000D02*
X040962Y012412D01*
X040888Y012362D01*
X040838Y012288D01*
X040831Y012250D01*
X041000D01*
Y012419D01*
D02*
G37*
G36*
X041100D02*
Y012250D01*
X041269D01*
X041262Y012288D01*
X041212Y012362D01*
X041138Y012412D01*
X041100Y012419D01*
D02*
G37*
G36*
X040000Y013063D02*
X039938Y013051D01*
X039885Y013015D01*
X039849Y012962D01*
X039837Y012900D01*
X039849Y012838D01*
X039885Y012785D01*
X039938Y012749D01*
X040000Y012737D01*
X040062Y012749D01*
X040115Y012785D01*
X040151Y012838D01*
X040163Y012900D01*
X040151Y012962D01*
X040115Y013015D01*
X040062Y013051D01*
X040000Y013063D01*
D02*
G37*
G36*
X051350Y013450D02*
X050650D01*
Y012750D01*
X051350D01*
Y013450D01*
D02*
G37*
G36*
X038050Y012569D02*
Y012400D01*
X038219D01*
X038212Y012438D01*
X038162Y012512D01*
X038088Y012562D01*
X038050Y012569D01*
D02*
G37*
G36*
X045950Y012419D02*
Y012250D01*
X046119D01*
X046112Y012288D01*
X046062Y012362D01*
X045988Y012412D01*
X045950Y012419D01*
D02*
G37*
G36*
X037950Y012569D02*
X037912Y012562D01*
X037838Y012512D01*
X037788Y012438D01*
X037781Y012400D01*
X037950D01*
Y012569D01*
D02*
G37*
G36*
X046119Y012150D02*
X045950D01*
Y011981D01*
X045988Y011988D01*
X046062Y012038D01*
X046112Y012112D01*
X046119Y012150D01*
D02*
G37*
G36*
X041650Y012378D02*
X041582Y012365D01*
X041524Y012326D01*
X041485Y012268D01*
X041472Y012200D01*
X041485Y012132D01*
X041524Y012074D01*
X041582Y012035D01*
X041650Y012022D01*
X041718Y012035D01*
X041776Y012074D01*
X041815Y012132D01*
X041828Y012200D01*
X041815Y012268D01*
X041776Y012326D01*
X041718Y012365D01*
X041650Y012378D01*
D02*
G37*
G36*
X045850Y012150D02*
X045681D01*
X045688Y012112D01*
X045738Y012038D01*
X045812Y011988D01*
X045850Y011981D01*
Y012150D01*
D02*
G37*
G36*
X043150D02*
X042981D01*
X042988Y012112D01*
X043038Y012038D01*
X043112Y011988D01*
X043150Y011981D01*
Y012150D01*
D02*
G37*
G36*
X043419D02*
X043250D01*
Y011981D01*
X043288Y011988D01*
X043362Y012038D01*
X043412Y012112D01*
X043419Y012150D01*
D02*
G37*
G36*
X037950Y012300D02*
X037781D01*
X037788Y012262D01*
X037838Y012188D01*
X037912Y012138D01*
X037950Y012131D01*
Y012300D01*
D02*
G37*
G36*
X038219D02*
X038050D01*
Y012131D01*
X038088Y012138D01*
X038162Y012188D01*
X038212Y012262D01*
X038219Y012300D01*
D02*
G37*
G36*
X030000Y012363D02*
X029938Y012351D01*
X029885Y012315D01*
X029849Y012262D01*
X029837Y012200D01*
X029849Y012138D01*
X029885Y012085D01*
X029938Y012049D01*
X030000Y012037D01*
X030062Y012049D01*
X030115Y012085D01*
X030151Y012138D01*
X030163Y012200D01*
X030151Y012262D01*
X030115Y012315D01*
X030062Y012351D01*
X030000Y012363D01*
D02*
G37*
G36*
X043800Y012378D02*
X043732Y012365D01*
X043674Y012326D01*
X043635Y012268D01*
X043622Y012200D01*
X043635Y012132D01*
X043674Y012074D01*
X043732Y012035D01*
X043800Y012022D01*
X043868Y012035D01*
X043926Y012074D01*
X043965Y012132D01*
X043978Y012200D01*
X043965Y012268D01*
X043926Y012326D01*
X043868Y012365D01*
X043800Y012378D01*
D02*
G37*
G36*
X046500D02*
X046432Y012365D01*
X046374Y012326D01*
X046335Y012268D01*
X046322Y012200D01*
X046335Y012132D01*
X046374Y012074D01*
X046432Y012035D01*
X046500Y012022D01*
X046568Y012035D01*
X046626Y012074D01*
X046665Y012132D01*
X046678Y012200D01*
X046665Y012268D01*
X046626Y012326D01*
X046568Y012365D01*
X046500Y012378D01*
D02*
G37*
G36*
X018848Y017827D02*
X018763Y017816D01*
X018683Y017783D01*
X018615Y017731D01*
X018563Y017663D01*
X018530Y017583D01*
X018519Y017498D01*
X018530Y017413D01*
X018563Y017334D01*
X018615Y017266D01*
X018683Y017214D01*
X018763Y017181D01*
X018848Y017170D01*
X018933Y017181D01*
X019012Y017214D01*
X019080Y017266D01*
X019132Y017334D01*
X019165Y017413D01*
X019176Y017498D01*
X019165Y017583D01*
X019132Y017663D01*
X019080Y017731D01*
X019012Y017783D01*
X018933Y017816D01*
X018848Y017827D01*
D02*
G37*
G36*
X032100Y017563D02*
X032038Y017551D01*
X031985Y017515D01*
X031949Y017462D01*
X031937Y017400D01*
X031949Y017338D01*
X031985Y017285D01*
X032038Y017249D01*
X032100Y017237D01*
X032162Y017249D01*
X032215Y017285D01*
X032251Y017338D01*
X032263Y017400D01*
X032251Y017462D01*
X032215Y017515D01*
X032162Y017551D01*
X032100Y017563D01*
D02*
G37*
G36*
X051000Y017853D02*
X050909Y017841D01*
X050823Y017806D01*
X050750Y017750D01*
X050694Y017677D01*
X050659Y017591D01*
X050647Y017500D01*
X050659Y017409D01*
X050694Y017323D01*
X050750Y017250D01*
X050823Y017194D01*
X050909Y017159D01*
X051000Y017147D01*
X051091Y017159D01*
X051177Y017194D01*
X051250Y017250D01*
X051306Y017323D01*
X051341Y017409D01*
X051353Y017500D01*
X051341Y017591D01*
X051306Y017677D01*
X051250Y017750D01*
X051177Y017806D01*
X051091Y017841D01*
X051000Y017853D01*
D02*
G37*
G36*
X036769Y017250D02*
X036600D01*
Y017081D01*
X036638Y017088D01*
X036712Y017138D01*
X036762Y017212D01*
X036769Y017250D01*
D02*
G37*
G36*
X039850Y017463D02*
X039788Y017451D01*
X039735Y017415D01*
X039699Y017362D01*
X039687Y017300D01*
X039699Y017238D01*
X039735Y017185D01*
X039788Y017149D01*
X039850Y017137D01*
X039912Y017149D01*
X039965Y017185D01*
X040001Y017238D01*
X040013Y017300D01*
X040001Y017362D01*
X039965Y017415D01*
X039912Y017451D01*
X039850Y017463D01*
D02*
G37*
G36*
X039650Y017813D02*
X039588Y017801D01*
X039535Y017765D01*
X039499Y017712D01*
X039487Y017650D01*
X039499Y017588D01*
X039535Y017535D01*
X039588Y017499D01*
X039650Y017487D01*
X039712Y017499D01*
X039765Y017535D01*
X039801Y017588D01*
X039813Y017650D01*
X039801Y017712D01*
X039765Y017765D01*
X039712Y017801D01*
X039650Y017813D01*
D02*
G37*
G36*
X033900Y017913D02*
X033838Y017901D01*
X033785Y017865D01*
X033749Y017812D01*
X033737Y017750D01*
X033749Y017688D01*
X033785Y017635D01*
X033838Y017599D01*
X033900Y017587D01*
X033962Y017599D01*
X034015Y017635D01*
X034051Y017688D01*
X034063Y017750D01*
X034051Y017812D01*
X034015Y017865D01*
X033962Y017901D01*
X033900Y017913D01*
D02*
G37*
G36*
X036600Y017519D02*
Y017350D01*
X036769D01*
X036762Y017388D01*
X036712Y017462D01*
X036638Y017512D01*
X036600Y017519D01*
D02*
G37*
G36*
X048850Y017628D02*
X048782Y017615D01*
X048724Y017576D01*
X048685Y017518D01*
X048672Y017450D01*
X048685Y017382D01*
X048724Y017324D01*
X048782Y017285D01*
X048850Y017272D01*
X048918Y017285D01*
X048976Y017324D01*
X049015Y017382D01*
X049028Y017450D01*
X049015Y017518D01*
X048976Y017576D01*
X048918Y017615D01*
X048850Y017628D01*
D02*
G37*
G36*
X036500Y017519D02*
X036462Y017512D01*
X036388Y017462D01*
X036338Y017388D01*
X036331Y017350D01*
X036500D01*
Y017519D01*
D02*
G37*
G36*
X028900Y017563D02*
X028838Y017551D01*
X028785Y017515D01*
X028749Y017462D01*
X028737Y017400D01*
X028749Y017338D01*
X028785Y017285D01*
X028837Y017250D01*
Y017200D01*
X028785Y017165D01*
X028749Y017112D01*
X028737Y017050D01*
X028749Y016988D01*
X028785Y016935D01*
X028838Y016899D01*
X028900Y016887D01*
X028962Y016899D01*
X029015Y016935D01*
X029051Y016988D01*
X029063Y017050D01*
X029051Y017112D01*
X029015Y017165D01*
X028963Y017200D01*
Y017250D01*
X029015Y017285D01*
X029051Y017338D01*
X029063Y017400D01*
X029051Y017462D01*
X029015Y017515D01*
X028962Y017551D01*
X028900Y017563D01*
D02*
G37*
G36*
X048800Y017069D02*
X048762Y017062D01*
X048688Y017012D01*
X048638Y016938D01*
X048631Y016900D01*
X048800D01*
Y017069D01*
D02*
G37*
G36*
X040150Y017063D02*
X040088Y017051D01*
X040035Y017015D01*
X039999Y016962D01*
X039987Y016900D01*
X039999Y016838D01*
X040035Y016785D01*
X040088Y016749D01*
X040150Y016737D01*
X040212Y016749D01*
X040265Y016785D01*
X040301Y016838D01*
X040313Y016900D01*
X040301Y016962D01*
X040265Y017015D01*
X040212Y017051D01*
X040150Y017063D01*
D02*
G37*
G36*
X054750Y017353D02*
X054659Y017341D01*
X054573Y017306D01*
X054500Y017250D01*
X054444Y017177D01*
X054409Y017091D01*
X054397Y017000D01*
X054409Y016909D01*
X054444Y016823D01*
X054500Y016750D01*
X054573Y016694D01*
X054659Y016659D01*
X054750Y016647D01*
X054841Y016659D01*
X054927Y016694D01*
X055000Y016750D01*
X055056Y016823D01*
X055091Y016909D01*
X055103Y017000D01*
X055091Y017091D01*
X055056Y017177D01*
X055000Y017250D01*
X054927Y017306D01*
X054841Y017341D01*
X054750Y017353D01*
D02*
G37*
G36*
X029250Y017063D02*
X029188Y017051D01*
X029135Y017015D01*
X029099Y016962D01*
X029087Y016900D01*
X029099Y016838D01*
X029135Y016785D01*
X029188Y016749D01*
X029250Y016737D01*
X029312Y016749D01*
X029365Y016785D01*
X029401Y016838D01*
X029413Y016900D01*
X029401Y016962D01*
X029365Y017015D01*
X029312Y017051D01*
X029250Y017063D01*
D02*
G37*
G36*
X053800Y017397D02*
Y017050D01*
X054147D01*
X054140Y017104D01*
X054099Y017202D01*
X054035Y017285D01*
X053952Y017349D01*
X053854Y017390D01*
X053800Y017397D01*
D02*
G37*
G36*
X036500Y017250D02*
X036331D01*
X036338Y017212D01*
X036388Y017138D01*
X036462Y017088D01*
X036500Y017081D01*
Y017250D01*
D02*
G37*
G36*
X053700Y017397D02*
X053646Y017390D01*
X053548Y017349D01*
X053465Y017285D01*
X053401Y017202D01*
X053360Y017104D01*
X053353Y017050D01*
X053700D01*
Y017397D01*
D02*
G37*
G36*
X048900Y017069D02*
Y016900D01*
X049069D01*
X049062Y016938D01*
X049012Y017012D01*
X048938Y017062D01*
X048900Y017069D01*
D02*
G37*
G36*
X034150Y017363D02*
X034088Y017351D01*
X034035Y017315D01*
X033999Y017262D01*
X033987Y017200D01*
X033999Y017138D01*
X034035Y017085D01*
X034088Y017049D01*
X034150Y017037D01*
X034212Y017049D01*
X034265Y017085D01*
X034301Y017138D01*
X034313Y017200D01*
X034301Y017262D01*
X034265Y017315D01*
X034212Y017351D01*
X034150Y017363D01*
D02*
G37*
G36*
X048800Y018600D02*
X048631D01*
X048638Y018562D01*
X048688Y018488D01*
X048762Y018438D01*
X048800Y018431D01*
Y018600D01*
D02*
G37*
G36*
X049069D02*
X048900D01*
Y018431D01*
X048938Y018438D01*
X049012Y018488D01*
X049062Y018562D01*
X049069Y018600D01*
D02*
G37*
G36*
X028800Y018454D02*
Y018300D01*
X028954D01*
X028948Y018332D01*
X028901Y018401D01*
X028832Y018448D01*
X028800Y018454D01*
D02*
G37*
G36*
X053800Y018397D02*
Y018050D01*
X054147D01*
X054140Y018104D01*
X054099Y018202D01*
X054035Y018285D01*
X053952Y018349D01*
X053854Y018390D01*
X053800Y018397D01*
D02*
G37*
G36*
X028700Y018454D02*
X028668Y018448D01*
X028599Y018401D01*
X028552Y018332D01*
X028546Y018300D01*
X028700D01*
Y018454D01*
D02*
G37*
G36*
X054750Y019353D02*
X054659Y019341D01*
X054573Y019306D01*
X054500Y019250D01*
X054444Y019177D01*
X054409Y019091D01*
X054397Y019000D01*
X054409Y018909D01*
X054444Y018823D01*
X054500Y018750D01*
X054573Y018694D01*
X054659Y018659D01*
X054750Y018647D01*
X054841Y018659D01*
X054927Y018694D01*
X055000Y018750D01*
X055056Y018823D01*
X055091Y018909D01*
X055103Y019000D01*
X055091Y019091D01*
X055056Y019177D01*
X055000Y019250D01*
X054927Y019306D01*
X054841Y019341D01*
X054750Y019353D01*
D02*
G37*
G36*
X032100Y018850D02*
X031946D01*
X031952Y018818D01*
X031999Y018749D01*
X032068Y018702D01*
X032100Y018696D01*
Y018850D01*
D02*
G37*
G36*
X054147Y018950D02*
X053800D01*
Y018603D01*
X053854Y018610D01*
X053952Y018651D01*
X054035Y018715D01*
X054099Y018798D01*
X054140Y018896D01*
X054147Y018950D01*
D02*
G37*
G36*
X036550Y018828D02*
X036482Y018815D01*
X036424Y018776D01*
X036385Y018718D01*
X036372Y018650D01*
X036385Y018582D01*
X036424Y018524D01*
X036482Y018485D01*
X036550Y018472D01*
X036618Y018485D01*
X036676Y018524D01*
X036715Y018582D01*
X036728Y018650D01*
X036715Y018718D01*
X036676Y018776D01*
X036618Y018815D01*
X036550Y018828D01*
D02*
G37*
G36*
X053700Y018950D02*
X053353D01*
X053360Y018896D01*
X053401Y018798D01*
X053465Y018715D01*
X053548Y018651D01*
X053646Y018610D01*
X053700Y018603D01*
Y018950D01*
D02*
G37*
G36*
X030650Y018013D02*
X030588Y018001D01*
X030535Y017965D01*
X030499Y017912D01*
X030487Y017850D01*
X030499Y017788D01*
X030535Y017735D01*
X030588Y017699D01*
X030650Y017687D01*
X030712Y017699D01*
X030765Y017735D01*
X030801Y017788D01*
X030813Y017850D01*
X030801Y017912D01*
X030765Y017965D01*
X030712Y018001D01*
X030650Y018013D01*
D02*
G37*
G36*
X039450Y018163D02*
X039388Y018151D01*
X039335Y018115D01*
X039299Y018062D01*
X039287Y018000D01*
X039299Y017938D01*
X039335Y017885D01*
X039388Y017849D01*
X039450Y017837D01*
X039512Y017849D01*
X039565Y017885D01*
X039601Y017938D01*
X039613Y018000D01*
X039601Y018062D01*
X039565Y018115D01*
X039512Y018151D01*
X039450Y018163D01*
D02*
G37*
G36*
X054750Y018353D02*
X054659Y018341D01*
X054573Y018306D01*
X054500Y018250D01*
X054444Y018177D01*
X054409Y018091D01*
X054397Y018000D01*
X054409Y017909D01*
X054444Y017823D01*
X054500Y017750D01*
X054573Y017694D01*
X054659Y017659D01*
X054750Y017647D01*
X054841Y017659D01*
X054927Y017694D01*
X055000Y017750D01*
X055056Y017823D01*
X055091Y017909D01*
X055103Y018000D01*
X055091Y018091D01*
X055056Y018177D01*
X055000Y018250D01*
X054927Y018306D01*
X054841Y018341D01*
X054750Y018353D01*
D02*
G37*
G36*
X053700Y017950D02*
X053353D01*
X053360Y017896D01*
X053401Y017798D01*
X053465Y017715D01*
X053548Y017651D01*
X053646Y017610D01*
X053700Y017603D01*
Y017950D01*
D02*
G37*
G36*
X054147D02*
X053800D01*
Y017603D01*
X053854Y017610D01*
X053952Y017651D01*
X054035Y017715D01*
X054099Y017798D01*
X054140Y017896D01*
X054147Y017950D01*
D02*
G37*
G36*
X028954Y018200D02*
X028800D01*
Y018046D01*
X028832Y018052D01*
X028901Y018099D01*
X028948Y018168D01*
X028954Y018200D01*
D02*
G37*
G36*
X053700Y018397D02*
X053646Y018390D01*
X053548Y018349D01*
X053465Y018285D01*
X053401Y018202D01*
X053360Y018104D01*
X053353Y018050D01*
X053700D01*
Y018397D01*
D02*
G37*
G36*
X028700Y018200D02*
X028546D01*
X028552Y018168D01*
X028599Y018099D01*
X028668Y018052D01*
X028700Y018046D01*
Y018200D01*
D02*
G37*
G36*
X018848Y018626D02*
X018763Y018615D01*
X018683Y018582D01*
X018615Y018530D01*
X018563Y018462D01*
X018530Y018383D01*
X018519Y018298D01*
X018530Y018213D01*
X018563Y018133D01*
X018615Y018065D01*
X018683Y018013D01*
X018763Y017980D01*
X018848Y017969D01*
X018933Y017980D01*
X019012Y018013D01*
X019080Y018065D01*
X019132Y018133D01*
X019165Y018213D01*
X019176Y018298D01*
X019165Y018383D01*
X019132Y018462D01*
X019080Y018530D01*
X019012Y018582D01*
X018933Y018615D01*
X018848Y018626D01*
D02*
G37*
G36*
X031950Y018363D02*
X031888Y018351D01*
X031835Y018315D01*
X031799Y018262D01*
X031787Y018200D01*
X031799Y018138D01*
X031835Y018085D01*
X031888Y018049D01*
X031950Y018037D01*
X032012Y018049D01*
X032065Y018085D01*
X032101Y018138D01*
X032113Y018200D01*
X032101Y018262D01*
X032065Y018315D01*
X032012Y018351D01*
X031950Y018363D01*
D02*
G37*
G36*
X049069Y016800D02*
X048900D01*
Y016631D01*
X048938Y016638D01*
X049012Y016688D01*
X049062Y016762D01*
X049069Y016800D01*
D02*
G37*
G36*
X028200Y015919D02*
Y015750D01*
X028369D01*
X028362Y015788D01*
X028312Y015862D01*
X028238Y015912D01*
X028200Y015919D01*
D02*
G37*
G36*
X022300Y015950D02*
X022131D01*
X022138Y015912D01*
X022188Y015838D01*
X022262Y015788D01*
X022300Y015781D01*
Y015950D01*
D02*
G37*
G36*
X028100Y015919D02*
X028062Y015912D01*
X027988Y015862D01*
X027938Y015788D01*
X027931Y015750D01*
X028100D01*
Y015919D01*
D02*
G37*
G36*
X031704Y015850D02*
X031550D01*
Y015696D01*
X031582Y015702D01*
X031651Y015749D01*
X031698Y015818D01*
X031704Y015850D01*
D02*
G37*
G36*
X019820Y016402D02*
X019730Y016390D01*
X019646Y016355D01*
X019574Y016300D01*
X019518Y016228D01*
X019484Y016144D01*
X019472Y016054D01*
X019484Y015963D01*
X019518Y015879D01*
X019574Y015807D01*
X019646Y015752D01*
X019730Y015717D01*
X019820Y015705D01*
X019910Y015717D01*
X019994Y015752D01*
X020066Y015807D01*
X020122Y015879D01*
X020156Y015963D01*
X020168Y016054D01*
X020156Y016144D01*
X020122Y016228D01*
X020066Y016300D01*
X019994Y016355D01*
X019910Y016390D01*
X019820Y016402D01*
D02*
G37*
G36*
X031450Y016104D02*
X031418Y016098D01*
X031349Y016051D01*
X031302Y015982D01*
X031296Y015950D01*
X031450D01*
Y016104D01*
D02*
G37*
G36*
X031550D02*
Y015950D01*
X031704D01*
X031698Y015982D01*
X031651Y016051D01*
X031582Y016098D01*
X031550Y016104D01*
D02*
G37*
G36*
X039250Y016163D02*
X039188Y016151D01*
X039135Y016115D01*
X039099Y016062D01*
X039087Y016000D01*
X039099Y015938D01*
X039135Y015885D01*
X039188Y015849D01*
X039250Y015837D01*
X039312Y015849D01*
X039365Y015885D01*
X039401Y015938D01*
X039413Y016000D01*
X039401Y016062D01*
X039365Y016115D01*
X039312Y016151D01*
X039250Y016163D01*
D02*
G37*
G36*
X022569Y015950D02*
X022400D01*
Y015781D01*
X022438Y015788D01*
X022512Y015838D01*
X022562Y015912D01*
X022569Y015950D01*
D02*
G37*
G36*
X037900Y016113D02*
X037838Y016101D01*
X037785Y016065D01*
X037749Y016012D01*
X037737Y015950D01*
X037749Y015888D01*
X037785Y015835D01*
X037838Y015799D01*
X037900Y015787D01*
X037962Y015799D01*
X038015Y015835D01*
X038051Y015888D01*
X038063Y015950D01*
X038051Y016012D01*
X038015Y016065D01*
X037962Y016101D01*
X037900Y016113D01*
D02*
G37*
G36*
X018848Y016228D02*
X018763Y016217D01*
X018683Y016184D01*
X018615Y016132D01*
X018563Y016064D01*
X018530Y015985D01*
X018519Y015900D01*
X018527Y015842D01*
X018494Y015804D01*
X017150D01*
X017112Y015788D01*
X017096Y015750D01*
Y014350D01*
X017112Y014312D01*
X017150Y014296D01*
X018600D01*
X018638Y014312D01*
X018654Y014350D01*
Y015583D01*
X018696Y015611D01*
X018763Y015583D01*
X018848Y015572D01*
X018933Y015583D01*
X019012Y015616D01*
X019080Y015668D01*
X019132Y015736D01*
X019165Y015815D01*
X019176Y015900D01*
X019165Y015985D01*
X019132Y016064D01*
X019080Y016132D01*
X019012Y016184D01*
X018933Y016217D01*
X018848Y016228D01*
D02*
G37*
G36*
X053700Y015950D02*
X053353D01*
X053360Y015896D01*
X053401Y015798D01*
X053465Y015715D01*
X053548Y015651D01*
X053646Y015610D01*
X053700Y015603D01*
Y015950D01*
D02*
G37*
G36*
X028369Y015650D02*
X028200D01*
Y015481D01*
X028238Y015488D01*
X028312Y015538D01*
X028362Y015612D01*
X028369Y015650D01*
D02*
G37*
G36*
X014500Y016386D02*
Y015450D01*
X015436D01*
X015422Y015593D01*
X015365Y015779D01*
X015274Y015950D01*
X015150Y016100D01*
X015000Y016224D01*
X014829Y016315D01*
X014643Y016372D01*
X014500Y016386D01*
D02*
G37*
G36*
X028100Y015650D02*
X027931D01*
X027938Y015612D01*
X027988Y015538D01*
X028062Y015488D01*
X028100Y015481D01*
Y015650D01*
D02*
G37*
G36*
X046150Y016013D02*
X046088Y016001D01*
X046035Y015965D01*
X045999Y015912D01*
X045987Y015850D01*
X045999Y015788D01*
X046035Y015735D01*
X046088Y015699D01*
X046150Y015687D01*
X046212Y015699D01*
X046265Y015735D01*
X046301Y015788D01*
X046313Y015850D01*
X046301Y015912D01*
X046265Y015965D01*
X046212Y016001D01*
X046150Y016013D01*
D02*
G37*
G36*
X031450Y015850D02*
X031296D01*
X031302Y015818D01*
X031349Y015749D01*
X031418Y015702D01*
X031450Y015696D01*
Y015850D01*
D02*
G37*
G36*
X054750Y016353D02*
X054659Y016341D01*
X054573Y016306D01*
X054500Y016250D01*
X054444Y016177D01*
X054409Y016091D01*
X054397Y016000D01*
X054409Y015909D01*
X054444Y015823D01*
X054500Y015750D01*
X054573Y015694D01*
X054659Y015659D01*
X054750Y015647D01*
X054841Y015659D01*
X054927Y015694D01*
X055000Y015750D01*
X055056Y015823D01*
X055091Y015909D01*
X055103Y016000D01*
X055091Y016091D01*
X055056Y016177D01*
X055000Y016250D01*
X054927Y016306D01*
X054841Y016341D01*
X054750Y016353D01*
D02*
G37*
G36*
X054147Y015950D02*
X053800D01*
Y015603D01*
X053854Y015610D01*
X053952Y015651D01*
X054035Y015715D01*
X054099Y015798D01*
X054140Y015896D01*
X054147Y015950D01*
D02*
G37*
G36*
X047550Y015963D02*
X047488Y015951D01*
X047435Y015915D01*
X047399Y015862D01*
X047387Y015800D01*
X047399Y015738D01*
X047435Y015685D01*
X047488Y015649D01*
X047550Y015637D01*
X047612Y015649D01*
X047665Y015685D01*
X047701Y015738D01*
X047713Y015800D01*
X047701Y015862D01*
X047665Y015915D01*
X047612Y015951D01*
X047550Y015963D01*
D02*
G37*
G36*
X018848Y017028D02*
X018763Y017016D01*
X018683Y016984D01*
X018615Y016931D01*
X018563Y016863D01*
X018530Y016784D01*
X018519Y016699D01*
X018530Y016614D01*
X018563Y016535D01*
X018615Y016467D01*
X018683Y016415D01*
X018763Y016382D01*
X018848Y016371D01*
X018933Y016382D01*
X019012Y016415D01*
X019080Y016467D01*
X019132Y016535D01*
X019165Y016614D01*
X019176Y016699D01*
X019165Y016784D01*
X019132Y016863D01*
X019080Y016931D01*
X019012Y016984D01*
X018933Y017016D01*
X018848Y017028D01*
D02*
G37*
G36*
X036550Y016878D02*
X036482Y016865D01*
X036424Y016826D01*
X036385Y016768D01*
X036372Y016700D01*
X036385Y016632D01*
X036424Y016574D01*
X036482Y016535D01*
X036550Y016522D01*
X036618Y016535D01*
X036676Y016574D01*
X036715Y016632D01*
X036728Y016700D01*
X036715Y016768D01*
X036676Y016826D01*
X036618Y016865D01*
X036550Y016878D01*
D02*
G37*
G36*
X024300Y016454D02*
Y016300D01*
X024454D01*
X024448Y016332D01*
X024401Y016401D01*
X024332Y016448D01*
X024300Y016454D01*
D02*
G37*
G36*
X030050Y016563D02*
X029988Y016551D01*
X029935Y016515D01*
X029899Y016462D01*
X029887Y016400D01*
X029899Y016338D01*
X029935Y016285D01*
X029988Y016249D01*
X030050Y016237D01*
X030112Y016249D01*
X030165Y016285D01*
X030201Y016338D01*
X030213Y016400D01*
X030201Y016462D01*
X030165Y016515D01*
X030112Y016551D01*
X030050Y016563D01*
D02*
G37*
G36*
X024200Y016454D02*
X024168Y016448D01*
X024099Y016401D01*
X024052Y016332D01*
X024046Y016300D01*
X024200D01*
Y016454D01*
D02*
G37*
G36*
X054147Y016950D02*
X053800D01*
Y016603D01*
X053854Y016610D01*
X053952Y016651D01*
X054035Y016715D01*
X054099Y016798D01*
X054140Y016896D01*
X054147Y016950D01*
D02*
G37*
G36*
X048800Y016800D02*
X048631D01*
X048638Y016762D01*
X048688Y016688D01*
X048762Y016638D01*
X048800Y016631D01*
Y016800D01*
D02*
G37*
G36*
X053700Y016950D02*
X053353D01*
X053360Y016896D01*
X053401Y016798D01*
X053465Y016715D01*
X053548Y016651D01*
X053646Y016610D01*
X053700Y016603D01*
Y016950D01*
D02*
G37*
G36*
X040500Y016863D02*
X040438Y016851D01*
X040385Y016815D01*
X040349Y016762D01*
X040337Y016700D01*
X040349Y016638D01*
X040385Y016585D01*
X040438Y016549D01*
X040500Y016537D01*
X040562Y016549D01*
X040615Y016585D01*
X040651Y016638D01*
X040663Y016700D01*
X040651Y016762D01*
X040615Y016815D01*
X040562Y016851D01*
X040500Y016863D01*
D02*
G37*
G36*
X026050Y016913D02*
X025988Y016901D01*
X025935Y016865D01*
X025899Y016812D01*
X025887Y016750D01*
X025899Y016688D01*
X025935Y016635D01*
X025988Y016599D01*
X026050Y016587D01*
X026112Y016599D01*
X026165Y016635D01*
X026201Y016688D01*
X026213Y016750D01*
X026201Y016812D01*
X026165Y016865D01*
X026112Y016901D01*
X026050Y016913D01*
D02*
G37*
G36*
X022300Y016219D02*
X022262Y016212D01*
X022188Y016162D01*
X022138Y016088D01*
X022131Y016050D01*
X022300D01*
Y016219D01*
D02*
G37*
G36*
X022400D02*
Y016050D01*
X022569D01*
X022562Y016088D01*
X022512Y016162D01*
X022438Y016212D01*
X022400Y016219D01*
D02*
G37*
G36*
X024454Y016200D02*
X024300D01*
Y016046D01*
X024332Y016052D01*
X024401Y016099D01*
X024448Y016168D01*
X024454Y016200D01*
D02*
G37*
G36*
X044800Y016313D02*
X044738Y016301D01*
X044685Y016265D01*
X044649Y016212D01*
X044637Y016150D01*
X044649Y016088D01*
X044685Y016035D01*
X044738Y015999D01*
X044800Y015987D01*
X044862Y015999D01*
X044915Y016035D01*
X044951Y016088D01*
X044963Y016150D01*
X044951Y016212D01*
X044915Y016265D01*
X044862Y016301D01*
X044800Y016313D01*
D02*
G37*
G36*
X024200Y016200D02*
X024046D01*
X024052Y016168D01*
X024099Y016099D01*
X024168Y016052D01*
X024200Y016046D01*
Y016200D01*
D02*
G37*
G36*
X051350Y016850D02*
X050650D01*
Y016150D01*
X051350D01*
Y016850D01*
D02*
G37*
G36*
X037750Y016513D02*
X037688Y016501D01*
X037635Y016465D01*
X037599Y016412D01*
X037587Y016350D01*
X037599Y016288D01*
X037635Y016235D01*
X037688Y016199D01*
X037750Y016187D01*
X037812Y016199D01*
X037865Y016235D01*
X037901Y016288D01*
X037913Y016350D01*
X037901Y016412D01*
X037865Y016465D01*
X037812Y016501D01*
X037750Y016513D01*
D02*
G37*
G36*
X046200Y016463D02*
X046138Y016451D01*
X046085Y016415D01*
X046049Y016362D01*
X046037Y016300D01*
X046049Y016238D01*
X046085Y016185D01*
X046138Y016149D01*
X046200Y016137D01*
X046262Y016149D01*
X046315Y016185D01*
X046351Y016238D01*
X046363Y016300D01*
X046351Y016362D01*
X046315Y016415D01*
X046262Y016451D01*
X046200Y016463D01*
D02*
G37*
G36*
X053700Y016397D02*
X053646Y016390D01*
X053548Y016349D01*
X053465Y016285D01*
X053401Y016202D01*
X053360Y016104D01*
X053353Y016050D01*
X053700D01*
Y016397D01*
D02*
G37*
G36*
X053800D02*
Y016050D01*
X054147D01*
X054140Y016104D01*
X054099Y016202D01*
X054035Y016285D01*
X053952Y016349D01*
X053854Y016390D01*
X053800Y016397D01*
D02*
G37*
G36*
X014700Y030350D02*
X014353D01*
X014360Y030296D01*
X014401Y030198D01*
X014465Y030115D01*
X014548Y030051D01*
X014646Y030010D01*
X014700Y030003D01*
Y030350D01*
D02*
G37*
G36*
X021000Y050813D02*
X020938Y050801D01*
X020885Y050765D01*
X020849Y050712D01*
X020837Y050650D01*
X020849Y050588D01*
X020885Y050535D01*
X020938Y050499D01*
X021000Y050487D01*
X021062Y050499D01*
X021115Y050535D01*
X021151Y050588D01*
X021163Y050650D01*
X021151Y050712D01*
X021115Y050765D01*
X021062Y050801D01*
X021000Y050813D01*
D02*
G37*
G36*
X026750Y050704D02*
X026718Y050698D01*
X026649Y050651D01*
X026602Y050582D01*
X026596Y050550D01*
X026750D01*
Y050704D01*
D02*
G37*
G36*
X037850Y050713D02*
X037788Y050701D01*
X037735Y050665D01*
X037699Y050612D01*
X037687Y050550D01*
X037699Y050488D01*
X037735Y050435D01*
X037788Y050399D01*
X037850Y050387D01*
X037912Y050399D01*
X037965Y050435D01*
X038001Y050488D01*
X038013Y050550D01*
X038001Y050612D01*
X037965Y050665D01*
X037912Y050701D01*
X037850Y050713D01*
D02*
G37*
G36*
X032050Y050450D02*
X031896D01*
X031902Y050418D01*
X031949Y050349D01*
X032018Y050302D01*
X032050Y050296D01*
Y050450D01*
D02*
G37*
G36*
X032304D02*
X032150D01*
Y050296D01*
X032182Y050302D01*
X032251Y050349D01*
X032298Y050418D01*
X032304Y050450D01*
D02*
G37*
G36*
X044600Y050800D02*
X044446D01*
X044452Y050768D01*
X044499Y050699D01*
X044568Y050652D01*
X044600Y050646D01*
Y050800D01*
D02*
G37*
G36*
X044854D02*
X044700D01*
Y050646D01*
X044732Y050652D01*
X044801Y050699D01*
X044848Y050768D01*
X044854Y050800D01*
D02*
G37*
G36*
X032150Y050704D02*
Y050550D01*
X032304D01*
X032298Y050582D01*
X032251Y050651D01*
X032182Y050698D01*
X032150Y050704D01*
D02*
G37*
G36*
X026850D02*
Y050550D01*
X027004D01*
X026998Y050582D01*
X026951Y050651D01*
X026882Y050698D01*
X026850Y050704D01*
D02*
G37*
G36*
X032050D02*
X032018Y050698D01*
X031949Y050651D01*
X031902Y050582D01*
X031896Y050550D01*
X032050D01*
Y050704D01*
D02*
G37*
G36*
X043500Y049904D02*
X043468Y049898D01*
X043399Y049851D01*
X043352Y049782D01*
X043346Y049750D01*
X043500D01*
Y049904D01*
D02*
G37*
G36*
X043600D02*
Y049750D01*
X043754D01*
X043748Y049782D01*
X043701Y049851D01*
X043632Y049898D01*
X043600Y049904D01*
D02*
G37*
G36*
X039550D02*
Y049750D01*
X039704D01*
X039698Y049782D01*
X039651Y049851D01*
X039582Y049898D01*
X039550Y049904D01*
D02*
G37*
G36*
X021450Y049963D02*
X021388Y049951D01*
X021335Y049915D01*
X021299Y049862D01*
X021287Y049800D01*
X021299Y049738D01*
X021335Y049685D01*
X021388Y049649D01*
X021450Y049637D01*
X021512Y049649D01*
X021565Y049685D01*
X021601Y049738D01*
X021613Y049800D01*
X021601Y049862D01*
X021565Y049915D01*
X021512Y049951D01*
X021450Y049963D01*
D02*
G37*
G36*
X039450Y049904D02*
X039418Y049898D01*
X039349Y049851D01*
X039302Y049782D01*
X039296Y049750D01*
X039450D01*
Y049904D01*
D02*
G37*
G36*
X026750Y050450D02*
X026596D01*
X026602Y050418D01*
X026649Y050349D01*
X026718Y050302D01*
X026750Y050296D01*
Y050450D01*
D02*
G37*
G36*
X027004D02*
X026850D01*
Y050296D01*
X026882Y050302D01*
X026951Y050349D01*
X026998Y050418D01*
X027004Y050450D01*
D02*
G37*
G36*
X021000Y050413D02*
X020938Y050401D01*
X020885Y050365D01*
X020849Y050312D01*
X020837Y050250D01*
X020849Y050188D01*
X020885Y050135D01*
X020938Y050099D01*
X021000Y050087D01*
X021062Y050099D01*
X021115Y050135D01*
X021151Y050188D01*
X021163Y050250D01*
X021151Y050312D01*
X021115Y050365D01*
X021062Y050401D01*
X021000Y050413D01*
D02*
G37*
G36*
X014750Y050765D02*
X014659Y050753D01*
X014573Y050718D01*
X014500Y050662D01*
X014444Y050589D01*
X014409Y050504D01*
X014397Y050412D01*
X014409Y050321D01*
X014444Y050236D01*
X014500Y050163D01*
X014573Y050106D01*
X014659Y050071D01*
X014750Y050059D01*
X014841Y050071D01*
X014927Y050106D01*
X015000Y050163D01*
X015056Y050236D01*
X015091Y050321D01*
X015103Y050412D01*
X015091Y050504D01*
X015056Y050589D01*
X015000Y050662D01*
X014927Y050718D01*
X014841Y050753D01*
X014750Y050765D01*
D02*
G37*
G36*
X017900Y050765D02*
X017808Y050753D01*
X017723Y050718D01*
X017650Y050662D01*
X017594Y050589D01*
X017559Y050504D01*
X017547Y050412D01*
X017559Y050321D01*
X017594Y050236D01*
X017650Y050163D01*
X017723Y050106D01*
X017808Y050071D01*
X017900Y050059D01*
X017991Y050071D01*
X018076Y050106D01*
X018149Y050163D01*
X018205Y050236D01*
X018241Y050321D01*
X018253Y050412D01*
X018241Y050504D01*
X018205Y050589D01*
X018149Y050662D01*
X018076Y050718D01*
X017991Y050753D01*
X017900Y050765D01*
D02*
G37*
G36*
X037350Y051813D02*
X037288Y051801D01*
X037235Y051765D01*
X037199Y051712D01*
X037187Y051650D01*
X037199Y051588D01*
X037235Y051535D01*
X037288Y051499D01*
X037350Y051487D01*
X037412Y051499D01*
X037465Y051535D01*
X037501Y051588D01*
X037513Y051650D01*
X037501Y051712D01*
X037465Y051765D01*
X037412Y051801D01*
X037350Y051813D01*
D02*
G37*
G36*
X039100Y051700D02*
X038931D01*
X038938Y051662D01*
X038988Y051588D01*
X039062Y051538D01*
X039100Y051531D01*
Y051700D01*
D02*
G37*
G36*
X020854Y051500D02*
X020700D01*
Y051346D01*
X020732Y051352D01*
X020801Y051399D01*
X020848Y051468D01*
X020854Y051500D01*
D02*
G37*
G36*
X017900Y051946D02*
X017808Y051934D01*
X017723Y051899D01*
X017650Y051843D01*
X017594Y051770D01*
X017559Y051685D01*
X017547Y051593D01*
X017559Y051502D01*
X017594Y051417D01*
X017650Y051344D01*
X017723Y051288D01*
X017808Y051252D01*
X017900Y051240D01*
X017991Y051252D01*
X018076Y051288D01*
X018149Y051344D01*
X018205Y051417D01*
X018241Y051502D01*
X018253Y051593D01*
X018241Y051685D01*
X018205Y051770D01*
X018149Y051843D01*
X018076Y051899D01*
X017991Y051934D01*
X017900Y051946D01*
D02*
G37*
G36*
X020600Y051500D02*
X020446D01*
X020452Y051468D01*
X020499Y051399D01*
X020568Y051352D01*
X020600Y051346D01*
Y051500D01*
D02*
G37*
G36*
Y051754D02*
X020568Y051748D01*
X020499Y051701D01*
X020452Y051632D01*
X020446Y051600D01*
X020600D01*
Y051754D01*
D02*
G37*
G36*
X020700D02*
Y051600D01*
X020854D01*
X020848Y051632D01*
X020801Y051701D01*
X020732Y051748D01*
X020700Y051754D01*
D02*
G37*
G36*
X042600Y051913D02*
X042538Y051901D01*
X042485Y051865D01*
X042449Y051812D01*
X042437Y051750D01*
X042449Y051688D01*
X042485Y051635D01*
X042538Y051599D01*
X042600Y051587D01*
X042662Y051599D01*
X042715Y051635D01*
X042751Y051688D01*
X042763Y051750D01*
X042751Y051812D01*
X042715Y051865D01*
X042662Y051901D01*
X042600Y051913D01*
D02*
G37*
G36*
X039369Y051700D02*
X039200D01*
Y051531D01*
X039238Y051538D01*
X039312Y051588D01*
X039362Y051662D01*
X039369Y051700D01*
D02*
G37*
G36*
X021850Y051863D02*
X021788Y051851D01*
X021735Y051815D01*
X021699Y051762D01*
X021687Y051700D01*
X021699Y051638D01*
X021735Y051585D01*
X021788Y051549D01*
X021850Y051537D01*
X021912Y051549D01*
X021965Y051585D01*
X022001Y051638D01*
X022013Y051700D01*
X022001Y051762D01*
X021965Y051815D01*
X021912Y051851D01*
X021850Y051863D01*
D02*
G37*
G36*
X025600Y051213D02*
X025538Y051201D01*
X025485Y051165D01*
X025449Y051112D01*
X025437Y051050D01*
X025449Y050988D01*
X025485Y050935D01*
X025538Y050899D01*
X025600Y050887D01*
X025662Y050899D01*
X025715Y050935D01*
X025751Y050988D01*
X025763Y051050D01*
X025751Y051112D01*
X025715Y051165D01*
X025662Y051201D01*
X025600Y051213D01*
D02*
G37*
G36*
X030900D02*
X030838Y051201D01*
X030785Y051165D01*
X030749Y051112D01*
X030737Y051050D01*
X030749Y050988D01*
X030785Y050935D01*
X030838Y050899D01*
X030900Y050887D01*
X030962Y050899D01*
X031015Y050935D01*
X031051Y050988D01*
X031063Y051050D01*
X031051Y051112D01*
X031015Y051165D01*
X030962Y051201D01*
X030900Y051213D01*
D02*
G37*
G36*
X037600Y051013D02*
X037538Y051001D01*
X037485Y050965D01*
X037449Y050912D01*
X037437Y050850D01*
X037449Y050788D01*
X037485Y050735D01*
X037538Y050699D01*
X037600Y050687D01*
X037662Y050699D01*
X037715Y050735D01*
X037751Y050788D01*
X037763Y050850D01*
X037751Y050912D01*
X037715Y050965D01*
X037662Y051001D01*
X037600Y051013D01*
D02*
G37*
G36*
X015734Y051356D02*
X015643Y051344D01*
X015558Y051308D01*
X015485Y051252D01*
X015429Y051179D01*
X015393Y051094D01*
X015381Y051003D01*
X015393Y050911D01*
X015429Y050826D01*
X015485Y050753D01*
X015558Y050697D01*
X015643Y050662D01*
X015734Y050650D01*
X015826Y050662D01*
X015911Y050697D01*
X015984Y050753D01*
X016040Y050826D01*
X016075Y050911D01*
X016087Y051003D01*
X016075Y051094D01*
X016040Y051179D01*
X015984Y051252D01*
X015911Y051308D01*
X015826Y051344D01*
X015734Y051356D01*
D02*
G37*
G36*
X016915D02*
X016824Y051344D01*
X016739Y051308D01*
X016666Y051252D01*
X016610Y051179D01*
X016574Y051094D01*
X016562Y051003D01*
X016574Y050911D01*
X016610Y050826D01*
X016666Y050753D01*
X016739Y050697D01*
X016824Y050662D01*
X016915Y050650D01*
X017007Y050662D01*
X017092Y050697D01*
X017165Y050753D01*
X017221Y050826D01*
X017256Y050911D01*
X017268Y051003D01*
X017256Y051094D01*
X017221Y051179D01*
X017165Y051252D01*
X017092Y051308D01*
X017007Y051344D01*
X016915Y051356D01*
D02*
G37*
G36*
X037350Y051313D02*
X037288Y051301D01*
X037235Y051265D01*
X037199Y051212D01*
X037187Y051150D01*
X037199Y051088D01*
X037235Y051035D01*
X037288Y050999D01*
X037350Y050987D01*
X037412Y050999D01*
X037465Y051035D01*
X037501Y051088D01*
X037513Y051150D01*
X037501Y051212D01*
X037465Y051265D01*
X037412Y051301D01*
X037350Y051313D01*
D02*
G37*
G36*
X014750Y051946D02*
X014659Y051934D01*
X014573Y051899D01*
X014500Y051843D01*
X014444Y051770D01*
X014409Y051685D01*
X014397Y051593D01*
X014409Y051502D01*
X014444Y051417D01*
X014500Y051344D01*
X014573Y051288D01*
X014659Y051252D01*
X014750Y051240D01*
X014841Y051252D01*
X014927Y051288D01*
X015000Y051344D01*
X015056Y051417D01*
X015091Y051502D01*
X015103Y051593D01*
X015091Y051685D01*
X015056Y051770D01*
X015000Y051843D01*
X014927Y051899D01*
X014841Y051934D01*
X014750Y051946D01*
D02*
G37*
G36*
X019900Y051263D02*
X019838Y051251D01*
X019785Y051215D01*
X019749Y051162D01*
X019737Y051100D01*
X019749Y051038D01*
X019785Y050985D01*
X019838Y050949D01*
X019900Y050937D01*
X019962Y050949D01*
X020015Y050985D01*
X020051Y051038D01*
X020063Y051100D01*
X020051Y051162D01*
X020015Y051215D01*
X019962Y051251D01*
X019900Y051263D01*
D02*
G37*
G36*
X044600Y051054D02*
X044568Y051048D01*
X044499Y051001D01*
X044452Y050932D01*
X044446Y050900D01*
X044600D01*
Y051054D01*
D02*
G37*
G36*
X044700D02*
Y050900D01*
X044854D01*
X044848Y050932D01*
X044801Y051001D01*
X044732Y051048D01*
X044700Y051054D01*
D02*
G37*
G36*
X019900Y049963D02*
X019838Y049951D01*
X019785Y049915D01*
X019749Y049862D01*
X019737Y049800D01*
X019749Y049738D01*
X019785Y049685D01*
X019838Y049649D01*
X019900Y049637D01*
X019962Y049649D01*
X020015Y049685D01*
X020051Y049738D01*
X020063Y049800D01*
X020051Y049862D01*
X020015Y049915D01*
X019962Y049951D01*
X019900Y049963D01*
D02*
G37*
G36*
X017900Y048403D02*
X017808Y048391D01*
X017723Y048356D01*
X017650Y048300D01*
X017594Y048227D01*
X017559Y048141D01*
X017547Y048050D01*
X017559Y047959D01*
X017594Y047873D01*
X017650Y047800D01*
X017723Y047744D01*
X017808Y047709D01*
X017900Y047697D01*
X017991Y047709D01*
X018076Y047744D01*
X018149Y047800D01*
X018205Y047873D01*
X018241Y047959D01*
X018253Y048050D01*
X018241Y048141D01*
X018205Y048227D01*
X018149Y048300D01*
X018076Y048356D01*
X017991Y048391D01*
X017900Y048403D01*
D02*
G37*
G36*
X048700Y048113D02*
X048638Y048101D01*
X048585Y048065D01*
X048549Y048012D01*
X048537Y047950D01*
X048549Y047888D01*
X048585Y047835D01*
X048638Y047799D01*
X048700Y047787D01*
X048762Y047799D01*
X048815Y047835D01*
X048851Y047888D01*
X048863Y047950D01*
X048851Y048012D01*
X048815Y048065D01*
X048762Y048101D01*
X048700Y048113D01*
D02*
G37*
G36*
X014750Y048403D02*
X014659Y048391D01*
X014573Y048356D01*
X014500Y048300D01*
X014444Y048227D01*
X014409Y048141D01*
X014397Y048050D01*
X014409Y047959D01*
X014444Y047873D01*
X014500Y047800D01*
X014573Y047744D01*
X014659Y047709D01*
X014750Y047697D01*
X014841Y047709D01*
X014927Y047744D01*
X015000Y047800D01*
X015056Y047873D01*
X015091Y047959D01*
X015103Y048050D01*
X015091Y048141D01*
X015056Y048227D01*
X015000Y048300D01*
X014927Y048356D01*
X014841Y048391D01*
X014750Y048403D01*
D02*
G37*
G36*
X034000Y047713D02*
X033938Y047701D01*
X033885Y047665D01*
X033849Y047612D01*
X033837Y047550D01*
X033849Y047488D01*
X033885Y047435D01*
X033938Y047399D01*
X034000Y047387D01*
X034062Y047399D01*
X034115Y047435D01*
X034151Y047488D01*
X034163Y047550D01*
X034151Y047612D01*
X034115Y047665D01*
X034062Y047701D01*
X034000Y047713D01*
D02*
G37*
G36*
X019900Y047763D02*
X019838Y047751D01*
X019785Y047715D01*
X019749Y047662D01*
X019737Y047600D01*
X019749Y047538D01*
X019785Y047485D01*
X019838Y047449D01*
X019900Y047437D01*
X019962Y047449D01*
X020015Y047485D01*
X020051Y047538D01*
X020063Y047600D01*
X020051Y047662D01*
X020015Y047715D01*
X019962Y047751D01*
X019900Y047763D01*
D02*
G37*
G36*
X045650Y048613D02*
X045588Y048601D01*
X045535Y048565D01*
X045499Y048512D01*
X045487Y048450D01*
X045499Y048388D01*
X045535Y048335D01*
X045588Y048299D01*
X045650Y048287D01*
X045712Y048299D01*
X045765Y048335D01*
X045801Y048388D01*
X045813Y048450D01*
X045801Y048512D01*
X045765Y048565D01*
X045712Y048601D01*
X045650Y048613D01*
D02*
G37*
G36*
X015734Y048994D02*
X015643Y048982D01*
X015558Y048946D01*
X015485Y048890D01*
X015429Y048817D01*
X015393Y048732D01*
X015381Y048641D01*
X015393Y048549D01*
X015429Y048464D01*
X015485Y048391D01*
X015558Y048335D01*
X015643Y048300D01*
X015734Y048288D01*
X015826Y048300D01*
X015911Y048335D01*
X015984Y048391D01*
X016040Y048464D01*
X016075Y048549D01*
X016087Y048641D01*
X016075Y048732D01*
X016040Y048817D01*
X015984Y048890D01*
X015911Y048946D01*
X015826Y048982D01*
X015734Y048994D01*
D02*
G37*
G36*
X040204Y048300D02*
X040050D01*
Y048146D01*
X040082Y048152D01*
X040151Y048199D01*
X040198Y048268D01*
X040204Y048300D01*
D02*
G37*
G36*
X021000Y048613D02*
X020938Y048601D01*
X020885Y048565D01*
X020849Y048512D01*
X020837Y048450D01*
X020849Y048388D01*
X020885Y048335D01*
X020937Y048300D01*
Y048250D01*
X020885Y048215D01*
X020849Y048162D01*
X020837Y048100D01*
X020849Y048038D01*
X020885Y047985D01*
X020938Y047949D01*
X021000Y047937D01*
X021062Y047949D01*
X021115Y047985D01*
X021151Y048038D01*
X021163Y048100D01*
X021151Y048162D01*
X021115Y048215D01*
X021063Y048250D01*
Y048300D01*
X021115Y048335D01*
X021151Y048388D01*
X021163Y048450D01*
X021151Y048512D01*
X021115Y048565D01*
X021062Y048601D01*
X021000Y048613D01*
D02*
G37*
G36*
X039950Y048300D02*
X039796D01*
X039802Y048268D01*
X039849Y048199D01*
X039918Y048152D01*
X039950Y048146D01*
Y048300D01*
D02*
G37*
G36*
X026850Y047204D02*
Y047050D01*
X027004D01*
X026998Y047082D01*
X026951Y047151D01*
X026882Y047198D01*
X026850Y047204D01*
D02*
G37*
G36*
X032050D02*
X032018Y047198D01*
X031949Y047151D01*
X031902Y047082D01*
X031896Y047050D01*
X032050D01*
Y047204D01*
D02*
G37*
G36*
X026750D02*
X026718Y047198D01*
X026649Y047151D01*
X026602Y047082D01*
X026596Y047050D01*
X026750D01*
Y047204D01*
D02*
G37*
G36*
X020600Y047100D02*
X020446D01*
X020452Y047068D01*
X020499Y046999D01*
X020568Y046952D01*
X020600Y046946D01*
Y047100D01*
D02*
G37*
G36*
X020854D02*
X020700D01*
Y046946D01*
X020732Y046952D01*
X020801Y046999D01*
X020848Y047068D01*
X020854Y047100D01*
D02*
G37*
G36*
X020600Y047354D02*
X020568Y047348D01*
X020499Y047301D01*
X020452Y047232D01*
X020446Y047200D01*
X020600D01*
Y047354D01*
D02*
G37*
G36*
X020700D02*
Y047200D01*
X020854D01*
X020848Y047232D01*
X020801Y047301D01*
X020732Y047348D01*
X020700Y047354D01*
D02*
G37*
G36*
X029400Y047413D02*
X029338Y047401D01*
X029285Y047365D01*
X029249Y047312D01*
X029237Y047250D01*
X029249Y047188D01*
X029285Y047135D01*
X029338Y047099D01*
X029400Y047087D01*
X029462Y047099D01*
X029515Y047135D01*
X029551Y047188D01*
X029563Y047250D01*
X029551Y047312D01*
X029515Y047365D01*
X029462Y047401D01*
X029400Y047413D01*
D02*
G37*
G36*
X032150Y047204D02*
Y047050D01*
X032304D01*
X032298Y047082D01*
X032251Y047151D01*
X032182Y047198D01*
X032150Y047204D01*
D02*
G37*
G36*
X024100Y047413D02*
X024038Y047401D01*
X023985Y047365D01*
X023949Y047312D01*
X023937Y047250D01*
X023949Y047188D01*
X023985Y047135D01*
X024038Y047099D01*
X024100Y047087D01*
X024162Y047099D01*
X024215Y047135D01*
X024251Y047188D01*
X024263Y047250D01*
X024251Y047312D01*
X024215Y047365D01*
X024162Y047401D01*
X024100Y047413D01*
D02*
G37*
G36*
X020700Y049554D02*
Y049400D01*
X020854D01*
X020848Y049432D01*
X020801Y049501D01*
X020732Y049548D01*
X020700Y049554D01*
D02*
G37*
G36*
X015734Y050175D02*
X015643Y050163D01*
X015558Y050127D01*
X015485Y050071D01*
X015429Y049998D01*
X015393Y049913D01*
X015381Y049822D01*
X015393Y049730D01*
X015429Y049645D01*
X015485Y049572D01*
X015558Y049516D01*
X015643Y049481D01*
X015734Y049469D01*
X015826Y049481D01*
X015911Y049516D01*
X015984Y049572D01*
X016040Y049645D01*
X016075Y049730D01*
X016087Y049822D01*
X016075Y049913D01*
X016040Y049998D01*
X015984Y050071D01*
X015911Y050127D01*
X015826Y050163D01*
X015734Y050175D01*
D02*
G37*
G36*
X020600Y049554D02*
X020568Y049548D01*
X020499Y049501D01*
X020452Y049432D01*
X020446Y049400D01*
X020600D01*
Y049554D01*
D02*
G37*
G36*
X034700Y049354D02*
X034668Y049348D01*
X034599Y049301D01*
X034552Y049232D01*
X034546Y049200D01*
X034700D01*
Y049354D01*
D02*
G37*
G36*
X034800D02*
Y049200D01*
X034954D01*
X034948Y049232D01*
X034901Y049301D01*
X034832Y049348D01*
X034800Y049354D01*
D02*
G37*
G36*
X043500Y049650D02*
X043346D01*
X043352Y049618D01*
X043399Y049549D01*
X043468Y049502D01*
X043500Y049496D01*
Y049650D01*
D02*
G37*
G36*
X043754D02*
X043600D01*
Y049496D01*
X043632Y049502D01*
X043701Y049549D01*
X043748Y049618D01*
X043754Y049650D01*
D02*
G37*
G36*
X039704D02*
X039550D01*
Y049496D01*
X039582Y049502D01*
X039651Y049549D01*
X039698Y049618D01*
X039704Y049650D01*
D02*
G37*
G36*
X016915Y050175D02*
X016824Y050163D01*
X016739Y050127D01*
X016666Y050071D01*
X016610Y049998D01*
X016574Y049913D01*
X016562Y049822D01*
X016574Y049730D01*
X016610Y049645D01*
X016666Y049572D01*
X016739Y049516D01*
X016824Y049481D01*
X016915Y049469D01*
X017007Y049481D01*
X017092Y049516D01*
X017165Y049572D01*
X017221Y049645D01*
X017256Y049730D01*
X017268Y049822D01*
X017256Y049913D01*
X017221Y049998D01*
X017165Y050071D01*
X017092Y050127D01*
X017007Y050163D01*
X016915Y050175D01*
D02*
G37*
G36*
X039450Y049650D02*
X039296D01*
X039302Y049618D01*
X039349Y049549D01*
X039418Y049502D01*
X039450Y049496D01*
Y049650D01*
D02*
G37*
G36*
X019900Y049013D02*
X019838Y049001D01*
X019785Y048965D01*
X019749Y048912D01*
X019737Y048850D01*
X019749Y048788D01*
X019785Y048735D01*
X019838Y048699D01*
X019900Y048687D01*
X019962Y048699D01*
X020015Y048735D01*
X020051Y048788D01*
X020063Y048850D01*
X020051Y048912D01*
X020015Y048965D01*
X019962Y049001D01*
X019900Y049013D01*
D02*
G37*
G36*
X014750Y049584D02*
X014659Y049572D01*
X014573Y049537D01*
X014500Y049481D01*
X014444Y049408D01*
X014409Y049322D01*
X014397Y049231D01*
X014409Y049140D01*
X014444Y049055D01*
X014500Y048981D01*
X014573Y048925D01*
X014659Y048890D01*
X014750Y048878D01*
X014841Y048890D01*
X014927Y048925D01*
X015000Y048981D01*
X015056Y049055D01*
X015091Y049140D01*
X015103Y049231D01*
X015091Y049322D01*
X015056Y049408D01*
X015000Y049481D01*
X014927Y049537D01*
X014841Y049572D01*
X014750Y049584D01*
D02*
G37*
G36*
X040050Y048554D02*
Y048400D01*
X040204D01*
X040198Y048432D01*
X040151Y048501D01*
X040082Y048548D01*
X040050Y048554D01*
D02*
G37*
G36*
X016915Y048994D02*
X016824Y048982D01*
X016739Y048946D01*
X016666Y048890D01*
X016610Y048817D01*
X016574Y048732D01*
X016562Y048641D01*
X016574Y048549D01*
X016610Y048464D01*
X016666Y048391D01*
X016739Y048335D01*
X016824Y048300D01*
X016915Y048288D01*
X017007Y048300D01*
X017092Y048335D01*
X017165Y048391D01*
X017221Y048464D01*
X017256Y048549D01*
X017268Y048641D01*
X017256Y048732D01*
X017221Y048817D01*
X017165Y048890D01*
X017092Y048946D01*
X017007Y048982D01*
X016915Y048994D01*
D02*
G37*
G36*
X039950Y048554D02*
X039918Y048548D01*
X039849Y048501D01*
X039802Y048432D01*
X039796Y048400D01*
X039950D01*
Y048554D01*
D02*
G37*
G36*
X020600Y049300D02*
X020446D01*
X020452Y049268D01*
X020499Y049199D01*
X020568Y049152D01*
X020600Y049146D01*
Y049300D01*
D02*
G37*
G36*
X020854D02*
X020700D01*
Y049146D01*
X020732Y049152D01*
X020801Y049199D01*
X020848Y049268D01*
X020854Y049300D01*
D02*
G37*
G36*
X034954Y049100D02*
X034800D01*
Y048946D01*
X034832Y048952D01*
X034901Y048999D01*
X034948Y049068D01*
X034954Y049100D01*
D02*
G37*
G36*
X017900Y049584D02*
X017808Y049572D01*
X017723Y049537D01*
X017650Y049481D01*
X017594Y049408D01*
X017559Y049322D01*
X017547Y049231D01*
X017559Y049140D01*
X017594Y049055D01*
X017650Y048981D01*
X017723Y048925D01*
X017808Y048890D01*
X017900Y048878D01*
X017991Y048890D01*
X018076Y048925D01*
X018149Y048981D01*
X018205Y049055D01*
X018241Y049140D01*
X018253Y049231D01*
X018241Y049322D01*
X018205Y049408D01*
X018149Y049481D01*
X018076Y049537D01*
X017991Y049572D01*
X017900Y049584D01*
D02*
G37*
G36*
X034700Y049100D02*
X034546D01*
X034552Y049068D01*
X034599Y048999D01*
X034668Y048952D01*
X034700Y048946D01*
Y049100D01*
D02*
G37*
G36*
X026850Y056104D02*
Y055950D01*
X027004D01*
X026998Y055982D01*
X026951Y056051D01*
X026882Y056098D01*
X026850Y056104D01*
D02*
G37*
G36*
X032050D02*
X032018Y056098D01*
X031949Y056051D01*
X031902Y055982D01*
X031896Y055950D01*
X032050D01*
Y056104D01*
D02*
G37*
G36*
X026750D02*
X026718Y056098D01*
X026649Y056051D01*
X026602Y055982D01*
X026596Y055950D01*
X026750D01*
Y056104D01*
D02*
G37*
G36*
X020600D02*
X020568Y056098D01*
X020499Y056051D01*
X020452Y055982D01*
X020446Y055950D01*
X020600D01*
Y056104D01*
D02*
G37*
G36*
X020700D02*
Y055950D01*
X020854D01*
X020848Y055982D01*
X020801Y056051D01*
X020732Y056098D01*
X020700Y056104D01*
D02*
G37*
G36*
X019900Y056513D02*
X019838Y056501D01*
X019785Y056465D01*
X019749Y056412D01*
X019737Y056350D01*
X019749Y056288D01*
X019785Y056235D01*
X019838Y056199D01*
X019900Y056187D01*
X019962Y056199D01*
X020015Y056235D01*
X020051Y056288D01*
X020063Y056350D01*
X020051Y056412D01*
X020015Y056465D01*
X019962Y056501D01*
X019900Y056513D01*
D02*
G37*
G36*
X030900Y056563D02*
X030838Y056551D01*
X030785Y056515D01*
X030749Y056462D01*
X030737Y056400D01*
X030749Y056338D01*
X030785Y056285D01*
X030838Y056249D01*
X030900Y056237D01*
X030962Y056249D01*
X031015Y056285D01*
X031051Y056338D01*
X031063Y056400D01*
X031051Y056462D01*
X031015Y056515D01*
X030962Y056551D01*
X030900Y056563D01*
D02*
G37*
G36*
X048050Y056154D02*
Y056000D01*
X048204D01*
X048198Y056032D01*
X048151Y056101D01*
X048082Y056148D01*
X048050Y056154D01*
D02*
G37*
G36*
X032150Y056104D02*
Y055950D01*
X032304D01*
X032298Y055982D01*
X032251Y056051D01*
X032182Y056098D01*
X032150Y056104D01*
D02*
G37*
G36*
X047950Y056154D02*
X047918Y056148D01*
X047849Y056101D01*
X047802Y056032D01*
X047796Y056000D01*
X047950D01*
Y056154D01*
D02*
G37*
G36*
X020854Y055850D02*
X020700D01*
Y055696D01*
X020732Y055702D01*
X020801Y055749D01*
X020848Y055818D01*
X020854Y055850D01*
D02*
G37*
G36*
X026750D02*
X026596D01*
X026602Y055818D01*
X026649Y055749D01*
X026718Y055702D01*
X026750Y055696D01*
Y055850D01*
D02*
G37*
G36*
X020600D02*
X020446D01*
X020452Y055818D01*
X020499Y055749D01*
X020568Y055702D01*
X020600Y055696D01*
Y055850D01*
D02*
G37*
G36*
X017950Y055533D02*
Y055187D01*
X018296D01*
X018289Y055241D01*
X018249Y055338D01*
X018185Y055422D01*
X018101Y055486D01*
X018004Y055526D01*
X017950Y055533D01*
D02*
G37*
G36*
X019950Y055613D02*
X019888Y055601D01*
X019835Y055565D01*
X019799Y055512D01*
X019787Y055450D01*
X019799Y055388D01*
X019835Y055335D01*
X019888Y055299D01*
X019950Y055287D01*
X020012Y055299D01*
X020065Y055335D01*
X020101Y055388D01*
X020113Y055450D01*
X020101Y055512D01*
X020065Y055565D01*
X020012Y055601D01*
X019950Y055613D01*
D02*
G37*
G36*
X047950Y055900D02*
X047796D01*
X047802Y055868D01*
X047849Y055799D01*
X047918Y055752D01*
X047950Y055746D01*
Y055900D01*
D02*
G37*
G36*
X048204D02*
X048050D01*
Y055746D01*
X048082Y055752D01*
X048151Y055799D01*
X048198Y055868D01*
X048204Y055900D01*
D02*
G37*
G36*
X032304Y055850D02*
X032150D01*
Y055696D01*
X032182Y055702D01*
X032251Y055749D01*
X032298Y055818D01*
X032304Y055850D01*
D02*
G37*
G36*
X027004D02*
X026850D01*
Y055696D01*
X026882Y055702D01*
X026951Y055749D01*
X026998Y055818D01*
X027004Y055850D01*
D02*
G37*
G36*
X032050D02*
X031896D01*
X031902Y055818D01*
X031949Y055749D01*
X032018Y055702D01*
X032050Y055696D01*
Y055850D01*
D02*
G37*
G36*
X032150Y058004D02*
Y057850D01*
X032304D01*
X032298Y057882D01*
X032251Y057951D01*
X032182Y057998D01*
X032150Y058004D01*
D02*
G37*
G36*
X024150Y058213D02*
X024088Y058201D01*
X024035Y058165D01*
X023999Y058112D01*
X023987Y058050D01*
X023999Y057988D01*
X024035Y057935D01*
X024088Y057899D01*
X024150Y057887D01*
X024212Y057899D01*
X024265Y057935D01*
X024301Y057988D01*
X024313Y058050D01*
X024301Y058112D01*
X024265Y058165D01*
X024212Y058201D01*
X024150Y058213D01*
D02*
G37*
G36*
X032050Y058004D02*
X032018Y057998D01*
X031949Y057951D01*
X031902Y057882D01*
X031896Y057850D01*
X032050D01*
Y058004D01*
D02*
G37*
G36*
X020600Y058000D02*
X020446D01*
X020452Y057968D01*
X020499Y057899D01*
X020568Y057852D01*
X020600Y057846D01*
Y058000D01*
D02*
G37*
G36*
X020854D02*
X020700D01*
Y057846D01*
X020732Y057852D01*
X020801Y057899D01*
X020848Y057968D01*
X020854Y058000D01*
D02*
G37*
G36*
X019850Y058663D02*
X019788Y058651D01*
X019735Y058615D01*
X019699Y058562D01*
X019687Y058500D01*
X019699Y058438D01*
X019735Y058385D01*
X019788Y058349D01*
X019850Y058337D01*
X019912Y058349D01*
X019965Y058385D01*
X020001Y058438D01*
X020013Y058500D01*
X020001Y058562D01*
X019965Y058615D01*
X019912Y058651D01*
X019850Y058663D01*
D02*
G37*
G36*
X021000Y059163D02*
X020938Y059151D01*
X020885Y059115D01*
X020849Y059062D01*
X020837Y059000D01*
X020849Y058938D01*
X020885Y058885D01*
X020938Y058849D01*
X021000Y058837D01*
X021062Y058849D01*
X021115Y058885D01*
X021151Y058938D01*
X021163Y059000D01*
X021151Y059062D01*
X021115Y059115D01*
X021062Y059151D01*
X021000Y059163D01*
D02*
G37*
G36*
X020700Y058254D02*
Y058100D01*
X020854D01*
X020848Y058132D01*
X020801Y058201D01*
X020732Y058248D01*
X020700Y058254D01*
D02*
G37*
G36*
X029450Y058213D02*
X029388Y058201D01*
X029335Y058165D01*
X029299Y058112D01*
X029287Y058050D01*
X029299Y057988D01*
X029335Y057935D01*
X029388Y057899D01*
X029450Y057887D01*
X029512Y057899D01*
X029565Y057935D01*
X029601Y057988D01*
X029613Y058050D01*
X029601Y058112D01*
X029565Y058165D01*
X029512Y058201D01*
X029450Y058213D01*
D02*
G37*
G36*
X020600Y058254D02*
X020568Y058248D01*
X020499Y058201D01*
X020452Y058132D01*
X020446Y058100D01*
X020600D01*
Y058254D01*
D02*
G37*
G36*
X019850Y057763D02*
X019788Y057751D01*
X019735Y057715D01*
X019699Y057662D01*
X019687Y057600D01*
X019699Y057538D01*
X019735Y057485D01*
X019788Y057449D01*
X019850Y057437D01*
X019912Y057449D01*
X019965Y057485D01*
X020001Y057538D01*
X020013Y057600D01*
X020001Y057662D01*
X019965Y057715D01*
X019912Y057751D01*
X019850Y057763D01*
D02*
G37*
G36*
X026750Y057700D02*
X026596D01*
X026602Y057668D01*
X026649Y057599D01*
X026718Y057552D01*
X026750Y057546D01*
Y057700D01*
D02*
G37*
G36*
X012191Y058845D02*
X012024Y058829D01*
X011864Y058780D01*
X011716Y058701D01*
X011587Y058595D01*
X011481Y058466D01*
X011402Y058318D01*
X011353Y058158D01*
X011337Y057991D01*
X011353Y057824D01*
X011402Y057664D01*
X011481Y057516D01*
X011587Y057387D01*
X011716Y057281D01*
X011864Y057202D01*
X012024Y057153D01*
X012191Y057137D01*
X012358Y057153D01*
X012518Y057202D01*
X012666Y057281D01*
X012795Y057387D01*
X012901Y057516D01*
X012980Y057664D01*
X013029Y057824D01*
X013045Y057991D01*
X013029Y058158D01*
X012980Y058318D01*
X012901Y058466D01*
X012795Y058595D01*
X012666Y058701D01*
X012518Y058780D01*
X012358Y058829D01*
X012191Y058845D01*
D02*
G37*
G36*
X021000Y057313D02*
X020938Y057301D01*
X020885Y057265D01*
X020849Y057212D01*
X020837Y057150D01*
X020849Y057088D01*
X020885Y057035D01*
X020937Y057000D01*
Y056950D01*
X020885Y056915D01*
X020849Y056862D01*
X020837Y056800D01*
X020849Y056738D01*
X020885Y056685D01*
X020938Y056649D01*
X021000Y056637D01*
X021062Y056649D01*
X021115Y056685D01*
X021151Y056738D01*
X021163Y056800D01*
X021151Y056862D01*
X021115Y056915D01*
X021063Y056950D01*
Y057000D01*
X021115Y057035D01*
X021151Y057088D01*
X021163Y057150D01*
X021151Y057212D01*
X021115Y057265D01*
X021062Y057301D01*
X021000Y057313D01*
D02*
G37*
G36*
X031400Y057463D02*
X031338Y057451D01*
X031285Y057415D01*
X031249Y057362D01*
X031237Y057300D01*
X031249Y057238D01*
X031285Y057185D01*
X031338Y057149D01*
X031400Y057137D01*
X031462Y057149D01*
X031515Y057185D01*
X031551Y057238D01*
X031563Y057300D01*
X031551Y057362D01*
X031515Y057415D01*
X031462Y057451D01*
X031400Y057463D01*
D02*
G37*
G36*
X026750Y057954D02*
X026718Y057948D01*
X026649Y057901D01*
X026602Y057832D01*
X026596Y057800D01*
X026750D01*
Y057954D01*
D02*
G37*
G36*
X026850D02*
Y057800D01*
X027004D01*
X026998Y057832D01*
X026951Y057901D01*
X026882Y057948D01*
X026850Y057954D01*
D02*
G37*
G36*
X032304Y057750D02*
X032150D01*
Y057596D01*
X032182Y057602D01*
X032251Y057649D01*
X032298Y057718D01*
X032304Y057750D01*
D02*
G37*
G36*
X027004Y057700D02*
X026850D01*
Y057546D01*
X026882Y057552D01*
X026951Y057599D01*
X026998Y057668D01*
X027004Y057700D01*
D02*
G37*
G36*
X032050Y057750D02*
X031896D01*
X031902Y057718D01*
X031949Y057649D01*
X032018Y057602D01*
X032050Y057596D01*
Y057750D01*
D02*
G37*
G36*
X017850Y055533D02*
X017795Y055526D01*
X017698Y055486D01*
X017614Y055422D01*
X017550Y055338D01*
X017510Y055241D01*
X017503Y055187D01*
X017850D01*
Y055533D01*
D02*
G37*
G36*
X017900Y053127D02*
X017808Y053115D01*
X017723Y053080D01*
X017650Y053024D01*
X017594Y052951D01*
X017559Y052866D01*
X017547Y052774D01*
X017559Y052683D01*
X017594Y052598D01*
X017650Y052525D01*
X017723Y052469D01*
X017808Y052433D01*
X017900Y052421D01*
X017991Y052433D01*
X018076Y052469D01*
X018149Y052525D01*
X018205Y052598D01*
X018241Y052683D01*
X018253Y052774D01*
X018241Y052866D01*
X018205Y052951D01*
X018149Y053024D01*
X018076Y053080D01*
X017991Y053115D01*
X017900Y053127D01*
D02*
G37*
G36*
X026750Y052604D02*
X026718Y052598D01*
X026649Y052551D01*
X026602Y052482D01*
X026596Y052450D01*
X026750D01*
Y052604D01*
D02*
G37*
G36*
X014750Y053127D02*
X014659Y053115D01*
X014573Y053080D01*
X014500Y053024D01*
X014444Y052951D01*
X014409Y052866D01*
X014397Y052774D01*
X014409Y052683D01*
X014444Y052598D01*
X014500Y052525D01*
X014573Y052469D01*
X014659Y052433D01*
X014750Y052421D01*
X014841Y052433D01*
X014927Y052469D01*
X015000Y052525D01*
X015056Y052598D01*
X015091Y052683D01*
X015103Y052774D01*
X015091Y052866D01*
X015056Y052951D01*
X015000Y053024D01*
X014927Y053080D01*
X014841Y053115D01*
X014750Y053127D01*
D02*
G37*
G36*
X032304Y052350D02*
X032150D01*
Y052196D01*
X032182Y052202D01*
X032251Y052249D01*
X032298Y052318D01*
X032304Y052350D01*
D02*
G37*
G36*
X021000Y052613D02*
X020938Y052601D01*
X020885Y052565D01*
X020849Y052512D01*
X020837Y052450D01*
X020849Y052388D01*
X020885Y052335D01*
X020938Y052299D01*
X021000Y052287D01*
X021062Y052299D01*
X021115Y052335D01*
X021151Y052388D01*
X021163Y052450D01*
X021151Y052512D01*
X021115Y052565D01*
X021062Y052601D01*
X021000Y052613D01*
D02*
G37*
G36*
X029300Y052813D02*
X029238Y052801D01*
X029185Y052765D01*
X029149Y052712D01*
X029137Y052650D01*
X029149Y052588D01*
X029185Y052535D01*
X029238Y052499D01*
X029300Y052487D01*
X029362Y052499D01*
X029415Y052535D01*
X029451Y052588D01*
X029463Y052650D01*
X029451Y052712D01*
X029415Y052765D01*
X029362Y052801D01*
X029300Y052813D01*
D02*
G37*
G36*
X044250Y052700D02*
X044081D01*
X044088Y052662D01*
X044138Y052588D01*
X044212Y052538D01*
X044250Y052531D01*
Y052700D01*
D02*
G37*
G36*
X032150Y052604D02*
Y052450D01*
X032304D01*
X032298Y052482D01*
X032251Y052551D01*
X032182Y052598D01*
X032150Y052604D01*
D02*
G37*
G36*
X026850D02*
Y052450D01*
X027004D01*
X026998Y052482D01*
X026951Y052551D01*
X026882Y052598D01*
X026850Y052604D01*
D02*
G37*
G36*
X032050D02*
X032018Y052598D01*
X031949Y052551D01*
X031902Y052482D01*
X031896Y052450D01*
X032050D01*
Y052604D01*
D02*
G37*
G36*
X039200Y051969D02*
Y051800D01*
X039369D01*
X039362Y051838D01*
X039312Y051912D01*
X039238Y051962D01*
X039200Y051969D01*
D02*
G37*
G36*
X015734Y052537D02*
X015643Y052525D01*
X015558Y052490D01*
X015485Y052433D01*
X015429Y052360D01*
X015393Y052275D01*
X015381Y052184D01*
X015393Y052092D01*
X015429Y052007D01*
X015485Y051934D01*
X015558Y051878D01*
X015643Y051843D01*
X015734Y051831D01*
X015826Y051843D01*
X015911Y051878D01*
X015984Y051934D01*
X016040Y052007D01*
X016075Y052092D01*
X016087Y052184D01*
X016075Y052275D01*
X016040Y052360D01*
X015984Y052433D01*
X015911Y052490D01*
X015826Y052525D01*
X015734Y052537D01*
D02*
G37*
G36*
X039100Y051969D02*
X039062Y051962D01*
X038988Y051912D01*
X038938Y051838D01*
X038931Y051800D01*
X039100D01*
Y051969D01*
D02*
G37*
G36*
X026100Y052063D02*
X026038Y052051D01*
X025985Y052015D01*
X025949Y051962D01*
X025937Y051900D01*
X025949Y051838D01*
X025985Y051785D01*
X026038Y051749D01*
X026100Y051737D01*
X026162Y051749D01*
X026215Y051785D01*
X026251Y051838D01*
X026263Y051900D01*
X026251Y051962D01*
X026215Y052015D01*
X026162Y052051D01*
X026100Y052063D01*
D02*
G37*
G36*
X031400D02*
X031338Y052051D01*
X031285Y052015D01*
X031249Y051962D01*
X031237Y051900D01*
X031249Y051838D01*
X031285Y051785D01*
X031338Y051749D01*
X031400Y051737D01*
X031462Y051749D01*
X031515Y051785D01*
X031551Y051838D01*
X031563Y051900D01*
X031551Y051962D01*
X031515Y052015D01*
X031462Y052051D01*
X031400Y052063D01*
D02*
G37*
G36*
X027004Y052350D02*
X026850D01*
Y052196D01*
X026882Y052202D01*
X026951Y052249D01*
X026998Y052318D01*
X027004Y052350D01*
D02*
G37*
G36*
X032050D02*
X031896D01*
X031902Y052318D01*
X031949Y052249D01*
X032018Y052202D01*
X032050Y052196D01*
Y052350D01*
D02*
G37*
G36*
X026750D02*
X026596D01*
X026602Y052318D01*
X026649Y052249D01*
X026718Y052202D01*
X026750Y052196D01*
Y052350D01*
D02*
G37*
G36*
X016915Y052537D02*
X016824Y052525D01*
X016739Y052490D01*
X016666Y052433D01*
X016610Y052360D01*
X016574Y052275D01*
X016562Y052184D01*
X016574Y052092D01*
X016610Y052007D01*
X016666Y051934D01*
X016739Y051878D01*
X016824Y051843D01*
X016915Y051831D01*
X017007Y051843D01*
X017092Y051878D01*
X017165Y051934D01*
X017221Y052007D01*
X017256Y052092D01*
X017268Y052184D01*
X017256Y052275D01*
X017221Y052360D01*
X017165Y052433D01*
X017092Y052490D01*
X017007Y052525D01*
X016915Y052537D01*
D02*
G37*
G36*
X019900Y052163D02*
X019838Y052151D01*
X019785Y052115D01*
X019749Y052062D01*
X019737Y052000D01*
X019749Y051938D01*
X019785Y051885D01*
X019838Y051849D01*
X019900Y051837D01*
X019962Y051849D01*
X020015Y051885D01*
X020051Y051938D01*
X020063Y052000D01*
X020051Y052062D01*
X020015Y052115D01*
X019962Y052151D01*
X019900Y052163D01*
D02*
G37*
G36*
X021900Y054813D02*
X021838Y054801D01*
X021785Y054765D01*
X021749Y054712D01*
X021737Y054650D01*
X021749Y054588D01*
X021785Y054535D01*
X021838Y054499D01*
X021900Y054487D01*
X021962Y054499D01*
X022015Y054535D01*
X022051Y054588D01*
X022063Y054650D01*
X022051Y054712D01*
X022015Y054765D01*
X021962Y054801D01*
X021900Y054813D01*
D02*
G37*
G36*
X017850Y055087D02*
X017503D01*
X017510Y055032D01*
X017550Y054935D01*
X017614Y054851D01*
X017698Y054787D01*
X017795Y054747D01*
X017850Y054740D01*
Y055087D01*
D02*
G37*
G36*
X016915Y054899D02*
X016824Y054887D01*
X016739Y054852D01*
X016666Y054796D01*
X016610Y054723D01*
X016574Y054637D01*
X016562Y054546D01*
X016574Y054455D01*
X016610Y054370D01*
X016666Y054296D01*
X016739Y054240D01*
X016824Y054205D01*
X016915Y054193D01*
X017007Y054205D01*
X017092Y054240D01*
X017165Y054296D01*
X017221Y054370D01*
X017256Y054455D01*
X017268Y054546D01*
X017256Y054637D01*
X017221Y054723D01*
X017165Y054796D01*
X017092Y054852D01*
X017007Y054887D01*
X016915Y054899D01*
D02*
G37*
G36*
X017950Y054352D02*
Y054006D01*
X018296D01*
X018289Y054060D01*
X018249Y054157D01*
X018185Y054241D01*
X018101Y054305D01*
X018004Y054345D01*
X017950Y054352D01*
D02*
G37*
G36*
X015734Y054899D02*
X015643Y054887D01*
X015558Y054852D01*
X015485Y054796D01*
X015429Y054723D01*
X015393Y054637D01*
X015381Y054546D01*
X015393Y054455D01*
X015429Y054370D01*
X015485Y054296D01*
X015558Y054240D01*
X015643Y054205D01*
X015734Y054193D01*
X015826Y054205D01*
X015911Y054240D01*
X015984Y054296D01*
X016040Y054370D01*
X016075Y054455D01*
X016087Y054546D01*
X016075Y054637D01*
X016040Y054723D01*
X015984Y054796D01*
X015911Y054852D01*
X015826Y054887D01*
X015734Y054899D01*
D02*
G37*
G36*
X022150Y055163D02*
X022088Y055151D01*
X022035Y055115D01*
X021999Y055062D01*
X021987Y055000D01*
X021999Y054938D01*
X022035Y054885D01*
X022088Y054849D01*
X022150Y054837D01*
X022212Y054849D01*
X022265Y054885D01*
X022301Y054938D01*
X022313Y055000D01*
X022301Y055062D01*
X022265Y055115D01*
X022212Y055151D01*
X022150Y055163D01*
D02*
G37*
G36*
X054250Y057554D02*
X054046Y057538D01*
X053847Y057490D01*
X053658Y057412D01*
X053484Y057305D01*
X053328Y057172D01*
X053195Y057016D01*
X053088Y056842D01*
X053010Y056653D01*
X052962Y056454D01*
X052946Y056250D01*
X052962Y056046D01*
X053010Y055847D01*
X053088Y055658D01*
X053195Y055484D01*
X053328Y055328D01*
X053484Y055195D01*
X053658Y055088D01*
X053847Y055010D01*
X054046Y054962D01*
X054250Y054946D01*
X054454Y054962D01*
X054653Y055010D01*
X054842Y055088D01*
X055016Y055195D01*
X055172Y055328D01*
X055305Y055484D01*
X055412Y055658D01*
X055490Y055847D01*
X055538Y056046D01*
X055554Y056250D01*
X055538Y056454D01*
X055490Y056653D01*
X055412Y056842D01*
X055305Y057016D01*
X055172Y057172D01*
X055016Y057305D01*
X054842Y057412D01*
X054653Y057490D01*
X054454Y057538D01*
X054250Y057554D01*
D02*
G37*
G36*
X021000Y055163D02*
X020938Y055151D01*
X020885Y055115D01*
X020849Y055062D01*
X020837Y055000D01*
X020849Y054938D01*
X020885Y054885D01*
X020938Y054849D01*
X021000Y054837D01*
X021062Y054849D01*
X021115Y054885D01*
X021151Y054938D01*
X021163Y055000D01*
X021151Y055062D01*
X021115Y055115D01*
X021062Y055151D01*
X021000Y055163D01*
D02*
G37*
G36*
X018296Y055087D02*
X017950D01*
Y054740D01*
X018004Y054747D01*
X018101Y054787D01*
X018185Y054851D01*
X018249Y054935D01*
X018289Y055032D01*
X018296Y055087D01*
D02*
G37*
G36*
X014750Y055490D02*
X014659Y055478D01*
X014573Y055442D01*
X014500Y055386D01*
X014444Y055313D01*
X014409Y055228D01*
X014397Y055137D01*
X014409Y055045D01*
X014444Y054960D01*
X014500Y054887D01*
X014573Y054831D01*
X014659Y054796D01*
X014750Y054784D01*
X014841Y054796D01*
X014927Y054831D01*
X015000Y054887D01*
X015056Y054960D01*
X015091Y055045D01*
X015103Y055137D01*
X015091Y055228D01*
X015056Y055313D01*
X015000Y055386D01*
X014927Y055442D01*
X014841Y055478D01*
X014750Y055490D01*
D02*
G37*
G36*
X015734Y053718D02*
X015643Y053706D01*
X015558Y053671D01*
X015485Y053615D01*
X015429Y053541D01*
X015393Y053456D01*
X015381Y053365D01*
X015393Y053274D01*
X015429Y053188D01*
X015485Y053115D01*
X015558Y053059D01*
X015643Y053024D01*
X015734Y053012D01*
X015826Y053024D01*
X015911Y053059D01*
X015984Y053115D01*
X016040Y053188D01*
X016075Y053274D01*
X016087Y053365D01*
X016075Y053456D01*
X016040Y053541D01*
X015984Y053615D01*
X015911Y053671D01*
X015826Y053706D01*
X015734Y053718D01*
D02*
G37*
G36*
X016915D02*
X016824Y053706D01*
X016739Y053671D01*
X016666Y053615D01*
X016610Y053541D01*
X016574Y053456D01*
X016562Y053365D01*
X016574Y053274D01*
X016610Y053188D01*
X016666Y053115D01*
X016739Y053059D01*
X016824Y053024D01*
X016915Y053012D01*
X017007Y053024D01*
X017092Y053059D01*
X017165Y053115D01*
X017221Y053188D01*
X017256Y053274D01*
X017268Y053365D01*
X017256Y053456D01*
X017221Y053541D01*
X017165Y053615D01*
X017092Y053671D01*
X017007Y053706D01*
X016915Y053718D01*
D02*
G37*
G36*
X044350Y052969D02*
Y052800D01*
X044519D01*
X044512Y052838D01*
X044462Y052912D01*
X044388Y052962D01*
X044350Y052969D01*
D02*
G37*
G36*
X044519Y052700D02*
X044350D01*
Y052531D01*
X044388Y052538D01*
X044462Y052588D01*
X044512Y052662D01*
X044519Y052700D01*
D02*
G37*
G36*
X044250Y052969D02*
X044212Y052962D01*
X044138Y052912D01*
X044088Y052838D01*
X044081Y052800D01*
X044250D01*
Y052969D01*
D02*
G37*
G36*
X014750Y054309D02*
X014659Y054296D01*
X014573Y054261D01*
X014500Y054205D01*
X014444Y054132D01*
X014409Y054047D01*
X014397Y053955D01*
X014409Y053864D01*
X014444Y053779D01*
X014500Y053706D01*
X014573Y053650D01*
X014659Y053615D01*
X014750Y053602D01*
X014841Y053615D01*
X014927Y053650D01*
X015000Y053706D01*
X015056Y053779D01*
X015091Y053864D01*
X015103Y053955D01*
X015091Y054047D01*
X015056Y054132D01*
X015000Y054205D01*
X014927Y054261D01*
X014841Y054296D01*
X014750Y054309D01*
D02*
G37*
G36*
X017850Y054352D02*
X017795Y054345D01*
X017698Y054305D01*
X017614Y054241D01*
X017550Y054157D01*
X017510Y054060D01*
X017503Y054006D01*
X017850D01*
Y054352D01*
D02*
G37*
G36*
X018296Y053906D02*
X017950D01*
Y053559D01*
X018004Y053566D01*
X018101Y053606D01*
X018185Y053670D01*
X018249Y053754D01*
X018289Y053851D01*
X018296Y053906D01*
D02*
G37*
G36*
X024450Y053613D02*
X024388Y053601D01*
X024335Y053565D01*
X024299Y053512D01*
X024287Y053450D01*
X024299Y053388D01*
X024335Y053335D01*
X024388Y053299D01*
X024450Y053287D01*
X024512Y053299D01*
X024565Y053335D01*
X024601Y053388D01*
X024613Y053450D01*
X024601Y053512D01*
X024565Y053565D01*
X024512Y053601D01*
X024450Y053613D01*
D02*
G37*
G36*
X017850Y053906D02*
X017503D01*
X017510Y053851D01*
X017550Y053754D01*
X017614Y053670D01*
X017698Y053606D01*
X017795Y053566D01*
X017850Y053559D01*
Y053906D01*
D02*
G37*
G36*
X032304Y046950D02*
X032150D01*
Y046796D01*
X032182Y046802D01*
X032251Y046849D01*
X032298Y046918D01*
X032304Y046950D01*
D02*
G37*
G36*
X016915Y036068D02*
X016824Y036056D01*
X016739Y036021D01*
X016666Y035965D01*
X016610Y035891D01*
X016574Y035806D01*
X016562Y035715D01*
X016574Y035624D01*
X016610Y035538D01*
X016666Y035465D01*
X016739Y035409D01*
X016824Y035374D01*
X016915Y035362D01*
X017007Y035374D01*
X017092Y035409D01*
X017165Y035465D01*
X017221Y035538D01*
X017256Y035624D01*
X017268Y035715D01*
X017256Y035806D01*
X017221Y035891D01*
X017165Y035965D01*
X017092Y036021D01*
X017007Y036056D01*
X016915Y036068D01*
D02*
G37*
G36*
X028550Y035604D02*
X028518Y035598D01*
X028449Y035551D01*
X028402Y035482D01*
X028396Y035450D01*
X028550D01*
Y035604D01*
D02*
G37*
G36*
X015734Y036068D02*
X015643Y036056D01*
X015558Y036021D01*
X015485Y035965D01*
X015429Y035891D01*
X015393Y035806D01*
X015381Y035715D01*
X015393Y035624D01*
X015429Y035538D01*
X015485Y035465D01*
X015558Y035409D01*
X015643Y035374D01*
X015734Y035362D01*
X015826Y035374D01*
X015911Y035409D01*
X015984Y035465D01*
X016040Y035538D01*
X016075Y035624D01*
X016087Y035715D01*
X016075Y035806D01*
X016040Y035891D01*
X015984Y035965D01*
X015911Y036021D01*
X015826Y036056D01*
X015734Y036068D01*
D02*
G37*
G36*
X028804Y035350D02*
X028650D01*
Y035196D01*
X028682Y035202D01*
X028751Y035249D01*
X028798Y035318D01*
X028804Y035350D01*
D02*
G37*
G36*
X044250Y035563D02*
X044188Y035551D01*
X044135Y035515D01*
X044099Y035462D01*
X044087Y035400D01*
X044099Y035338D01*
X044135Y035285D01*
X044188Y035249D01*
X044250Y035237D01*
X044312Y035249D01*
X044365Y035285D01*
X044401Y035338D01*
X044413Y035400D01*
X044401Y035462D01*
X044365Y035515D01*
X044312Y035551D01*
X044250Y035563D01*
D02*
G37*
G36*
X041000Y035863D02*
X040938Y035851D01*
X040885Y035815D01*
X040849Y035762D01*
X040837Y035700D01*
X040849Y035638D01*
X040885Y035585D01*
X040938Y035549D01*
X041000Y035537D01*
X041062Y035549D01*
X041115Y035585D01*
X041151Y035638D01*
X041163Y035700D01*
X041151Y035762D01*
X041115Y035815D01*
X041062Y035851D01*
X041000Y035863D01*
D02*
G37*
G36*
X021700Y035969D02*
X021662Y035962D01*
X021588Y035912D01*
X021538Y035838D01*
X021531Y035800D01*
X021700D01*
Y035969D01*
D02*
G37*
G36*
X021969Y035700D02*
X021800D01*
Y035531D01*
X021838Y035538D01*
X021912Y035588D01*
X021962Y035662D01*
X021969Y035700D01*
D02*
G37*
G36*
X028650Y035604D02*
Y035450D01*
X028804D01*
X028798Y035482D01*
X028751Y035551D01*
X028682Y035598D01*
X028650Y035604D01*
D02*
G37*
G36*
X021700Y035700D02*
X021531D01*
X021538Y035662D01*
X021588Y035588D01*
X021662Y035538D01*
X021700Y035531D01*
Y035700D01*
D02*
G37*
G36*
X016915Y034887D02*
X016824Y034875D01*
X016739Y034840D01*
X016666Y034783D01*
X016610Y034710D01*
X016574Y034625D01*
X016562Y034534D01*
X016574Y034442D01*
X016610Y034357D01*
X016666Y034284D01*
X016739Y034228D01*
X016824Y034193D01*
X016915Y034181D01*
X017007Y034193D01*
X017092Y034228D01*
X017165Y034284D01*
X017221Y034357D01*
X017256Y034442D01*
X017268Y034534D01*
X017256Y034625D01*
X017221Y034710D01*
X017165Y034783D01*
X017092Y034840D01*
X017007Y034875D01*
X016915Y034887D01*
D02*
G37*
G36*
X021750Y034513D02*
X021688Y034501D01*
X021635Y034465D01*
X021599Y034412D01*
X021587Y034350D01*
X021599Y034288D01*
X021635Y034235D01*
X021688Y034199D01*
X021750Y034187D01*
X021812Y034199D01*
X021865Y034235D01*
X021901Y034288D01*
X021913Y034350D01*
X021901Y034412D01*
X021865Y034465D01*
X021812Y034501D01*
X021750Y034513D01*
D02*
G37*
G36*
X015734Y034887D02*
X015643Y034875D01*
X015558Y034840D01*
X015485Y034783D01*
X015429Y034710D01*
X015393Y034625D01*
X015381Y034534D01*
X015393Y034442D01*
X015429Y034357D01*
X015485Y034284D01*
X015558Y034228D01*
X015643Y034193D01*
X015734Y034181D01*
X015826Y034193D01*
X015911Y034228D01*
X015984Y034284D01*
X016040Y034357D01*
X016075Y034442D01*
X016087Y034534D01*
X016075Y034625D01*
X016040Y034710D01*
X015984Y034783D01*
X015911Y034840D01*
X015826Y034875D01*
X015734Y034887D01*
D02*
G37*
G36*
X044200Y033954D02*
X044168Y033948D01*
X044099Y033901D01*
X044052Y033832D01*
X044046Y033800D01*
X044200D01*
Y033954D01*
D02*
G37*
G36*
X044300D02*
Y033800D01*
X044454D01*
X044448Y033832D01*
X044401Y033901D01*
X044332Y033948D01*
X044300Y033954D01*
D02*
G37*
G36*
X017900Y035477D02*
X017808Y035465D01*
X017723Y035430D01*
X017650Y035374D01*
X017594Y035301D01*
X017559Y035216D01*
X017547Y035124D01*
X017559Y035033D01*
X017594Y034948D01*
X017650Y034875D01*
X017723Y034819D01*
X017808Y034783D01*
X017900Y034771D01*
X017991Y034783D01*
X018076Y034819D01*
X018149Y034875D01*
X018205Y034948D01*
X018241Y035033D01*
X018253Y035124D01*
X018241Y035216D01*
X018205Y035301D01*
X018149Y035374D01*
X018076Y035430D01*
X017991Y035465D01*
X017900Y035477D01*
D02*
G37*
G36*
X028550Y035350D02*
X028396D01*
X028402Y035318D01*
X028449Y035249D01*
X028518Y035202D01*
X028550Y035196D01*
Y035350D01*
D02*
G37*
G36*
X014750Y035477D02*
X014659Y035465D01*
X014573Y035430D01*
X014500Y035374D01*
X014444Y035301D01*
X014409Y035216D01*
X014397Y035124D01*
X014409Y035033D01*
X014444Y034948D01*
X014500Y034875D01*
X014573Y034819D01*
X014659Y034783D01*
X014750Y034771D01*
X014841Y034783D01*
X014927Y034819D01*
X015000Y034875D01*
X015056Y034948D01*
X015091Y035033D01*
X015103Y035124D01*
X015091Y035216D01*
X015056Y035301D01*
X015000Y035374D01*
X014927Y035430D01*
X014841Y035465D01*
X014750Y035477D01*
D02*
G37*
G36*
X045100Y034563D02*
X045038Y034551D01*
X044985Y034515D01*
X044949Y034462D01*
X044937Y034400D01*
X044949Y034338D01*
X044985Y034285D01*
X045038Y034249D01*
X045100Y034237D01*
X045162Y034249D01*
X045215Y034285D01*
X045251Y034338D01*
X045263Y034400D01*
X045251Y034462D01*
X045215Y034515D01*
X045162Y034551D01*
X045100Y034563D01*
D02*
G37*
G36*
X032894Y035154D02*
X032816Y035138D01*
X032750Y035094D01*
X032706Y035028D01*
X032691Y034950D01*
X032706Y034872D01*
X032750Y034806D01*
X032816Y034762D01*
X032894Y034746D01*
X032973Y034762D01*
X033039Y034806D01*
X033083Y034872D01*
X033098Y034950D01*
X033083Y035028D01*
X033039Y035094D01*
X032973Y035138D01*
X032894Y035154D01*
D02*
G37*
G36*
X020600Y037063D02*
X020538Y037051D01*
X020485Y037015D01*
X020449Y036962D01*
X020437Y036900D01*
X020449Y036838D01*
X020485Y036785D01*
X020538Y036749D01*
X020600Y036737D01*
X020662Y036749D01*
X020715Y036785D01*
X020751Y036838D01*
X020763Y036900D01*
X020751Y036962D01*
X020715Y037015D01*
X020662Y037051D01*
X020600Y037063D01*
D02*
G37*
G36*
X021700Y037313D02*
X021638Y037301D01*
X021585Y037265D01*
X021549Y037212D01*
X021537Y037150D01*
X021549Y037088D01*
X021585Y037035D01*
X021638Y036999D01*
X021700Y036987D01*
X021762Y036999D01*
X021815Y037035D01*
X021851Y037088D01*
X021863Y037150D01*
X021851Y037212D01*
X021815Y037265D01*
X021762Y037301D01*
X021700Y037313D01*
D02*
G37*
G36*
X016915Y037249D02*
X016824Y037237D01*
X016739Y037202D01*
X016666Y037146D01*
X016610Y037073D01*
X016574Y036987D01*
X016562Y036896D01*
X016574Y036805D01*
X016610Y036720D01*
X016666Y036646D01*
X016739Y036590D01*
X016824Y036555D01*
X016915Y036543D01*
X017007Y036555D01*
X017092Y036590D01*
X017165Y036646D01*
X017221Y036720D01*
X017256Y036805D01*
X017268Y036896D01*
X017256Y036987D01*
X017221Y037073D01*
X017165Y037146D01*
X017092Y037202D01*
X017007Y037237D01*
X016915Y037249D01*
D02*
G37*
G36*
X045100Y036863D02*
X045038Y036851D01*
X044985Y036815D01*
X044949Y036762D01*
X044937Y036700D01*
X044949Y036638D01*
X044985Y036585D01*
X045038Y036549D01*
X045100Y036537D01*
X045162Y036549D01*
X045215Y036585D01*
X045251Y036638D01*
X045263Y036700D01*
X045251Y036762D01*
X045215Y036815D01*
X045162Y036851D01*
X045100Y036863D01*
D02*
G37*
G36*
X015734Y037249D02*
X015643Y037237D01*
X015558Y037202D01*
X015485Y037146D01*
X015429Y037073D01*
X015393Y036987D01*
X015381Y036896D01*
X015393Y036805D01*
X015429Y036720D01*
X015485Y036646D01*
X015558Y036590D01*
X015643Y036555D01*
X015734Y036543D01*
X015826Y036555D01*
X015911Y036590D01*
X015984Y036646D01*
X016040Y036720D01*
X016075Y036805D01*
X016087Y036896D01*
X016075Y036987D01*
X016040Y037073D01*
X015984Y037146D01*
X015911Y037202D01*
X015826Y037237D01*
X015734Y037249D01*
D02*
G37*
G36*
X017900Y037840D02*
X017808Y037828D01*
X017723Y037792D01*
X017650Y037736D01*
X017594Y037663D01*
X017559Y037578D01*
X017547Y037487D01*
X017559Y037395D01*
X017594Y037310D01*
X017650Y037237D01*
X017723Y037181D01*
X017808Y037146D01*
X017900Y037134D01*
X017991Y037146D01*
X018076Y037181D01*
X018149Y037237D01*
X018205Y037310D01*
X018241Y037395D01*
X018253Y037487D01*
X018241Y037578D01*
X018205Y037663D01*
X018149Y037736D01*
X018076Y037792D01*
X017991Y037828D01*
X017900Y037840D01*
D02*
G37*
G36*
X020600Y037663D02*
X020538Y037651D01*
X020485Y037615D01*
X020449Y037562D01*
X020437Y037500D01*
X020449Y037438D01*
X020485Y037385D01*
X020538Y037349D01*
X020600Y037337D01*
X020662Y037349D01*
X020715Y037385D01*
X020742Y037424D01*
X020788Y037405D01*
X020787Y037400D01*
X020799Y037338D01*
X020835Y037285D01*
X020888Y037249D01*
X020950Y037237D01*
X021012Y037249D01*
X021065Y037285D01*
X021101Y037338D01*
X021113Y037400D01*
X021101Y037462D01*
X021065Y037515D01*
X021012Y037551D01*
X020950Y037563D01*
X020888Y037551D01*
X020835Y037515D01*
X020808Y037476D01*
X020762Y037495D01*
X020763Y037500D01*
X020751Y037562D01*
X020715Y037615D01*
X020662Y037651D01*
X020600Y037663D01*
D02*
G37*
G36*
X015147Y037437D02*
X014800D01*
Y037090D01*
X014854Y037097D01*
X014952Y037137D01*
X015035Y037201D01*
X015099Y037285D01*
X015140Y037382D01*
X015147Y037437D01*
D02*
G37*
G36*
X022150Y037413D02*
X022088Y037401D01*
X022035Y037365D01*
X021999Y037312D01*
X021987Y037250D01*
X021999Y037188D01*
X022035Y037135D01*
X022088Y037099D01*
X022150Y037087D01*
X022212Y037099D01*
X022265Y037135D01*
X022301Y037188D01*
X022313Y037250D01*
X022301Y037312D01*
X022265Y037365D01*
X022212Y037401D01*
X022150Y037413D01*
D02*
G37*
G36*
X014700Y037437D02*
X014353D01*
X014360Y037382D01*
X014401Y037285D01*
X014465Y037201D01*
X014548Y037137D01*
X014646Y037097D01*
X014700Y037090D01*
Y037437D01*
D02*
G37*
G36*
X014750Y036659D02*
X014659Y036646D01*
X014573Y036611D01*
X014500Y036555D01*
X014444Y036482D01*
X014409Y036397D01*
X014397Y036305D01*
X014409Y036214D01*
X014444Y036129D01*
X014500Y036056D01*
X014573Y036000D01*
X014659Y035965D01*
X014750Y035952D01*
X014841Y035965D01*
X014927Y036000D01*
X015000Y036056D01*
X015056Y036129D01*
X015091Y036214D01*
X015103Y036305D01*
X015091Y036397D01*
X015056Y036482D01*
X015000Y036555D01*
X014927Y036611D01*
X014841Y036646D01*
X014750Y036659D01*
D02*
G37*
G36*
X017900Y036659D02*
X017808Y036646D01*
X017723Y036611D01*
X017650Y036555D01*
X017594Y036482D01*
X017559Y036397D01*
X017547Y036306D01*
X017559Y036214D01*
X017594Y036129D01*
X017650Y036056D01*
X017723Y036000D01*
X017808Y035965D01*
X017900Y035952D01*
X017991Y035965D01*
X018076Y036000D01*
X018149Y036056D01*
X018205Y036129D01*
X018241Y036214D01*
X018253Y036306D01*
X018241Y036397D01*
X018205Y036482D01*
X018149Y036555D01*
X018076Y036611D01*
X017991Y036646D01*
X017900Y036659D01*
D02*
G37*
G36*
X043700Y036278D02*
X043632Y036265D01*
X043574Y036226D01*
X043535Y036168D01*
X043522Y036100D01*
X043535Y036032D01*
X043574Y035974D01*
X043632Y035935D01*
X043700Y035922D01*
X043768Y035935D01*
X043826Y035974D01*
X043865Y036032D01*
X043878Y036100D01*
X043865Y036168D01*
X043826Y036226D01*
X043768Y036265D01*
X043700Y036278D01*
D02*
G37*
G36*
X021800Y035969D02*
Y035800D01*
X021969D01*
X021962Y035838D01*
X021912Y035912D01*
X021838Y035962D01*
X021800Y035969D01*
D02*
G37*
G36*
X028600Y036163D02*
X028538Y036151D01*
X028485Y036115D01*
X028449Y036062D01*
X028437Y036000D01*
X028449Y035938D01*
X028485Y035885D01*
X028538Y035849D01*
X028600Y035837D01*
X028662Y035849D01*
X028715Y035885D01*
X028751Y035938D01*
X028763Y036000D01*
X028751Y036062D01*
X028715Y036115D01*
X028662Y036151D01*
X028600Y036163D01*
D02*
G37*
G36*
X032550Y036504D02*
X032518Y036498D01*
X032449Y036451D01*
X032402Y036382D01*
X032396Y036350D01*
X032550D01*
Y036504D01*
D02*
G37*
G36*
X032650D02*
Y036350D01*
X032804D01*
X032798Y036382D01*
X032751Y036451D01*
X032682Y036498D01*
X032650Y036504D01*
D02*
G37*
G36*
X032804Y036250D02*
X032650D01*
Y036096D01*
X032682Y036102D01*
X032751Y036149D01*
X032798Y036218D01*
X032804Y036250D01*
D02*
G37*
G36*
X022250Y036313D02*
X022188Y036301D01*
X022135Y036265D01*
X022099Y036212D01*
X022087Y036150D01*
X022099Y036088D01*
X022135Y036035D01*
X022188Y035999D01*
X022250Y035987D01*
X022312Y035999D01*
X022365Y036035D01*
X022401Y036088D01*
X022413Y036150D01*
X022401Y036212D01*
X022365Y036265D01*
X022312Y036301D01*
X022250Y036313D01*
D02*
G37*
G36*
X032550Y036250D02*
X032396D01*
X032402Y036218D01*
X032449Y036149D01*
X032518Y036102D01*
X032550Y036096D01*
Y036250D01*
D02*
G37*
G36*
X017900Y034296D02*
X017808Y034284D01*
X017723Y034249D01*
X017650Y034193D01*
X017594Y034120D01*
X017559Y034035D01*
X017547Y033943D01*
X017559Y033852D01*
X017594Y033767D01*
X017650Y033694D01*
X017723Y033638D01*
X017808Y033602D01*
X017900Y033590D01*
X017991Y033602D01*
X018076Y033638D01*
X018149Y033694D01*
X018205Y033767D01*
X018241Y033852D01*
X018253Y033943D01*
X018241Y034035D01*
X018205Y034120D01*
X018149Y034193D01*
X018076Y034249D01*
X017991Y034284D01*
X017900Y034296D01*
D02*
G37*
G36*
X036900Y031247D02*
Y030900D01*
X037247D01*
X037240Y030954D01*
X037199Y031052D01*
X037135Y031135D01*
X037052Y031199D01*
X036954Y031240D01*
X036900Y031247D01*
D02*
G37*
G36*
X014750Y031934D02*
X014659Y031922D01*
X014573Y031887D01*
X014500Y031831D01*
X014444Y031758D01*
X014409Y031672D01*
X014397Y031581D01*
X014409Y031490D01*
X014444Y031405D01*
X014500Y031331D01*
X014573Y031275D01*
X014659Y031240D01*
X014750Y031228D01*
X014841Y031240D01*
X014927Y031275D01*
X015000Y031331D01*
X015056Y031405D01*
X015091Y031490D01*
X015103Y031581D01*
X015091Y031672D01*
X015056Y031758D01*
X015000Y031831D01*
X014927Y031887D01*
X014841Y031922D01*
X014750Y031934D01*
D02*
G37*
G36*
X036800Y031247D02*
X036746Y031240D01*
X036648Y031199D01*
X036565Y031135D01*
X036501Y031052D01*
X036460Y030954D01*
X036453Y030900D01*
X036800D01*
Y031247D01*
D02*
G37*
G36*
X015734Y031344D02*
X015643Y031332D01*
X015558Y031296D01*
X015485Y031240D01*
X015429Y031167D01*
X015393Y031082D01*
X015381Y030991D01*
X015393Y030899D01*
X015429Y030814D01*
X015485Y030741D01*
X015558Y030685D01*
X015643Y030650D01*
X015734Y030638D01*
X015826Y030650D01*
X015911Y030685D01*
X015984Y030741D01*
X016040Y030814D01*
X016075Y030899D01*
X016087Y030991D01*
X016075Y031082D01*
X016040Y031167D01*
X015984Y031240D01*
X015911Y031296D01*
X015826Y031332D01*
X015734Y031344D01*
D02*
G37*
G36*
X016915D02*
X016824Y031332D01*
X016739Y031296D01*
X016666Y031240D01*
X016610Y031167D01*
X016574Y031082D01*
X016562Y030991D01*
X016574Y030899D01*
X016610Y030814D01*
X016666Y030741D01*
X016739Y030685D01*
X016824Y030650D01*
X016915Y030638D01*
X017007Y030650D01*
X017092Y030685D01*
X017165Y030741D01*
X017221Y030814D01*
X017256Y030899D01*
X017268Y030991D01*
X017256Y031082D01*
X017221Y031167D01*
X017165Y031240D01*
X017092Y031296D01*
X017007Y031332D01*
X016915Y031344D01*
D02*
G37*
G36*
X033050Y031700D02*
X032881D01*
X032888Y031662D01*
X032938Y031588D01*
X033012Y031538D01*
X033050Y031531D01*
Y031700D01*
D02*
G37*
G36*
X033319D02*
X033150D01*
Y031531D01*
X033188Y031538D01*
X033262Y031588D01*
X033312Y031662D01*
X033319Y031700D01*
D02*
G37*
G36*
X028400Y032005D02*
X028302Y031985D01*
X028220Y031930D01*
X028165Y031848D01*
X028145Y031750D01*
X028165Y031652D01*
X028220Y031570D01*
X028302Y031514D01*
X028400Y031495D01*
X028498Y031514D01*
X028580Y031570D01*
X028635Y031652D01*
X028655Y031750D01*
X028635Y031848D01*
X028580Y031930D01*
X028498Y031985D01*
X028400Y032005D01*
D02*
G37*
G36*
X017900Y031934D02*
X017808Y031922D01*
X017723Y031887D01*
X017650Y031831D01*
X017594Y031758D01*
X017559Y031672D01*
X017547Y031581D01*
X017559Y031490D01*
X017594Y031405D01*
X017650Y031331D01*
X017723Y031275D01*
X017808Y031240D01*
X017900Y031228D01*
X017991Y031240D01*
X018076Y031275D01*
X018149Y031331D01*
X018205Y031405D01*
X018241Y031490D01*
X018253Y031581D01*
X018241Y031672D01*
X018205Y031758D01*
X018149Y031831D01*
X018076Y031887D01*
X017991Y031922D01*
X017900Y031934D01*
D02*
G37*
G36*
X027050Y032005D02*
X026952Y031985D01*
X026870Y031930D01*
X026814Y031848D01*
X026795Y031750D01*
X026814Y031652D01*
X026870Y031570D01*
X026952Y031514D01*
X027050Y031495D01*
X027148Y031514D01*
X027230Y031570D01*
X027285Y031652D01*
X027305Y031750D01*
X027285Y031848D01*
X027230Y031930D01*
X027148Y031985D01*
X027050Y032005D01*
D02*
G37*
G36*
X014700Y030797D02*
X014646Y030790D01*
X014548Y030749D01*
X014465Y030685D01*
X014401Y030602D01*
X014360Y030504D01*
X014353Y030450D01*
X014700D01*
Y030797D01*
D02*
G37*
G36*
X014800D02*
Y030450D01*
X015147D01*
X015140Y030504D01*
X015099Y030602D01*
X015035Y030685D01*
X014952Y030749D01*
X014854Y030790D01*
X014800Y030797D01*
D02*
G37*
G36*
X020500Y030804D02*
X020422Y030788D01*
X020356Y030744D01*
X020312Y030678D01*
X020296Y030600D01*
X020312Y030522D01*
X020356Y030456D01*
X020422Y030412D01*
X020500Y030396D01*
X020578Y030412D01*
X020644Y030456D01*
X020688Y030522D01*
X020704Y030600D01*
X020688Y030678D01*
X020644Y030744D01*
X020578Y030788D01*
X020500Y030804D01*
D02*
G37*
G36*
X015147Y030350D02*
X014800D01*
Y030003D01*
X014854Y030010D01*
X014952Y030051D01*
X015035Y030115D01*
X015099Y030198D01*
X015140Y030296D01*
X015147Y030350D01*
D02*
G37*
G36*
X017900Y030753D02*
X017808Y030741D01*
X017723Y030706D01*
X017650Y030650D01*
X017594Y030577D01*
X017559Y030491D01*
X017547Y030400D01*
X017559Y030309D01*
X017594Y030223D01*
X017650Y030150D01*
X017723Y030094D01*
X017808Y030059D01*
X017900Y030047D01*
X017991Y030059D01*
X018076Y030094D01*
X018149Y030150D01*
X018205Y030223D01*
X018241Y030309D01*
X018253Y030400D01*
X018241Y030491D01*
X018205Y030577D01*
X018149Y030650D01*
X018076Y030706D01*
X017991Y030741D01*
X017900Y030753D01*
D02*
G37*
G36*
X037850Y031203D02*
X037759Y031191D01*
X037673Y031156D01*
X037600Y031100D01*
X037544Y031027D01*
X037509Y030941D01*
X037497Y030850D01*
X037509Y030759D01*
X037544Y030673D01*
X037600Y030600D01*
X037673Y030544D01*
X037759Y030509D01*
X037850Y030497D01*
X037941Y030509D01*
X038027Y030544D01*
X038100Y030600D01*
X038156Y030673D01*
X038191Y030759D01*
X038203Y030850D01*
X038191Y030941D01*
X038156Y031027D01*
X038100Y031100D01*
X038027Y031156D01*
X037941Y031191D01*
X037850Y031203D01*
D02*
G37*
G36*
X039200Y031200D02*
X038500D01*
Y030500D01*
X039200D01*
Y031200D01*
D02*
G37*
G36*
X055421Y031289D02*
X055318Y031275D01*
X055222Y031236D01*
X055140Y031172D01*
X055076Y031090D01*
X055037Y030994D01*
X055023Y030891D01*
X055037Y030788D01*
X055076Y030692D01*
X055140Y030610D01*
X055222Y030546D01*
X055318Y030507D01*
X055421Y030493D01*
X055524Y030507D01*
X055620Y030546D01*
X055702Y030610D01*
X055765Y030692D01*
X055805Y030788D01*
X055819Y030891D01*
X055805Y030994D01*
X055765Y031090D01*
X055702Y031172D01*
X055620Y031236D01*
X055524Y031275D01*
X055421Y031289D01*
D02*
G37*
G36*
X036800Y030800D02*
X036453D01*
X036460Y030746D01*
X036501Y030648D01*
X036565Y030565D01*
X036648Y030501D01*
X036746Y030460D01*
X036800Y030453D01*
Y030800D01*
D02*
G37*
G36*
X037247D02*
X036900D01*
Y030453D01*
X036954Y030460D01*
X037052Y030501D01*
X037135Y030565D01*
X037199Y030648D01*
X037240Y030746D01*
X037247Y030800D01*
D02*
G37*
G36*
X015734Y033706D02*
X015643Y033694D01*
X015558Y033658D01*
X015485Y033602D01*
X015429Y033529D01*
X015393Y033444D01*
X015381Y033353D01*
X015393Y033261D01*
X015429Y033176D01*
X015485Y033103D01*
X015558Y033047D01*
X015643Y033012D01*
X015734Y033000D01*
X015826Y033012D01*
X015911Y033047D01*
X015984Y033103D01*
X016040Y033176D01*
X016075Y033261D01*
X016087Y033353D01*
X016075Y033444D01*
X016040Y033529D01*
X015984Y033602D01*
X015911Y033658D01*
X015826Y033694D01*
X015734Y033706D01*
D02*
G37*
G36*
X016915D02*
X016824Y033694D01*
X016739Y033658D01*
X016666Y033602D01*
X016610Y033529D01*
X016574Y033444D01*
X016562Y033353D01*
X016574Y033261D01*
X016610Y033176D01*
X016666Y033103D01*
X016739Y033047D01*
X016824Y033012D01*
X016915Y033000D01*
X017007Y033012D01*
X017092Y033047D01*
X017165Y033103D01*
X017221Y033176D01*
X017256Y033261D01*
X017268Y033353D01*
X017256Y033444D01*
X017221Y033529D01*
X017165Y033602D01*
X017092Y033658D01*
X017007Y033694D01*
X016915Y033706D01*
D02*
G37*
G36*
X021695Y032900D02*
X021500D01*
Y032705D01*
X021548Y032715D01*
X021630Y032770D01*
X021686Y032852D01*
X021695Y032900D01*
D02*
G37*
G36*
X017900Y033115D02*
X017808Y033103D01*
X017723Y033068D01*
X017650Y033012D01*
X017594Y032939D01*
X017559Y032854D01*
X017547Y032762D01*
X017559Y032671D01*
X017594Y032586D01*
X017650Y032513D01*
X017723Y032456D01*
X017808Y032421D01*
X017900Y032409D01*
X017991Y032421D01*
X018076Y032456D01*
X018149Y032513D01*
X018205Y032586D01*
X018241Y032671D01*
X018253Y032762D01*
X018241Y032854D01*
X018205Y032939D01*
X018149Y033012D01*
X018076Y033068D01*
X017991Y033103D01*
X017900Y033115D01*
D02*
G37*
G36*
X021400Y032900D02*
X021205D01*
X021214Y032852D01*
X021270Y032770D01*
X021352Y032715D01*
X021400Y032705D01*
Y032900D01*
D02*
G37*
G36*
X044454Y033700D02*
X044300D01*
Y033546D01*
X044332Y033552D01*
X044401Y033599D01*
X044448Y033668D01*
X044454Y033700D01*
D02*
G37*
G36*
X014750Y034296D02*
X014659Y034284D01*
X014573Y034249D01*
X014500Y034193D01*
X014444Y034120D01*
X014409Y034035D01*
X014397Y033943D01*
X014409Y033852D01*
X014444Y033767D01*
X014500Y033694D01*
X014573Y033638D01*
X014659Y033602D01*
X014750Y033590D01*
X014841Y033602D01*
X014927Y033638D01*
X015000Y033694D01*
X015056Y033767D01*
X015091Y033852D01*
X015103Y033943D01*
X015091Y034035D01*
X015056Y034120D01*
X015000Y034193D01*
X014927Y034249D01*
X014841Y034284D01*
X014750Y034296D01*
D02*
G37*
G36*
X044200Y033700D02*
X044046D01*
X044052Y033668D01*
X044099Y033599D01*
X044168Y033552D01*
X044200Y033546D01*
Y033700D01*
D02*
G37*
G36*
X021400Y033195D02*
X021352Y033186D01*
X021270Y033130D01*
X021214Y033048D01*
X021205Y033000D01*
X021400D01*
Y033195D01*
D02*
G37*
G36*
X021500D02*
Y033000D01*
X021695D01*
X021686Y033048D01*
X021630Y033130D01*
X021548Y033186D01*
X021500Y033195D01*
D02*
G37*
G36*
X033150Y031969D02*
Y031800D01*
X033319D01*
X033312Y031838D01*
X033262Y031912D01*
X033188Y031962D01*
X033150Y031969D01*
D02*
G37*
G36*
X015734Y032525D02*
X015643Y032513D01*
X015558Y032477D01*
X015485Y032421D01*
X015429Y032348D01*
X015393Y032263D01*
X015381Y032172D01*
X015393Y032080D01*
X015429Y031995D01*
X015485Y031922D01*
X015558Y031866D01*
X015643Y031831D01*
X015734Y031819D01*
X015826Y031831D01*
X015911Y031866D01*
X015984Y031922D01*
X016040Y031995D01*
X016075Y032080D01*
X016087Y032172D01*
X016075Y032263D01*
X016040Y032348D01*
X015984Y032421D01*
X015911Y032477D01*
X015826Y032513D01*
X015734Y032525D01*
D02*
G37*
G36*
X033050Y031969D02*
X033012Y031962D01*
X032938Y031912D01*
X032888Y031838D01*
X032881Y031800D01*
X033050D01*
Y031969D01*
D02*
G37*
G36*
X045100Y031863D02*
X045038Y031851D01*
X044985Y031815D01*
X044949Y031762D01*
X044937Y031700D01*
X044949Y031638D01*
X044985Y031585D01*
X045038Y031549D01*
X045100Y031537D01*
X045162Y031549D01*
X045215Y031585D01*
X045251Y031638D01*
X045263Y031700D01*
X045251Y031762D01*
X045215Y031815D01*
X045162Y031851D01*
X045100Y031863D01*
D02*
G37*
G36*
X049988Y039587D02*
X048370D01*
X048331Y039571D01*
X048316Y039533D01*
Y031607D01*
X048331Y031569D01*
X048370Y031553D01*
X049988D01*
X050026Y031569D01*
X050042Y031607D01*
Y039533D01*
X050026Y039571D01*
X049988Y039587D01*
D02*
G37*
G36*
X038100Y032953D02*
X038022Y032942D01*
X037949Y032912D01*
X037886Y032864D01*
X037838Y032801D01*
X037808Y032728D01*
X037797Y032650D01*
X037808Y032572D01*
X037838Y032499D01*
X037886Y032436D01*
X037949Y032388D01*
X038022Y032358D01*
X038100Y032347D01*
X038178Y032358D01*
X038251Y032388D01*
X038314Y032436D01*
X038362Y032499D01*
X038392Y032572D01*
X038403Y032650D01*
X038392Y032728D01*
X038362Y032801D01*
X038314Y032864D01*
X038251Y032912D01*
X038178Y032942D01*
X038100Y032953D01*
D02*
G37*
G36*
X014750Y033115D02*
X014659Y033103D01*
X014573Y033068D01*
X014500Y033012D01*
X014444Y032939D01*
X014409Y032854D01*
X014397Y032762D01*
X014409Y032671D01*
X014444Y032586D01*
X014500Y032513D01*
X014573Y032456D01*
X014659Y032421D01*
X014750Y032409D01*
X014841Y032421D01*
X014927Y032456D01*
X015000Y032513D01*
X015056Y032586D01*
X015091Y032671D01*
X015103Y032762D01*
X015091Y032854D01*
X015056Y032939D01*
X015000Y033012D01*
X014927Y033068D01*
X014841Y033103D01*
X014750Y033115D01*
D02*
G37*
G36*
X045100Y032563D02*
X045038Y032551D01*
X044985Y032515D01*
X044949Y032462D01*
X044937Y032400D01*
X044949Y032338D01*
X044985Y032285D01*
X045038Y032249D01*
X045100Y032237D01*
X045162Y032249D01*
X045215Y032285D01*
X045251Y032338D01*
X045263Y032400D01*
X045251Y032462D01*
X045215Y032515D01*
X045162Y032551D01*
X045100Y032563D01*
D02*
G37*
G36*
X016915Y032525D02*
X016824Y032513D01*
X016739Y032477D01*
X016666Y032421D01*
X016610Y032348D01*
X016574Y032263D01*
X016562Y032172D01*
X016574Y032080D01*
X016610Y031995D01*
X016666Y031922D01*
X016739Y031866D01*
X016824Y031831D01*
X016915Y031819D01*
X017007Y031831D01*
X017092Y031866D01*
X017165Y031922D01*
X017221Y031995D01*
X017256Y032080D01*
X017268Y032172D01*
X017256Y032263D01*
X017221Y032348D01*
X017165Y032421D01*
X017092Y032477D01*
X017007Y032513D01*
X016915Y032525D01*
D02*
G37*
G36*
X043250Y032328D02*
X043182Y032315D01*
X043124Y032276D01*
X043085Y032218D01*
X043072Y032150D01*
X043085Y032082D01*
X043124Y032024D01*
X043182Y031985D01*
X043250Y031972D01*
X043318Y031985D01*
X043376Y032024D01*
X043415Y032082D01*
X043428Y032150D01*
X043415Y032218D01*
X043376Y032276D01*
X043318Y032315D01*
X043250Y032328D01*
D02*
G37*
G36*
X032304Y045050D02*
X032150D01*
Y044896D01*
X032182Y044902D01*
X032251Y044949D01*
X032298Y045018D01*
X032304Y045050D01*
D02*
G37*
G36*
X020600Y045104D02*
X020568Y045098D01*
X020499Y045051D01*
X020452Y044982D01*
X020446Y044950D01*
X020600D01*
Y045104D01*
D02*
G37*
G36*
X032050Y045050D02*
X031896D01*
X031902Y045018D01*
X031949Y044949D01*
X032018Y044902D01*
X032050Y044896D01*
Y045050D01*
D02*
G37*
G36*
X026750D02*
X026596D01*
X026602Y045018D01*
X026649Y044949D01*
X026718Y044902D01*
X026750Y044896D01*
Y045050D01*
D02*
G37*
G36*
X027004D02*
X026850D01*
Y044896D01*
X026882Y044902D01*
X026951Y044949D01*
X026998Y045018D01*
X027004Y045050D01*
D02*
G37*
G36*
X032050Y045304D02*
X032018Y045298D01*
X031949Y045251D01*
X031902Y045182D01*
X031896Y045150D01*
X032050D01*
Y045304D01*
D02*
G37*
G36*
X032150D02*
Y045150D01*
X032304D01*
X032298Y045182D01*
X032251Y045251D01*
X032182Y045298D01*
X032150Y045304D01*
D02*
G37*
G36*
X026850D02*
Y045150D01*
X027004D01*
X026998Y045182D01*
X026951Y045251D01*
X026882Y045298D01*
X026850Y045304D01*
D02*
G37*
G36*
X020700Y045104D02*
Y044950D01*
X020854D01*
X020848Y044982D01*
X020801Y045051D01*
X020732Y045098D01*
X020700Y045104D01*
D02*
G37*
G36*
X026750Y045304D02*
X026718Y045298D01*
X026649Y045251D01*
X026602Y045182D01*
X026596Y045150D01*
X026750D01*
Y045304D01*
D02*
G37*
G36*
X019947Y044610D02*
X019885Y044598D01*
X019832Y044563D01*
X019797Y044510D01*
X019784Y044447D01*
X019797Y044385D01*
X019832Y044332D01*
X019885Y044297D01*
X019947Y044284D01*
X020010Y044297D01*
X020063Y044332D01*
X020098Y044385D01*
X020110Y044447D01*
X020098Y044510D01*
X020063Y044563D01*
X020010Y044598D01*
X019947Y044610D01*
D02*
G37*
G36*
X012191Y046050D02*
X012024Y046034D01*
X011864Y045985D01*
X011716Y045906D01*
X011587Y045800D01*
X011481Y045671D01*
X011402Y045523D01*
X011353Y045363D01*
X011337Y045196D01*
X011353Y045029D01*
X011402Y044869D01*
X011481Y044721D01*
X011587Y044592D01*
X011716Y044486D01*
X011864Y044407D01*
X012024Y044358D01*
X012191Y044342D01*
X012358Y044358D01*
X012518Y044407D01*
X012666Y044486D01*
X012795Y044592D01*
X012901Y044721D01*
X012980Y044869D01*
X013029Y045029D01*
X013045Y045196D01*
X013029Y045363D01*
X012980Y045523D01*
X012901Y045671D01*
X012795Y045800D01*
X012666Y045906D01*
X012518Y045985D01*
X012358Y046034D01*
X012191Y046050D01*
D02*
G37*
G36*
X021000Y044163D02*
X020938Y044151D01*
X020885Y044115D01*
X020849Y044062D01*
X020837Y044000D01*
X020849Y043938D01*
X020885Y043885D01*
X020938Y043849D01*
X021000Y043837D01*
X021062Y043849D01*
X021115Y043885D01*
X021151Y043938D01*
X021163Y044000D01*
X021151Y044062D01*
X021115Y044115D01*
X021062Y044151D01*
X021000Y044163D01*
D02*
G37*
G36*
X054150Y042254D02*
Y042100D01*
X054304D01*
X054298Y042132D01*
X054251Y042201D01*
X054182Y042248D01*
X054150Y042254D01*
D02*
G37*
G36*
X024300Y043313D02*
X024238Y043301D01*
X024185Y043265D01*
X024149Y043212D01*
X024137Y043150D01*
X024149Y043088D01*
X024185Y043035D01*
X024238Y042999D01*
X024300Y042987D01*
X024362Y042999D01*
X024415Y043035D01*
X024451Y043088D01*
X024463Y043150D01*
X024451Y043212D01*
X024415Y043265D01*
X024362Y043301D01*
X024300Y043313D01*
D02*
G37*
G36*
X020600Y044850D02*
X020446D01*
X020452Y044818D01*
X020499Y044749D01*
X020568Y044702D01*
X020600Y044696D01*
Y044850D01*
D02*
G37*
G36*
X020854D02*
X020700D01*
Y044696D01*
X020732Y044702D01*
X020801Y044749D01*
X020848Y044818D01*
X020854Y044850D01*
D02*
G37*
G36*
X043500Y044813D02*
X043438Y044801D01*
X043385Y044765D01*
X043349Y044712D01*
X043337Y044650D01*
X043349Y044588D01*
X043385Y044535D01*
X043438Y044499D01*
X043500Y044487D01*
X043562Y044499D01*
X043615Y044535D01*
X043651Y044588D01*
X043663Y044650D01*
X043651Y044712D01*
X043615Y044765D01*
X043562Y044801D01*
X043500Y044813D01*
D02*
G37*
G36*
X040900Y044828D02*
X040832Y044815D01*
X040774Y044776D01*
X040735Y044718D01*
X040722Y044650D01*
X040735Y044582D01*
X040774Y044524D01*
X040832Y044485D01*
X040900Y044472D01*
X040968Y044485D01*
X041026Y044524D01*
X041065Y044582D01*
X041078Y044650D01*
X041065Y044718D01*
X041026Y044776D01*
X040968Y044815D01*
X040900Y044828D01*
D02*
G37*
G36*
X042200D02*
X042132Y044815D01*
X042074Y044776D01*
X042035Y044718D01*
X042022Y044650D01*
X042035Y044582D01*
X042074Y044524D01*
X042132Y044485D01*
X042200Y044472D01*
X042268Y044485D01*
X042326Y044524D01*
X042365Y044582D01*
X042378Y044650D01*
X042365Y044718D01*
X042326Y044776D01*
X042268Y044815D01*
X042200Y044828D01*
D02*
G37*
G36*
X031400Y046613D02*
X031338Y046601D01*
X031285Y046565D01*
X031249Y046512D01*
X031237Y046450D01*
X031249Y046388D01*
X031285Y046335D01*
X031338Y046299D01*
X031400Y046287D01*
X031462Y046299D01*
X031515Y046335D01*
X031551Y046388D01*
X031563Y046450D01*
X031551Y046512D01*
X031515Y046565D01*
X031462Y046601D01*
X031400Y046613D01*
D02*
G37*
G36*
X044700Y046554D02*
X044668Y046548D01*
X044599Y046501D01*
X044552Y046432D01*
X044546Y046400D01*
X044700D01*
Y046554D01*
D02*
G37*
G36*
X026100Y046613D02*
X026038Y046601D01*
X025985Y046565D01*
X025949Y046512D01*
X025937Y046450D01*
X025949Y046388D01*
X025985Y046335D01*
X026038Y046299D01*
X026100Y046287D01*
X026162Y046299D01*
X026215Y046335D01*
X026251Y046388D01*
X026263Y046450D01*
X026251Y046512D01*
X026215Y046565D01*
X026162Y046601D01*
X026100Y046613D01*
D02*
G37*
G36*
X037100Y046319D02*
Y046150D01*
X037269D01*
X037262Y046188D01*
X037212Y046262D01*
X037138Y046312D01*
X037100Y046319D01*
D02*
G37*
G36*
X038250Y046563D02*
X038188Y046551D01*
X038135Y046515D01*
X038099Y046462D01*
X038087Y046400D01*
X038099Y046338D01*
X038135Y046285D01*
X038188Y046249D01*
X038250Y046237D01*
X038312Y046249D01*
X038365Y046285D01*
X038401Y046338D01*
X038413Y046400D01*
X038401Y046462D01*
X038365Y046515D01*
X038312Y046551D01*
X038250Y046563D01*
D02*
G37*
G36*
X027004Y046950D02*
X026850D01*
Y046796D01*
X026882Y046802D01*
X026951Y046849D01*
X026998Y046918D01*
X027004Y046950D01*
D02*
G37*
G36*
X032050D02*
X031896D01*
X031902Y046918D01*
X031949Y046849D01*
X032018Y046802D01*
X032050Y046796D01*
Y046950D01*
D02*
G37*
G36*
X026750D02*
X026596D01*
X026602Y046918D01*
X026649Y046849D01*
X026718Y046802D01*
X026750Y046796D01*
Y046950D01*
D02*
G37*
G36*
X044800Y046554D02*
Y046400D01*
X044954D01*
X044948Y046432D01*
X044901Y046501D01*
X044832Y046548D01*
X044800Y046554D01*
D02*
G37*
G36*
X019900Y046863D02*
X019838Y046851D01*
X019785Y046815D01*
X019749Y046762D01*
X019737Y046700D01*
X019749Y046638D01*
X019785Y046585D01*
X019838Y046549D01*
X019900Y046537D01*
X019962Y046549D01*
X020015Y046585D01*
X020051Y046638D01*
X020063Y046700D01*
X020051Y046762D01*
X020015Y046815D01*
X019962Y046851D01*
X019900Y046863D01*
D02*
G37*
G36*
X021000Y045913D02*
X020938Y045901D01*
X020885Y045865D01*
X020849Y045812D01*
X020837Y045750D01*
X020849Y045688D01*
X020885Y045635D01*
X020938Y045599D01*
X021000Y045587D01*
X021062Y045599D01*
X021115Y045635D01*
X021151Y045688D01*
X021163Y045750D01*
X021151Y045812D01*
X021115Y045865D01*
X021062Y045901D01*
X021000Y045913D01*
D02*
G37*
G36*
X037000Y046050D02*
X036831D01*
X036838Y046012D01*
X036888Y045938D01*
X036962Y045888D01*
X037000Y045881D01*
Y046050D01*
D02*
G37*
G36*
X030900Y045813D02*
X030838Y045801D01*
X030785Y045765D01*
X030749Y045712D01*
X030737Y045650D01*
X030749Y045588D01*
X030785Y045535D01*
X030838Y045499D01*
X030900Y045487D01*
X030962Y045499D01*
X031015Y045535D01*
X031051Y045588D01*
X031063Y045650D01*
X031051Y045712D01*
X031015Y045765D01*
X030962Y045801D01*
X030900Y045813D01*
D02*
G37*
G36*
X019947Y045516D02*
X019885Y045503D01*
X019832Y045468D01*
X019797Y045415D01*
X019784Y045353D01*
X019797Y045290D01*
X019832Y045237D01*
X019885Y045202D01*
X019947Y045190D01*
X020010Y045202D01*
X020063Y045237D01*
X020098Y045290D01*
X020110Y045353D01*
X020098Y045415D01*
X020063Y045468D01*
X020010Y045503D01*
X019947Y045516D01*
D02*
G37*
G36*
X025600Y045763D02*
X025538Y045751D01*
X025485Y045715D01*
X025449Y045662D01*
X025437Y045600D01*
X025449Y045538D01*
X025485Y045485D01*
X025538Y045449D01*
X025600Y045437D01*
X025662Y045449D01*
X025715Y045485D01*
X025751Y045538D01*
X025763Y045600D01*
X025751Y045662D01*
X025715Y045715D01*
X025662Y045751D01*
X025600Y045763D01*
D02*
G37*
G36*
X044954Y046300D02*
X044800D01*
Y046146D01*
X044832Y046152D01*
X044901Y046199D01*
X044948Y046268D01*
X044954Y046300D01*
D02*
G37*
G36*
X037000Y046319D02*
X036962Y046312D01*
X036888Y046262D01*
X036838Y046188D01*
X036831Y046150D01*
X037000D01*
Y046319D01*
D02*
G37*
G36*
X044700Y046300D02*
X044546D01*
X044552Y046268D01*
X044599Y046199D01*
X044668Y046152D01*
X044700Y046146D01*
Y046300D01*
D02*
G37*
G36*
X037269Y046050D02*
X037100D01*
Y045881D01*
X037138Y045888D01*
X037212Y045938D01*
X037262Y046012D01*
X037269Y046050D01*
D02*
G37*
G36*
X021000Y046413D02*
X020938Y046401D01*
X020885Y046365D01*
X020849Y046312D01*
X020837Y046250D01*
X020849Y046188D01*
X020885Y046135D01*
X020938Y046099D01*
X021000Y046087D01*
X021062Y046099D01*
X021115Y046135D01*
X021151Y046188D01*
X021163Y046250D01*
X021151Y046312D01*
X021115Y046365D01*
X021062Y046401D01*
X021000Y046413D01*
D02*
G37*
G36*
X054050Y042254D02*
X054018Y042248D01*
X053949Y042201D01*
X053902Y042132D01*
X053896Y042100D01*
X054050D01*
Y042254D01*
D02*
G37*
G36*
X045100Y039463D02*
X045038Y039451D01*
X044985Y039415D01*
X044949Y039362D01*
X044937Y039300D01*
X044949Y039238D01*
X044985Y039185D01*
X045038Y039149D01*
X045100Y039137D01*
X045162Y039149D01*
X045215Y039185D01*
X045251Y039238D01*
X045263Y039300D01*
X045251Y039362D01*
X045215Y039415D01*
X045162Y039451D01*
X045100Y039463D01*
D02*
G37*
G36*
X012191Y041195D02*
X012024Y041179D01*
X011864Y041130D01*
X011716Y041051D01*
X011587Y040945D01*
X011481Y040816D01*
X011402Y040668D01*
X011353Y040508D01*
X011337Y040341D01*
X011353Y040174D01*
X011402Y040014D01*
X011481Y039866D01*
X011587Y039737D01*
X011716Y039631D01*
X011864Y039552D01*
X012024Y039503D01*
X012191Y039487D01*
X012358Y039503D01*
X012518Y039552D01*
X012666Y039631D01*
X012795Y039737D01*
X012901Y039866D01*
X012980Y040014D01*
X013029Y040174D01*
X013045Y040341D01*
X013029Y040508D01*
X012980Y040668D01*
X012901Y040816D01*
X012795Y040945D01*
X012666Y041051D01*
X012518Y041130D01*
X012358Y041179D01*
X012191Y041195D01*
D02*
G37*
G36*
X020000Y039004D02*
Y038850D01*
X020154D01*
X020148Y038882D01*
X020101Y038951D01*
X020032Y038998D01*
X020000Y039004D01*
D02*
G37*
G36*
X020154Y038750D02*
X020000D01*
Y038596D01*
X020032Y038602D01*
X020101Y038649D01*
X020148Y038718D01*
X020154Y038750D01*
D02*
G37*
G36*
X019900Y039004D02*
X019868Y038998D01*
X019799Y038951D01*
X019752Y038882D01*
X019746Y038850D01*
X019900D01*
Y039004D01*
D02*
G37*
G36*
X032304Y039650D02*
X032150D01*
Y039496D01*
X032182Y039502D01*
X032251Y039549D01*
X032298Y039618D01*
X032304Y039650D01*
D02*
G37*
G36*
X026750Y039904D02*
X026718Y039898D01*
X026649Y039851D01*
X026602Y039782D01*
X026596Y039750D01*
X026750D01*
Y039904D01*
D02*
G37*
G36*
X032050Y039650D02*
X031896D01*
X031902Y039618D01*
X031949Y039549D01*
X032018Y039502D01*
X032050Y039496D01*
Y039650D01*
D02*
G37*
G36*
X026750D02*
X026596D01*
X026602Y039618D01*
X026649Y039549D01*
X026718Y039502D01*
X026750Y039496D01*
Y039650D01*
D02*
G37*
G36*
X027004D02*
X026850D01*
Y039496D01*
X026882Y039502D01*
X026951Y039549D01*
X026998Y039618D01*
X027004Y039650D01*
D02*
G37*
G36*
X014700Y037883D02*
X014646Y037876D01*
X014548Y037836D01*
X014465Y037772D01*
X014401Y037688D01*
X014360Y037591D01*
X014353Y037537D01*
X014700D01*
Y037883D01*
D02*
G37*
G36*
X014800D02*
Y037537D01*
X015147D01*
X015140Y037591D01*
X015099Y037688D01*
X015035Y037772D01*
X014952Y037836D01*
X014854Y037876D01*
X014800Y037883D01*
D02*
G37*
G36*
X045100Y037563D02*
X045038Y037551D01*
X044985Y037515D01*
X044949Y037462D01*
X044937Y037400D01*
X044949Y037338D01*
X044985Y037285D01*
X045038Y037249D01*
X045100Y037237D01*
X045162Y037249D01*
X045215Y037285D01*
X045251Y037338D01*
X045263Y037400D01*
X045251Y037462D01*
X045215Y037515D01*
X045162Y037551D01*
X045100Y037563D01*
D02*
G37*
G36*
X022500D02*
X022438Y037551D01*
X022385Y037515D01*
X022349Y037462D01*
X022337Y037400D01*
X022349Y037338D01*
X022385Y037285D01*
X022438Y037249D01*
X022500Y037237D01*
X022562Y037249D01*
X022615Y037285D01*
X022651Y037338D01*
X022663Y037400D01*
X022651Y037462D01*
X022615Y037515D01*
X022562Y037551D01*
X022500Y037563D01*
D02*
G37*
G36*
X042750D02*
X042688Y037551D01*
X042635Y037515D01*
X042599Y037462D01*
X042587Y037400D01*
X042599Y037338D01*
X042635Y037285D01*
X042688Y037249D01*
X042750Y037237D01*
X042812Y037249D01*
X042865Y037285D01*
X042901Y037338D01*
X042913Y037400D01*
X042901Y037462D01*
X042865Y037515D01*
X042812Y037551D01*
X042750Y037563D01*
D02*
G37*
G36*
X045100Y038513D02*
X045038Y038501D01*
X044985Y038465D01*
X044949Y038412D01*
X044937Y038350D01*
X044949Y038288D01*
X044985Y038235D01*
X045038Y038199D01*
X045100Y038187D01*
X045162Y038199D01*
X045215Y038235D01*
X045251Y038288D01*
X045263Y038350D01*
X045251Y038412D01*
X045215Y038465D01*
X045162Y038501D01*
X045100Y038513D01*
D02*
G37*
G36*
X019900Y038750D02*
X019746D01*
X019752Y038718D01*
X019799Y038649D01*
X019868Y038602D01*
X019900Y038596D01*
Y038750D01*
D02*
G37*
G36*
X042750Y038513D02*
X042688Y038501D01*
X042635Y038465D01*
X042599Y038412D01*
X042587Y038350D01*
X042599Y038288D01*
X042635Y038235D01*
X042688Y038199D01*
X042750Y038187D01*
X042812Y038199D01*
X042865Y038235D01*
X042901Y038288D01*
X042913Y038350D01*
X042901Y038412D01*
X042865Y038465D01*
X042812Y038501D01*
X042750Y038513D01*
D02*
G37*
G36*
X023100Y037963D02*
X023038Y037951D01*
X022985Y037915D01*
X022949Y037862D01*
X022937Y037800D01*
X022949Y037738D01*
X022952Y037733D01*
X022917Y037698D01*
X022912Y037701D01*
X022850Y037713D01*
X022788Y037701D01*
X022735Y037665D01*
X022699Y037612D01*
X022687Y037550D01*
X022699Y037488D01*
X022735Y037435D01*
X022788Y037399D01*
X022850Y037387D01*
X022912Y037399D01*
X022965Y037435D01*
X023001Y037488D01*
X023013Y037550D01*
X023001Y037612D01*
X022998Y037617D01*
X023033Y037652D01*
X023038Y037649D01*
X023100Y037637D01*
X023162Y037649D01*
X023215Y037685D01*
X023251Y037738D01*
X023263Y037800D01*
X023251Y037862D01*
X023215Y037915D01*
X023162Y037951D01*
X023100Y037963D01*
D02*
G37*
G36*
X020550Y038063D02*
X020488Y038051D01*
X020435Y038015D01*
X020399Y037962D01*
X020387Y037900D01*
X020399Y037838D01*
X020435Y037785D01*
X020488Y037749D01*
X020550Y037737D01*
X020612Y037749D01*
X020665Y037785D01*
X020701Y037838D01*
X020713Y037900D01*
X020701Y037962D01*
X020665Y038015D01*
X020612Y038051D01*
X020550Y038063D01*
D02*
G37*
G36*
X026750Y041804D02*
X026718Y041798D01*
X026649Y041751D01*
X026602Y041682D01*
X026596Y041650D01*
X026750D01*
Y041804D01*
D02*
G37*
G36*
X026850D02*
Y041650D01*
X027004D01*
X026998Y041682D01*
X026951Y041751D01*
X026882Y041798D01*
X026850Y041804D01*
D02*
G37*
G36*
X032304Y041550D02*
X032150D01*
Y041396D01*
X032182Y041402D01*
X032251Y041449D01*
X032298Y041518D01*
X032304Y041550D01*
D02*
G37*
G36*
X027004D02*
X026850D01*
Y041396D01*
X026882Y041402D01*
X026951Y041449D01*
X026998Y041518D01*
X027004Y041550D01*
D02*
G37*
G36*
X032050D02*
X031896D01*
X031902Y041518D01*
X031949Y041449D01*
X032018Y041402D01*
X032050Y041396D01*
Y041550D01*
D02*
G37*
G36*
X054050Y042000D02*
X053896D01*
X053902Y041968D01*
X053949Y041899D01*
X054018Y041852D01*
X054050Y041846D01*
Y042000D01*
D02*
G37*
G36*
X054304D02*
X054150D01*
Y041846D01*
X054182Y041852D01*
X054251Y041899D01*
X054298Y041968D01*
X054304Y042000D01*
D02*
G37*
G36*
X029350Y042013D02*
X029288Y042001D01*
X029235Y041965D01*
X029199Y041912D01*
X029187Y041850D01*
X029199Y041788D01*
X029235Y041735D01*
X029288Y041699D01*
X029350Y041687D01*
X029412Y041699D01*
X029465Y041735D01*
X029501Y041788D01*
X029513Y041850D01*
X029501Y041912D01*
X029465Y041965D01*
X029412Y042001D01*
X029350Y042013D01*
D02*
G37*
G36*
X032050Y041804D02*
X032018Y041798D01*
X031949Y041751D01*
X031902Y041682D01*
X031896Y041650D01*
X032050D01*
Y041804D01*
D02*
G37*
G36*
X032150D02*
Y041650D01*
X032304D01*
X032298Y041682D01*
X032251Y041751D01*
X032182Y041798D01*
X032150Y041804D01*
D02*
G37*
G36*
X025600Y040313D02*
X025538Y040301D01*
X025485Y040265D01*
X025449Y040212D01*
X025437Y040150D01*
X025449Y040088D01*
X025485Y040035D01*
X025538Y039999D01*
X025600Y039987D01*
X025662Y039999D01*
X025715Y040035D01*
X025751Y040088D01*
X025763Y040150D01*
X025751Y040212D01*
X025715Y040265D01*
X025662Y040301D01*
X025600Y040313D01*
D02*
G37*
G36*
X055421Y040797D02*
X055318Y040783D01*
X055222Y040743D01*
X055140Y040680D01*
X055076Y040598D01*
X055037Y040502D01*
X055023Y040399D01*
X055037Y040296D01*
X055076Y040200D01*
X055140Y040117D01*
X055222Y040054D01*
X055318Y040014D01*
X055421Y040001D01*
X055524Y040014D01*
X055620Y040054D01*
X055702Y040117D01*
X055765Y040200D01*
X055805Y040296D01*
X055819Y040399D01*
X055805Y040502D01*
X055765Y040598D01*
X055702Y040680D01*
X055620Y040743D01*
X055524Y040783D01*
X055421Y040797D01*
D02*
G37*
G36*
X032150Y039904D02*
Y039750D01*
X032304D01*
X032298Y039782D01*
X032251Y039851D01*
X032182Y039898D01*
X032150Y039904D01*
D02*
G37*
G36*
X026850D02*
Y039750D01*
X027004D01*
X026998Y039782D01*
X026951Y039851D01*
X026882Y039898D01*
X026850Y039904D01*
D02*
G37*
G36*
X032050D02*
X032018Y039898D01*
X031949Y039851D01*
X031902Y039782D01*
X031896Y039750D01*
X032050D01*
Y039904D01*
D02*
G37*
G36*
X026100Y041278D02*
X026032Y041265D01*
X025974Y041226D01*
X025935Y041168D01*
X025922Y041100D01*
X025935Y041032D01*
X025974Y040974D01*
X026032Y040935D01*
X026100Y040922D01*
X026168Y040935D01*
X026226Y040974D01*
X026265Y041032D01*
X026278Y041100D01*
X026265Y041168D01*
X026226Y041226D01*
X026168Y041265D01*
X026100Y041278D01*
D02*
G37*
G36*
X026750Y041550D02*
X026596D01*
X026602Y041518D01*
X026649Y041449D01*
X026718Y041402D01*
X026750Y041396D01*
Y041550D01*
D02*
G37*
G36*
X031400Y041213D02*
X031338Y041201D01*
X031285Y041165D01*
X031249Y041112D01*
X031237Y041050D01*
X031249Y040988D01*
X031285Y040935D01*
X031338Y040899D01*
X031400Y040887D01*
X031462Y040899D01*
X031515Y040935D01*
X031551Y040988D01*
X031563Y041050D01*
X031551Y041112D01*
X031515Y041165D01*
X031462Y041201D01*
X031400Y041213D01*
D02*
G37*
G36*
X030900Y040363D02*
X030838Y040351D01*
X030785Y040315D01*
X030749Y040262D01*
X030737Y040200D01*
X030749Y040138D01*
X030785Y040085D01*
X030838Y040049D01*
X030900Y040037D01*
X030962Y040049D01*
X031015Y040085D01*
X031051Y040138D01*
X031063Y040200D01*
X031051Y040262D01*
X031015Y040315D01*
X030962Y040351D01*
X030900Y040363D01*
D02*
G37*
G36*
X019850Y041213D02*
X019788Y041201D01*
X019735Y041165D01*
X019699Y041112D01*
X019687Y041050D01*
X019699Y040988D01*
X019735Y040935D01*
X019788Y040899D01*
X019850Y040887D01*
X019912Y040899D01*
X019965Y040935D01*
X020001Y040988D01*
X020013Y041050D01*
X020001Y041112D01*
X019965Y041165D01*
X019912Y041201D01*
X019850Y041213D01*
D02*
G37*
%LPD*%
D48*
X053750Y016000D02*
D03*
Y015000D02*
D03*
Y017000D02*
D03*
Y018000D02*
D03*
Y019000D02*
D03*
Y020000D02*
D03*
Y021000D02*
D03*
Y022000D02*
D03*
Y023000D02*
D03*
X036850Y030850D02*
D03*
X017900Y053956D02*
D03*
Y055137D02*
D03*
X014750Y030400D02*
D03*
Y037487D02*
D03*
X015750Y023750D02*
D03*
D53*
X013202Y014723D02*
D03*
X013170Y021109D02*
D03*
D54*
X014450Y015400D02*
D03*
Y020400D02*
D03*
D55*
X032950Y014200D02*
D03*
X040000Y048350D02*
D03*
X032100Y052400D02*
D03*
Y050500D02*
D03*
X026800Y052400D02*
D03*
Y050500D02*
D03*
X032100Y057800D02*
D03*
Y055900D02*
D03*
Y047000D02*
D03*
Y045100D02*
D03*
X026800Y041600D02*
D03*
Y039700D02*
D03*
X032100Y041600D02*
D03*
Y039700D02*
D03*
X026800Y045100D02*
D03*
Y047000D02*
D03*
Y055900D02*
D03*
Y057750D02*
D03*
X022350Y020600D02*
D03*
X024250Y019250D02*
D03*
Y016250D02*
D03*
X028750Y018250D02*
D03*
X031500Y015900D02*
D03*
X032150Y018900D02*
D03*
X032900Y021300D02*
D03*
X020650Y051550D02*
D03*
Y058050D02*
D03*
Y055900D02*
D03*
Y049350D02*
D03*
Y047150D02*
D03*
Y044900D02*
D03*
X034750Y049150D02*
D03*
X044650Y050850D02*
D03*
X043550Y049700D02*
D03*
X039500D02*
D03*
X044750Y046350D02*
D03*
X048000Y055950D02*
D03*
X019950Y038800D02*
D03*
X028500Y025200D02*
D03*
X028600Y035400D02*
D03*
X037850Y023800D02*
D03*
X054600Y029500D02*
D03*
X054100Y042050D02*
D03*
X044250Y033750D02*
D03*
X032600Y036300D02*
D03*
D56*
X038000Y012350D02*
D03*
Y011000D02*
D03*
X046800Y027450D02*
D03*
X021750Y035750D02*
D03*
X021550Y025500D02*
D03*
X046650D02*
D03*
X038700Y025050D02*
D03*
X037550Y013300D02*
D03*
X047700Y011250D02*
D03*
X038950Y026950D02*
D03*
X043500Y025800D02*
D03*
X044050Y023950D02*
D03*
X048850Y018650D02*
D03*
Y016850D02*
D03*
X045900Y012200D02*
D03*
X043200D02*
D03*
X041050D02*
D03*
X036550Y017300D02*
D03*
Y019250D02*
D03*
Y021950D02*
D03*
X022350Y016000D02*
D03*
X044300Y052750D02*
D03*
X033100Y031750D02*
D03*
X039150Y051750D02*
D03*
X028150Y015700D02*
D03*
X037050Y046100D02*
D03*
X050700Y021250D02*
D03*
X049150Y021700D02*
D03*
X039450Y011500D02*
D03*
D59*
X020650Y028850D02*
D03*
X021450Y032950D02*
D03*
X035400Y023550D02*
D03*
M02*
