M48
;Layer_Color=9474304
;FILE_FORMAT=2:4
INCH
;TYPE=PLATED
T1F00S00C0.0100
T2F00S00C0.0120
T3F00S00C0.0150
T4F00S00C0.0200
T5F00S00C0.0300
T6F00S00C0.0394
T7F00S00C0.0400
T8F00S00C0.0433
T9F00S00C0.0450
T10F00S00C0.0591
T11F00S00C0.0618
T12F00S00C0.1280
T13F00S00C0.1340
T14F00S00C0.1450
%
T01
X022350Y015050
X028800Y015300
X029150
X029850Y015000
X029550Y013250
X030000Y012200
X033850Y015300
X040000Y012900
X031500Y015900
X032150Y018900
X032900Y021300
X030800
X028750Y019950
X027950
X027400Y021100
X026050Y019750
X024250Y019250
X022350Y019850
Y020600
X024250Y016250
X026050Y016750
X028900Y017050
Y017400
X029250Y016900
X030050Y016400
X028750Y018250
X028500Y025200
Y025800
X028600Y035400
Y036000
X026800Y039700
X025600Y040150
X026800Y041600
Y045100
X025600Y045600
X026100Y046450
X021000Y046250
Y045750
X020650Y044900
X019947Y045353
Y044447
X021000Y044000
X019900Y046700
X019850Y041050
X019950Y038800
X020550Y037900
X020600Y037500
X020950Y037400
X021700Y037150
X022150Y037250
X022500Y037400
X022850Y037550
X023100Y037800
X022250Y036150
X021750Y034350
X030900Y040200
Y045650
X031400Y046450
X032100Y045100
Y041600
X031400Y041050
X032100Y039700
X045100Y039300
Y038350
Y037400
Y036700
Y032400
Y031700
X044750Y046350
X048000Y055950
X044650Y050850
X043550Y049700
X042600Y051750
X039500Y049700
X034750Y049150
X034000Y047550
X032100Y047000
Y050500
Y052400
X031400Y051900
X032100Y055900
Y057800
X031400Y057300
X045650Y048450
X030900Y051050
X026800Y050500
X025600Y051050
X026100Y051900
X026800Y052400
Y055900
Y057750
X030900Y056400
X022150Y055000
X021900Y054650
X021000Y055000
X020650Y055900
X019950Y055450
X019900Y056350
X019850Y057600
Y058500
X020650Y058050
X021000Y057150
Y056800
Y059000
Y052450
X020650Y051550
X019900Y051100
Y052000
Y049800
Y048850
Y047600
X020650Y047150
X021000Y048100
Y048450
X020650Y049350
X021000Y050250
Y050650
X021450Y049800
X021850Y051700
X026800Y047000
T02
X032950Y014200
X037000Y014450
X037550Y013300
X038000Y012350
Y011000
X039450Y011500
X039600Y013600
X039250Y014850
X037850Y015450
X043450Y015050
X043950Y015250
X044373Y015323
X045250Y014850
X045600Y015200
X046150Y015350
X045900Y012200
X046500
X043800
X043200
X041650
X041050
X047700Y011250
X047950Y015100
X047850Y015500
X048550Y014600
X047550Y015800
X048850Y016850
Y017450
Y018650
Y019250
X049150Y021700
X050700Y021250
X050750Y023250
X054600Y029500
X046800Y027450
X046650Y025500
X045100Y024550
X044850Y023200
X044400
X044050Y023950
X043000Y024550
X043500Y025800
X044050Y026250
Y027650
X038950Y026950
X038700Y025050
X039200Y024050
X037850Y023800
X038150Y022600
X038750Y022500
X036550Y021950
Y021350
Y019250
Y018650
Y017300
Y016700
X037750Y016350
X037900Y015950
X039250Y016000
X040150Y016900
X040500Y016700
X039850Y017300
X039650Y017650
X039450Y018000
X039250Y019700
Y020250
X042650Y020750
X041000Y023150
X045550Y023200
X046000
X046450
X046750Y022400
X046200Y016300
X046150Y015850
X044800Y016150
X034150Y017200
X033900Y017750
X032100Y017400
X031950Y018200
X032750Y020450
X034850Y019950
X035250Y019400
X035550Y019100
X034150Y025550
X031050Y026250
X030900Y019850
X030400Y019900
X029950Y019850
X030650Y017850
X028150Y015700
X022350Y016000
X021550Y025500
X021750Y035750
X020600Y036900
X024300Y043150
X029350Y041850
X032600Y036300
X033100Y031750
X043250Y032150
X044250Y033750
X045100Y034400
X044250Y035400
X043700Y036100
X042750Y037400
Y038350
X041000Y035700
X040900Y044650
X042200
X043500
X038250Y046400
X037050Y046100
X054100Y042050
X048700Y047950
X040000Y048350
X039150Y051750
X037350Y051650
Y051150
X037600Y050850
X037850Y050550
X044300Y052750
X029300Y052650
X029400Y047250
X024100
X024450Y053450
X024150Y058050
X029450
T03
X048800Y022800
X035400Y023550
X037350Y026300
X034600Y028000
X033550Y029150
X020650Y028850
X020500Y030600
X021450Y032950
X026100Y041100
X032894Y034950
T04
X027050Y029650
X028400
Y031750
X027050
T05
X038100Y032650
T06
X018848Y015900
Y016699
Y017498
Y018298
Y019097
Y019896
T07
X049250Y011200
X050250
X051250
X053050
X054050
X053750Y014000
X054750
Y015000
X053750
X051000Y015100
Y014100
Y013100
Y016500
Y017500
X053750Y017000
X054750
Y018000
X053750
Y019000
X054750
Y020000
X053750
Y021000
X054750
Y022000
X053750
Y023000
X054750
Y016000
X053750
X038850Y030850
X037850
X036850
X016750Y023750
X015750
T08
X019820Y015054
Y016054
Y019746
Y020746
T09
X015734Y030991
X016915
X017900Y030400
X014750
Y031581
Y032762
Y033943
Y035124
Y036305
Y037487
X015734Y036896
Y035715
X016915
Y036896
X017900Y036306
Y037487
Y035124
Y033943
Y032762
Y031581
X016915Y032172
X015734
Y033353
Y034534
X016915
Y033353
Y048641
X015734
Y049822
Y051003
Y052184
X016915
Y051003
Y049822
X017900Y050412
Y051593
Y052774
Y053956
Y055137
X016915Y054546
X015734
Y053365
X016915
X017900Y049231
Y048050
X014750
Y049231
Y050412
Y051593
Y052774
Y053955
Y055137
T10
X055421Y030891
Y040399
T11
X013202Y014723
X013170Y021109
T12
X014450Y015400
Y020400
T13
X012191Y027546
Y040341
Y045196
Y057991
T14
X012750Y012000
X054250Y026000
Y056250
M30
