%FSAX24Y24*%
%MOIN*%
G70*
G01*
G75*
%ADD10R,0.0512X0.0748*%
%ADD11R,0.0700X0.0650*%
%ADD12R,0.0350X0.0350*%
%ADD13R,0.0350X0.0350*%
%ADD14R,0.3500X0.4200*%
%ADD15R,0.0900X0.0700*%
%ADD16R,0.0374X0.0189*%
%ADD17R,0.0550X0.0400*%
%ADD18R,0.0650X0.0700*%
%ADD19R,0.0512X0.0110*%
%ADD20R,0.0110X0.0512*%
%ADD21R,0.0600X0.0650*%
G04:AMPARAMS|DCode=22|XSize=65mil|YSize=60mil|CornerRadius=15mil|HoleSize=0mil|Usage=FLASHONLY|Rotation=270.000|XOffset=0mil|YOffset=0mil|HoleType=Round|Shape=RoundedRectangle|*
%AMROUNDEDRECTD22*
21,1,0.0650,0.0300,0,0,270.0*
21,1,0.0350,0.0600,0,0,270.0*
1,1,0.0300,-0.0150,-0.0175*
1,1,0.0300,-0.0150,0.0175*
1,1,0.0300,0.0150,0.0175*
1,1,0.0300,0.0150,-0.0175*
%
%ADD22ROUNDEDRECTD22*%
%ADD23R,0.0236X0.0472*%
%ADD24R,0.0260X0.0800*%
%ADD25R,0.0709X0.0551*%
G04:AMPARAMS|DCode=26|XSize=70.9mil|YSize=55.1mil|CornerRadius=13.8mil|HoleSize=0mil|Usage=FLASHONLY|Rotation=180.000|XOffset=0mil|YOffset=0mil|HoleType=Round|Shape=RoundedRectangle|*
%AMROUNDEDRECTD26*
21,1,0.0709,0.0276,0,0,180.0*
21,1,0.0433,0.0551,0,0,180.0*
1,1,0.0276,-0.0217,0.0138*
1,1,0.0276,0.0217,0.0138*
1,1,0.0276,0.0217,-0.0138*
1,1,0.0276,-0.0217,-0.0138*
%
%ADD26ROUNDEDRECTD26*%
%ADD27R,0.1280X0.0846*%
%ADD28R,0.0374X0.0846*%
%ADD29R,0.0800X0.0260*%
%ADD30R,0.0140X0.0701*%
%ADD31R,0.0787X0.0472*%
%ADD32R,0.0591X0.0394*%
%ADD33R,0.0532X0.0138*%
%ADD34R,0.0138X0.0532*%
%ADD35R,0.0400X0.0550*%
%ADD36R,0.0098X0.0610*%
%ADD37R,0.0571X0.0098*%
%ADD38R,0.0571X0.0177*%
%ADD39R,0.1500X0.0800*%
%ADD40R,0.0800X0.1500*%
%ADD41C,0.0100*%
%ADD42C,0.0120*%
%ADD43C,0.0110*%
%ADD44C,0.0150*%
%ADD45C,0.0130*%
%ADD46C,0.0200*%
%ADD47C,0.0300*%
%ADD48C,0.0600*%
%ADD49R,0.0600X0.0600*%
%ADD50R,0.0600X0.0600*%
%ADD51C,0.0591*%
%ADD52C,0.0551*%
%ADD53C,0.0886*%
%ADD54C,0.1772*%
%ADD55C,0.0220*%
%ADD56C,0.0250*%
%ADD57C,0.1600*%
%ADD58C,0.0689*%
%ADD59C,0.0300*%
%ADD60C,0.0500*%
%ADD61C,0.0400*%
%ADD62C,0.2500*%
%ADD63C,0.0079*%
%ADD64C,0.0500*%
%ADD65C,0.0060*%
%ADD66C,0.0070*%
%ADD67C,0.0020*%
D41*
X018096Y047066D02*
G03*
X018884Y047853I000000J000787D01*
G01*
X018857Y055132D02*
G03*
X018066Y055924I-000792J000000D01*
G01*
X018096Y029416D02*
G03*
X018884Y030203I000000J000787D01*
G01*
X018857Y037482D02*
G03*
X018066Y038274I-000792J000000D01*
G01*
X035500Y015700D02*
X036700D01*
X035500Y013300D02*
X036700D01*
Y015700D01*
X035500Y013300D02*
Y015700D01*
X040970Y011500D02*
X041350D01*
X041150Y011300D02*
Y011700D01*
X035900Y011000D02*
X036280D01*
X036100Y010800D02*
Y011200D01*
X035900Y012350D02*
X036280D01*
X036100Y012150D02*
Y012550D01*
X029500Y028500D02*
Y032700D01*
X025200Y028500D02*
X029500D01*
X025200D02*
Y032700D01*
X029500D01*
X020950Y025680D02*
Y026100D01*
X020250D02*
X020950D01*
Y024900D02*
Y025310D01*
X020250Y024900D02*
X020950D01*
X020250D02*
Y024930D01*
Y026070D02*
Y026100D01*
Y025300D02*
Y025700D01*
X046150Y023550D02*
X046725D01*
X046150D02*
Y025150D01*
X047150D01*
Y023550D02*
Y025150D01*
X046725Y023550D02*
X047150D01*
X034800Y023800D02*
X037200D01*
X034800Y025000D02*
X037200D01*
Y023800D02*
Y025000D01*
X034800Y023800D02*
Y025000D01*
X037400Y024200D02*
Y024600D01*
X037200Y024400D02*
X037600D01*
X045000Y010700D02*
Y011900D01*
X047400Y010700D02*
Y011900D01*
X045000D02*
X047400D01*
X045000Y010700D02*
X047400D01*
X031597Y011625D02*
Y012609D01*
X031794Y012806D01*
X032581D01*
X032384Y011625D02*
X032581Y011822D01*
X030416Y011625D02*
X032384D01*
X030219Y011822D02*
X030416Y011625D01*
X030219Y011822D02*
Y014578D01*
X030416Y014775D01*
X032384D01*
X032581Y014578D01*
Y011822D02*
Y014578D01*
X033350Y033250D02*
X035750D01*
X035950Y032450D02*
Y032850D01*
X035750Y032650D02*
X036150D01*
X033350Y032050D02*
Y033250D01*
X035750Y032050D02*
Y033250D01*
X033350Y032050D02*
X035750D01*
X021050Y029450D02*
X023450D01*
X023650Y028650D02*
Y029050D01*
X023450Y028850D02*
X023850D01*
X021050Y028250D02*
Y029450D01*
X023450Y028250D02*
Y029450D01*
X021050Y028250D02*
X023450D01*
X022050Y030000D02*
Y032400D01*
X021250Y029800D02*
X021650D01*
X021450Y029600D02*
Y030000D01*
X020850Y032400D02*
X022050D01*
X020850Y030000D02*
X022050D01*
X020850D02*
Y032400D01*
X039572Y025313D02*
Y026887D01*
X039769Y027084D02*
X042131D01*
X042328Y026887D01*
Y025313D02*
Y026887D01*
X042131Y025116D02*
X042328Y025313D01*
X039572D02*
X039769Y025116D01*
X042131D01*
X039572Y026887D02*
X039769Y027084D01*
X041344Y026100D02*
X042328D01*
X041147Y026297D02*
X041344Y026100D01*
X041147Y026297D02*
Y027084D01*
X036350Y030350D02*
Y031350D01*
Y030350D02*
X039350D01*
X036350Y031350D02*
X039350D01*
Y030350D02*
Y031350D01*
X013569Y055924D02*
Y059300D01*
X010810D02*
X013569D01*
X010810Y047000D02*
Y059300D01*
X013569Y043900D02*
Y047066D01*
X010810Y043900D02*
X013569D01*
X010810D02*
Y047000D01*
X018884Y047853D02*
Y055100D01*
X013569Y047066D02*
X018096D01*
X013569Y055924D02*
X018066D01*
X013569Y047066D02*
Y055924D01*
Y038274D02*
Y041650D01*
X010810D02*
X013569D01*
X010810Y029350D02*
Y041650D01*
X013569Y026250D02*
Y029416D01*
X010810Y026250D02*
X013569D01*
X010810D02*
Y029350D01*
X018884Y030203D02*
Y037450D01*
X013569Y029416D02*
X018096D01*
X013569Y038274D02*
X018066D01*
X013569Y029416D02*
Y038274D01*
X026200Y014850D02*
X028600D01*
X026200Y013650D02*
X028600D01*
X026200D02*
Y014850D01*
X028600Y013650D02*
Y014850D01*
X026000Y014050D02*
Y014450D01*
X025800Y014250D02*
X026200D01*
X032650Y021375D02*
Y021800D01*
X031050D02*
X032650D01*
X031050Y020800D02*
Y021800D01*
Y020800D02*
X032650D01*
Y021375D01*
X043700Y053250D02*
Y055650D01*
X044900Y053250D02*
Y055650D01*
X043700Y053250D02*
X044900D01*
X043700Y055650D02*
X044900D01*
X042000Y051450D02*
X044400D01*
X042000Y050250D02*
X044400D01*
X042000D02*
Y051450D01*
X044400Y050250D02*
Y051450D01*
X041800Y050650D02*
Y051050D01*
X041600Y050850D02*
X042000D01*
X038550Y050250D02*
X040950D01*
X038550Y051450D02*
X040950D01*
Y050250D02*
Y051450D01*
X038550Y050250D02*
Y051450D01*
X041150Y050650D02*
Y051050D01*
X040950Y050850D02*
X041350D01*
X045350Y046650D02*
Y049050D01*
X044150Y046650D02*
Y049050D01*
X045350D01*
X044150Y046650D02*
X045350D01*
X044550Y049250D02*
X044950D01*
X044750Y049050D02*
Y049450D01*
X021100Y035930D02*
Y036350D01*
X020400D02*
X021100D01*
Y035150D02*
Y035560D01*
X020400Y035150D02*
X021100D01*
X020400D02*
Y035180D01*
Y036320D02*
Y036350D01*
Y035550D02*
Y035950D01*
X050500Y015600D02*
X051500D01*
X050500Y012600D02*
Y015600D01*
X051500Y012600D02*
Y015600D01*
X050500Y012600D02*
X051500D01*
X050500Y016000D02*
X051500D01*
Y018000D01*
X050500D02*
X051500D01*
X050500Y016000D02*
Y018000D01*
X017250Y023250D02*
Y024250D01*
X015250D02*
X017250D01*
X015250Y023250D02*
Y024250D01*
Y023250D02*
X017250D01*
X052550Y010700D02*
Y011700D01*
Y010700D02*
X054550D01*
Y011700D01*
X052550D02*
X054550D01*
X048750Y010700D02*
Y011700D01*
Y010700D02*
X051750D01*
X048750Y011700D02*
X051750D01*
Y010700D02*
Y011700D01*
D59*
X014300Y047550D02*
D03*
Y029900D02*
D03*
D63*
X047578Y027085D02*
G03*
X047578Y027715I000000J000315D01*
G01*
X020089Y057957D02*
G03*
X020089Y058144I000000J000093D01*
G01*
Y055806D02*
G03*
X020089Y055993I000000J000093D01*
G01*
Y051456D02*
G03*
X020089Y051644I000000J000093D01*
G01*
Y049257D02*
G03*
X020089Y049443I000000J000093D01*
G01*
Y047056D02*
G03*
X020089Y047243I000000J000093D01*
G01*
Y044806D02*
G03*
X020089Y044994I000000J000093D01*
G01*
X020320Y039586D02*
G03*
X020320Y039714I000000J000064D01*
G01*
X047578Y028581D02*
X050925D01*
Y026219D02*
Y028581D01*
X047578Y026219D02*
X050925D01*
X047578D02*
Y028581D01*
X028425Y016225D02*
Y018875D01*
X030728D01*
X028425Y016225D02*
X031069D01*
X031075Y016231D02*
Y018528D01*
X030728Y018875D02*
X031075Y018528D01*
X020089Y057957D02*
Y058162D01*
Y057938D02*
Y058144D01*
Y057938D02*
X021211D01*
Y058162D01*
X020089D02*
X021211D01*
X020089Y055806D02*
Y056012D01*
Y055788D02*
Y055993D01*
Y055788D02*
X021211D01*
Y056012D01*
X020089D02*
X021211D01*
X020089Y051456D02*
Y051662D01*
Y051438D02*
Y051644D01*
Y051438D02*
X021211D01*
Y051662D01*
X020089D02*
X021211D01*
X020089Y049257D02*
Y049462D01*
Y049238D02*
Y049443D01*
Y049238D02*
X021211D01*
Y049462D01*
X020089D02*
X021211D01*
X020089Y047056D02*
Y047262D01*
Y047038D02*
Y047243D01*
Y047038D02*
X021211D01*
Y047262D01*
X020089D02*
X021211D01*
X038993Y014643D02*
Y022057D01*
X045930D01*
X038993Y014643D02*
X046407D01*
Y021580D01*
X045930Y022057D02*
X046407Y021580D01*
X020089Y044806D02*
Y045012D01*
Y044788D02*
Y044994D01*
Y044788D02*
X021211D01*
Y045012D01*
X020089D02*
X021211D01*
X020320Y039181D02*
Y039586D01*
Y039714D02*
Y040118D01*
X022880D01*
Y039181D02*
Y040118D01*
X020320Y039181D02*
X022880D01*
D64*
X024800Y032500D02*
G03*
X024800Y032500I-000100J000000D01*
G01*
D65*
X026350Y052070D02*
G03*
X026200Y052220I-000150J000000D01*
G01*
Y050680D02*
G03*
X026350Y050830I000000J000150D01*
G01*
X024500Y052220D02*
G03*
X024350Y052070I000000J-000150D01*
G01*
Y051250D02*
G03*
X024350Y051650I000000J000200D01*
G01*
Y050830D02*
G03*
X024500Y050680I000150J000000D01*
G01*
X026350Y046670D02*
G03*
X026200Y046820I-000150J000000D01*
G01*
Y045280D02*
G03*
X026350Y045430I000000J000150D01*
G01*
X024500Y046820D02*
G03*
X024350Y046670I000000J-000150D01*
G01*
Y045850D02*
G03*
X024350Y046250I000000J000200D01*
G01*
Y045430D02*
G03*
X024500Y045280I000150J000000D01*
G01*
X026350Y057470D02*
G03*
X026200Y057620I-000150J000000D01*
G01*
Y056080D02*
G03*
X026350Y056230I000000J000150D01*
G01*
X024500Y057620D02*
G03*
X024350Y057470I000000J-000150D01*
G01*
Y056650D02*
G03*
X024350Y057050I000000J000200D01*
G01*
Y056230D02*
G03*
X024500Y056080I000150J000000D01*
G01*
X026350Y041270D02*
G03*
X026200Y041420I-000150J000000D01*
G01*
Y039880D02*
G03*
X026350Y040030I000000J000150D01*
G01*
X024500Y041420D02*
G03*
X024350Y041270I000000J-000150D01*
G01*
Y040450D02*
G03*
X024350Y040850I000000J000200D01*
G01*
Y040030D02*
G03*
X024500Y039880I000150J000000D01*
G01*
X031650Y041270D02*
G03*
X031500Y041420I-000150J000000D01*
G01*
Y039880D02*
G03*
X031650Y040030I000000J000150D01*
G01*
X029800Y041420D02*
G03*
X029650Y041270I000000J-000150D01*
G01*
Y040450D02*
G03*
X029650Y040850I000000J000200D01*
G01*
Y040030D02*
G03*
X029800Y039880I000150J000000D01*
G01*
X031650Y052070D02*
G03*
X031500Y052220I-000150J000000D01*
G01*
Y050680D02*
G03*
X031650Y050830I000000J000150D01*
G01*
X029800Y052220D02*
G03*
X029650Y052070I000000J-000150D01*
G01*
Y051250D02*
G03*
X029650Y051650I000000J000200D01*
G01*
Y050830D02*
G03*
X029800Y050680I000150J000000D01*
G01*
X031650Y046670D02*
G03*
X031500Y046820I-000150J000000D01*
G01*
Y045280D02*
G03*
X031650Y045430I000000J000150D01*
G01*
X029800Y046820D02*
G03*
X029650Y046670I000000J-000150D01*
G01*
Y045850D02*
G03*
X029650Y046250I000000J000200D01*
G01*
Y045430D02*
G03*
X029800Y045280I000150J000000D01*
G01*
X031650Y057470D02*
G03*
X031500Y057620I-000150J000000D01*
G01*
Y056080D02*
G03*
X031650Y056230I000000J000150D01*
G01*
X029800Y057620D02*
G03*
X029650Y057470I000000J-000150D01*
G01*
Y056650D02*
G03*
X029650Y057050I000000J000200D01*
G01*
Y056230D02*
G03*
X029800Y056080I000150J000000D01*
G01*
X026270Y036550D02*
G03*
X026120Y036700I-000150J000000D01*
G01*
X024730Y034850D02*
G03*
X024880Y034700I000150J000000D01*
G01*
Y036700D02*
G03*
X024730Y036550I000000J-000150D01*
G01*
X026120Y034700D02*
G03*
X026270Y034850I000000J000150D01*
G01*
X025700Y034700D02*
G03*
X025300Y034700I-000200J000000D01*
G01*
X026270Y026350D02*
G03*
X026120Y026500I-000150J000000D01*
G01*
X024730Y024650D02*
G03*
X024880Y024500I000150J000000D01*
G01*
Y026500D02*
G03*
X024730Y026350I000000J-000150D01*
G01*
X026120Y024500D02*
G03*
X026270Y024650I000000J000150D01*
G01*
X025700Y024500D02*
G03*
X025300Y024500I-000200J000000D01*
G01*
X026350Y050830D02*
Y052070D01*
X024500Y052220D02*
X026200D01*
X024500Y050680D02*
X026200D01*
X024350Y051650D02*
Y052070D01*
Y051250D02*
Y051650D01*
Y050830D02*
Y051250D01*
X026350Y045430D02*
Y046670D01*
X024500Y046820D02*
X026200D01*
X024500Y045280D02*
X026200D01*
X024350Y046250D02*
Y046670D01*
Y045850D02*
Y046250D01*
Y045430D02*
Y045850D01*
X026350Y056230D02*
Y057470D01*
X024500Y057620D02*
X026200D01*
X024500Y056080D02*
X026200D01*
X024350Y057050D02*
Y057470D01*
Y056650D02*
Y057050D01*
Y056230D02*
Y056650D01*
X026350Y040030D02*
Y041270D01*
X024500Y041420D02*
X026200D01*
X024500Y039880D02*
X026200D01*
X024350Y040850D02*
Y041270D01*
Y040450D02*
Y040850D01*
Y040030D02*
Y040450D01*
X031650Y040030D02*
Y041270D01*
X029800Y041420D02*
X031500D01*
X029800Y039880D02*
X031500D01*
X029650Y040850D02*
Y041270D01*
Y040450D02*
Y040850D01*
Y040030D02*
Y040450D01*
X031650Y050830D02*
Y052070D01*
X029800Y052220D02*
X031500D01*
X029800Y050680D02*
X031500D01*
X029650Y051650D02*
Y052070D01*
Y051250D02*
Y051650D01*
Y050830D02*
Y051250D01*
X031650Y045430D02*
Y046670D01*
X029800Y046820D02*
X031500D01*
X029800Y045280D02*
X031500D01*
X029650Y046250D02*
Y046670D01*
Y045850D02*
Y046250D01*
Y045430D02*
Y045850D01*
X031650Y056230D02*
Y057470D01*
X029800Y057620D02*
X031500D01*
X029800Y056080D02*
X031500D01*
X029650Y057050D02*
Y057470D01*
Y056650D02*
Y057050D01*
Y056230D02*
Y056650D01*
X024730Y034850D02*
Y036550D01*
X026270Y034850D02*
Y036550D01*
X024880Y036700D02*
X026120D01*
X024880Y034700D02*
X025300D01*
X025700D01*
X026120D01*
X024730Y024650D02*
Y026350D01*
X026270Y024650D02*
Y026350D01*
X024880Y026500D02*
X026120D01*
X024880Y024500D02*
X025300D01*
X025700D01*
X026120D01*
D66*
X034222Y048655D02*
G03*
X034222Y048783I000000J000064D01*
G01*
X041451Y049042D02*
G03*
X041549Y049042I000049J000000D01*
G01*
X046348Y054422D02*
G03*
X046220Y054422I-000064J000000D01*
G01*
X041930Y011520D02*
Y011820D01*
Y011180D02*
Y011520D01*
X043170Y011180D02*
Y011820D01*
X041930D02*
X043170D01*
X041930Y011180D02*
X043170D01*
X040970D02*
Y011500D01*
Y011480D02*
Y011820D01*
X039730Y011180D02*
Y011820D01*
Y011180D02*
X040970D01*
X039730Y011820D02*
X040970D01*
X035320Y010680D02*
Y010980D01*
Y011320D01*
X034080Y010680D02*
Y011320D01*
Y010680D02*
X035320D01*
X034080Y011320D02*
X035320D01*
X036280Y011000D02*
Y011320D01*
Y010680D02*
Y011020D01*
X037520Y010680D02*
Y011320D01*
X036280D02*
X037520D01*
X036280Y010680D02*
X037520D01*
X036280Y012350D02*
Y012670D01*
Y012030D02*
Y012370D01*
X037520Y012030D02*
Y012670D01*
X036280D02*
X037520D01*
X036280Y012030D02*
X037520D01*
X035320D02*
Y012330D01*
Y012670D01*
X034080Y012030D02*
Y012670D01*
Y012030D02*
X035320D01*
X034080Y012670D02*
X035320D01*
X046820Y027120D02*
X047120D01*
X046480D02*
X046820D01*
X046480Y025880D02*
X047120D01*
Y027120D01*
X046480Y025880D02*
Y027120D01*
Y027730D02*
X046780D01*
X047120D01*
X046480Y028970D02*
X047120D01*
X046480Y027730D02*
Y028970D01*
X047120Y027730D02*
Y028970D01*
X045620Y025930D02*
Y026230D01*
Y026570D01*
X044380Y025930D02*
Y026570D01*
Y025930D02*
X045620D01*
X044380Y026570D02*
X045620D01*
Y027930D02*
Y028230D01*
Y028570D01*
X044380Y027930D02*
Y028570D01*
Y027930D02*
X045620D01*
X044380Y028570D02*
X045620D01*
X027280Y037120D02*
Y037420D01*
Y036780D02*
Y037120D01*
X028520Y036780D02*
Y037420D01*
X027280D02*
X028520D01*
X027280Y036780D02*
X028520D01*
X051020Y020280D02*
Y020580D01*
Y020920D01*
X049780Y020280D02*
Y020920D01*
Y020280D02*
X051020D01*
X049780Y020920D02*
X051020D01*
X036620Y026620D02*
X036920D01*
X036280D02*
X036620D01*
X036280Y025380D02*
X036920D01*
Y026620D01*
X036280Y025380D02*
Y026620D01*
X036970Y022930D02*
Y023230D01*
Y023570D01*
X035730Y022930D02*
Y023570D01*
Y022930D02*
X036970D01*
X035730Y023570D02*
X036970D01*
X033530Y015530D02*
Y016770D01*
X033870D01*
X033530Y015530D02*
X034170D01*
X033870Y016770D02*
X034170D01*
Y015530D02*
Y016770D01*
X032380Y017080D02*
X033620D01*
X032380D02*
Y017420D01*
X033620Y017080D02*
Y017720D01*
X032380Y017420D02*
Y017720D01*
X033620D01*
X029570Y014720D02*
X029870D01*
X029230D02*
X029570D01*
X029230Y013480D02*
X029870D01*
Y014720D01*
X029230Y013480D02*
Y014720D01*
X044620Y032280D02*
Y032580D01*
Y032920D01*
X043380Y032280D02*
Y032920D01*
Y032280D02*
X044620D01*
X043380Y032920D02*
X044620D01*
X043380Y031720D02*
Y032020D01*
Y031380D02*
Y031720D01*
X044620Y031380D02*
Y032020D01*
X043380D02*
X044620D01*
X043380Y031380D02*
X044620D01*
Y037130D02*
Y037430D01*
Y037770D01*
X043380Y037130D02*
Y037770D01*
Y037130D02*
X044620D01*
X043380Y037770D02*
X044620D01*
Y038030D02*
Y038330D01*
Y038670D01*
X043380Y038030D02*
Y038670D01*
Y038030D02*
X044620D01*
X043380Y038670D02*
X044620D01*
X043380Y039320D02*
Y039620D01*
Y038980D02*
Y039320D01*
X044620Y038980D02*
Y039620D01*
X043380D02*
X044620D01*
X043380Y038980D02*
X044620D01*
X043380Y036620D02*
Y036920D01*
Y036280D02*
Y036620D01*
X044620Y036280D02*
Y036920D01*
X043380D02*
X044620D01*
X043380Y036280D02*
X044620D01*
X026480Y053870D02*
X027120D01*
X026480Y052630D02*
Y053870D01*
Y052630D02*
X026780D01*
X027120D02*
Y053870D01*
X026780Y052630D02*
X027120D01*
Y049030D02*
Y050270D01*
X026780Y049030D02*
X027120D01*
X026480Y050270D02*
X027120D01*
X026480Y049030D02*
X026780D01*
X026480D02*
Y050270D01*
X024780Y053280D02*
Y053920D01*
Y053280D02*
X026020D01*
Y053580D01*
X024780Y053920D02*
X026020D01*
Y053580D02*
Y053920D01*
X024780Y048980D02*
X026020D01*
X024780D02*
Y049320D01*
X026020Y048980D02*
Y049620D01*
X024780Y049320D02*
Y049620D01*
X026020D01*
X026480Y048470D02*
X027120D01*
X026480Y047230D02*
Y048470D01*
Y047230D02*
X026780D01*
X027120D02*
Y048470D01*
X026780Y047230D02*
X027120D01*
Y043630D02*
Y044870D01*
X026780Y043630D02*
X027120D01*
X026480Y044870D02*
X027120D01*
X026480Y043630D02*
X026780D01*
X026480D02*
Y044870D01*
X024780Y043580D02*
X026020D01*
X024780D02*
Y043920D01*
X026020Y043580D02*
Y044220D01*
X024780Y043920D02*
Y044220D01*
X026020D01*
X024780Y047880D02*
Y048520D01*
Y047880D02*
X026020D01*
Y048180D01*
X024780Y048520D02*
X026020D01*
Y048180D02*
Y048520D01*
X027120Y054430D02*
Y055670D01*
X026780Y054430D02*
X027120D01*
X026480Y055670D02*
X027120D01*
X026480Y054430D02*
X026780D01*
X026480D02*
Y055670D01*
Y059220D02*
X027120D01*
X026480Y057980D02*
Y059220D01*
Y057980D02*
X026780D01*
X027120D02*
Y059220D01*
X026780Y057980D02*
X027120D01*
X024780Y058680D02*
Y059320D01*
Y058680D02*
X026020D01*
Y058980D01*
X024780Y059320D02*
X026020D01*
Y058980D02*
Y059320D01*
X024780Y054380D02*
X026020D01*
X024780D02*
Y054720D01*
X026020Y054380D02*
Y055020D01*
X024780Y054720D02*
Y055020D01*
X026020D01*
X027120Y038230D02*
Y039470D01*
X026780Y038230D02*
X027120D01*
X026480Y039470D02*
X027120D01*
X026480Y038230D02*
X026780D01*
X026480D02*
Y039470D01*
X024780Y038180D02*
X026020D01*
X024780D02*
Y038520D01*
X026020Y038180D02*
Y038820D01*
X024780Y038520D02*
Y038820D01*
X026020D01*
X026480Y043070D02*
X027120D01*
X026480Y041830D02*
Y043070D01*
Y041830D02*
X026780D01*
X027120D02*
Y043070D01*
X026780Y041830D02*
X027120D01*
X024780Y042480D02*
Y043120D01*
Y042480D02*
X026020D01*
Y042780D01*
X024780Y043120D02*
X026020D01*
Y042780D02*
Y043120D01*
X031780Y043070D02*
X032420D01*
X031780Y041830D02*
Y043070D01*
Y041830D02*
X032080D01*
X032420D02*
Y043070D01*
X032080Y041830D02*
X032420D01*
X030080Y042480D02*
Y043120D01*
Y042480D02*
X031320D01*
Y042780D01*
X030080Y043120D02*
X031320D01*
Y042780D02*
Y043120D01*
X032420Y038230D02*
Y039470D01*
X032080Y038230D02*
X032420D01*
X031780Y039470D02*
X032420D01*
X031780Y038230D02*
X032080D01*
X031780D02*
Y039470D01*
X030080Y038180D02*
X031320D01*
X030080D02*
Y038520D01*
X031320Y038180D02*
Y038820D01*
X030080Y038520D02*
Y038820D01*
X031320D01*
X031780Y053870D02*
X032420D01*
X031780Y052630D02*
Y053870D01*
Y052630D02*
X032080D01*
X032420D02*
Y053870D01*
X032080Y052630D02*
X032420D01*
Y049030D02*
Y050270D01*
X032080Y049030D02*
X032420D01*
X031780Y050270D02*
X032420D01*
X031780Y049030D02*
X032080D01*
X031780D02*
Y050270D01*
X030080Y053280D02*
Y053920D01*
Y053280D02*
X031320D01*
Y053580D01*
X030080Y053920D02*
X031320D01*
Y053580D02*
Y053920D01*
X030080Y048980D02*
X031320D01*
X030080D02*
Y049320D01*
X031320Y048980D02*
Y049620D01*
X030080Y049320D02*
Y049620D01*
X031320D01*
X031780Y048470D02*
X032420D01*
X031780Y047230D02*
Y048470D01*
Y047230D02*
X032080D01*
X032420D02*
Y048470D01*
X032080Y047230D02*
X032420D01*
X030080Y047880D02*
Y048520D01*
Y047880D02*
X031320D01*
Y048180D01*
X030080Y048520D02*
X031320D01*
Y048180D02*
Y048520D01*
X032420Y043630D02*
Y044870D01*
X032080Y043630D02*
X032420D01*
X031780Y044870D02*
X032420D01*
X031780Y043630D02*
X032080D01*
X031780D02*
Y044870D01*
X030080Y043580D02*
X031320D01*
X030080D02*
Y043920D01*
X031320Y043580D02*
Y044220D01*
X030080Y043920D02*
Y044220D01*
X031320D01*
X031780Y059270D02*
X032420D01*
X031780Y058030D02*
Y059270D01*
Y058030D02*
X032080D01*
X032420D02*
Y059270D01*
X032080Y058030D02*
X032420D01*
X030080Y058680D02*
Y059320D01*
Y058680D02*
X031320D01*
Y058980D01*
X030080Y059320D02*
X031320D01*
Y058980D02*
Y059320D01*
X032420Y054430D02*
Y055670D01*
X032080Y054430D02*
X032420D01*
X031780Y055670D02*
X032420D01*
X031780Y054430D02*
X032080D01*
X031780D02*
Y055670D01*
X030080Y054380D02*
X031320D01*
X030080D02*
Y054720D01*
X031320Y054380D02*
Y055020D01*
X030080Y054720D02*
Y055020D01*
X031320D01*
X032920Y032030D02*
Y033270D01*
X032580Y032030D02*
X032920D01*
X032280Y033270D02*
X032920D01*
X032280Y032030D02*
X032580D01*
X032280D02*
Y033270D01*
X022280Y031520D02*
X022920D01*
X022280Y030280D02*
Y031520D01*
Y030280D02*
X022580D01*
X022920D02*
Y031520D01*
X022580Y030280D02*
X022920D01*
Y031780D02*
Y033020D01*
X022580Y031780D02*
X022920D01*
X022280Y033020D02*
X022920D01*
X022280Y031780D02*
X022580D01*
X022280D02*
Y033020D01*
X038970Y026720D02*
X039270D01*
X038630D02*
X038970D01*
X038630Y025480D02*
X039270D01*
Y026720D01*
X038630Y025480D02*
Y026720D01*
X042630Y025480D02*
X042930D01*
X043270D01*
X042630Y026720D02*
X043270D01*
X042630Y025480D02*
Y026720D01*
X043270Y025480D02*
Y026720D01*
X034222Y048783D02*
Y049218D01*
X037805D01*
X034222Y048220D02*
Y048655D01*
Y048220D02*
X037805D01*
Y049218D01*
X045580Y012820D02*
Y013120D01*
Y012480D02*
Y012820D01*
X046820Y012480D02*
Y013120D01*
X045580D02*
X046820D01*
X045580Y012480D02*
X046820D01*
X047930Y016530D02*
X048230D01*
X048570D01*
X047930Y017770D02*
X048570D01*
X047930Y016530D02*
Y017770D01*
X048570Y016530D02*
Y017770D01*
X047930Y018330D02*
X048230D01*
X048570D01*
X047930Y019570D02*
X048570D01*
X047930Y018330D02*
Y019570D01*
X048570Y018330D02*
Y019570D01*
X037570Y014770D02*
X037870D01*
X037230D02*
X037570D01*
X037230Y013530D02*
X037870D01*
Y014770D01*
X037230Y013530D02*
Y014770D01*
X040730Y012820D02*
Y013120D01*
Y012480D02*
Y012820D01*
X041970Y012480D02*
Y013120D01*
X040730D02*
X041970D01*
X040730Y012480D02*
X041970D01*
X037170Y017620D02*
X037470D01*
X036830D02*
X037170D01*
X036830Y016380D02*
X037470D01*
Y017620D01*
X036830Y016380D02*
Y017620D01*
X037170Y019570D02*
X037470D01*
X036830D02*
X037170D01*
X036830Y018330D02*
X037470D01*
Y019570D01*
X036830Y018330D02*
Y019570D01*
X037170Y022270D02*
X037470D01*
X036830D02*
X037170D01*
X036830Y021030D02*
X037470D01*
Y022270D01*
X036830Y021030D02*
Y022270D01*
X038720Y024770D02*
X039020D01*
X038380D02*
X038720D01*
X038380Y023530D02*
X039020D01*
Y024770D01*
X038380Y023530D02*
Y024770D01*
X043920Y023630D02*
Y023930D01*
Y024270D01*
X042680Y023630D02*
Y024270D01*
Y023630D02*
X043920D01*
X042680Y024270D02*
X043920D01*
X044180Y023970D02*
Y024270D01*
Y023630D02*
Y023970D01*
X045420Y023630D02*
Y024270D01*
X044180D02*
X045420D01*
X044180Y023630D02*
X045420D01*
X048870Y021380D02*
Y021680D01*
Y022020D01*
X047630Y021380D02*
Y022020D01*
Y021380D02*
X048870D01*
X047630Y022020D02*
X048870D01*
X042880Y012820D02*
Y013120D01*
Y012480D02*
Y012820D01*
X044120Y012480D02*
Y013120D01*
X042880D02*
X044120D01*
X042880Y012480D02*
X044120D01*
X020830Y015070D02*
Y015370D01*
Y014730D02*
Y015070D01*
X022070Y014730D02*
Y015370D01*
X020830D02*
X022070D01*
X020830Y014730D02*
X022070D01*
X020830Y019720D02*
Y020020D01*
Y019380D02*
Y019720D01*
X022070Y019380D02*
Y020020D01*
X020830D02*
X022070D01*
X020830Y019380D02*
X022070D01*
X020830Y016020D02*
Y016320D01*
Y015680D02*
Y016020D01*
X022070Y015680D02*
Y016320D01*
X020830D02*
X022070D01*
X020830Y015680D02*
X022070D01*
Y020280D02*
Y020580D01*
Y020920D01*
X020830Y020280D02*
Y020920D01*
Y020280D02*
X022070D01*
X020830Y020920D02*
X022070D01*
X025470Y016670D02*
X025770D01*
X025130D02*
X025470D01*
X025130Y015430D02*
X025770D01*
Y016670D01*
X025130Y015430D02*
Y016670D01*
X025470Y018070D02*
X025770D01*
X025130D02*
X025470D01*
X025130Y016830D02*
X025770D01*
Y018070D01*
X025130Y016830D02*
Y018070D01*
X023630Y016770D02*
Y017070D01*
Y016430D02*
Y016770D01*
X024870Y016430D02*
Y017070D01*
X023630D02*
X024870D01*
X023630Y016430D02*
X024870D01*
X025470Y021070D02*
X025770D01*
X025130D02*
X025470D01*
X025130Y019830D02*
X025770D01*
Y021070D01*
X025130Y019830D02*
Y021070D01*
X025470Y019670D02*
X025770D01*
X025130D02*
X025470D01*
X025130Y018430D02*
X025770D01*
Y019670D01*
X025130Y018430D02*
Y019670D01*
X023630Y019770D02*
Y020070D01*
Y019430D02*
Y019770D01*
X024870Y019430D02*
Y020070D01*
X023630D02*
X024870D01*
X023630Y019430D02*
X024870D01*
X027970Y021420D02*
X028270D01*
X027630D02*
X027970D01*
X027630Y020180D02*
X028270D01*
Y021420D01*
X027630Y020180D02*
Y021420D01*
X028770D02*
X029070D01*
X028430D02*
X028770D01*
X028430Y020180D02*
X029070D01*
Y021420D01*
X028430Y020180D02*
Y021420D01*
X027820Y015380D02*
Y015680D01*
Y016020D01*
X026580Y015380D02*
Y016020D01*
Y015380D02*
X027820D01*
X026580Y016020D02*
X027820D01*
X032030Y015530D02*
X032330D01*
X032670D01*
X032030Y016770D02*
X032670D01*
X032030Y015530D02*
Y016770D01*
X032670Y015530D02*
Y016770D01*
X032470Y019430D02*
Y019730D01*
Y020070D01*
X031230Y019430D02*
Y020070D01*
Y019430D02*
X032470D01*
X031230Y020070D02*
X032470D01*
X027920Y026120D02*
X028220D01*
X027580D02*
X027920D01*
X027580Y024880D02*
X028220D01*
Y026120D01*
X027580Y024880D02*
Y026120D01*
X028020Y036320D02*
X028320D01*
X027680D02*
X028020D01*
X027680Y035080D02*
X028320D01*
Y036320D01*
X027680Y035080D02*
Y036320D01*
X019670Y040270D02*
X019970D01*
X019330D02*
X019670D01*
X019330Y039030D02*
X019970D01*
Y040270D01*
X019330Y039030D02*
Y040270D01*
X020770Y041330D02*
Y041630D01*
Y041970D01*
X019530Y041330D02*
Y041970D01*
Y041330D02*
X020770D01*
X019530Y041970D02*
X020770D01*
X041034Y049042D02*
X041451D01*
X041549D02*
X041984D01*
Y048058D02*
Y049042D01*
X041034Y048058D02*
X041984D01*
X041034D02*
Y049042D01*
X046348Y054422D02*
X046800D01*
X045800D02*
X046220D01*
X045780D02*
Y055446D01*
X045800D02*
X046800D01*
Y054422D02*
Y055446D01*
X048020Y055720D02*
X048320D01*
X047680D02*
X048020D01*
X047680Y054480D02*
X048320D01*
Y055720D01*
X047680Y054480D02*
Y055720D01*
X039730Y049720D02*
Y050020D01*
Y049380D02*
Y049720D01*
X040970Y049380D02*
Y050020D01*
X039730D02*
X040970D01*
X039730Y049380D02*
X040970D01*
X043270D02*
Y049680D01*
Y050020D01*
X042030Y049380D02*
Y050020D01*
Y049380D02*
X043270D01*
X042030Y050020D02*
X043270D01*
X043330Y047830D02*
X043630D01*
X043970D01*
X043330Y049070D02*
X043970D01*
X043330Y047830D02*
Y049070D01*
X043970Y047830D02*
Y049070D01*
X041420Y046820D02*
X041720D01*
X041080D02*
X041420D01*
X041080Y045580D02*
X041720D01*
Y046820D01*
X041080Y045580D02*
Y046820D01*
X043020D02*
X043320D01*
X042680D02*
X043020D01*
X042680Y045580D02*
X043320D01*
Y046820D01*
X042680Y045580D02*
Y046820D01*
X042220D02*
X042520D01*
X041880D02*
X042220D01*
X041880Y045580D02*
X042520D01*
Y046820D01*
X041880Y045580D02*
Y046820D01*
X027280Y024220D02*
Y024520D01*
Y023880D02*
Y024220D01*
X028520Y023880D02*
Y024520D01*
X027280D02*
X028520D01*
X027280Y023880D02*
X028520D01*
X027280Y026870D02*
Y027170D01*
Y026530D02*
Y026870D01*
X028520Y026530D02*
Y027170D01*
X027280D02*
X028520D01*
X027280Y026530D02*
X028520D01*
X027280Y034420D02*
Y034720D01*
Y034080D02*
Y034420D01*
X028520Y034080D02*
Y034720D01*
X027280D02*
X028520D01*
X027280Y034080D02*
X028520D01*
X022830Y035080D02*
X023130D01*
X023470D01*
X022830Y036320D02*
X023470D01*
X022830Y035080D02*
Y036320D01*
X023470Y035080D02*
Y036320D01*
X022730Y024880D02*
X023030D01*
X023370D01*
X022730Y026120D02*
X023370D01*
X022730Y024880D02*
Y026120D01*
X023370Y024880D02*
Y026120D01*
X039580Y024220D02*
Y024520D01*
Y023880D02*
Y024220D01*
X040820Y023880D02*
Y024520D01*
X039580D02*
X040820D01*
X039580Y023880D02*
X040820D01*
X042270D02*
Y024180D01*
Y024520D01*
X041030Y023880D02*
Y024520D01*
Y023880D02*
X042270D01*
X041030Y024520D02*
X042270D01*
X049650Y019750D02*
Y020170D01*
X049860D01*
X049930Y020100D01*
Y019960D01*
X049860Y019890D01*
X049650D01*
X049790D02*
X049930Y019750D01*
X050070Y019820D02*
X050140Y019750D01*
X050280D01*
X050350Y019820D01*
Y020100D01*
X050280Y020170D01*
X050140D01*
X050070Y020100D01*
Y020030D01*
X050140Y019960D01*
X050350D01*
X050490Y020100D02*
X050560Y020170D01*
X050700D01*
X050770Y020100D01*
Y019820D01*
X050700Y019750D01*
X050560D01*
X050490Y019820D01*
Y020100D01*
X051120Y019750D02*
Y020170D01*
X050910Y019960D01*
X051189D01*
X019200Y023670D02*
X019480D01*
X019340D01*
Y023250D01*
X019620D02*
Y023670D01*
X019830D01*
X019900Y023600D01*
Y023460D01*
X019830Y023390D01*
X019620D01*
X020040Y023600D02*
X020110Y023670D01*
X020250D01*
X020320Y023600D01*
Y023530D01*
X020250Y023460D01*
X020320Y023390D01*
Y023320D01*
X020250Y023250D01*
X020110D01*
X020040Y023320D01*
Y023390D01*
X020110Y023460D01*
X020040Y023530D01*
Y023600D01*
X020110Y023460D02*
X020250D01*
X020460Y023250D02*
X020600D01*
X020530D01*
Y023670D01*
X020460Y023600D01*
X021089Y023250D02*
X020809D01*
X021089Y023530D01*
Y023600D01*
X021019Y023670D01*
X020879D01*
X020809Y023600D01*
X021250Y027120D02*
X021530D01*
X021390D01*
Y026700D01*
X021670D02*
Y027120D01*
X021880D01*
X021950Y027050D01*
Y026910D01*
X021880Y026840D01*
X021670D01*
X022090Y027050D02*
X022160Y027120D01*
X022300D01*
X022370Y027050D01*
Y026980D01*
X022300Y026910D01*
X022370Y026840D01*
Y026770D01*
X022300Y026700D01*
X022160D01*
X022090Y026770D01*
Y026840D01*
X022160Y026910D01*
X022090Y026980D01*
Y027050D01*
X022160Y026910D02*
X022300D01*
X022510Y026700D02*
X022650D01*
X022580D01*
Y027120D01*
X022510Y027050D01*
X022859Y026700D02*
X022999D01*
X022929D01*
Y027120D01*
X022859Y027050D01*
X019450Y033870D02*
X019730D01*
X019590D01*
Y033450D01*
X019870D02*
Y033870D01*
X020080D01*
X020150Y033800D01*
Y033660D01*
X020080Y033590D01*
X019870D01*
X020290Y033800D02*
X020360Y033870D01*
X020500D01*
X020570Y033800D01*
Y033730D01*
X020500Y033660D01*
X020570Y033590D01*
Y033520D01*
X020500Y033450D01*
X020360D01*
X020290Y033520D01*
Y033590D01*
X020360Y033660D01*
X020290Y033730D01*
Y033800D01*
X020360Y033660D02*
X020500D01*
X020710Y033450D02*
X020850D01*
X020780D01*
Y033870D01*
X020710Y033800D01*
X021059D02*
X021129Y033870D01*
X021269D01*
X021339Y033800D01*
Y033520D01*
X021269Y033450D01*
X021129D01*
X021059Y033520D01*
Y033800D01*
X021950Y033870D02*
X022230D01*
X022090D01*
Y033450D01*
X022370D02*
Y033870D01*
X022580D01*
X022650Y033800D01*
Y033660D01*
X022580Y033590D01*
X022370D01*
X022790Y033800D02*
X022860Y033870D01*
X023000D01*
X023070Y033800D01*
Y033730D01*
X023000Y033660D01*
X023070Y033590D01*
Y033520D01*
X023000Y033450D01*
X022860D01*
X022790Y033520D01*
Y033590D01*
X022860Y033660D01*
X022790Y033730D01*
Y033800D01*
X022860Y033660D02*
X023000D01*
X023210Y033800D02*
X023280Y033870D01*
X023420D01*
X023489Y033800D01*
Y033520D01*
X023420Y033450D01*
X023280D01*
X023210Y033520D01*
Y033800D01*
X023629Y033520D02*
X023699Y033450D01*
X023839D01*
X023909Y033520D01*
Y033800D01*
X023839Y033870D01*
X023699D01*
X023629Y033800D01*
Y033730D01*
X023699Y033660D01*
X023909D01*
X044030Y041800D02*
Y042080D01*
Y041940D01*
X044450D01*
Y042220D02*
X044030D01*
Y042430D01*
X044100Y042500D01*
X044240D01*
X044310Y042430D01*
Y042220D01*
X044100Y042640D02*
X044030Y042710D01*
Y042850D01*
X044100Y042920D01*
X044170D01*
X044240Y042850D01*
X044310Y042920D01*
X044380D01*
X044450Y042850D01*
Y042710D01*
X044380Y042640D01*
X044310D01*
X044240Y042710D01*
X044170Y042640D01*
X044100D01*
X044240Y042710D02*
Y042850D01*
X044100Y043060D02*
X044030Y043130D01*
Y043270D01*
X044100Y043340D01*
X044380D01*
X044450Y043270D01*
Y043130D01*
X044380Y043060D01*
X044100D01*
Y043479D02*
X044030Y043549D01*
Y043689D01*
X044100Y043759D01*
X044170D01*
X044240Y043689D01*
X044310Y043759D01*
X044380D01*
X044450Y043689D01*
Y043549D01*
X044380Y043479D01*
X044310D01*
X044240Y043549D01*
X044170Y043479D01*
X044100D01*
X044240Y043549D02*
Y043689D01*
X042030Y040100D02*
Y040380D01*
Y040240D01*
X042450D01*
Y040520D02*
X042030D01*
Y040730D01*
X042100Y040800D01*
X042240D01*
X042310Y040730D01*
Y040520D01*
X042100Y040940D02*
X042030Y041010D01*
Y041150D01*
X042100Y041220D01*
X042170D01*
X042240Y041150D01*
X042310Y041220D01*
X042380D01*
X042450Y041150D01*
Y041010D01*
X042380Y040940D01*
X042310D01*
X042240Y041010D01*
X042170Y040940D01*
X042100D01*
X042240Y041010D02*
Y041150D01*
X042100Y041360D02*
X042030Y041430D01*
Y041570D01*
X042100Y041639D01*
X042380D01*
X042450Y041570D01*
Y041430D01*
X042380Y041360D01*
X042100D01*
X042030Y041779D02*
Y042059D01*
X042100D01*
X042380Y041779D01*
X042450D01*
X039930Y041900D02*
Y042180D01*
Y042040D01*
X040350D01*
Y042320D02*
X039930D01*
Y042530D01*
X040000Y042600D01*
X040140D01*
X040210Y042530D01*
Y042320D01*
X040000Y042740D02*
X039930Y042810D01*
Y042950D01*
X040000Y043020D01*
X040070D01*
X040140Y042950D01*
X040210Y043020D01*
X040280D01*
X040350Y042950D01*
Y042810D01*
X040280Y042740D01*
X040210D01*
X040140Y042810D01*
X040070Y042740D01*
X040000D01*
X040140Y042810D02*
Y042950D01*
X040000Y043160D02*
X039930Y043230D01*
Y043370D01*
X040000Y043439D01*
X040280D01*
X040350Y043370D01*
Y043230D01*
X040280Y043160D01*
X040000D01*
X039930Y043859D02*
X040000Y043719D01*
X040140Y043579D01*
X040280D01*
X040350Y043649D01*
Y043789D01*
X040280Y043859D01*
X040210D01*
X040140Y043789D01*
Y043579D01*
X038000Y038570D02*
X038280D01*
X038140D01*
Y038150D01*
X038420D02*
Y038570D01*
X038630D01*
X038700Y038500D01*
Y038360D01*
X038630Y038290D01*
X038420D01*
X038840Y038500D02*
X038910Y038570D01*
X039050D01*
X039120Y038500D01*
Y038430D01*
X039050Y038360D01*
X039120Y038290D01*
Y038220D01*
X039050Y038150D01*
X038910D01*
X038840Y038220D01*
Y038290D01*
X038910Y038360D01*
X038840Y038430D01*
Y038500D01*
X038910Y038360D02*
X039050D01*
X039260Y038500D02*
X039330Y038570D01*
X039470D01*
X039539Y038500D01*
Y038220D01*
X039470Y038150D01*
X039330D01*
X039260Y038220D01*
Y038500D01*
X039959Y038570D02*
X039679D01*
Y038360D01*
X039819Y038430D01*
X039889D01*
X039959Y038360D01*
Y038220D01*
X039889Y038150D01*
X039749D01*
X039679Y038220D01*
X038000Y039570D02*
X038280D01*
X038140D01*
Y039150D01*
X038420D02*
Y039570D01*
X038630D01*
X038700Y039500D01*
Y039360D01*
X038630Y039290D01*
X038420D01*
X038840Y039500D02*
X038910Y039570D01*
X039050D01*
X039120Y039500D01*
Y039430D01*
X039050Y039360D01*
X039120Y039290D01*
Y039220D01*
X039050Y039150D01*
X038910D01*
X038840Y039220D01*
Y039290D01*
X038910Y039360D01*
X038840Y039430D01*
Y039500D01*
X038910Y039360D02*
X039050D01*
X039260Y039500D02*
X039330Y039570D01*
X039470D01*
X039539Y039500D01*
Y039220D01*
X039470Y039150D01*
X039330D01*
X039260Y039220D01*
Y039500D01*
X039889Y039150D02*
Y039570D01*
X039679Y039360D01*
X039959D01*
X039950Y031070D02*
X040230D01*
X040090D01*
Y030650D01*
X040370D02*
Y031070D01*
X040580D01*
X040650Y031000D01*
Y030860D01*
X040580Y030790D01*
X040370D01*
X040790Y031000D02*
X040860Y031070D01*
X041000D01*
X041070Y031000D01*
Y030930D01*
X041000Y030860D01*
X041070Y030790D01*
Y030720D01*
X041000Y030650D01*
X040860D01*
X040790Y030720D01*
Y030790D01*
X040860Y030860D01*
X040790Y030930D01*
Y031000D01*
X040860Y030860D02*
X041000D01*
X041210Y031000D02*
X041280Y031070D01*
X041420D01*
X041490Y031000D01*
Y030720D01*
X041420Y030650D01*
X041280D01*
X041210Y030720D01*
Y031000D01*
X041629D02*
X041699Y031070D01*
X041839D01*
X041909Y031000D01*
Y030930D01*
X041839Y030860D01*
X041769D01*
X041839D01*
X041909Y030790D01*
Y030720D01*
X041839Y030650D01*
X041699D01*
X041629Y030720D01*
X039850Y033570D02*
X040130D01*
X039990D01*
Y033150D01*
X040270D02*
Y033570D01*
X040480D01*
X040550Y033500D01*
Y033360D01*
X040480Y033290D01*
X040270D01*
X040690Y033500D02*
X040760Y033570D01*
X040900D01*
X040970Y033500D01*
Y033430D01*
X040900Y033360D01*
X040970Y033290D01*
Y033220D01*
X040900Y033150D01*
X040760D01*
X040690Y033220D01*
Y033290D01*
X040760Y033360D01*
X040690Y033430D01*
Y033500D01*
X040760Y033360D02*
X040900D01*
X041110Y033500D02*
X041180Y033570D01*
X041320D01*
X041389Y033500D01*
Y033220D01*
X041320Y033150D01*
X041180D01*
X041110Y033220D01*
Y033500D01*
X041809Y033150D02*
X041529D01*
X041809Y033430D01*
Y033500D01*
X041739Y033570D01*
X041599D01*
X041529Y033500D01*
X038100Y037670D02*
X038380D01*
X038240D01*
Y037250D01*
X038520D02*
Y037670D01*
X038730D01*
X038800Y037600D01*
Y037460D01*
X038730Y037390D01*
X038520D01*
X038940Y037600D02*
X039010Y037670D01*
X039150D01*
X039220Y037600D01*
Y037530D01*
X039150Y037460D01*
X039220Y037390D01*
Y037320D01*
X039150Y037250D01*
X039010D01*
X038940Y037320D01*
Y037390D01*
X039010Y037460D01*
X038940Y037530D01*
Y037600D01*
X039010Y037460D02*
X039150D01*
X039360Y037600D02*
X039430Y037670D01*
X039570D01*
X039639Y037600D01*
Y037320D01*
X039570Y037250D01*
X039430D01*
X039360Y037320D01*
Y037600D01*
X039779Y037250D02*
X039919D01*
X039849D01*
Y037670D01*
X039779Y037600D01*
X039750Y035370D02*
X040030D01*
X039890D01*
Y034950D01*
X040170D02*
Y035370D01*
X040380D01*
X040450Y035300D01*
Y035160D01*
X040380Y035090D01*
X040170D01*
X040590Y035300D02*
X040660Y035370D01*
X040800D01*
X040870Y035300D01*
Y035230D01*
X040800Y035160D01*
X040870Y035090D01*
Y035020D01*
X040800Y034950D01*
X040660D01*
X040590Y035020D01*
Y035090D01*
X040660Y035160D01*
X040590Y035230D01*
Y035300D01*
X040660Y035160D02*
X040800D01*
X041010Y035300D02*
X041080Y035370D01*
X041220D01*
X041290Y035300D01*
Y035020D01*
X041220Y034950D01*
X041080D01*
X041010Y035020D01*
Y035300D01*
X041429D02*
X041499Y035370D01*
X041639D01*
X041709Y035300D01*
Y035020D01*
X041639Y034950D01*
X041499D01*
X041429Y035020D01*
Y035300D01*
X041700Y038100D02*
Y038520D01*
X041910D01*
X041980Y038450D01*
Y038310D01*
X041910Y038240D01*
X041700D01*
X041840D02*
X041980Y038100D01*
X042120Y038520D02*
X042400D01*
Y038450D01*
X042120Y038170D01*
Y038100D01*
X042540Y038450D02*
X042610Y038520D01*
X042750D01*
X042820Y038450D01*
Y038170D01*
X042750Y038100D01*
X042610D01*
X042540Y038170D01*
Y038450D01*
X043239Y038520D02*
X042960D01*
Y038310D01*
X043100Y038380D01*
X043170D01*
X043239Y038310D01*
Y038170D01*
X043170Y038100D01*
X043030D01*
X042960Y038170D01*
X041750Y037250D02*
Y037670D01*
X041960D01*
X042030Y037600D01*
Y037460D01*
X041960Y037390D01*
X041750D01*
X041890D02*
X042030Y037250D01*
X042170Y037670D02*
X042450D01*
Y037600D01*
X042170Y037320D01*
Y037250D01*
X042590Y037600D02*
X042660Y037670D01*
X042800D01*
X042870Y037600D01*
Y037320D01*
X042800Y037250D01*
X042660D01*
X042590Y037320D01*
Y037600D01*
X043220Y037250D02*
Y037670D01*
X043010Y037460D01*
X043289D01*
X041700Y032400D02*
Y032820D01*
X041910D01*
X041980Y032750D01*
Y032610D01*
X041910Y032540D01*
X041700D01*
X041840D02*
X041980Y032400D01*
X042120Y032820D02*
X042400D01*
Y032750D01*
X042120Y032470D01*
Y032400D01*
X042540Y032750D02*
X042610Y032820D01*
X042750D01*
X042820Y032750D01*
Y032470D01*
X042750Y032400D01*
X042610D01*
X042540Y032470D01*
Y032750D01*
X042960D02*
X043030Y032820D01*
X043170D01*
X043239Y032750D01*
Y032680D01*
X043170Y032610D01*
X043100D01*
X043170D01*
X043239Y032540D01*
Y032470D01*
X043170Y032400D01*
X043030D01*
X042960Y032470D01*
X041750Y031500D02*
Y031920D01*
X041960D01*
X042030Y031850D01*
Y031710D01*
X041960Y031640D01*
X041750D01*
X041890D02*
X042030Y031500D01*
X042170Y031920D02*
X042450D01*
Y031850D01*
X042170Y031570D01*
Y031500D01*
X042590Y031850D02*
X042660Y031920D01*
X042800D01*
X042870Y031850D01*
Y031570D01*
X042800Y031500D01*
X042660D01*
X042590Y031570D01*
Y031850D01*
X043289Y031500D02*
X043010D01*
X043289Y031780D01*
Y031850D01*
X043220Y031920D01*
X043080D01*
X043010Y031850D01*
X041900Y039050D02*
Y039470D01*
X042110D01*
X042180Y039400D01*
Y039260D01*
X042110Y039190D01*
X041900D01*
X042040D02*
X042180Y039050D01*
X042320Y039470D02*
X042600D01*
Y039400D01*
X042320Y039120D01*
Y039050D01*
X042740Y039400D02*
X042810Y039470D01*
X042950D01*
X043020Y039400D01*
Y039120D01*
X042950Y039050D01*
X042810D01*
X042740Y039120D01*
Y039400D01*
X043160Y039050D02*
X043300D01*
X043230D01*
Y039470D01*
X043160Y039400D01*
X041700Y036400D02*
Y036820D01*
X041910D01*
X041980Y036750D01*
Y036610D01*
X041910Y036540D01*
X041700D01*
X041840D02*
X041980Y036400D01*
X042120Y036820D02*
X042400D01*
Y036750D01*
X042120Y036470D01*
Y036400D01*
X042540Y036750D02*
X042610Y036820D01*
X042750D01*
X042820Y036750D01*
Y036470D01*
X042750Y036400D01*
X042610D01*
X042540Y036470D01*
Y036750D01*
X042960D02*
X043030Y036820D01*
X043170D01*
X043239Y036750D01*
Y036470D01*
X043170Y036400D01*
X043030D01*
X042960Y036470D01*
Y036750D01*
X045900Y042260D02*
X045830Y042330D01*
X045690D01*
X045620Y042260D01*
Y042190D01*
X045690Y042120D01*
X045830D01*
X045900Y042050D01*
Y041980D01*
X045830Y041910D01*
X045690D01*
X045620Y041980D01*
X046040Y042330D02*
Y041910D01*
X046250D01*
X046320Y041980D01*
Y042260D01*
X046250Y042330D01*
X046040D01*
X046460D02*
X046740D01*
Y042260D01*
X046460Y041980D01*
Y041910D01*
X046880Y042260D02*
X046950Y042330D01*
X047090D01*
X047160Y042260D01*
Y041980D01*
X047090Y041910D01*
X046950D01*
X046880Y041980D01*
Y042260D01*
X047299D02*
X047369Y042330D01*
X047509D01*
X047579Y042260D01*
Y041980D01*
X047509Y041910D01*
X047369D01*
X047299Y041980D01*
Y042260D01*
X033950Y011450D02*
Y011870D01*
X034160D01*
X034230Y011800D01*
Y011660D01*
X034160Y011590D01*
X033950D01*
X034090D02*
X034230Y011450D01*
X034370Y011800D02*
X034440Y011870D01*
X034580D01*
X034650Y011800D01*
Y011730D01*
X034580Y011660D01*
X034650Y011590D01*
Y011520D01*
X034580Y011450D01*
X034440D01*
X034370Y011520D01*
Y011590D01*
X034440Y011660D01*
X034370Y011730D01*
Y011800D01*
X034440Y011660D02*
X034580D01*
X034790Y011800D02*
X034860Y011870D01*
X035000D01*
X035070Y011800D01*
Y011520D01*
X035000Y011450D01*
X034860D01*
X034790Y011520D01*
Y011800D01*
X035489Y011450D02*
X035210D01*
X035489Y011730D01*
Y011800D01*
X035420Y011870D01*
X035280D01*
X035210Y011800D01*
X041800Y010650D02*
Y011070D01*
X042010D01*
X042080Y011000D01*
Y010860D01*
X042010Y010790D01*
X041800D01*
X041940D02*
X042080Y010650D01*
X042220Y011000D02*
X042290Y011070D01*
X042430D01*
X042500Y011000D01*
Y010930D01*
X042430Y010860D01*
X042500Y010790D01*
Y010720D01*
X042430Y010650D01*
X042290D01*
X042220Y010720D01*
Y010790D01*
X042290Y010860D01*
X042220Y010930D01*
Y011000D01*
X042290Y010860D02*
X042430D01*
X042640Y011000D02*
X042710Y011070D01*
X042850D01*
X042920Y011000D01*
Y010720D01*
X042850Y010650D01*
X042710D01*
X042640Y010720D01*
Y011000D01*
X043060Y010650D02*
X043200D01*
X043130D01*
Y011070D01*
X043060Y011000D01*
X033950Y012800D02*
Y013220D01*
X034160D01*
X034230Y013150D01*
Y013010D01*
X034160Y012940D01*
X033950D01*
X034090D02*
X034230Y012800D01*
X034370Y013150D02*
X034440Y013220D01*
X034580D01*
X034650Y013150D01*
Y013080D01*
X034580Y013010D01*
X034650Y012940D01*
Y012870D01*
X034580Y012800D01*
X034440D01*
X034370Y012870D01*
Y012940D01*
X034440Y013010D01*
X034370Y013080D01*
Y013150D01*
X034440Y013010D02*
X034580D01*
X034790Y013150D02*
X034860Y013220D01*
X035000D01*
X035070Y013150D01*
Y012870D01*
X035000Y012800D01*
X034860D01*
X034790Y012870D01*
Y013150D01*
X035210D02*
X035280Y013220D01*
X035420D01*
X035489Y013150D01*
Y012870D01*
X035420Y012800D01*
X035280D01*
X035210Y012870D01*
Y013150D01*
X015250Y024400D02*
Y024820D01*
X015460D01*
X015530Y024750D01*
Y024610D01*
X015460Y024540D01*
X015250D01*
X015670Y024750D02*
X015740Y024820D01*
X015880D01*
X015950Y024750D01*
Y024680D01*
X015880Y024610D01*
X015950Y024540D01*
Y024470D01*
X015880Y024400D01*
X015740D01*
X015670Y024470D01*
Y024540D01*
X015740Y024610D01*
X015670Y024680D01*
Y024750D01*
X015740Y024610D02*
X015880D01*
X016090Y024750D02*
X016160Y024820D01*
X016300D01*
X016370Y024750D01*
Y024470D01*
X016300Y024400D01*
X016160D01*
X016090Y024470D01*
Y024750D01*
X016789Y024400D02*
X016510D01*
X016789Y024680D01*
Y024750D01*
X016720Y024820D01*
X016580D01*
X016510Y024750D01*
X036370Y031670D02*
Y032090D01*
X036580D01*
X036650Y032020D01*
Y031880D01*
X036580Y031810D01*
X036370D01*
X036790Y032020D02*
X036860Y032090D01*
X037000D01*
X037070Y032020D01*
Y031950D01*
X037000Y031880D01*
X037070Y031810D01*
Y031740D01*
X037000Y031670D01*
X036860D01*
X036790Y031740D01*
Y031810D01*
X036860Y031880D01*
X036790Y031950D01*
Y032020D01*
X036860Y031880D02*
X037000D01*
X037210Y032020D02*
X037280Y032090D01*
X037420D01*
X037490Y032020D01*
Y031740D01*
X037420Y031670D01*
X037280D01*
X037210Y031740D01*
Y032020D01*
X037630Y031670D02*
X037770D01*
X037700D01*
Y032090D01*
X037630Y032020D01*
X052600Y011900D02*
Y012320D01*
X052810D01*
X052880Y012250D01*
Y012110D01*
X052810Y012040D01*
X052600D01*
X053020Y012250D02*
X053090Y012320D01*
X053230D01*
X053300Y012250D01*
Y012180D01*
X053230Y012110D01*
X053300Y012040D01*
Y011970D01*
X053230Y011900D01*
X053090D01*
X053020Y011970D01*
Y012040D01*
X053090Y012110D01*
X053020Y012180D01*
Y012250D01*
X053090Y012110D02*
X053230D01*
X053440Y012250D02*
X053510Y012320D01*
X053650D01*
X053720Y012250D01*
Y011970D01*
X053650Y011900D01*
X053510D01*
X053440Y011970D01*
Y012250D01*
X054139Y012320D02*
X053860D01*
Y012110D01*
X054000Y012180D01*
X054070D01*
X054139Y012110D01*
Y011970D01*
X054070Y011900D01*
X053930D01*
X053860Y011970D01*
X052050Y016100D02*
X051630D01*
Y016310D01*
X051700Y016380D01*
X051840D01*
X051910Y016310D01*
Y016100D01*
X051700Y016520D02*
X051630Y016590D01*
Y016730D01*
X051700Y016800D01*
X051770D01*
X051840Y016730D01*
X051910Y016800D01*
X051980D01*
X052050Y016730D01*
Y016590D01*
X051980Y016520D01*
X051910D01*
X051840Y016590D01*
X051770Y016520D01*
X051700D01*
X051840Y016590D02*
Y016730D01*
X051700Y016940D02*
X051630Y017010D01*
Y017150D01*
X051700Y017220D01*
X051980D01*
X052050Y017150D01*
Y017010D01*
X051980Y016940D01*
X051700D01*
X052050Y017570D02*
X051630D01*
X051840Y017360D01*
Y017639D01*
X048750Y011850D02*
Y012270D01*
X048960D01*
X049030Y012200D01*
Y012060D01*
X048960Y011990D01*
X048750D01*
X049170Y012200D02*
X049240Y012270D01*
X049380D01*
X049450Y012200D01*
Y012130D01*
X049380Y012060D01*
X049450Y011990D01*
Y011920D01*
X049380Y011850D01*
X049240D01*
X049170Y011920D01*
Y011990D01*
X049240Y012060D01*
X049170Y012130D01*
Y012200D01*
X049240Y012060D02*
X049380D01*
X049590Y012200D02*
X049660Y012270D01*
X049800D01*
X049870Y012200D01*
Y011920D01*
X049800Y011850D01*
X049660D01*
X049590Y011920D01*
Y012200D01*
X050010D02*
X050080Y012270D01*
X050220D01*
X050290Y012200D01*
Y012130D01*
X050220Y012060D01*
X050150D01*
X050220D01*
X050290Y011990D01*
Y011920D01*
X050220Y011850D01*
X050080D01*
X050010Y011920D01*
X052100Y012600D02*
X051680D01*
Y012810D01*
X051750Y012880D01*
X051890D01*
X051960Y012810D01*
Y012600D01*
X051750Y013020D02*
X051680Y013090D01*
Y013230D01*
X051750Y013300D01*
X051820D01*
X051890Y013230D01*
X051960Y013300D01*
X052030D01*
X052100Y013230D01*
Y013090D01*
X052030Y013020D01*
X051960D01*
X051890Y013090D01*
X051820Y013020D01*
X051750D01*
X051890Y013090D02*
Y013230D01*
X051750Y013440D02*
X051680Y013510D01*
Y013650D01*
X051750Y013720D01*
X052030D01*
X052100Y013650D01*
Y013510D01*
X052030Y013440D01*
X051750D01*
Y013860D02*
X051680Y013930D01*
Y014070D01*
X051750Y014139D01*
X052030D01*
X052100Y014070D01*
Y013930D01*
X052030Y013860D01*
X051750D01*
X044200Y026650D02*
Y027070D01*
X044410D01*
X044480Y027000D01*
Y026860D01*
X044410Y026790D01*
X044200D01*
X044340D02*
X044480Y026650D01*
X044620Y026720D02*
X044690Y026650D01*
X044830D01*
X044900Y026720D01*
Y027000D01*
X044830Y027070D01*
X044690D01*
X044620Y027000D01*
Y026930D01*
X044690Y026860D01*
X044900D01*
X045040Y027000D02*
X045110Y027070D01*
X045250D01*
X045320Y027000D01*
Y026720D01*
X045250Y026650D01*
X045110D01*
X045040Y026720D01*
Y027000D01*
X045460D02*
X045530Y027070D01*
X045670D01*
X045739Y027000D01*
Y026930D01*
X045670Y026860D01*
X045600D01*
X045670D01*
X045739Y026790D01*
Y026720D01*
X045670Y026650D01*
X045530D01*
X045460Y026720D01*
X044200Y027400D02*
Y027820D01*
X044410D01*
X044480Y027750D01*
Y027610D01*
X044410Y027540D01*
X044200D01*
X044340D02*
X044480Y027400D01*
X044620Y027470D02*
X044690Y027400D01*
X044830D01*
X044900Y027470D01*
Y027750D01*
X044830Y027820D01*
X044690D01*
X044620Y027750D01*
Y027680D01*
X044690Y027610D01*
X044900D01*
X045040Y027750D02*
X045110Y027820D01*
X045250D01*
X045320Y027750D01*
Y027470D01*
X045250Y027400D01*
X045110D01*
X045040Y027470D01*
Y027750D01*
X045739Y027400D02*
X045460D01*
X045739Y027680D01*
Y027750D01*
X045670Y027820D01*
X045530D01*
X045460Y027750D01*
X046050Y026030D02*
X045980Y025960D01*
Y025820D01*
X046050Y025750D01*
X046330D01*
X046400Y025820D01*
Y025960D01*
X046330Y026030D01*
Y026170D02*
X046400Y026240D01*
Y026380D01*
X046330Y026450D01*
X046050D01*
X045980Y026380D01*
Y026240D01*
X046050Y026170D01*
X046120D01*
X046190Y026240D01*
Y026450D01*
X046050Y026590D02*
X045980Y026660D01*
Y026800D01*
X046050Y026870D01*
X046330D01*
X046400Y026800D01*
Y026660D01*
X046330Y026590D01*
X046050D01*
Y027010D02*
X045980Y027080D01*
Y027220D01*
X046050Y027290D01*
X046120D01*
X046190Y027220D01*
Y027150D01*
Y027220D01*
X046260Y027290D01*
X046330D01*
X046400Y027220D01*
Y027080D01*
X046330Y027010D01*
X046050Y027880D02*
X045980Y027810D01*
Y027670D01*
X046050Y027600D01*
X046330D01*
X046400Y027670D01*
Y027810D01*
X046330Y027880D01*
Y028020D02*
X046400Y028090D01*
Y028230D01*
X046330Y028300D01*
X046050D01*
X045980Y028230D01*
Y028090D01*
X046050Y028020D01*
X046120D01*
X046190Y028090D01*
Y028300D01*
X046050Y028440D02*
X045980Y028510D01*
Y028650D01*
X046050Y028720D01*
X046330D01*
X046400Y028650D01*
Y028510D01*
X046330Y028440D01*
X046050D01*
X046400Y029139D02*
Y028860D01*
X046120Y029139D01*
X046050D01*
X045980Y029070D01*
Y028930D01*
X046050Y028860D01*
X038200Y025730D02*
X038130Y025660D01*
Y025520D01*
X038200Y025450D01*
X038480D01*
X038550Y025520D01*
Y025660D01*
X038480Y025730D01*
Y025870D02*
X038550Y025940D01*
Y026080D01*
X038480Y026150D01*
X038200D01*
X038130Y026080D01*
Y025940D01*
X038200Y025870D01*
X038270D01*
X038340Y025940D01*
Y026150D01*
X038200Y026290D02*
X038130Y026360D01*
Y026500D01*
X038200Y026570D01*
X038480D01*
X038550Y026500D01*
Y026360D01*
X038480Y026290D01*
X038200D01*
X038550Y026710D02*
Y026850D01*
Y026780D01*
X038130D01*
X038200Y026710D01*
X043450Y025630D02*
X043380Y025560D01*
Y025420D01*
X043450Y025350D01*
X043730D01*
X043800Y025420D01*
Y025560D01*
X043730Y025630D01*
Y025770D02*
X043800Y025840D01*
Y025980D01*
X043730Y026050D01*
X043450D01*
X043380Y025980D01*
Y025840D01*
X043450Y025770D01*
X043520D01*
X043590Y025840D01*
Y026050D01*
X043450Y026190D02*
X043380Y026260D01*
Y026400D01*
X043450Y026470D01*
X043730D01*
X043800Y026400D01*
Y026260D01*
X043730Y026190D01*
X043450D01*
Y026610D02*
X043380Y026680D01*
Y026820D01*
X043450Y026890D01*
X043730D01*
X043800Y026820D01*
Y026680D01*
X043730Y026610D01*
X043450D01*
X047810Y029120D02*
X047670D01*
X047600Y029050D01*
Y028770D01*
X047670Y028700D01*
X047810D01*
X047880Y028770D01*
Y029050D01*
X047810Y029120D01*
X048300Y029050D02*
X048230Y029120D01*
X048090D01*
X048020Y029050D01*
Y028980D01*
X048090Y028910D01*
X048230D01*
X048300Y028840D01*
Y028770D01*
X048230Y028700D01*
X048090D01*
X048020Y028770D01*
X048720Y029050D02*
X048650Y029120D01*
X048510D01*
X048440Y029050D01*
Y028770D01*
X048510Y028700D01*
X048650D01*
X048720Y028770D01*
X048860D02*
X048930Y028700D01*
X049070D01*
X049139Y028770D01*
Y029050D01*
X049070Y029120D01*
X048930D01*
X048860Y029050D01*
Y028980D01*
X048930Y028910D01*
X049139D01*
X049279Y029050D02*
X049349Y029120D01*
X049489D01*
X049559Y029050D01*
Y028770D01*
X049489Y028700D01*
X049349D01*
X049279Y028770D01*
Y029050D01*
X049699Y028700D02*
X049839D01*
X049769D01*
Y029120D01*
X049699Y029050D01*
X040010Y027620D02*
X039870D01*
X039800Y027550D01*
Y027270D01*
X039870Y027200D01*
X040010D01*
X040080Y027270D01*
Y027550D01*
X040010Y027620D01*
X040500Y027550D02*
X040430Y027620D01*
X040290D01*
X040220Y027550D01*
Y027480D01*
X040290Y027410D01*
X040430D01*
X040500Y027340D01*
Y027270D01*
X040430Y027200D01*
X040290D01*
X040220Y027270D01*
X040920Y027550D02*
X040850Y027620D01*
X040710D01*
X040640Y027550D01*
Y027270D01*
X040710Y027200D01*
X040850D01*
X040920Y027270D01*
X041060D02*
X041130Y027200D01*
X041270D01*
X041340Y027270D01*
Y027550D01*
X041270Y027620D01*
X041130D01*
X041060Y027550D01*
Y027480D01*
X041130Y027410D01*
X041340D01*
X041479Y027550D02*
X041549Y027620D01*
X041689D01*
X041759Y027550D01*
Y027270D01*
X041689Y027200D01*
X041549D01*
X041479Y027270D01*
Y027550D01*
X041899D02*
X041969Y027620D01*
X042109D01*
X042179Y027550D01*
Y027270D01*
X042109Y027200D01*
X041969D01*
X041899Y027270D01*
Y027550D01*
X036000Y011870D02*
Y011450D01*
X036280D01*
X036700Y011870D02*
X036420D01*
Y011450D01*
X036700D01*
X036420Y011660D02*
X036560D01*
X036840Y011870D02*
Y011450D01*
X037050D01*
X037120Y011520D01*
Y011800D01*
X037050Y011870D01*
X036840D01*
X037260Y011380D02*
X037540D01*
X037679Y011450D02*
Y011870D01*
X037889D01*
X037959Y011800D01*
Y011660D01*
X037889Y011590D01*
X037679D01*
X037819D02*
X037959Y011450D01*
X036000Y013220D02*
Y012800D01*
X036280D01*
X036700Y013220D02*
X036420D01*
Y012800D01*
X036700D01*
X036420Y013010D02*
X036560D01*
X036840Y013220D02*
Y012800D01*
X037050D01*
X037120Y012870D01*
Y013150D01*
X037050Y013220D01*
X036840D01*
X037260Y012730D02*
X037540D01*
X037959Y013150D02*
X037889Y013220D01*
X037749D01*
X037679Y013150D01*
Y012870D01*
X037749Y012800D01*
X037889D01*
X037959Y012870D01*
Y013010D01*
X037819D01*
X039350Y011020D02*
Y010600D01*
X039630D01*
X040050Y011020D02*
X039770D01*
Y010600D01*
X040050D01*
X039770Y010810D02*
X039910D01*
X040190Y011020D02*
Y010600D01*
X040400D01*
X040470Y010670D01*
Y010950D01*
X040400Y011020D01*
X040190D01*
X040610Y010530D02*
X040890D01*
X041029Y011020D02*
Y010600D01*
X041239D01*
X041309Y010670D01*
Y010740D01*
X041239Y010810D01*
X041029D01*
X041239D01*
X041309Y010880D01*
Y010950D01*
X041239Y011020D01*
X041029D01*
X055550Y013930D02*
X055480Y013860D01*
Y013720D01*
X055550Y013650D01*
X055830D01*
X055900Y013720D01*
Y013860D01*
X055830Y013930D01*
X055480Y014280D02*
Y014140D01*
X055550Y014070D01*
X055830D01*
X055900Y014140D01*
Y014280D01*
X055830Y014350D01*
X055550D01*
X055480Y014280D01*
X055900Y014490D02*
X055480D01*
X055900Y014770D01*
X055480D01*
X055830Y014910D02*
X055900Y014980D01*
Y015120D01*
X055830Y015189D01*
X055550D01*
X055480Y015120D01*
Y014980D01*
X055550Y014910D01*
X055620D01*
X055690Y014980D01*
Y015189D01*
X055550Y015329D02*
X055480Y015399D01*
Y015539D01*
X055550Y015609D01*
X055830D01*
X055900Y015539D01*
Y015399D01*
X055830Y015329D01*
X055550D01*
Y015749D02*
X055480Y015819D01*
Y015959D01*
X055550Y016029D01*
X055830D01*
X055900Y015959D01*
Y015819D01*
X055830Y015749D01*
X055550D01*
X032800Y037430D02*
X032940D01*
X032870D01*
Y037010D01*
X032800D01*
X032940D01*
X033430Y037360D02*
X033360Y037430D01*
X033220D01*
X033150Y037360D01*
Y037080D01*
X033220Y037010D01*
X033360D01*
X033430Y037080D01*
X033850Y037010D02*
X033570D01*
X033850Y037290D01*
Y037360D01*
X033780Y037430D01*
X033640D01*
X033570Y037360D01*
X033990D02*
X034060Y037430D01*
X034200D01*
X034270Y037360D01*
Y037080D01*
X034200Y037010D01*
X034060D01*
X033990Y037080D01*
Y037360D01*
X034689Y037010D02*
X034409D01*
X034689Y037290D01*
Y037360D01*
X034619Y037430D01*
X034479D01*
X034409Y037360D01*
X045450Y055970D02*
X045590D01*
X045520D01*
Y055550D01*
X045450D01*
X045590D01*
X046080Y055900D02*
X046010Y055970D01*
X045870D01*
X045800Y055900D01*
Y055620D01*
X045870Y055550D01*
X046010D01*
X046080Y055620D01*
X046500Y055550D02*
X046220D01*
X046500Y055830D01*
Y055900D01*
X046430Y055970D01*
X046290D01*
X046220Y055900D01*
X046640D02*
X046710Y055970D01*
X046850D01*
X046920Y055900D01*
Y055620D01*
X046850Y055550D01*
X046710D01*
X046640Y055620D01*
Y055900D01*
X047059Y055550D02*
X047199D01*
X047129D01*
Y055970D01*
X047059Y055900D01*
X029680Y030850D02*
Y030990D01*
Y030920D01*
X030100D01*
Y030850D01*
Y030990D01*
X029750Y031480D02*
X029680Y031410D01*
Y031270D01*
X029750Y031200D01*
X030030D01*
X030100Y031270D01*
Y031410D01*
X030030Y031480D01*
X030100Y031900D02*
Y031620D01*
X029820Y031900D01*
X029750D01*
X029680Y031830D01*
Y031690D01*
X029750Y031620D01*
Y032040D02*
X029680Y032110D01*
Y032250D01*
X029750Y032320D01*
X030030D01*
X030100Y032250D01*
Y032110D01*
X030030Y032040D01*
X029750D01*
Y032459D02*
X029680Y032529D01*
Y032669D01*
X029750Y032739D01*
X030030D01*
X030100Y032669D01*
Y032529D01*
X030030Y032459D01*
X029750D01*
X023780Y039800D02*
Y039940D01*
Y039870D01*
X024200D01*
Y039800D01*
Y039940D01*
X023850Y040430D02*
X023780Y040360D01*
Y040220D01*
X023850Y040150D01*
X024130D01*
X024200Y040220D01*
Y040360D01*
X024130Y040430D01*
X023850Y040570D02*
X023780Y040640D01*
Y040780D01*
X023850Y040850D01*
X023920D01*
X023990Y040780D01*
Y040710D01*
Y040780D01*
X024060Y040850D01*
X024130D01*
X024200Y040780D01*
Y040640D01*
X024130Y040570D01*
X023850Y040990D02*
X023780Y041060D01*
Y041200D01*
X023850Y041270D01*
X024130D01*
X024200Y041200D01*
Y041060D01*
X024130Y040990D01*
X023850D01*
Y041409D02*
X023780Y041479D01*
Y041619D01*
X023850Y041689D01*
X024130D01*
X024200Y041619D01*
Y041479D01*
X024130Y041409D01*
X023850D01*
X029080Y039750D02*
Y039890D01*
Y039820D01*
X029500D01*
Y039750D01*
Y039890D01*
X029150Y040380D02*
X029080Y040310D01*
Y040170D01*
X029150Y040100D01*
X029430D01*
X029500Y040170D01*
Y040310D01*
X029430Y040380D01*
X029150Y040520D02*
X029080Y040590D01*
Y040730D01*
X029150Y040800D01*
X029220D01*
X029290Y040730D01*
Y040660D01*
Y040730D01*
X029360Y040800D01*
X029430D01*
X029500Y040730D01*
Y040590D01*
X029430Y040520D01*
X029150Y040940D02*
X029080Y041010D01*
Y041150D01*
X029150Y041220D01*
X029430D01*
X029500Y041150D01*
Y041010D01*
X029430Y040940D01*
X029150D01*
X029500Y041359D02*
Y041499D01*
Y041429D01*
X029080D01*
X029150Y041359D01*
X023730Y055900D02*
Y056040D01*
Y055970D01*
X024150D01*
Y055900D01*
Y056040D01*
X023800Y056530D02*
X023730Y056460D01*
Y056320D01*
X023800Y056250D01*
X024080D01*
X024150Y056320D01*
Y056460D01*
X024080Y056530D01*
X023800Y056670D02*
X023730Y056740D01*
Y056880D01*
X023800Y056950D01*
X023870D01*
X023940Y056880D01*
Y056810D01*
Y056880D01*
X024010Y056950D01*
X024080D01*
X024150Y056880D01*
Y056740D01*
X024080Y056670D01*
X023800Y057090D02*
X023730Y057160D01*
Y057300D01*
X023800Y057370D01*
X024080D01*
X024150Y057300D01*
Y057160D01*
X024080Y057090D01*
X023800D01*
X024150Y057789D02*
Y057509D01*
X023870Y057789D01*
X023800D01*
X023730Y057719D01*
Y057579D01*
X023800Y057509D01*
X023780Y045100D02*
Y045240D01*
Y045170D01*
X024200D01*
Y045100D01*
Y045240D01*
X023850Y045730D02*
X023780Y045660D01*
Y045520D01*
X023850Y045450D01*
X024130D01*
X024200Y045520D01*
Y045660D01*
X024130Y045730D01*
X023850Y045870D02*
X023780Y045940D01*
Y046080D01*
X023850Y046150D01*
X023920D01*
X023990Y046080D01*
Y046010D01*
Y046080D01*
X024060Y046150D01*
X024130D01*
X024200Y046080D01*
Y045940D01*
X024130Y045870D01*
X023850Y046290D02*
X023780Y046360D01*
Y046500D01*
X023850Y046570D01*
X024130D01*
X024200Y046500D01*
Y046360D01*
X024130Y046290D01*
X023850D01*
Y046709D02*
X023780Y046779D01*
Y046919D01*
X023850Y046989D01*
X023920D01*
X023990Y046919D01*
Y046849D01*
Y046919D01*
X024060Y046989D01*
X024130D01*
X024200Y046919D01*
Y046779D01*
X024130Y046709D01*
X029080Y045200D02*
Y045340D01*
Y045270D01*
X029500D01*
Y045200D01*
Y045340D01*
X029150Y045830D02*
X029080Y045760D01*
Y045620D01*
X029150Y045550D01*
X029430D01*
X029500Y045620D01*
Y045760D01*
X029430Y045830D01*
X029150Y045970D02*
X029080Y046040D01*
Y046180D01*
X029150Y046250D01*
X029220D01*
X029290Y046180D01*
Y046110D01*
Y046180D01*
X029360Y046250D01*
X029430D01*
X029500Y046180D01*
Y046040D01*
X029430Y045970D01*
X029150Y046390D02*
X029080Y046460D01*
Y046600D01*
X029150Y046670D01*
X029430D01*
X029500Y046600D01*
Y046460D01*
X029430Y046390D01*
X029150D01*
X029500Y047019D02*
X029080D01*
X029290Y046809D01*
Y047089D01*
X029130Y055950D02*
Y056090D01*
Y056020D01*
X029550D01*
Y055950D01*
Y056090D01*
X029200Y056580D02*
X029130Y056510D01*
Y056370D01*
X029200Y056300D01*
X029480D01*
X029550Y056370D01*
Y056510D01*
X029480Y056580D01*
X029200Y056720D02*
X029130Y056790D01*
Y056930D01*
X029200Y057000D01*
X029270D01*
X029340Y056930D01*
Y056860D01*
Y056930D01*
X029410Y057000D01*
X029480D01*
X029550Y056930D01*
Y056790D01*
X029480Y056720D01*
X029200Y057140D02*
X029130Y057210D01*
Y057350D01*
X029200Y057420D01*
X029480D01*
X029550Y057350D01*
Y057210D01*
X029480Y057140D01*
X029200D01*
X029130Y057839D02*
X029200Y057699D01*
X029340Y057559D01*
X029480D01*
X029550Y057629D01*
Y057769D01*
X029480Y057839D01*
X029410D01*
X029340Y057769D01*
Y057559D01*
X023830Y050650D02*
Y050790D01*
Y050720D01*
X024250D01*
Y050650D01*
Y050790D01*
X023900Y051280D02*
X023830Y051210D01*
Y051070D01*
X023900Y051000D01*
X024180D01*
X024250Y051070D01*
Y051210D01*
X024180Y051280D01*
X023900Y051420D02*
X023830Y051490D01*
Y051630D01*
X023900Y051700D01*
X023970D01*
X024040Y051630D01*
Y051560D01*
Y051630D01*
X024110Y051700D01*
X024180D01*
X024250Y051630D01*
Y051490D01*
X024180Y051420D01*
X023900Y051840D02*
X023830Y051910D01*
Y052050D01*
X023900Y052120D01*
X024180D01*
X024250Y052050D01*
Y051910D01*
X024180Y051840D01*
X023900D01*
X023830Y052259D02*
Y052539D01*
X023900D01*
X024180Y052259D01*
X024250D01*
X029130Y050550D02*
Y050690D01*
Y050620D01*
X029550D01*
Y050550D01*
Y050690D01*
X029200Y051180D02*
X029130Y051110D01*
Y050970D01*
X029200Y050900D01*
X029480D01*
X029550Y050970D01*
Y051110D01*
X029480Y051180D01*
X029200Y051320D02*
X029130Y051390D01*
Y051530D01*
X029200Y051600D01*
X029270D01*
X029340Y051530D01*
Y051460D01*
Y051530D01*
X029410Y051600D01*
X029480D01*
X029550Y051530D01*
Y051390D01*
X029480Y051320D01*
X029200Y051740D02*
X029130Y051810D01*
Y051950D01*
X029200Y052020D01*
X029480D01*
X029550Y051950D01*
Y051810D01*
X029480Y051740D01*
X029200D01*
Y052159D02*
X029130Y052229D01*
Y052369D01*
X029200Y052439D01*
X029270D01*
X029340Y052369D01*
X029410Y052439D01*
X029480D01*
X029550Y052369D01*
Y052229D01*
X029480Y052159D01*
X029410D01*
X029340Y052229D01*
X029270Y052159D01*
X029200D01*
X029340Y052229D02*
Y052369D01*
X040550Y047920D02*
X040690D01*
X040620D01*
Y047500D01*
X040550D01*
X040690D01*
X041180Y047850D02*
X041110Y047920D01*
X040970D01*
X040900Y047850D01*
Y047570D01*
X040970Y047500D01*
X041110D01*
X041180Y047570D01*
X041320Y047850D02*
X041390Y047920D01*
X041530D01*
X041600Y047850D01*
Y047780D01*
X041530Y047710D01*
X041460D01*
X041530D01*
X041600Y047640D01*
Y047570D01*
X041530Y047500D01*
X041390D01*
X041320Y047570D01*
X041740Y047850D02*
X041810Y047920D01*
X041950D01*
X042020Y047850D01*
Y047570D01*
X041950Y047500D01*
X041810D01*
X041740Y047570D01*
Y047850D01*
X042159Y047570D02*
X042229Y047500D01*
X042369D01*
X042439Y047570D01*
Y047850D01*
X042369Y047920D01*
X042229D01*
X042159Y047850D01*
Y047780D01*
X042229Y047710D01*
X042439D01*
X028700Y024980D02*
X028630Y024910D01*
Y024770D01*
X028700Y024700D01*
X028980D01*
X029050Y024770D01*
Y024910D01*
X028980Y024980D01*
X029050Y025330D02*
X028630D01*
X028840Y025120D01*
Y025400D01*
X029050Y025540D02*
Y025680D01*
Y025610D01*
X028630D01*
X028700Y025540D01*
X029050Y026170D02*
Y025890D01*
X028770Y026170D01*
X028700D01*
X028630Y026100D01*
Y025960D01*
X028700Y025890D01*
X028900Y035230D02*
X028830Y035160D01*
Y035020D01*
X028900Y034950D01*
X029180D01*
X029250Y035020D01*
Y035160D01*
X029180Y035230D01*
X029250Y035580D02*
X028830D01*
X029040Y035370D01*
Y035650D01*
X029250Y035790D02*
Y035930D01*
Y035860D01*
X028830D01*
X028900Y035790D01*
Y036140D02*
X028830Y036210D01*
Y036350D01*
X028900Y036420D01*
X028970D01*
X029040Y036350D01*
Y036280D01*
Y036350D01*
X029110Y036420D01*
X029180D01*
X029250Y036350D01*
Y036210D01*
X029180Y036140D01*
X027300Y038380D02*
X027230Y038310D01*
Y038170D01*
X027300Y038100D01*
X027580D01*
X027650Y038170D01*
Y038310D01*
X027580Y038380D01*
X027300Y038520D02*
X027230Y038590D01*
Y038730D01*
X027300Y038800D01*
X027370D01*
X027440Y038730D01*
Y038660D01*
Y038730D01*
X027510Y038800D01*
X027580D01*
X027650Y038730D01*
Y038590D01*
X027580Y038520D01*
X027300Y038940D02*
X027230Y039010D01*
Y039150D01*
X027300Y039220D01*
X027580D01*
X027650Y039150D01*
Y039010D01*
X027580Y038940D01*
X027300D01*
Y039360D02*
X027230Y039430D01*
Y039570D01*
X027300Y039639D01*
X027580D01*
X027650Y039570D01*
Y039430D01*
X027580Y039360D01*
X027300D01*
Y041930D02*
X027230Y041860D01*
Y041720D01*
X027300Y041650D01*
X027580D01*
X027650Y041720D01*
Y041860D01*
X027580Y041930D01*
X027300Y042070D02*
X027230Y042140D01*
Y042280D01*
X027300Y042350D01*
X027370D01*
X027440Y042280D01*
Y042210D01*
Y042280D01*
X027510Y042350D01*
X027580D01*
X027650Y042280D01*
Y042140D01*
X027580Y042070D01*
X027300Y042490D02*
X027230Y042560D01*
Y042700D01*
X027300Y042770D01*
X027580D01*
X027650Y042700D01*
Y042560D01*
X027580Y042490D01*
X027300D01*
X027230Y043190D02*
Y042910D01*
X027440D01*
X027370Y043050D01*
Y043120D01*
X027440Y043190D01*
X027580D01*
X027650Y043120D01*
Y042980D01*
X027580Y042910D01*
X039880Y051950D02*
X039810Y052020D01*
X039670D01*
X039600Y051950D01*
Y051670D01*
X039670Y051600D01*
X039810D01*
X039880Y051670D01*
X040020Y051950D02*
X040090Y052020D01*
X040230D01*
X040300Y051950D01*
Y051880D01*
X040230Y051810D01*
X040160D01*
X040230D01*
X040300Y051740D01*
Y051670D01*
X040230Y051600D01*
X040090D01*
X040020Y051670D01*
X040440Y051600D02*
X040580D01*
X040510D01*
Y052020D01*
X040440Y051950D01*
X040790D02*
X040860Y052020D01*
X041000D01*
X041070Y051950D01*
Y051880D01*
X041000Y051810D01*
X040930D01*
X041000D01*
X041070Y051740D01*
Y051670D01*
X041000Y051600D01*
X040860D01*
X040790Y051670D01*
X038430Y049850D02*
X038360Y049920D01*
X038220D01*
X038150Y049850D01*
Y049570D01*
X038220Y049500D01*
X038360D01*
X038430Y049570D01*
X038570Y049850D02*
X038640Y049920D01*
X038780D01*
X038850Y049850D01*
Y049780D01*
X038780Y049710D01*
X038710D01*
X038780D01*
X038850Y049640D01*
Y049570D01*
X038780Y049500D01*
X038640D01*
X038570Y049570D01*
X038990Y049500D02*
X039130D01*
X039060D01*
Y049920D01*
X038990Y049850D01*
X039620Y049920D02*
X039340D01*
Y049710D01*
X039480Y049780D01*
X039550D01*
X039620Y049710D01*
Y049570D01*
X039550Y049500D01*
X039410D01*
X039340Y049570D01*
X043280Y051950D02*
X043210Y052020D01*
X043070D01*
X043000Y051950D01*
Y051670D01*
X043070Y051600D01*
X043210D01*
X043280Y051670D01*
X043420Y051950D02*
X043490Y052020D01*
X043630D01*
X043700Y051950D01*
Y051880D01*
X043630Y051810D01*
X043560D01*
X043630D01*
X043700Y051740D01*
Y051670D01*
X043630Y051600D01*
X043490D01*
X043420Y051670D01*
X043840Y051600D02*
X043980D01*
X043910D01*
Y052020D01*
X043840Y051950D01*
X044400Y051600D02*
Y052020D01*
X044190Y051810D01*
X044470D01*
X043680Y049850D02*
X043610Y049920D01*
X043470D01*
X043400Y049850D01*
Y049570D01*
X043470Y049500D01*
X043610D01*
X043680Y049570D01*
X043820Y049850D02*
X043890Y049920D01*
X044030D01*
X044100Y049850D01*
Y049780D01*
X044030Y049710D01*
X043960D01*
X044030D01*
X044100Y049640D01*
Y049570D01*
X044030Y049500D01*
X043890D01*
X043820Y049570D01*
X044240Y049500D02*
X044380D01*
X044310D01*
Y049920D01*
X044240Y049850D01*
X044870Y049920D02*
X044730Y049850D01*
X044590Y049710D01*
Y049570D01*
X044660Y049500D01*
X044800D01*
X044870Y049570D01*
Y049640D01*
X044800Y049710D01*
X044590D01*
X045550Y046880D02*
X045480Y046810D01*
Y046670D01*
X045550Y046600D01*
X045830D01*
X045900Y046670D01*
Y046810D01*
X045830Y046880D01*
X045550Y047020D02*
X045480Y047090D01*
Y047230D01*
X045550Y047300D01*
X045620D01*
X045690Y047230D01*
Y047160D01*
Y047230D01*
X045760Y047300D01*
X045830D01*
X045900Y047230D01*
Y047090D01*
X045830Y047020D01*
X045900Y047440D02*
Y047580D01*
Y047510D01*
X045480D01*
X045550Y047440D01*
X045480Y047790D02*
Y048070D01*
X045550D01*
X045830Y047790D01*
X045900D01*
X043500Y046530D02*
X043430Y046460D01*
Y046320D01*
X043500Y046250D01*
X043780D01*
X043850Y046320D01*
Y046460D01*
X043780Y046530D01*
X043500Y046670D02*
X043430Y046740D01*
Y046880D01*
X043500Y046950D01*
X043570D01*
X043640Y046880D01*
Y046810D01*
Y046880D01*
X043710Y046950D01*
X043780D01*
X043850Y046880D01*
Y046740D01*
X043780Y046670D01*
X043850Y047090D02*
Y047230D01*
Y047160D01*
X043430D01*
X043500Y047090D01*
Y047440D02*
X043430Y047510D01*
Y047650D01*
X043500Y047720D01*
X043570D01*
X043640Y047650D01*
X043710Y047720D01*
X043780D01*
X043850Y047650D01*
Y047510D01*
X043780Y047440D01*
X043710D01*
X043640Y047510D01*
X043570Y047440D01*
X043500D01*
X043640Y047510D02*
Y047650D01*
X032600Y038430D02*
X032530Y038360D01*
Y038220D01*
X032600Y038150D01*
X032880D01*
X032950Y038220D01*
Y038360D01*
X032880Y038430D01*
X032600Y038570D02*
X032530Y038640D01*
Y038780D01*
X032600Y038850D01*
X032670D01*
X032740Y038780D01*
Y038710D01*
Y038780D01*
X032810Y038850D01*
X032880D01*
X032950Y038780D01*
Y038640D01*
X032880Y038570D01*
X032600Y038990D02*
X032530Y039060D01*
Y039200D01*
X032600Y039270D01*
X032880D01*
X032950Y039200D01*
Y039060D01*
X032880Y038990D01*
X032600D01*
X032950Y039410D02*
Y039550D01*
Y039480D01*
X032530D01*
X032600Y039410D01*
Y041930D02*
X032530Y041860D01*
Y041720D01*
X032600Y041650D01*
X032880D01*
X032950Y041720D01*
Y041860D01*
X032880Y041930D01*
X032600Y042070D02*
X032530Y042140D01*
Y042280D01*
X032600Y042350D01*
X032670D01*
X032740Y042280D01*
Y042210D01*
Y042280D01*
X032810Y042350D01*
X032880D01*
X032950Y042280D01*
Y042140D01*
X032880Y042070D01*
X032600Y042490D02*
X032530Y042560D01*
Y042700D01*
X032600Y042770D01*
X032880D01*
X032950Y042700D01*
Y042560D01*
X032880Y042490D01*
X032600D01*
X032530Y043190D02*
X032600Y043050D01*
X032740Y042910D01*
X032880D01*
X032950Y042980D01*
Y043120D01*
X032880Y043190D01*
X032810D01*
X032740Y043120D01*
Y042910D01*
X027300Y054630D02*
X027230Y054560D01*
Y054420D01*
X027300Y054350D01*
X027580D01*
X027650Y054420D01*
Y054560D01*
X027580Y054630D01*
X027300Y054770D02*
X027230Y054840D01*
Y054980D01*
X027300Y055050D01*
X027370D01*
X027440Y054980D01*
Y054910D01*
Y054980D01*
X027510Y055050D01*
X027580D01*
X027650Y054980D01*
Y054840D01*
X027580Y054770D01*
X027300Y055190D02*
X027230Y055260D01*
Y055400D01*
X027300Y055470D01*
X027580D01*
X027650Y055400D01*
Y055260D01*
X027580Y055190D01*
X027300D01*
X027650Y055890D02*
Y055610D01*
X027370Y055890D01*
X027300D01*
X027230Y055820D01*
Y055680D01*
X027300Y055610D01*
Y058180D02*
X027230Y058110D01*
Y057970D01*
X027300Y057900D01*
X027580D01*
X027650Y057970D01*
Y058110D01*
X027580Y058180D01*
X027300Y058320D02*
X027230Y058390D01*
Y058530D01*
X027300Y058600D01*
X027370D01*
X027440Y058530D01*
Y058460D01*
Y058530D01*
X027510Y058600D01*
X027580D01*
X027650Y058530D01*
Y058390D01*
X027580Y058320D01*
X027300Y058740D02*
X027230Y058810D01*
Y058950D01*
X027300Y059020D01*
X027580D01*
X027650Y058950D01*
Y058810D01*
X027580Y058740D01*
X027300D01*
X027230Y059160D02*
Y059440D01*
X027300D01*
X027580Y059160D01*
X027650D01*
X027300Y043830D02*
X027230Y043760D01*
Y043620D01*
X027300Y043550D01*
X027580D01*
X027650Y043620D01*
Y043760D01*
X027580Y043830D01*
X027300Y043970D02*
X027230Y044040D01*
Y044180D01*
X027300Y044250D01*
X027370D01*
X027440Y044180D01*
Y044110D01*
Y044180D01*
X027510Y044250D01*
X027580D01*
X027650Y044180D01*
Y044040D01*
X027580Y043970D01*
X027300Y044390D02*
X027230Y044460D01*
Y044600D01*
X027300Y044670D01*
X027580D01*
X027650Y044600D01*
Y044460D01*
X027580Y044390D01*
X027300D01*
Y044810D02*
X027230Y044880D01*
Y045020D01*
X027300Y045090D01*
X027370D01*
X027440Y045020D01*
Y044950D01*
Y045020D01*
X027510Y045090D01*
X027580D01*
X027650Y045020D01*
Y044880D01*
X027580Y044810D01*
X027300Y047330D02*
X027230Y047260D01*
Y047120D01*
X027300Y047050D01*
X027580D01*
X027650Y047120D01*
Y047260D01*
X027580Y047330D01*
X027300Y047470D02*
X027230Y047540D01*
Y047680D01*
X027300Y047750D01*
X027370D01*
X027440Y047680D01*
Y047610D01*
Y047680D01*
X027510Y047750D01*
X027580D01*
X027650Y047680D01*
Y047540D01*
X027580Y047470D01*
X027300Y047890D02*
X027230Y047960D01*
Y048100D01*
X027300Y048170D01*
X027580D01*
X027650Y048100D01*
Y047960D01*
X027580Y047890D01*
X027300D01*
Y048310D02*
X027230Y048380D01*
Y048520D01*
X027300Y048590D01*
X027370D01*
X027440Y048520D01*
X027510Y048590D01*
X027580D01*
X027650Y048520D01*
Y048380D01*
X027580Y048310D01*
X027510D01*
X027440Y048380D01*
X027370Y048310D01*
X027300D01*
X027440Y048380D02*
Y048520D01*
X032650Y043780D02*
X032580Y043710D01*
Y043570D01*
X032650Y043500D01*
X032930D01*
X033000Y043570D01*
Y043710D01*
X032930Y043780D01*
X032650Y043920D02*
X032580Y043990D01*
Y044130D01*
X032650Y044200D01*
X032720D01*
X032790Y044130D01*
Y044060D01*
Y044130D01*
X032860Y044200D01*
X032930D01*
X033000Y044130D01*
Y043990D01*
X032930Y043920D01*
X032650Y044340D02*
X032580Y044410D01*
Y044550D01*
X032650Y044620D01*
X032930D01*
X033000Y044550D01*
Y044410D01*
X032930Y044340D01*
X032650D01*
X033000Y044970D02*
X032580D01*
X032790Y044760D01*
Y045040D01*
X032650Y047380D02*
X032580Y047310D01*
Y047170D01*
X032650Y047100D01*
X032930D01*
X033000Y047170D01*
Y047310D01*
X032930Y047380D01*
X032650Y047520D02*
X032580Y047590D01*
Y047730D01*
X032650Y047800D01*
X032720D01*
X032790Y047730D01*
Y047660D01*
Y047730D01*
X032860Y047800D01*
X032930D01*
X033000Y047730D01*
Y047590D01*
X032930Y047520D01*
X032650Y047940D02*
X032580Y048010D01*
Y048150D01*
X032650Y048220D01*
X032930D01*
X033000Y048150D01*
Y048010D01*
X032930Y047940D01*
X032650D01*
X032930Y048360D02*
X033000Y048430D01*
Y048570D01*
X032930Y048639D01*
X032650D01*
X032580Y048570D01*
Y048430D01*
X032650Y048360D01*
X032720D01*
X032790Y048430D01*
Y048639D01*
X032600Y054630D02*
X032530Y054560D01*
Y054420D01*
X032600Y054350D01*
X032880D01*
X032950Y054420D01*
Y054560D01*
X032880Y054630D01*
X032600Y054770D02*
X032530Y054840D01*
Y054980D01*
X032600Y055050D01*
X032670D01*
X032740Y054980D01*
Y054910D01*
Y054980D01*
X032810Y055050D01*
X032880D01*
X032950Y054980D01*
Y054840D01*
X032880Y054770D01*
X032950Y055190D02*
Y055330D01*
Y055260D01*
X032530D01*
X032600Y055190D01*
Y055540D02*
X032530Y055610D01*
Y055750D01*
X032600Y055820D01*
X032880D01*
X032950Y055750D01*
Y055610D01*
X032880Y055540D01*
X032600D01*
Y058180D02*
X032530Y058110D01*
Y057970D01*
X032600Y057900D01*
X032880D01*
X032950Y057970D01*
Y058110D01*
X032880Y058180D01*
X032600Y058320D02*
X032530Y058390D01*
Y058530D01*
X032600Y058600D01*
X032670D01*
X032740Y058530D01*
Y058460D01*
Y058530D01*
X032810Y058600D01*
X032880D01*
X032950Y058530D01*
Y058390D01*
X032880Y058320D01*
X032950Y058740D02*
Y058880D01*
Y058810D01*
X032530D01*
X032600Y058740D01*
X032880Y059090D02*
X032950Y059160D01*
Y059300D01*
X032880Y059370D01*
X032600D01*
X032530Y059300D01*
Y059160D01*
X032600Y059090D01*
X032670D01*
X032740Y059160D01*
Y059370D01*
X027300Y049230D02*
X027230Y049160D01*
Y049020D01*
X027300Y048950D01*
X027580D01*
X027650Y049020D01*
Y049160D01*
X027580Y049230D01*
X027300Y049370D02*
X027230Y049440D01*
Y049580D01*
X027300Y049650D01*
X027370D01*
X027440Y049580D01*
Y049510D01*
Y049580D01*
X027510Y049650D01*
X027580D01*
X027650Y049580D01*
Y049440D01*
X027580Y049370D01*
X027650Y049790D02*
Y049930D01*
Y049860D01*
X027230D01*
X027300Y049790D01*
X027650Y050140D02*
Y050280D01*
Y050210D01*
X027230D01*
X027300Y050140D01*
Y052730D02*
X027230Y052660D01*
Y052520D01*
X027300Y052450D01*
X027580D01*
X027650Y052520D01*
Y052660D01*
X027580Y052730D01*
X027300Y052870D02*
X027230Y052940D01*
Y053080D01*
X027300Y053150D01*
X027370D01*
X027440Y053080D01*
Y053010D01*
Y053080D01*
X027510Y053150D01*
X027580D01*
X027650Y053080D01*
Y052940D01*
X027580Y052870D01*
X027650Y053570D02*
Y053290D01*
X027370Y053570D01*
X027300D01*
X027230Y053500D01*
Y053360D01*
X027300Y053290D01*
Y053710D02*
X027230Y053780D01*
Y053920D01*
X027300Y053990D01*
X027580D01*
X027650Y053920D01*
Y053780D01*
X027580Y053710D01*
X027300D01*
X032650Y049180D02*
X032580Y049110D01*
Y048970D01*
X032650Y048900D01*
X032930D01*
X033000Y048970D01*
Y049110D01*
X032930Y049180D01*
X032650Y049320D02*
X032580Y049390D01*
Y049530D01*
X032650Y049600D01*
X032720D01*
X032790Y049530D01*
Y049460D01*
Y049530D01*
X032860Y049600D01*
X032930D01*
X033000Y049530D01*
Y049390D01*
X032930Y049320D01*
X033000Y049740D02*
Y049880D01*
Y049810D01*
X032580D01*
X032650Y049740D01*
X033000Y050370D02*
Y050090D01*
X032720Y050370D01*
X032650D01*
X032580Y050300D01*
Y050160D01*
X032650Y050090D01*
X032600Y052830D02*
X032530Y052760D01*
Y052620D01*
X032600Y052550D01*
X032880D01*
X032950Y052620D01*
Y052760D01*
X032880Y052830D01*
X032600Y052970D02*
X032530Y053040D01*
Y053180D01*
X032600Y053250D01*
X032670D01*
X032740Y053180D01*
Y053110D01*
Y053180D01*
X032810Y053250D01*
X032880D01*
X032950Y053180D01*
Y053040D01*
X032880Y052970D01*
X032950Y053670D02*
Y053390D01*
X032670Y053670D01*
X032600D01*
X032530Y053600D01*
Y053460D01*
X032600Y053390D01*
X032950Y053810D02*
Y053950D01*
Y053880D01*
X032530D01*
X032600Y053810D01*
X014180Y056600D02*
X014110Y056670D01*
X013970D01*
X013900Y056600D01*
Y056320D01*
X013970Y056250D01*
X014110D01*
X014180Y056320D01*
X014530Y056670D02*
X014390D01*
X014320Y056600D01*
Y056320D01*
X014390Y056250D01*
X014530D01*
X014600Y056320D01*
Y056600D01*
X014530Y056670D01*
X014740Y056250D02*
Y056670D01*
X015020Y056250D01*
Y056670D01*
X015439D02*
X015300Y056600D01*
X015160Y056460D01*
Y056320D01*
X015230Y056250D01*
X015370D01*
X015439Y056320D01*
Y056390D01*
X015370Y056460D01*
X015160D01*
X015579Y056600D02*
X015649Y056670D01*
X015789D01*
X015859Y056600D01*
Y056320D01*
X015789Y056250D01*
X015649D01*
X015579Y056320D01*
Y056600D01*
X015999D02*
X016069Y056670D01*
X016209D01*
X016279Y056600D01*
Y056320D01*
X016209Y056250D01*
X016069D01*
X015999Y056320D01*
Y056600D01*
X014330Y039000D02*
X014260Y039070D01*
X014120D01*
X014050Y039000D01*
Y038720D01*
X014120Y038650D01*
X014260D01*
X014330Y038720D01*
X014680Y039070D02*
X014540D01*
X014470Y039000D01*
Y038720D01*
X014540Y038650D01*
X014680D01*
X014750Y038720D01*
Y039000D01*
X014680Y039070D01*
X014890Y038650D02*
Y039070D01*
X015170Y038650D01*
Y039070D01*
X015589D02*
X015450Y039000D01*
X015310Y038860D01*
Y038720D01*
X015380Y038650D01*
X015520D01*
X015589Y038720D01*
Y038790D01*
X015520Y038860D01*
X015310D01*
X015729Y039000D02*
X015799Y039070D01*
X015939D01*
X016009Y039000D01*
Y038720D01*
X015939Y038650D01*
X015799D01*
X015729Y038720D01*
Y039000D01*
X016149Y038650D02*
X016289D01*
X016219D01*
Y039070D01*
X016149Y039000D01*
X048500Y054580D02*
X048430Y054510D01*
Y054370D01*
X048500Y054300D01*
X048780D01*
X048850Y054370D01*
Y054510D01*
X048780Y054580D01*
X048850Y055000D02*
Y054720D01*
X048570Y055000D01*
X048500D01*
X048430Y054930D01*
Y054790D01*
X048500Y054720D01*
Y055140D02*
X048430Y055210D01*
Y055350D01*
X048500Y055420D01*
X048780D01*
X048850Y055350D01*
Y055210D01*
X048780Y055140D01*
X048500D01*
X048850Y055770D02*
X048430D01*
X048640Y055560D01*
Y055840D01*
X043780Y056100D02*
X043710Y056170D01*
X043570D01*
X043500Y056100D01*
Y055820D01*
X043570Y055750D01*
X043710D01*
X043780Y055820D01*
X044200Y055750D02*
X043920D01*
X044200Y056030D01*
Y056100D01*
X044130Y056170D01*
X043990D01*
X043920Y056100D01*
X044340D02*
X044410Y056170D01*
X044550D01*
X044620Y056100D01*
Y055820D01*
X044550Y055750D01*
X044410D01*
X044340Y055820D01*
Y056100D01*
X045040Y056170D02*
X044760D01*
Y055960D01*
X044900Y056030D01*
X044970D01*
X045040Y055960D01*
Y055820D01*
X044970Y055750D01*
X044830D01*
X044760Y055820D01*
X031750Y032180D02*
X031680Y032110D01*
Y031970D01*
X031750Y031900D01*
X032030D01*
X032100Y031970D01*
Y032110D01*
X032030Y032180D01*
X032100Y032600D02*
Y032320D01*
X031820Y032600D01*
X031750D01*
X031680Y032530D01*
Y032390D01*
X031750Y032320D01*
Y032740D02*
X031680Y032810D01*
Y032950D01*
X031750Y033020D01*
X032030D01*
X032100Y032950D01*
Y032810D01*
X032030Y032740D01*
X031750D01*
Y033160D02*
X031680Y033230D01*
Y033370D01*
X031750Y033440D01*
X031820D01*
X031890Y033370D01*
Y033300D01*
Y033370D01*
X031960Y033440D01*
X032030D01*
X032100Y033370D01*
Y033230D01*
X032030Y033160D01*
X033680Y031850D02*
X033610Y031920D01*
X033470D01*
X033400Y031850D01*
Y031570D01*
X033470Y031500D01*
X033610D01*
X033680Y031570D01*
X034100Y031500D02*
X033820D01*
X034100Y031780D01*
Y031850D01*
X034030Y031920D01*
X033890D01*
X033820Y031850D01*
X034240D02*
X034310Y031920D01*
X034450D01*
X034520Y031850D01*
Y031570D01*
X034450Y031500D01*
X034310D01*
X034240Y031570D01*
Y031850D01*
X034939Y031500D02*
X034660D01*
X034939Y031780D01*
Y031850D01*
X034870Y031920D01*
X034730D01*
X034660Y031850D01*
X022670Y027750D02*
X022740Y027680D01*
X022880D01*
X022950Y027750D01*
Y028030D01*
X022880Y028100D01*
X022740D01*
X022670Y028030D01*
X022250Y028100D02*
X022530D01*
X022250Y027820D01*
Y027750D01*
X022320Y027680D01*
X022460D01*
X022530Y027750D01*
X022110D02*
X022040Y027680D01*
X021900D01*
X021830Y027750D01*
Y028030D01*
X021900Y028100D01*
X022040D01*
X022110Y028030D01*
Y027750D01*
X021690Y028100D02*
X021550D01*
X021620D01*
Y027680D01*
X021690Y027750D01*
X020350Y031280D02*
X020280Y031210D01*
Y031070D01*
X020350Y031000D01*
X020630D01*
X020700Y031070D01*
Y031210D01*
X020630Y031280D01*
X020700Y031700D02*
Y031420D01*
X020420Y031700D01*
X020350D01*
X020280Y031630D01*
Y031490D01*
X020350Y031420D01*
Y031840D02*
X020280Y031910D01*
Y032050D01*
X020350Y032120D01*
X020630D01*
X020700Y032050D01*
Y031910D01*
X020630Y031840D01*
X020350D01*
Y032260D02*
X020280Y032330D01*
Y032470D01*
X020350Y032540D01*
X020630D01*
X020700Y032470D01*
Y032330D01*
X020630Y032260D01*
X020350D01*
X018850Y039230D02*
X018780Y039160D01*
Y039020D01*
X018850Y038950D01*
X019130D01*
X019200Y039020D01*
Y039160D01*
X019130Y039230D01*
X018780Y039650D02*
Y039370D01*
X018990D01*
X018920Y039510D01*
Y039580D01*
X018990Y039650D01*
X019130D01*
X019200Y039580D01*
Y039440D01*
X019130Y039370D01*
X018850Y039790D02*
X018780Y039860D01*
Y040000D01*
X018850Y040070D01*
X019130D01*
X019200Y040000D01*
Y039860D01*
X019130Y039790D01*
X018850D01*
Y040210D02*
X018780Y040280D01*
Y040420D01*
X018850Y040490D01*
X019130D01*
X019200Y040420D01*
Y040280D01*
X019130Y040210D01*
X018850D01*
X023030Y038900D02*
Y039040D01*
Y038970D01*
X023450D01*
Y038900D01*
Y039040D01*
X023100Y039530D02*
X023030Y039460D01*
Y039320D01*
X023100Y039250D01*
X023380D01*
X023450Y039320D01*
Y039460D01*
X023380Y039530D01*
X023030Y039950D02*
Y039670D01*
X023240D01*
X023170Y039810D01*
Y039880D01*
X023240Y039950D01*
X023380D01*
X023450Y039880D01*
Y039740D01*
X023380Y039670D01*
X023100Y040090D02*
X023030Y040160D01*
Y040300D01*
X023100Y040370D01*
X023380D01*
X023450Y040300D01*
Y040160D01*
X023380Y040090D01*
X023100D01*
Y040509D02*
X023030Y040579D01*
Y040719D01*
X023100Y040789D01*
X023380D01*
X023450Y040719D01*
Y040579D01*
X023380Y040509D01*
X023100D01*
X019400Y042150D02*
Y042570D01*
X019610D01*
X019680Y042500D01*
Y042360D01*
X019610Y042290D01*
X019400D01*
X019540D02*
X019680Y042150D01*
X020100Y042570D02*
X019820D01*
Y042360D01*
X019960Y042430D01*
X020030D01*
X020100Y042360D01*
Y042220D01*
X020030Y042150D01*
X019890D01*
X019820Y042220D01*
X020240Y042500D02*
X020310Y042570D01*
X020450D01*
X020520Y042500D01*
Y042220D01*
X020450Y042150D01*
X020310D01*
X020240Y042220D01*
Y042500D01*
X020660D02*
X020730Y042570D01*
X020870D01*
X020940Y042500D01*
Y042220D01*
X020870Y042150D01*
X020730D01*
X020660Y042220D01*
Y042500D01*
X021330Y046250D02*
Y046390D01*
Y046320D01*
X021750D01*
Y046250D01*
Y046390D01*
X021400Y046880D02*
X021330Y046810D01*
Y046670D01*
X021400Y046600D01*
X021680D01*
X021750Y046670D01*
Y046810D01*
X021680Y046880D01*
X021330Y047300D02*
X021400Y047160D01*
X021540Y047020D01*
X021680D01*
X021750Y047090D01*
Y047230D01*
X021680Y047300D01*
X021610D01*
X021540Y047230D01*
Y047020D01*
X021400Y047440D02*
X021330Y047510D01*
Y047650D01*
X021400Y047720D01*
X021680D01*
X021750Y047650D01*
Y047510D01*
X021680Y047440D01*
X021400D01*
X021750Y047859D02*
Y047999D01*
Y047929D01*
X021330D01*
X021400Y047859D01*
X021330Y048350D02*
Y048490D01*
Y048420D01*
X021750D01*
Y048350D01*
Y048490D01*
X021400Y048980D02*
X021330Y048910D01*
Y048770D01*
X021400Y048700D01*
X021680D01*
X021750Y048770D01*
Y048910D01*
X021680Y048980D01*
X021330Y049400D02*
X021400Y049260D01*
X021540Y049120D01*
X021680D01*
X021750Y049190D01*
Y049330D01*
X021680Y049400D01*
X021610D01*
X021540Y049330D01*
Y049120D01*
X021400Y049540D02*
X021330Y049610D01*
Y049750D01*
X021400Y049820D01*
X021680D01*
X021750Y049750D01*
Y049610D01*
X021680Y049540D01*
X021400D01*
X021750Y050239D02*
Y049959D01*
X021470Y050239D01*
X021400D01*
X021330Y050169D01*
Y050029D01*
X021400Y049959D01*
X021380Y050550D02*
Y050690D01*
Y050620D01*
X021800D01*
Y050550D01*
Y050690D01*
X021450Y051180D02*
X021380Y051110D01*
Y050970D01*
X021450Y050900D01*
X021730D01*
X021800Y050970D01*
Y051110D01*
X021730Y051180D01*
X021380Y051600D02*
X021450Y051460D01*
X021590Y051320D01*
X021730D01*
X021800Y051390D01*
Y051530D01*
X021730Y051600D01*
X021660D01*
X021590Y051530D01*
Y051320D01*
X021450Y051740D02*
X021380Y051810D01*
Y051950D01*
X021450Y052020D01*
X021730D01*
X021800Y051950D01*
Y051810D01*
X021730Y051740D01*
X021450D01*
Y052159D02*
X021380Y052229D01*
Y052369D01*
X021450Y052439D01*
X021520D01*
X021590Y052369D01*
Y052299D01*
Y052369D01*
X021660Y052439D01*
X021730D01*
X021800Y052369D01*
Y052229D01*
X021730Y052159D01*
X021380Y054900D02*
Y055040D01*
Y054970D01*
X021800D01*
Y054900D01*
Y055040D01*
X021450Y055530D02*
X021380Y055460D01*
Y055320D01*
X021450Y055250D01*
X021730D01*
X021800Y055320D01*
Y055460D01*
X021730Y055530D01*
X021380Y055950D02*
X021450Y055810D01*
X021590Y055670D01*
X021730D01*
X021800Y055740D01*
Y055880D01*
X021730Y055950D01*
X021660D01*
X021590Y055880D01*
Y055670D01*
X021450Y056090D02*
X021380Y056160D01*
Y056300D01*
X021450Y056370D01*
X021730D01*
X021800Y056300D01*
Y056160D01*
X021730Y056090D01*
X021450D01*
X021800Y056719D02*
X021380D01*
X021590Y056509D01*
Y056789D01*
X021380Y057000D02*
Y057140D01*
Y057070D01*
X021800D01*
Y057000D01*
Y057140D01*
X021450Y057630D02*
X021380Y057560D01*
Y057420D01*
X021450Y057350D01*
X021730D01*
X021800Y057420D01*
Y057560D01*
X021730Y057630D01*
X021380Y058050D02*
X021450Y057910D01*
X021590Y057770D01*
X021730D01*
X021800Y057840D01*
Y057980D01*
X021730Y058050D01*
X021660D01*
X021590Y057980D01*
Y057770D01*
X021450Y058190D02*
X021380Y058260D01*
Y058400D01*
X021450Y058470D01*
X021730D01*
X021800Y058400D01*
Y058260D01*
X021730Y058190D01*
X021450D01*
X021380Y058889D02*
Y058609D01*
X021590D01*
X021520Y058749D01*
Y058819D01*
X021590Y058889D01*
X021730D01*
X021800Y058819D01*
Y058679D01*
X021730Y058609D01*
X010500Y022170D02*
X010430Y022240D01*
X010290D01*
X010220Y022170D01*
Y021890D01*
X010290Y021820D01*
X010430D01*
X010500Y021890D01*
X010850Y022240D02*
X010710D01*
X010640Y022170D01*
Y021890D01*
X010710Y021820D01*
X010850D01*
X010920Y021890D01*
Y022170D01*
X010850Y022240D01*
X011060Y021820D02*
Y022240D01*
X011340Y021820D01*
Y022240D01*
X011690Y021820D02*
Y022240D01*
X011480Y022030D01*
X011760D01*
X011899Y022170D02*
X011969Y022240D01*
X012109D01*
X012179Y022170D01*
Y021890D01*
X012109Y021820D01*
X011969D01*
X011899Y021890D01*
Y022170D01*
X012319D02*
X012389Y022240D01*
X012529D01*
X012599Y022170D01*
Y021890D01*
X012529Y021820D01*
X012389D01*
X012319Y021890D01*
Y022170D01*
X024550Y024370D02*
X024690D01*
X024620D01*
Y023950D01*
X024550D01*
X024690D01*
X025180Y024300D02*
X025110Y024370D01*
X024970D01*
X024900Y024300D01*
Y024020D01*
X024970Y023950D01*
X025110D01*
X025180Y024020D01*
X025530Y023950D02*
Y024370D01*
X025320Y024160D01*
X025600D01*
X025740Y024300D02*
X025810Y024370D01*
X025950D01*
X026020Y024300D01*
Y024020D01*
X025950Y023950D01*
X025810D01*
X025740Y024020D01*
Y024300D01*
X026159Y023950D02*
X026299D01*
X026229D01*
Y024370D01*
X026159Y024300D01*
X023930Y037420D02*
X024070D01*
X024000D01*
Y037000D01*
X023930D01*
X024070D01*
X024560Y037350D02*
X024490Y037420D01*
X024350D01*
X024280Y037350D01*
Y037070D01*
X024350Y037000D01*
X024490D01*
X024560Y037070D01*
X024910Y037000D02*
Y037420D01*
X024700Y037210D01*
X024980D01*
X025120Y037350D02*
X025190Y037420D01*
X025330D01*
X025400Y037350D01*
Y037070D01*
X025330Y037000D01*
X025190D01*
X025120Y037070D01*
Y037350D01*
X025819Y037000D02*
X025539D01*
X025819Y037280D01*
Y037350D01*
X025749Y037420D01*
X025609D01*
X025539Y037350D01*
X021380Y024500D02*
Y024640D01*
Y024570D01*
X021800D01*
Y024500D01*
Y024640D01*
X021450Y025130D02*
X021380Y025060D01*
Y024920D01*
X021450Y024850D01*
X021730D01*
X021800Y024920D01*
Y025060D01*
X021730Y025130D01*
X021800Y025480D02*
X021380D01*
X021590Y025270D01*
Y025550D01*
X021450Y025690D02*
X021380Y025760D01*
Y025900D01*
X021450Y025970D01*
X021730D01*
X021800Y025900D01*
Y025760D01*
X021730Y025690D01*
X021450D01*
Y026109D02*
X021380Y026179D01*
Y026319D01*
X021450Y026389D01*
X021520D01*
X021590Y026319D01*
Y026249D01*
Y026319D01*
X021660Y026389D01*
X021730D01*
X021800Y026319D01*
Y026179D01*
X021730Y026109D01*
X021530Y034800D02*
Y034940D01*
Y034870D01*
X021950D01*
Y034800D01*
Y034940D01*
X021600Y035430D02*
X021530Y035360D01*
Y035220D01*
X021600Y035150D01*
X021880D01*
X021950Y035220D01*
Y035360D01*
X021880Y035430D01*
X021950Y035780D02*
X021530D01*
X021740Y035570D01*
Y035850D01*
X021600Y035990D02*
X021530Y036060D01*
Y036200D01*
X021600Y036270D01*
X021880D01*
X021950Y036200D01*
Y036060D01*
X021880Y035990D01*
X021600D01*
X021950Y036619D02*
X021530D01*
X021740Y036409D01*
Y036689D01*
X034260Y050950D02*
X034400D01*
X034330D01*
Y050530D01*
X034260D01*
X034400D01*
X034890Y050880D02*
X034820Y050950D01*
X034680D01*
X034610Y050880D01*
Y050600D01*
X034680Y050530D01*
X034820D01*
X034890Y050600D01*
X035030Y050880D02*
X035100Y050950D01*
X035240D01*
X035310Y050880D01*
Y050810D01*
X035240Y050740D01*
X035170D01*
X035240D01*
X035310Y050670D01*
Y050600D01*
X035240Y050530D01*
X035100D01*
X035030Y050600D01*
X035450Y050880D02*
X035520Y050950D01*
X035660D01*
X035730Y050880D01*
Y050600D01*
X035660Y050530D01*
X035520D01*
X035450Y050600D01*
Y050880D01*
X036149Y050950D02*
X035869D01*
Y050740D01*
X036009Y050810D01*
X036079D01*
X036149Y050740D01*
Y050600D01*
X036079Y050530D01*
X035939D01*
X035869Y050600D01*
X027250Y023300D02*
Y023720D01*
X027460D01*
X027530Y023650D01*
Y023510D01*
X027460Y023440D01*
X027250D01*
X027390D02*
X027530Y023300D01*
X027880D02*
Y023720D01*
X027670Y023510D01*
X027950D01*
X028090Y023300D02*
X028230D01*
X028160D01*
Y023720D01*
X028090Y023650D01*
X028440Y023300D02*
X028580D01*
X028510D01*
Y023720D01*
X028440Y023650D01*
X027250Y027250D02*
Y027670D01*
X027460D01*
X027530Y027600D01*
Y027460D01*
X027460Y027390D01*
X027250D01*
X027390D02*
X027530Y027250D01*
X027880D02*
Y027670D01*
X027670Y027460D01*
X027950D01*
X028090Y027250D02*
X028230D01*
X028160D01*
Y027670D01*
X028090Y027600D01*
X028720Y027670D02*
X028440D01*
Y027460D01*
X028580Y027530D01*
X028650D01*
X028720Y027460D01*
Y027320D01*
X028650Y027250D01*
X028510D01*
X028440Y027320D01*
X022600Y024800D02*
X022180D01*
Y025010D01*
X022250Y025080D01*
X022390D01*
X022460Y025010D01*
Y024800D01*
Y024940D02*
X022600Y025080D01*
Y025430D02*
X022180D01*
X022390Y025220D01*
Y025500D01*
X022600Y025640D02*
Y025780D01*
Y025710D01*
X022180D01*
X022250Y025640D01*
Y025990D02*
X022180Y026060D01*
Y026200D01*
X022250Y026270D01*
X022320D01*
X022390Y026200D01*
Y026130D01*
Y026200D01*
X022460Y026270D01*
X022530D01*
X022600Y026200D01*
Y026060D01*
X022530Y025990D01*
X027150Y033550D02*
Y033970D01*
X027360D01*
X027430Y033900D01*
Y033760D01*
X027360Y033690D01*
X027150D01*
X027290D02*
X027430Y033550D01*
X027780D02*
Y033970D01*
X027570Y033760D01*
X027850D01*
X027990Y033550D02*
X028130D01*
X028060D01*
Y033970D01*
X027990Y033900D01*
X028620Y033550D02*
X028340D01*
X028620Y033830D01*
Y033900D01*
X028550Y033970D01*
X028410D01*
X028340Y033900D01*
X027300Y037550D02*
Y037970D01*
X027510D01*
X027580Y037900D01*
Y037760D01*
X027510Y037690D01*
X027300D01*
X027440D02*
X027580Y037550D01*
X027930D02*
Y037970D01*
X027720Y037760D01*
X028000D01*
X028140Y037550D02*
X028280D01*
X028210D01*
Y037970D01*
X028140Y037900D01*
X028770Y037970D02*
X028630Y037900D01*
X028490Y037760D01*
Y037620D01*
X028560Y037550D01*
X028700D01*
X028770Y037620D01*
Y037690D01*
X028700Y037760D01*
X028490D01*
X022750Y035000D02*
X022330D01*
Y035210D01*
X022400Y035280D01*
X022540D01*
X022610Y035210D01*
Y035000D01*
Y035140D02*
X022750Y035280D01*
Y035630D02*
X022330D01*
X022540Y035420D01*
Y035700D01*
X022750Y035840D02*
Y035980D01*
Y035910D01*
X022330D01*
X022400Y035840D01*
X022750Y036400D02*
X022330D01*
X022540Y036190D01*
Y036470D01*
X023150Y038350D02*
Y038770D01*
X023360D01*
X023430Y038700D01*
Y038560D01*
X023360Y038490D01*
X023150D01*
X023290D02*
X023430Y038350D01*
X023570Y038700D02*
X023640Y038770D01*
X023780D01*
X023850Y038700D01*
Y038630D01*
X023780Y038560D01*
X023710D01*
X023780D01*
X023850Y038490D01*
Y038420D01*
X023780Y038350D01*
X023640D01*
X023570Y038420D01*
X023990Y038700D02*
X024060Y038770D01*
X024200D01*
X024270Y038700D01*
Y038420D01*
X024200Y038350D01*
X024060D01*
X023990Y038420D01*
Y038700D01*
X024410D02*
X024480Y038770D01*
X024620D01*
X024690Y038700D01*
Y038420D01*
X024620Y038350D01*
X024480D01*
X024410Y038420D01*
Y038700D01*
X023150Y042600D02*
Y043020D01*
X023360D01*
X023430Y042950D01*
Y042810D01*
X023360Y042740D01*
X023150D01*
X023290D02*
X023430Y042600D01*
X023570Y042950D02*
X023640Y043020D01*
X023780D01*
X023850Y042950D01*
Y042880D01*
X023780Y042810D01*
X023710D01*
X023780D01*
X023850Y042740D01*
Y042670D01*
X023780Y042600D01*
X023640D01*
X023570Y042670D01*
X023990Y042950D02*
X024060Y043020D01*
X024200D01*
X024270Y042950D01*
Y042670D01*
X024200Y042600D01*
X024060D01*
X023990Y042670D01*
Y042950D01*
X024690Y043020D02*
X024410D01*
Y042810D01*
X024550Y042880D01*
X024620D01*
X024690Y042810D01*
Y042670D01*
X024620Y042600D01*
X024480D01*
X024410Y042670D01*
X041550Y044000D02*
X041130D01*
Y044210D01*
X041200Y044280D01*
X041340D01*
X041410Y044210D01*
Y044000D01*
Y044140D02*
X041550Y044280D01*
X041200Y044420D02*
X041130Y044490D01*
Y044630D01*
X041200Y044700D01*
X041270D01*
X041340Y044630D01*
Y044560D01*
Y044630D01*
X041410Y044700D01*
X041480D01*
X041550Y044630D01*
Y044490D01*
X041480Y044420D01*
X041550Y044840D02*
Y044980D01*
Y044910D01*
X041130D01*
X041200Y044840D01*
X041130Y045470D02*
X041200Y045330D01*
X041340Y045190D01*
X041480D01*
X041550Y045260D01*
Y045400D01*
X041480Y045470D01*
X041410D01*
X041340Y045400D01*
Y045190D01*
X042400Y044000D02*
X041980D01*
Y044210D01*
X042050Y044280D01*
X042190D01*
X042260Y044210D01*
Y044000D01*
Y044140D02*
X042400Y044280D01*
X042050Y044420D02*
X041980Y044490D01*
Y044630D01*
X042050Y044700D01*
X042120D01*
X042190Y044630D01*
Y044560D01*
Y044630D01*
X042260Y044700D01*
X042330D01*
X042400Y044630D01*
Y044490D01*
X042330Y044420D01*
X042400Y044840D02*
Y044980D01*
Y044910D01*
X041980D01*
X042050Y044840D01*
X041980Y045190D02*
Y045470D01*
X042050D01*
X042330Y045190D01*
X042400D01*
X043215Y044005D02*
X042795D01*
Y044215D01*
X042865Y044285D01*
X043005D01*
X043075Y044215D01*
Y044005D01*
Y044145D02*
X043215Y044285D01*
X042865Y044425D02*
X042795Y044495D01*
Y044635D01*
X042865Y044705D01*
X042935D01*
X043005Y044635D01*
Y044565D01*
Y044635D01*
X043075Y044705D01*
X043145D01*
X043215Y044635D01*
Y044495D01*
X043145Y044425D01*
X043215Y044845D02*
Y044985D01*
Y044915D01*
X042795D01*
X042865Y044845D01*
Y045195D02*
X042795Y045265D01*
Y045405D01*
X042865Y045475D01*
X042935D01*
X043005Y045405D01*
X043075Y045475D01*
X043145D01*
X043215Y045405D01*
Y045265D01*
X043145Y045195D01*
X043075D01*
X043005Y045265D01*
X042935Y045195D01*
X042865D01*
X043005Y045265D02*
Y045405D01*
X028600Y038350D02*
Y038770D01*
X028810D01*
X028880Y038700D01*
Y038560D01*
X028810Y038490D01*
X028600D01*
X028740D02*
X028880Y038350D01*
X029020Y038700D02*
X029090Y038770D01*
X029230D01*
X029300Y038700D01*
Y038630D01*
X029230Y038560D01*
X029160D01*
X029230D01*
X029300Y038490D01*
Y038420D01*
X029230Y038350D01*
X029090D01*
X029020Y038420D01*
X029440Y038700D02*
X029510Y038770D01*
X029650D01*
X029720Y038700D01*
Y038420D01*
X029650Y038350D01*
X029510D01*
X029440Y038420D01*
Y038700D01*
X029860Y038350D02*
X030000D01*
X029930D01*
Y038770D01*
X029860Y038700D01*
X028450Y042600D02*
Y043020D01*
X028660D01*
X028730Y042950D01*
Y042810D01*
X028660Y042740D01*
X028450D01*
X028590D02*
X028730Y042600D01*
X028870Y042950D02*
X028940Y043020D01*
X029080D01*
X029150Y042950D01*
Y042880D01*
X029080Y042810D01*
X029010D01*
X029080D01*
X029150Y042740D01*
Y042670D01*
X029080Y042600D01*
X028940D01*
X028870Y042670D01*
X029290Y042950D02*
X029360Y043020D01*
X029500D01*
X029570Y042950D01*
Y042670D01*
X029500Y042600D01*
X029360D01*
X029290Y042670D01*
Y042950D01*
X029990Y043020D02*
X029850Y042950D01*
X029710Y042810D01*
Y042670D01*
X029780Y042600D01*
X029920D01*
X029990Y042670D01*
Y042740D01*
X029920Y042810D01*
X029710D01*
X023150Y054500D02*
Y054920D01*
X023360D01*
X023430Y054850D01*
Y054710D01*
X023360Y054640D01*
X023150D01*
X023290D02*
X023430Y054500D01*
X023570Y054850D02*
X023640Y054920D01*
X023780D01*
X023850Y054850D01*
Y054780D01*
X023780Y054710D01*
X023710D01*
X023780D01*
X023850Y054640D01*
Y054570D01*
X023780Y054500D01*
X023640D01*
X023570Y054570D01*
X023990Y054850D02*
X024060Y054920D01*
X024200D01*
X024270Y054850D01*
Y054570D01*
X024200Y054500D01*
X024060D01*
X023990Y054570D01*
Y054850D01*
X024690Y054500D02*
X024410D01*
X024690Y054780D01*
Y054850D01*
X024620Y054920D01*
X024480D01*
X024410Y054850D01*
X023150Y058750D02*
Y059170D01*
X023360D01*
X023430Y059100D01*
Y058960D01*
X023360Y058890D01*
X023150D01*
X023290D02*
X023430Y058750D01*
X023570Y059100D02*
X023640Y059170D01*
X023780D01*
X023850Y059100D01*
Y059030D01*
X023780Y058960D01*
X023710D01*
X023780D01*
X023850Y058890D01*
Y058820D01*
X023780Y058750D01*
X023640D01*
X023570Y058820D01*
X023990Y059100D02*
X024060Y059170D01*
X024200D01*
X024270Y059100D01*
Y058820D01*
X024200Y058750D01*
X024060D01*
X023990Y058820D01*
Y059100D01*
X024410Y059170D02*
X024690D01*
Y059100D01*
X024410Y058820D01*
Y058750D01*
X023100Y043700D02*
Y044120D01*
X023310D01*
X023380Y044050D01*
Y043910D01*
X023310Y043840D01*
X023100D01*
X023240D02*
X023380Y043700D01*
X023520Y044050D02*
X023590Y044120D01*
X023730D01*
X023800Y044050D01*
Y043980D01*
X023730Y043910D01*
X023660D01*
X023730D01*
X023800Y043840D01*
Y043770D01*
X023730Y043700D01*
X023590D01*
X023520Y043770D01*
X023940Y044050D02*
X024010Y044120D01*
X024150D01*
X024220Y044050D01*
Y043770D01*
X024150Y043700D01*
X024010D01*
X023940Y043770D01*
Y044050D01*
X024360D02*
X024430Y044120D01*
X024570D01*
X024639Y044050D01*
Y043980D01*
X024570Y043910D01*
X024500D01*
X024570D01*
X024639Y043840D01*
Y043770D01*
X024570Y043700D01*
X024430D01*
X024360Y043770D01*
X023100Y048000D02*
Y048420D01*
X023310D01*
X023380Y048350D01*
Y048210D01*
X023310Y048140D01*
X023100D01*
X023240D02*
X023380Y048000D01*
X023520Y048350D02*
X023590Y048420D01*
X023730D01*
X023800Y048350D01*
Y048280D01*
X023730Y048210D01*
X023660D01*
X023730D01*
X023800Y048140D01*
Y048070D01*
X023730Y048000D01*
X023590D01*
X023520Y048070D01*
X023940Y048350D02*
X024010Y048420D01*
X024150D01*
X024220Y048350D01*
Y048070D01*
X024150Y048000D01*
X024010D01*
X023940Y048070D01*
Y048350D01*
X024360D02*
X024430Y048420D01*
X024570D01*
X024639Y048350D01*
Y048280D01*
X024570Y048210D01*
X024639Y048140D01*
Y048070D01*
X024570Y048000D01*
X024430D01*
X024360Y048070D01*
Y048140D01*
X024430Y048210D01*
X024360Y048280D01*
Y048350D01*
X024430Y048210D02*
X024570D01*
X028450Y043650D02*
Y044070D01*
X028660D01*
X028730Y044000D01*
Y043860D01*
X028660Y043790D01*
X028450D01*
X028590D02*
X028730Y043650D01*
X028870Y044000D02*
X028940Y044070D01*
X029080D01*
X029150Y044000D01*
Y043930D01*
X029080Y043860D01*
X029010D01*
X029080D01*
X029150Y043790D01*
Y043720D01*
X029080Y043650D01*
X028940D01*
X028870Y043720D01*
X029290Y044000D02*
X029360Y044070D01*
X029500D01*
X029570Y044000D01*
Y043720D01*
X029500Y043650D01*
X029360D01*
X029290Y043720D01*
Y044000D01*
X029920Y043650D02*
Y044070D01*
X029710Y043860D01*
X029990D01*
X028500Y048000D02*
Y048420D01*
X028710D01*
X028780Y048350D01*
Y048210D01*
X028710Y048140D01*
X028500D01*
X028640D02*
X028780Y048000D01*
X028920Y048350D02*
X028990Y048420D01*
X029130D01*
X029200Y048350D01*
Y048280D01*
X029130Y048210D01*
X029060D01*
X029130D01*
X029200Y048140D01*
Y048070D01*
X029130Y048000D01*
X028990D01*
X028920Y048070D01*
X029340Y048350D02*
X029410Y048420D01*
X029550D01*
X029620Y048350D01*
Y048070D01*
X029550Y048000D01*
X029410D01*
X029340Y048070D01*
Y048350D01*
X029760Y048070D02*
X029830Y048000D01*
X029970D01*
X030040Y048070D01*
Y048350D01*
X029970Y048420D01*
X029830D01*
X029760Y048350D01*
Y048280D01*
X029830Y048210D01*
X030040D01*
X028600Y054450D02*
Y054870D01*
X028810D01*
X028880Y054800D01*
Y054660D01*
X028810Y054590D01*
X028600D01*
X028740D02*
X028880Y054450D01*
X029020Y054800D02*
X029090Y054870D01*
X029230D01*
X029300Y054800D01*
Y054730D01*
X029230Y054660D01*
X029160D01*
X029230D01*
X029300Y054590D01*
Y054520D01*
X029230Y054450D01*
X029090D01*
X029020Y054520D01*
X029440Y054450D02*
X029580D01*
X029510D01*
Y054870D01*
X029440Y054800D01*
X029790D02*
X029860Y054870D01*
X030000D01*
X030070Y054800D01*
Y054520D01*
X030000Y054450D01*
X029860D01*
X029790Y054520D01*
Y054800D01*
X028350Y058800D02*
Y059220D01*
X028560D01*
X028630Y059150D01*
Y059010D01*
X028560Y058940D01*
X028350D01*
X028490D02*
X028630Y058800D01*
X028770Y059150D02*
X028840Y059220D01*
X028980D01*
X029050Y059150D01*
Y059080D01*
X028980Y059010D01*
X028910D01*
X028980D01*
X029050Y058940D01*
Y058870D01*
X028980Y058800D01*
X028840D01*
X028770Y058870D01*
X029190Y058800D02*
X029330D01*
X029260D01*
Y059220D01*
X029190Y059150D01*
X029540D02*
X029610Y059220D01*
X029750D01*
X029820Y059150D01*
Y059080D01*
X029750Y059010D01*
X029680D01*
X029750D01*
X029820Y058940D01*
Y058870D01*
X029750Y058800D01*
X029610D01*
X029540Y058870D01*
X023350Y049150D02*
Y049570D01*
X023560D01*
X023630Y049500D01*
Y049360D01*
X023560Y049290D01*
X023350D01*
X023490D02*
X023630Y049150D01*
X023770Y049500D02*
X023840Y049570D01*
X023980D01*
X024050Y049500D01*
Y049430D01*
X023980Y049360D01*
X023910D01*
X023980D01*
X024050Y049290D01*
Y049220D01*
X023980Y049150D01*
X023840D01*
X023770Y049220D01*
X024190Y049150D02*
X024330D01*
X024260D01*
Y049570D01*
X024190Y049500D01*
X024540Y049150D02*
X024680D01*
X024610D01*
Y049570D01*
X024540Y049500D01*
X023200Y053450D02*
Y053870D01*
X023410D01*
X023480Y053800D01*
Y053660D01*
X023410Y053590D01*
X023200D01*
X023340D02*
X023480Y053450D01*
X023620Y053800D02*
X023690Y053870D01*
X023830D01*
X023900Y053800D01*
Y053730D01*
X023830Y053660D01*
X023760D01*
X023830D01*
X023900Y053590D01*
Y053520D01*
X023830Y053450D01*
X023690D01*
X023620Y053520D01*
X024040Y053450D02*
X024180D01*
X024110D01*
Y053870D01*
X024040Y053800D01*
X024600Y053450D02*
Y053870D01*
X024390Y053660D01*
X024670D01*
X028350Y049100D02*
Y049520D01*
X028560D01*
X028630Y049450D01*
Y049310D01*
X028560Y049240D01*
X028350D01*
X028490D02*
X028630Y049100D01*
X028770Y049450D02*
X028840Y049520D01*
X028980D01*
X029050Y049450D01*
Y049380D01*
X028980Y049310D01*
X028910D01*
X028980D01*
X029050Y049240D01*
Y049170D01*
X028980Y049100D01*
X028840D01*
X028770Y049170D01*
X029190Y049100D02*
X029330D01*
X029260D01*
Y049520D01*
X029190Y049450D01*
X029820Y049100D02*
X029540D01*
X029820Y049380D01*
Y049450D01*
X029750Y049520D01*
X029610D01*
X029540Y049450D01*
X028650Y053400D02*
Y053820D01*
X028860D01*
X028930Y053750D01*
Y053610D01*
X028860Y053540D01*
X028650D01*
X028790D02*
X028930Y053400D01*
X029070Y053750D02*
X029140Y053820D01*
X029280D01*
X029350Y053750D01*
Y053680D01*
X029280Y053610D01*
X029210D01*
X029280D01*
X029350Y053540D01*
Y053470D01*
X029280Y053400D01*
X029140D01*
X029070Y053470D01*
X029490Y053400D02*
X029630D01*
X029560D01*
Y053820D01*
X029490Y053750D01*
X030120Y053820D02*
X029840D01*
Y053610D01*
X029980Y053680D01*
X030050D01*
X030120Y053610D01*
Y053470D01*
X030050Y053400D01*
X029910D01*
X029840Y053470D01*
X023450Y030050D02*
X023030D01*
Y030260D01*
X023100Y030330D01*
X023240D01*
X023310Y030260D01*
Y030050D01*
Y030190D02*
X023450Y030330D01*
Y030750D02*
Y030470D01*
X023170Y030750D01*
X023100D01*
X023030Y030680D01*
Y030540D01*
X023100Y030470D01*
Y030890D02*
X023030Y030960D01*
Y031100D01*
X023100Y031170D01*
X023380D01*
X023450Y031100D01*
Y030960D01*
X023380Y030890D01*
X023100D01*
Y031310D02*
X023030Y031380D01*
Y031520D01*
X023100Y031590D01*
X023380D01*
X023450Y031520D01*
Y031380D01*
X023380Y031310D01*
X023100D01*
X023450Y031800D02*
X023030D01*
Y032010D01*
X023100Y032080D01*
X023240D01*
X023310Y032010D01*
Y031800D01*
Y031940D02*
X023450Y032080D01*
Y032500D02*
Y032220D01*
X023170Y032500D01*
X023100D01*
X023030Y032430D01*
Y032290D01*
X023100Y032220D01*
Y032640D02*
X023030Y032710D01*
Y032850D01*
X023100Y032920D01*
X023380D01*
X023450Y032850D01*
Y032710D01*
X023380Y032640D01*
X023100D01*
X023450Y033060D02*
Y033200D01*
Y033130D01*
X023030D01*
X023100Y033060D01*
X032850Y015680D02*
X032780Y015610D01*
Y015470D01*
X032850Y015400D01*
X033130D01*
X033200Y015470D01*
Y015610D01*
X033130Y015680D01*
X033200Y016030D02*
X032780D01*
X032990Y015820D01*
Y016100D01*
X032850Y016240D02*
X032780Y016310D01*
Y016450D01*
X032850Y016520D01*
X033130D01*
X033200Y016450D01*
Y016310D01*
X033130Y016240D01*
X032850D01*
X033200Y016660D02*
Y016800D01*
Y016730D01*
X032780D01*
X032850Y016660D01*
X026430Y016500D02*
X026360Y016570D01*
X026220D01*
X026150Y016500D01*
Y016220D01*
X026220Y016150D01*
X026360D01*
X026430Y016220D01*
X026780Y016150D02*
Y016570D01*
X026570Y016360D01*
X026850D01*
X026990Y016500D02*
X027060Y016570D01*
X027200D01*
X027270Y016500D01*
Y016220D01*
X027200Y016150D01*
X027060D01*
X026990Y016220D01*
Y016500D01*
X027689Y016150D02*
X027410D01*
X027689Y016430D01*
Y016500D01*
X027620Y016570D01*
X027480D01*
X027410Y016500D01*
X026480Y013400D02*
X026410Y013470D01*
X026270D01*
X026200Y013400D01*
Y013120D01*
X026270Y013050D01*
X026410D01*
X026480Y013120D01*
X026830Y013050D02*
Y013470D01*
X026620Y013260D01*
X026900D01*
X027040Y013400D02*
X027110Y013470D01*
X027250D01*
X027320Y013400D01*
Y013120D01*
X027250Y013050D01*
X027110D01*
X027040Y013120D01*
Y013400D01*
X027460D02*
X027530Y013470D01*
X027670D01*
X027740Y013400D01*
Y013330D01*
X027670Y013260D01*
X027600D01*
X027670D01*
X027740Y013190D01*
Y013120D01*
X027670Y013050D01*
X027530D01*
X027460Y013120D01*
X031430Y020550D02*
X031360Y020620D01*
X031220D01*
X031150Y020550D01*
Y020270D01*
X031220Y020200D01*
X031360D01*
X031430Y020270D01*
X031780Y020200D02*
Y020620D01*
X031570Y020410D01*
X031850D01*
X031990Y020550D02*
X032060Y020620D01*
X032200D01*
X032270Y020550D01*
Y020270D01*
X032200Y020200D01*
X032060D01*
X031990Y020270D01*
Y020550D01*
X032620Y020200D02*
Y020620D01*
X032410Y020410D01*
X032689D01*
X031330Y022300D02*
X031260Y022370D01*
X031120D01*
X031050Y022300D01*
Y022020D01*
X031120Y021950D01*
X031260D01*
X031330Y022020D01*
X031680Y021950D02*
Y022370D01*
X031470Y022160D01*
X031750D01*
X031890Y022300D02*
X031960Y022370D01*
X032100D01*
X032170Y022300D01*
Y022020D01*
X032100Y021950D01*
X031960D01*
X031890Y022020D01*
Y022300D01*
X032310Y022370D02*
X032589D01*
Y022300D01*
X032310Y022020D01*
Y021950D01*
X023730Y017550D02*
X023660Y017620D01*
X023520D01*
X023450Y017550D01*
Y017270D01*
X023520Y017200D01*
X023660D01*
X023730Y017270D01*
X024080Y017200D02*
Y017620D01*
X023870Y017410D01*
X024150D01*
X024290Y017200D02*
X024430D01*
X024360D01*
Y017620D01*
X024290Y017550D01*
X024640D02*
X024710Y017620D01*
X024850D01*
X024920Y017550D01*
Y017270D01*
X024850Y017200D01*
X024710D01*
X024640Y017270D01*
Y017550D01*
X023830Y020600D02*
X023760Y020670D01*
X023620D01*
X023550Y020600D01*
Y020320D01*
X023620Y020250D01*
X023760D01*
X023830Y020320D01*
X024180Y020250D02*
Y020670D01*
X023970Y020460D01*
X024250D01*
X024390Y020250D02*
X024530D01*
X024460D01*
Y020670D01*
X024390Y020600D01*
X024740Y020250D02*
X024880D01*
X024810D01*
Y020670D01*
X024740Y020600D01*
X020980Y021400D02*
X020910Y021470D01*
X020770D01*
X020700Y021400D01*
Y021120D01*
X020770Y021050D01*
X020910D01*
X020980Y021120D01*
X021330Y021050D02*
Y021470D01*
X021120Y021260D01*
X021400D01*
X021540Y021400D02*
X021610Y021470D01*
X021750D01*
X021820Y021400D01*
Y021120D01*
X021750Y021050D01*
X021610D01*
X021540Y021120D01*
Y021400D01*
X021960D02*
X022030Y021470D01*
X022170D01*
X022239Y021400D01*
Y021330D01*
X022170Y021260D01*
X022239Y021190D01*
Y021120D01*
X022170Y021050D01*
X022030D01*
X021960Y021120D01*
Y021190D01*
X022030Y021260D01*
X021960Y021330D01*
Y021400D01*
X022030Y021260D02*
X022170D01*
X021030Y016800D02*
X020960Y016870D01*
X020820D01*
X020750Y016800D01*
Y016520D01*
X020820Y016450D01*
X020960D01*
X021030Y016520D01*
X021380Y016450D02*
Y016870D01*
X021170Y016660D01*
X021450D01*
X021590Y016800D02*
X021660Y016870D01*
X021800D01*
X021870Y016800D01*
Y016520D01*
X021800Y016450D01*
X021660D01*
X021590Y016520D01*
Y016800D01*
X022010Y016520D02*
X022080Y016450D01*
X022220D01*
X022290Y016520D01*
Y016800D01*
X022220Y016870D01*
X022080D01*
X022010Y016800D01*
Y016730D01*
X022080Y016660D01*
X022290D01*
X032350Y017850D02*
Y018270D01*
X032560D01*
X032630Y018200D01*
Y018060D01*
X032560Y017990D01*
X032350D01*
X032490D02*
X032630Y017850D01*
X032980D02*
Y018270D01*
X032770Y018060D01*
X033050D01*
X033190Y018200D02*
X033260Y018270D01*
X033400D01*
X033470Y018200D01*
Y017920D01*
X033400Y017850D01*
X033260D01*
X033190Y017920D01*
Y018200D01*
X033610D02*
X033680Y018270D01*
X033820D01*
X033890Y018200D01*
Y018130D01*
X033820Y018060D01*
X033750D01*
X033820D01*
X033890Y017990D01*
Y017920D01*
X033820Y017850D01*
X033680D01*
X033610Y017920D01*
X034700Y015350D02*
X034280D01*
Y015560D01*
X034350Y015630D01*
X034490D01*
X034560Y015560D01*
Y015350D01*
Y015490D02*
X034700Y015630D01*
Y015980D02*
X034280D01*
X034490Y015770D01*
Y016050D01*
X034350Y016190D02*
X034280Y016260D01*
Y016400D01*
X034350Y016470D01*
X034630D01*
X034700Y016400D01*
Y016260D01*
X034630Y016190D01*
X034350D01*
X034700Y016889D02*
Y016610D01*
X034420Y016889D01*
X034350D01*
X034280Y016820D01*
Y016680D01*
X034350Y016610D01*
X027700Y023100D02*
X028120D01*
Y022890D01*
X028050Y022820D01*
X027910D01*
X027840Y022890D01*
Y023100D01*
Y022960D02*
X027700Y022820D01*
Y022470D02*
X028120D01*
X027910Y022680D01*
Y022400D01*
X028050Y022260D02*
X028120Y022190D01*
Y022050D01*
X028050Y021980D01*
X027770D01*
X027700Y022050D01*
Y022190D01*
X027770Y022260D01*
X028050D01*
X027700Y021630D02*
X028120D01*
X027910Y021840D01*
Y021560D01*
X028500Y023100D02*
X028920D01*
Y022890D01*
X028850Y022820D01*
X028710D01*
X028640Y022890D01*
Y023100D01*
Y022960D02*
X028500Y022820D01*
Y022470D02*
X028920D01*
X028710Y022680D01*
Y022400D01*
X028850Y022260D02*
X028920Y022190D01*
Y022050D01*
X028850Y021980D01*
X028570D01*
X028500Y022050D01*
Y022190D01*
X028570Y022260D01*
X028850D01*
X028920Y021560D02*
Y021840D01*
X028710D01*
X028780Y021700D01*
Y021630D01*
X028710Y021560D01*
X028570D01*
X028500Y021630D01*
Y021770D01*
X028570Y021840D01*
X029150Y013200D02*
X028730D01*
Y013410D01*
X028800Y013480D01*
X028940D01*
X029010Y013410D01*
Y013200D01*
Y013340D02*
X029150Y013480D01*
Y013830D02*
X028730D01*
X028940Y013620D01*
Y013900D01*
X028800Y014040D02*
X028730Y014110D01*
Y014250D01*
X028800Y014320D01*
X029080D01*
X029150Y014250D01*
Y014110D01*
X029080Y014040D01*
X028800D01*
Y014460D02*
X028730Y014530D01*
Y014670D01*
X028800Y014740D01*
X029080D01*
X029150Y014670D01*
Y014530D01*
X029080Y014460D01*
X028800D01*
X023500Y015450D02*
Y015870D01*
X023710D01*
X023780Y015800D01*
Y015660D01*
X023710Y015590D01*
X023500D01*
X023640D02*
X023780Y015450D01*
X024130D02*
Y015870D01*
X023920Y015660D01*
X024200D01*
X024340Y015800D02*
X024410Y015870D01*
X024550D01*
X024620Y015800D01*
Y015520D01*
X024550Y015450D01*
X024410D01*
X024340Y015520D01*
Y015800D01*
X024760Y015870D02*
X025040D01*
Y015800D01*
X024760Y015520D01*
Y015450D01*
X026300Y016900D02*
X025880D01*
Y017110D01*
X025950Y017180D01*
X026090D01*
X026160Y017110D01*
Y016900D01*
Y017040D02*
X026300Y017180D01*
Y017530D02*
X025880D01*
X026090Y017320D01*
Y017600D01*
X025950Y017740D02*
X025880Y017810D01*
Y017950D01*
X025950Y018020D01*
X026230D01*
X026300Y017950D01*
Y017810D01*
X026230Y017740D01*
X025950D01*
X026230Y018160D02*
X026300Y018230D01*
Y018370D01*
X026230Y018440D01*
X025950D01*
X025880Y018370D01*
Y018230D01*
X025950Y018160D01*
X026020D01*
X026090Y018230D01*
Y018440D01*
X023450Y018450D02*
Y018870D01*
X023660D01*
X023730Y018800D01*
Y018660D01*
X023660Y018590D01*
X023450D01*
X023590D02*
X023730Y018450D01*
X024080D02*
Y018870D01*
X023870Y018660D01*
X024150D01*
X024290Y018800D02*
X024360Y018870D01*
X024500D01*
X024570Y018800D01*
Y018520D01*
X024500Y018450D01*
X024360D01*
X024290Y018520D01*
Y018800D01*
X024710D02*
X024780Y018870D01*
X024920D01*
X024990Y018800D01*
Y018730D01*
X024920Y018660D01*
X024990Y018590D01*
Y018520D01*
X024920Y018450D01*
X024780D01*
X024710Y018520D01*
Y018590D01*
X024780Y018660D01*
X024710Y018730D01*
Y018800D01*
X024780Y018660D02*
X024920D01*
X026350Y020050D02*
X025930D01*
Y020260D01*
X026000Y020330D01*
X026140D01*
X026210Y020260D01*
Y020050D01*
Y020190D02*
X026350Y020330D01*
Y020680D02*
X025930D01*
X026140Y020470D01*
Y020750D01*
X026350Y020890D02*
Y021030D01*
Y020960D01*
X025930D01*
X026000Y020890D01*
Y021240D02*
X025930Y021310D01*
Y021450D01*
X026000Y021520D01*
X026280D01*
X026350Y021450D01*
Y021310D01*
X026280Y021240D01*
X026000D01*
X020800Y014150D02*
Y014570D01*
X021010D01*
X021080Y014500D01*
Y014360D01*
X021010Y014290D01*
X020800D01*
X020940D02*
X021080Y014150D01*
X021430D02*
Y014570D01*
X021220Y014360D01*
X021500D01*
X021640Y014500D02*
X021710Y014570D01*
X021850D01*
X021920Y014500D01*
Y014220D01*
X021850Y014150D01*
X021710D01*
X021640Y014220D01*
Y014500D01*
X022060Y014150D02*
X022200D01*
X022130D01*
Y014570D01*
X022060Y014500D01*
X020800Y018800D02*
Y019220D01*
X021010D01*
X021080Y019150D01*
Y019010D01*
X021010Y018940D01*
X020800D01*
X020940D02*
X021080Y018800D01*
X021430D02*
Y019220D01*
X021220Y019010D01*
X021500D01*
X021640Y019150D02*
X021710Y019220D01*
X021850D01*
X021920Y019150D01*
Y018870D01*
X021850Y018800D01*
X021710D01*
X021640Y018870D01*
Y019150D01*
X022339Y019220D02*
X022200Y019150D01*
X022060Y019010D01*
Y018870D01*
X022130Y018800D01*
X022270D01*
X022339Y018870D01*
Y018940D01*
X022270Y019010D01*
X022060D01*
X028900Y020020D02*
X029040D01*
X028970D01*
Y019600D01*
X028900D01*
X029040D01*
X029530Y019950D02*
X029460Y020020D01*
X029320D01*
X029250Y019950D01*
Y019670D01*
X029320Y019600D01*
X029460D01*
X029530Y019670D01*
X029880Y019600D02*
Y020020D01*
X029670Y019810D01*
X029950D01*
X030090Y019950D02*
X030160Y020020D01*
X030300D01*
X030370Y019950D01*
Y019670D01*
X030300Y019600D01*
X030160D01*
X030090Y019670D01*
Y019950D01*
X030509D02*
X030579Y020020D01*
X030719D01*
X030789Y019950D01*
Y019670D01*
X030719Y019600D01*
X030579D01*
X030509Y019670D01*
Y019950D01*
X047400Y023930D02*
X047330Y023860D01*
Y023720D01*
X047400Y023650D01*
X047680D01*
X047750Y023720D01*
Y023860D01*
X047680Y023930D01*
Y024070D02*
X047750Y024140D01*
Y024280D01*
X047680Y024350D01*
X047400D01*
X047330Y024280D01*
Y024140D01*
X047400Y024070D01*
X047470D01*
X047540Y024140D01*
Y024350D01*
X047750Y024770D02*
Y024490D01*
X047470Y024770D01*
X047400D01*
X047330Y024700D01*
Y024560D01*
X047400Y024490D01*
X047750Y024910D02*
Y025050D01*
Y024980D01*
X047330D01*
X047400Y024910D01*
X038050Y013330D02*
X037980Y013260D01*
Y013120D01*
X038050Y013050D01*
X038330D01*
X038400Y013120D01*
Y013260D01*
X038330Y013330D01*
Y013470D02*
X038400Y013540D01*
Y013680D01*
X038330Y013750D01*
X038050D01*
X037980Y013680D01*
Y013540D01*
X038050Y013470D01*
X038120D01*
X038190Y013540D01*
Y013750D01*
X038050Y013890D02*
X037980Y013960D01*
Y014100D01*
X038050Y014170D01*
X038330D01*
X038400Y014100D01*
Y013960D01*
X038330Y013890D01*
X038050D01*
Y014310D02*
X037980Y014380D01*
Y014520D01*
X038050Y014590D01*
X038120D01*
X038190Y014520D01*
X038260Y014590D01*
X038330D01*
X038400Y014520D01*
Y014380D01*
X038330Y014310D01*
X038260D01*
X038190Y014380D01*
X038120Y014310D01*
X038050D01*
X038190Y014380D02*
Y014520D01*
X040880Y013550D02*
X040810Y013620D01*
X040670D01*
X040600Y013550D01*
Y013270D01*
X040670Y013200D01*
X040810D01*
X040880Y013270D01*
X041020D02*
X041090Y013200D01*
X041230D01*
X041300Y013270D01*
Y013550D01*
X041230Y013620D01*
X041090D01*
X041020Y013550D01*
Y013480D01*
X041090Y013410D01*
X041300D01*
X041720Y013200D02*
X041440D01*
X041720Y013480D01*
Y013550D01*
X041650Y013620D01*
X041510D01*
X041440Y013550D01*
X041860D02*
X041930Y013620D01*
X042070D01*
X042140Y013550D01*
Y013270D01*
X042070Y013200D01*
X041930D01*
X041860Y013270D01*
Y013550D01*
X043080D02*
X043010Y013620D01*
X042870D01*
X042800Y013550D01*
Y013270D01*
X042870Y013200D01*
X043010D01*
X043080Y013270D01*
X043220D02*
X043290Y013200D01*
X043430D01*
X043500Y013270D01*
Y013550D01*
X043430Y013620D01*
X043290D01*
X043220Y013550D01*
Y013480D01*
X043290Y013410D01*
X043500D01*
X043640Y013200D02*
X043780D01*
X043710D01*
Y013620D01*
X043640Y013550D01*
X043990Y013270D02*
X044060Y013200D01*
X044200D01*
X044270Y013270D01*
Y013550D01*
X044200Y013620D01*
X044060D01*
X043990Y013550D01*
Y013480D01*
X044060Y013410D01*
X044270D01*
X045730Y013550D02*
X045660Y013620D01*
X045520D01*
X045450Y013550D01*
Y013270D01*
X045520Y013200D01*
X045660D01*
X045730Y013270D01*
X045870D02*
X045940Y013200D01*
X046080D01*
X046150Y013270D01*
Y013550D01*
X046080Y013620D01*
X045940D01*
X045870Y013550D01*
Y013480D01*
X045940Y013410D01*
X046150D01*
X046290Y013200D02*
X046430D01*
X046360D01*
Y013620D01*
X046290Y013550D01*
X046640D02*
X046710Y013620D01*
X046850D01*
X046920Y013550D01*
Y013480D01*
X046850Y013410D01*
X046920Y013340D01*
Y013270D01*
X046850Y013200D01*
X046710D01*
X046640Y013270D01*
Y013340D01*
X046710Y013410D01*
X046640Y013480D01*
Y013550D01*
X046710Y013410D02*
X046850D01*
X047500Y016780D02*
X047430Y016710D01*
Y016570D01*
X047500Y016500D01*
X047780D01*
X047850Y016570D01*
Y016710D01*
X047780Y016780D01*
Y016920D02*
X047850Y016990D01*
Y017130D01*
X047780Y017200D01*
X047500D01*
X047430Y017130D01*
Y016990D01*
X047500Y016920D01*
X047570D01*
X047640Y016990D01*
Y017200D01*
X047850Y017340D02*
Y017480D01*
Y017410D01*
X047430D01*
X047500Y017340D01*
X047430Y017690D02*
Y017970D01*
X047500D01*
X047780Y017690D01*
X047850D01*
X047500Y018480D02*
X047430Y018410D01*
Y018270D01*
X047500Y018200D01*
X047780D01*
X047850Y018270D01*
Y018410D01*
X047780Y018480D01*
Y018620D02*
X047850Y018690D01*
Y018830D01*
X047780Y018900D01*
X047500D01*
X047430Y018830D01*
Y018690D01*
X047500Y018620D01*
X047570D01*
X047640Y018690D01*
Y018900D01*
X047850Y019040D02*
Y019180D01*
Y019110D01*
X047430D01*
X047500Y019040D01*
X047430Y019670D02*
X047500Y019530D01*
X047640Y019390D01*
X047780D01*
X047850Y019460D01*
Y019600D01*
X047780Y019670D01*
X047710D01*
X047640Y019600D01*
Y019390D01*
X048480Y022500D02*
X048410Y022570D01*
X048270D01*
X048200Y022500D01*
Y022220D01*
X048270Y022150D01*
X048410D01*
X048480Y022220D01*
X048620D02*
X048690Y022150D01*
X048830D01*
X048900Y022220D01*
Y022500D01*
X048830Y022570D01*
X048690D01*
X048620Y022500D01*
Y022430D01*
X048690Y022360D01*
X048900D01*
X049040Y022150D02*
X049180D01*
X049110D01*
Y022570D01*
X049040Y022500D01*
X049670Y022570D02*
X049390D01*
Y022360D01*
X049530Y022430D01*
X049600D01*
X049670Y022360D01*
Y022220D01*
X049600Y022150D01*
X049460D01*
X049390Y022220D01*
X044380Y024750D02*
X044310Y024820D01*
X044170D01*
X044100Y024750D01*
Y024470D01*
X044170Y024400D01*
X044310D01*
X044380Y024470D01*
X044520D02*
X044590Y024400D01*
X044730D01*
X044800Y024470D01*
Y024750D01*
X044730Y024820D01*
X044590D01*
X044520Y024750D01*
Y024680D01*
X044590Y024610D01*
X044800D01*
X044940Y024400D02*
X045080D01*
X045010D01*
Y024820D01*
X044940Y024750D01*
X045500Y024400D02*
Y024820D01*
X045290Y024610D01*
X045570D01*
X042730Y024750D02*
X042660Y024820D01*
X042520D01*
X042450Y024750D01*
Y024470D01*
X042520Y024400D01*
X042660D01*
X042730Y024470D01*
X042870D02*
X042940Y024400D01*
X043080D01*
X043150Y024470D01*
Y024750D01*
X043080Y024820D01*
X042940D01*
X042870Y024750D01*
Y024680D01*
X042940Y024610D01*
X043150D01*
X043290Y024400D02*
X043430D01*
X043360D01*
Y024820D01*
X043290Y024750D01*
X043640D02*
X043710Y024820D01*
X043850D01*
X043920Y024750D01*
Y024680D01*
X043850Y024610D01*
X043780D01*
X043850D01*
X043920Y024540D01*
Y024470D01*
X043850Y024400D01*
X043710D01*
X043640Y024470D01*
X037950Y023730D02*
X037880Y023660D01*
Y023520D01*
X037950Y023450D01*
X038230D01*
X038300Y023520D01*
Y023660D01*
X038230Y023730D01*
Y023870D02*
X038300Y023940D01*
Y024080D01*
X038230Y024150D01*
X037950D01*
X037880Y024080D01*
Y023940D01*
X037950Y023870D01*
X038020D01*
X038090Y023940D01*
Y024150D01*
X038300Y024290D02*
Y024430D01*
Y024360D01*
X037880D01*
X037950Y024290D01*
X038300Y024920D02*
Y024640D01*
X038020Y024920D01*
X037950D01*
X037880Y024850D01*
Y024710D01*
X037950Y024640D01*
X036400Y021280D02*
X036330Y021210D01*
Y021070D01*
X036400Y021000D01*
X036680D01*
X036750Y021070D01*
Y021210D01*
X036680Y021280D01*
Y021420D02*
X036750Y021490D01*
Y021630D01*
X036680Y021700D01*
X036400D01*
X036330Y021630D01*
Y021490D01*
X036400Y021420D01*
X036470D01*
X036540Y021490D01*
Y021700D01*
X036750Y021840D02*
Y021980D01*
Y021910D01*
X036330D01*
X036400Y021840D01*
X036750Y022190D02*
Y022330D01*
Y022260D01*
X036330D01*
X036400Y022190D01*
Y018480D02*
X036330Y018410D01*
Y018270D01*
X036400Y018200D01*
X036680D01*
X036750Y018270D01*
Y018410D01*
X036680Y018480D01*
Y018620D02*
X036750Y018690D01*
Y018830D01*
X036680Y018900D01*
X036400D01*
X036330Y018830D01*
Y018690D01*
X036400Y018620D01*
X036470D01*
X036540Y018690D01*
Y018900D01*
X036750Y019040D02*
Y019180D01*
Y019110D01*
X036330D01*
X036400Y019040D01*
Y019390D02*
X036330Y019460D01*
Y019600D01*
X036400Y019670D01*
X036680D01*
X036750Y019600D01*
Y019460D01*
X036680Y019390D01*
X036400D01*
Y016530D02*
X036330Y016460D01*
Y016320D01*
X036400Y016250D01*
X036680D01*
X036750Y016320D01*
Y016460D01*
X036680Y016530D01*
Y016670D02*
X036750Y016740D01*
Y016880D01*
X036680Y016950D01*
X036400D01*
X036330Y016880D01*
Y016740D01*
X036400Y016670D01*
X036470D01*
X036540Y016740D01*
Y016950D01*
X036400Y017090D02*
X036330Y017160D01*
Y017300D01*
X036400Y017370D01*
X036680D01*
X036750Y017300D01*
Y017160D01*
X036680Y017090D01*
X036400D01*
X036680Y017510D02*
X036750Y017580D01*
Y017720D01*
X036680Y017789D01*
X036400D01*
X036330Y017720D01*
Y017580D01*
X036400Y017510D01*
X036470D01*
X036540Y017580D01*
Y017789D01*
X043580Y011100D02*
X043510Y011170D01*
X043370D01*
X043300Y011100D01*
Y010820D01*
X043370Y010750D01*
X043510D01*
X043580Y010820D01*
X043720D02*
X043790Y010750D01*
X043930D01*
X044000Y010820D01*
Y011100D01*
X043930Y011170D01*
X043790D01*
X043720Y011100D01*
Y011030D01*
X043790Y010960D01*
X044000D01*
X044420Y010750D02*
X044140D01*
X044420Y011030D01*
Y011100D01*
X044350Y011170D01*
X044210D01*
X044140Y011100D01*
X044840Y010750D02*
X044560D01*
X044840Y011030D01*
Y011100D01*
X044770Y011170D01*
X044630D01*
X044560Y011100D01*
X035050Y013630D02*
X034980Y013560D01*
Y013420D01*
X035050Y013350D01*
X035330D01*
X035400Y013420D01*
Y013560D01*
X035330Y013630D01*
Y013770D02*
X035400Y013840D01*
Y013980D01*
X035330Y014050D01*
X035050D01*
X034980Y013980D01*
Y013840D01*
X035050Y013770D01*
X035120D01*
X035190Y013840D01*
Y014050D01*
X035400Y014470D02*
Y014190D01*
X035120Y014470D01*
X035050D01*
X034980Y014400D01*
Y014260D01*
X035050Y014190D01*
Y014610D02*
X034980Y014680D01*
Y014820D01*
X035050Y014890D01*
X035120D01*
X035190Y014820D01*
Y014750D01*
Y014820D01*
X035260Y014890D01*
X035330D01*
X035400Y014820D01*
Y014680D01*
X035330Y014610D01*
X034300Y023930D02*
X034230Y023860D01*
Y023720D01*
X034300Y023650D01*
X034580D01*
X034650Y023720D01*
Y023860D01*
X034580Y023930D01*
Y024070D02*
X034650Y024140D01*
Y024280D01*
X034580Y024350D01*
X034300D01*
X034230Y024280D01*
Y024140D01*
X034300Y024070D01*
X034370D01*
X034440Y024140D01*
Y024350D01*
X034300Y024490D02*
X034230Y024560D01*
Y024700D01*
X034300Y024770D01*
X034580D01*
X034650Y024700D01*
Y024560D01*
X034580Y024490D01*
X034300D01*
X034230Y025189D02*
X034300Y025050D01*
X034440Y024910D01*
X034580D01*
X034650Y024980D01*
Y025120D01*
X034580Y025189D01*
X034510D01*
X034440Y025120D01*
Y024910D01*
X035830Y022800D02*
X035760Y022870D01*
X035620D01*
X035550Y022800D01*
Y022520D01*
X035620Y022450D01*
X035760D01*
X035830Y022520D01*
X035970D02*
X036040Y022450D01*
X036180D01*
X036250Y022520D01*
Y022800D01*
X036180Y022870D01*
X036040D01*
X035970Y022800D01*
Y022730D01*
X036040Y022660D01*
X036250D01*
X036390Y022800D02*
X036460Y022870D01*
X036600D01*
X036670Y022800D01*
Y022520D01*
X036600Y022450D01*
X036460D01*
X036390Y022520D01*
Y022800D01*
X036810Y022870D02*
X037090D01*
Y022800D01*
X036810Y022520D01*
Y022450D01*
X046500Y014470D02*
Y014120D01*
X046570Y014050D01*
X046710D01*
X046780Y014120D01*
Y014470D01*
X046920Y014120D02*
X046990Y014050D01*
X047130D01*
X047200Y014120D01*
Y014400D01*
X047130Y014470D01*
X046990D01*
X046920Y014400D01*
Y014330D01*
X046990Y014260D01*
X047200D01*
X047340Y014400D02*
X047410Y014470D01*
X047550D01*
X047620Y014400D01*
Y014120D01*
X047550Y014050D01*
X047410D01*
X047340Y014120D01*
Y014400D01*
X047760D02*
X047830Y014470D01*
X047970D01*
X048039Y014400D01*
Y014120D01*
X047970Y014050D01*
X047830D01*
X047760Y014120D01*
Y014400D01*
X030460Y011370D02*
X030320D01*
X030250Y011300D01*
Y011020D01*
X030320Y010950D01*
X030460D01*
X030530Y011020D01*
Y011300D01*
X030460Y011370D01*
X030950Y011300D02*
X030880Y011370D01*
X030740D01*
X030670Y011300D01*
Y011230D01*
X030740Y011160D01*
X030880D01*
X030950Y011090D01*
Y011020D01*
X030880Y010950D01*
X030740D01*
X030670Y011020D01*
X031370Y011300D02*
X031300Y011370D01*
X031160D01*
X031090Y011300D01*
Y011020D01*
X031160Y010950D01*
X031300D01*
X031370Y011020D01*
X031720Y010950D02*
Y011370D01*
X031510Y011160D01*
X031790D01*
X031929Y011300D02*
X031999Y011370D01*
X032139D01*
X032209Y011300D01*
Y011020D01*
X032139Y010950D01*
X031999D01*
X031929Y011020D01*
Y011300D01*
X032349D02*
X032419Y011370D01*
X032559D01*
X032629Y011300D01*
Y011020D01*
X032559Y010950D01*
X032419D01*
X032349Y011020D01*
Y011300D01*
X035780Y025250D02*
X036200D01*
Y025530D01*
X036130Y025670D02*
X036200Y025740D01*
Y025880D01*
X036130Y025950D01*
X035850D01*
X035780Y025880D01*
Y025740D01*
X035850Y025670D01*
X035920D01*
X035990Y025740D01*
Y025950D01*
X035850Y026090D02*
X035780Y026160D01*
Y026300D01*
X035850Y026370D01*
X036130D01*
X036200Y026300D01*
Y026160D01*
X036130Y026090D01*
X035850D01*
Y026510D02*
X035780Y026580D01*
Y026720D01*
X035850Y026790D01*
X036130D01*
X036200Y026720D01*
Y026580D01*
X036130Y026510D01*
X035850D01*
X021330Y043950D02*
Y044090D01*
Y044020D01*
X021750D01*
Y043950D01*
Y044090D01*
X021400Y044580D02*
X021330Y044510D01*
Y044370D01*
X021400Y044300D01*
X021680D01*
X021750Y044370D01*
Y044510D01*
X021680Y044580D01*
X021330Y045000D02*
X021400Y044860D01*
X021540Y044720D01*
X021680D01*
X021750Y044790D01*
Y044930D01*
X021680Y045000D01*
X021610D01*
X021540Y044930D01*
Y044720D01*
X021400Y045140D02*
X021330Y045210D01*
Y045350D01*
X021400Y045420D01*
X021680D01*
X021750Y045350D01*
Y045210D01*
X021680Y045140D01*
X021400D01*
Y045559D02*
X021330Y045629D01*
Y045769D01*
X021400Y045839D01*
X021680D01*
X021750Y045769D01*
Y045629D01*
X021680Y045559D01*
X021400D01*
X039300Y023400D02*
Y023820D01*
X039510D01*
X039580Y023750D01*
Y023610D01*
X039510Y023540D01*
X039300D01*
X039440D02*
X039580Y023400D01*
X039720Y023470D02*
X039790Y023400D01*
X039930D01*
X040000Y023470D01*
Y023750D01*
X039930Y023820D01*
X039790D01*
X039720Y023750D01*
Y023680D01*
X039790Y023610D01*
X040000D01*
X040140Y023750D02*
X040210Y023820D01*
X040350D01*
X040420Y023750D01*
Y023470D01*
X040350Y023400D01*
X040210D01*
X040140Y023470D01*
Y023750D01*
X040560Y023400D02*
X040700D01*
X040630D01*
Y023820D01*
X040560Y023750D01*
X040900Y023400D02*
Y023820D01*
X041110D01*
X041180Y023750D01*
Y023610D01*
X041110Y023540D01*
X040900D01*
X041040D02*
X041180Y023400D01*
X041320Y023470D02*
X041390Y023400D01*
X041530D01*
X041600Y023470D01*
Y023750D01*
X041530Y023820D01*
X041390D01*
X041320Y023750D01*
Y023680D01*
X041390Y023610D01*
X041600D01*
X041740Y023750D02*
X041810Y023820D01*
X041950D01*
X042020Y023750D01*
Y023470D01*
X041950Y023400D01*
X041810D01*
X041740Y023470D01*
Y023750D01*
X042160D02*
X042230Y023820D01*
X042370D01*
X042439Y023750D01*
Y023470D01*
X042370Y023400D01*
X042230D01*
X042160Y023470D01*
Y023750D01*
D67*
X024350Y050820D02*
X026350D01*
X024350Y045420D02*
X026350D01*
X024350Y056220D02*
X026350D01*
X024350Y040020D02*
X026350D01*
X029650D02*
X031650D01*
X029650Y050820D02*
X031650D01*
X029650Y045420D02*
X031650D01*
X029650Y056220D02*
X031650D01*
X026130Y034700D02*
Y036700D01*
Y024500D02*
Y026500D01*
M02*
