%FSAX24Y24*%
%MOIN*%
G70*
G01*
G75*
G04 Layer_Physical_Order=4*
G04 Layer_Color=16711680*
%ADD10R,0.0512X0.0748*%
%ADD11R,0.0700X0.0650*%
%ADD12R,0.0350X0.0350*%
%ADD13R,0.0350X0.0350*%
%ADD14R,0.3500X0.4200*%
%ADD15R,0.0900X0.0700*%
%ADD16R,0.0374X0.0189*%
%ADD17R,0.0550X0.0400*%
%ADD18R,0.0650X0.0700*%
%ADD19R,0.0512X0.0110*%
%ADD20R,0.0110X0.0512*%
%ADD21R,0.0600X0.0650*%
G04:AMPARAMS|DCode=22|XSize=65mil|YSize=60mil|CornerRadius=15mil|HoleSize=0mil|Usage=FLASHONLY|Rotation=270.000|XOffset=0mil|YOffset=0mil|HoleType=Round|Shape=RoundedRectangle|*
%AMROUNDEDRECTD22*
21,1,0.0650,0.0300,0,0,270.0*
21,1,0.0350,0.0600,0,0,270.0*
1,1,0.0300,-0.0150,-0.0175*
1,1,0.0300,-0.0150,0.0175*
1,1,0.0300,0.0150,0.0175*
1,1,0.0300,0.0150,-0.0175*
%
%ADD22ROUNDEDRECTD22*%
%ADD23R,0.0236X0.0472*%
%ADD24R,0.0260X0.0800*%
%ADD25R,0.0709X0.0551*%
G04:AMPARAMS|DCode=26|XSize=70.9mil|YSize=55.1mil|CornerRadius=13.8mil|HoleSize=0mil|Usage=FLASHONLY|Rotation=180.000|XOffset=0mil|YOffset=0mil|HoleType=Round|Shape=RoundedRectangle|*
%AMROUNDEDRECTD26*
21,1,0.0709,0.0276,0,0,180.0*
21,1,0.0433,0.0551,0,0,180.0*
1,1,0.0276,-0.0217,0.0138*
1,1,0.0276,0.0217,0.0138*
1,1,0.0276,0.0217,-0.0138*
1,1,0.0276,-0.0217,-0.0138*
%
%ADD26ROUNDEDRECTD26*%
%ADD27R,0.1280X0.0846*%
%ADD28R,0.0374X0.0846*%
%ADD29R,0.0800X0.0260*%
%ADD30R,0.0140X0.0701*%
%ADD31R,0.0787X0.0472*%
%ADD32R,0.0591X0.0394*%
%ADD33R,0.0532X0.0138*%
%ADD34R,0.0138X0.0532*%
%ADD35R,0.0400X0.0550*%
%ADD36R,0.0098X0.0610*%
%ADD37R,0.0571X0.0098*%
%ADD38R,0.0571X0.0177*%
%ADD39R,0.1500X0.0800*%
%ADD40R,0.0800X0.1500*%
%ADD41C,0.0100*%
%ADD42C,0.0120*%
%ADD43C,0.0110*%
%ADD44C,0.0150*%
%ADD45C,0.0130*%
%ADD46C,0.0200*%
%ADD47C,0.0300*%
%ADD48C,0.0600*%
%ADD49R,0.0600X0.0600*%
%ADD50R,0.0600X0.0600*%
%ADD51C,0.0591*%
%ADD52C,0.0551*%
%ADD53C,0.0886*%
%ADD54C,0.1772*%
%ADD55C,0.0220*%
%ADD56C,0.0250*%
%ADD57C,0.1600*%
%ADD58C,0.0689*%
%ADD59C,0.0300*%
%ADD60C,0.0500*%
%ADD61C,0.0400*%
%ADD62C,0.2500*%
G36*
X036000Y035500D02*
X031000D01*
Y038250D01*
X036000D01*
Y035500D01*
D02*
G37*
G36*
X030500Y021750D02*
X022000D01*
Y033000D01*
X030500D01*
Y021750D01*
D02*
G37*
%LPC*%
G36*
X027000Y029946D02*
X026972Y029942D01*
X026899Y029912D01*
X026836Y029864D01*
X026788Y029801D01*
X026758Y029728D01*
X026754Y029700D01*
X027000D01*
Y029946D01*
D02*
G37*
G36*
X028696Y029600D02*
X028450D01*
Y029354D01*
X028478Y029358D01*
X028551Y029388D01*
X028614Y029436D01*
X028662Y029499D01*
X028692Y029572D01*
X028696Y029600D01*
D02*
G37*
G36*
X028450Y029946D02*
Y029700D01*
X028696D01*
X028692Y029728D01*
X028662Y029801D01*
X028614Y029864D01*
X028551Y029912D01*
X028478Y029942D01*
X028450Y029946D01*
D02*
G37*
G36*
X028350D02*
X028322Y029942D01*
X028249Y029912D01*
X028186Y029864D01*
X028138Y029801D01*
X028108Y029728D01*
X028104Y029700D01*
X028350D01*
Y029946D01*
D02*
G37*
G36*
X027100D02*
Y029700D01*
X027346D01*
X027342Y029728D01*
X027312Y029801D01*
X027264Y029864D01*
X027201Y029912D01*
X027128Y029942D01*
X027100Y029946D01*
D02*
G37*
G36*
X028500Y025963D02*
X028438Y025951D01*
X028385Y025915D01*
X028349Y025862D01*
X028337Y025800D01*
X028349Y025738D01*
X028385Y025685D01*
X028438Y025649D01*
X028500Y025637D01*
X028562Y025649D01*
X028615Y025685D01*
X028651Y025738D01*
X028663Y025800D01*
X028651Y025862D01*
X028615Y025915D01*
X028562Y025951D01*
X028500Y025963D01*
D02*
G37*
G36*
Y025363D02*
X028438Y025351D01*
X028385Y025315D01*
X028349Y025262D01*
X028337Y025200D01*
X028349Y025138D01*
X028385Y025085D01*
X028438Y025049D01*
X028500Y025037D01*
X028562Y025049D01*
X028615Y025085D01*
X028651Y025138D01*
X028663Y025200D01*
X028651Y025262D01*
X028615Y025315D01*
X028562Y025351D01*
X028500Y025363D01*
D02*
G37*
G36*
X027000Y029600D02*
X026754D01*
X026758Y029572D01*
X026788Y029499D01*
X026836Y029436D01*
X026899Y029388D01*
X026972Y029358D01*
X027000Y029354D01*
Y029600D01*
D02*
G37*
G36*
X028350D02*
X028104D01*
X028108Y029572D01*
X028138Y029499D01*
X028186Y029436D01*
X028249Y029388D01*
X028322Y029358D01*
X028350Y029354D01*
Y029600D01*
D02*
G37*
G36*
X027346D02*
X027100D01*
Y029354D01*
X027128Y029358D01*
X027201Y029388D01*
X027264Y029436D01*
X027312Y029499D01*
X027342Y029572D01*
X027346Y029600D01*
D02*
G37*
G36*
X027000Y031700D02*
X026754D01*
X026758Y031672D01*
X026788Y031599D01*
X026836Y031536D01*
X026899Y031488D01*
X026972Y031458D01*
X027000Y031454D01*
Y031700D01*
D02*
G37*
G36*
X032550Y036250D02*
X032396D01*
X032402Y036218D01*
X032449Y036149D01*
X032518Y036102D01*
X032550Y036096D01*
Y036250D01*
D02*
G37*
G36*
X028450Y032046D02*
Y031800D01*
X028696D01*
X028692Y031828D01*
X028662Y031901D01*
X028614Y031964D01*
X028551Y032012D01*
X028478Y032042D01*
X028450Y032046D01*
D02*
G37*
G36*
X032804Y036250D02*
X032650D01*
Y036096D01*
X032682Y036102D01*
X032751Y036149D01*
X032798Y036218D01*
X032804Y036250D01*
D02*
G37*
G36*
X032650Y036504D02*
Y036350D01*
X032804D01*
X032798Y036382D01*
X032751Y036451D01*
X032682Y036498D01*
X032650Y036504D01*
D02*
G37*
G36*
X032550D02*
X032518Y036498D01*
X032449Y036451D01*
X032402Y036382D01*
X032396Y036350D01*
X032550D01*
Y036504D01*
D02*
G37*
G36*
X028350Y032046D02*
X028322Y032042D01*
X028249Y032012D01*
X028186Y031964D01*
X028138Y031901D01*
X028108Y031828D01*
X028104Y031800D01*
X028350D01*
Y032046D01*
D02*
G37*
G36*
Y031700D02*
X028104D01*
X028108Y031672D01*
X028138Y031599D01*
X028186Y031536D01*
X028249Y031488D01*
X028322Y031458D01*
X028350Y031454D01*
Y031700D01*
D02*
G37*
G36*
X027346D02*
X027100D01*
Y031454D01*
X027128Y031458D01*
X027201Y031488D01*
X027264Y031536D01*
X027312Y031599D01*
X027342Y031672D01*
X027346Y031700D01*
D02*
G37*
G36*
X028696D02*
X028450D01*
Y031454D01*
X028478Y031458D01*
X028551Y031488D01*
X028614Y031536D01*
X028662Y031599D01*
X028692Y031672D01*
X028696Y031700D01*
D02*
G37*
G36*
X027100Y032046D02*
Y031800D01*
X027346D01*
X027342Y031828D01*
X027312Y031901D01*
X027264Y031964D01*
X027201Y032012D01*
X027128Y032042D01*
X027100Y032046D01*
D02*
G37*
G36*
X027000D02*
X026972Y032042D01*
X026899Y032012D01*
X026836Y031964D01*
X026788Y031901D01*
X026758Y031828D01*
X026754Y031800D01*
X027000D01*
Y032046D01*
D02*
G37*
%LPD*%
D12*
X031300Y016400D02*
D03*
X030700D02*
D03*
D13*
X029600Y017500D02*
D03*
Y018100D02*
D03*
D41*
X015734Y030991D02*
X016350Y031606D01*
Y036280D01*
X015734Y036896D02*
X016350Y036280D01*
X029950Y019850D02*
X030550Y019250D01*
X030400Y019900D02*
X030800Y019500D01*
X022350Y019850D02*
X022900Y019300D01*
Y015750D02*
Y019300D01*
Y015750D02*
X023400Y015250D01*
X028250D01*
X028600Y015600D01*
X028850D01*
X029150Y015300D01*
X022350Y015050D02*
X028550D01*
X028800Y015300D01*
X044700Y023350D02*
Y027050D01*
X044050Y027650D02*
X044700Y027000D01*
Y023350D02*
X044850Y023200D01*
X044400D02*
Y024400D01*
X028400Y019600D02*
X028750Y019950D01*
X028400Y017900D02*
Y019600D01*
Y017900D02*
X028900Y017400D01*
X028750Y018250D02*
X028900Y018100D01*
X029600D01*
X031300Y016400D02*
X031500Y016200D01*
Y015900D02*
Y016200D01*
X023750Y051350D02*
X030600D01*
X022650Y050250D02*
X023750Y051350D01*
X030600D02*
X030900Y051050D01*
X031100Y051600D02*
X031400Y051900D01*
X024400D02*
X026100D01*
X024050Y052250D02*
X024400Y051900D01*
X024050Y052250D02*
Y053750D01*
X021000Y056800D02*
X024050Y053750D01*
X021000Y050250D02*
X022650D01*
X023950Y051050D02*
X025600D01*
X021750Y048850D02*
X023950Y051050D01*
X019900Y048850D02*
X021750D01*
X031200Y057100D02*
X031400Y057300D01*
X022550Y057100D02*
X031200D01*
X021150Y058500D02*
X022550Y057100D01*
X019850Y058500D02*
X021150D01*
X030700Y056600D02*
X030900Y056400D01*
X022550Y056600D02*
X030700D01*
X021550Y057600D02*
X022550Y056600D01*
X019850Y057600D02*
X021550D01*
X031100Y046150D02*
X031400Y046450D01*
X030650Y045900D02*
X030900Y045650D01*
X021850Y045900D02*
X030650D01*
X021050Y046700D02*
X021850Y045900D01*
X019900Y046700D02*
X021050D01*
X022650Y046450D02*
X026100D01*
X021000Y048100D02*
X022650Y046450D01*
X021650Y045600D02*
X025600D01*
X021000Y046250D02*
X021650Y045600D01*
X030600Y040500D02*
X030900Y040200D01*
X031100Y040750D02*
X031400Y041050D01*
X024850Y040150D02*
X025600D01*
X024950Y040500D02*
X030600D01*
X021003Y044447D02*
X024950Y040500D01*
X019947Y044447D02*
X021003D01*
X021000Y044000D02*
X024850Y040150D01*
X025650Y041100D02*
X026100D01*
X021000Y045750D02*
X025650Y041100D01*
X015250Y050518D02*
X015734Y051003D01*
X015250Y048150D02*
Y050518D01*
Y048150D02*
X017150Y046250D01*
X015734Y052184D02*
X016300Y051618D01*
Y047950D02*
Y051618D01*
Y047950D02*
X017550Y046700D01*
X019900D01*
X017150Y046250D02*
X021000D01*
X023600Y051600D02*
X031100D01*
X023100Y051100D02*
X023600Y051600D01*
X019900Y051100D02*
X023100D01*
X019900Y047600D02*
X020700D01*
X022150Y046150D01*
X031100D01*
X019947Y045353D02*
X020847D01*
X025450Y040750D01*
X031100D01*
X019900Y052000D02*
X021550D01*
X021850Y051700D01*
X019900Y049800D02*
X021450D01*
X019950Y055450D02*
X021100D01*
X021900Y054650D01*
X019900Y056350D02*
X020800D01*
X022150Y055000D01*
X021750Y034350D02*
X022250Y034850D01*
Y036150D01*
X030650Y017850D02*
X031000Y018200D01*
X031950D01*
X030600Y017400D02*
X032100D01*
X030250Y017750D02*
X030600Y017400D01*
X030250Y017750D02*
Y018800D01*
X029500Y019550D02*
X030250Y018800D01*
X029500Y019550D02*
Y020050D01*
X029900Y020450D01*
X032750D01*
X038150Y034317D02*
X040300Y032167D01*
X037650Y046750D02*
Y050350D01*
Y046750D02*
X037950Y046450D01*
X037650Y050350D02*
X037850Y050550D01*
X037950Y034234D02*
X040100Y032084D01*
X037950Y034234D02*
Y046450D01*
X037400Y046750D02*
Y050650D01*
Y046750D02*
X037750Y046400D01*
X037400Y050650D02*
X037600Y050850D01*
X037750Y034151D02*
X039900Y032001D01*
X037750Y034151D02*
Y046400D01*
X037200Y046700D02*
X037550Y046350D01*
Y034069D02*
Y046350D01*
Y034069D02*
X039700Y031919D01*
X037200Y046700D02*
Y051000D01*
X037350Y051150D01*
X038150Y034317D02*
Y045900D01*
X038250Y046000D01*
Y046400D01*
X037350Y051650D02*
X038550Y050450D01*
X038350Y034400D02*
X040500Y032250D01*
X038350Y034400D02*
Y045750D01*
X038550Y045950D01*
Y050450D01*
X039700Y018250D02*
Y031919D01*
X040500Y016700D02*
Y032250D01*
X040150Y016900D02*
X040300Y017050D01*
Y032167D01*
X040100Y017550D02*
Y032084D01*
X039850Y017300D02*
X040100Y017550D01*
X039650Y017650D02*
X039900Y017900D01*
Y032001D01*
X039450Y018000D02*
X039700Y018250D01*
X042000Y030717D02*
Y043550D01*
Y030717D02*
X045800Y026917D01*
X042200Y030800D02*
X046000Y027000D01*
Y024000D02*
Y027000D01*
X040450Y044500D02*
Y044850D01*
X041800Y030634D02*
Y043150D01*
X040450Y044500D02*
X041800Y043150D01*
X040450Y044850D02*
X040650Y045050D01*
X041800D02*
X042200Y044650D01*
X040650Y045050D02*
X041800D01*
X040900Y044650D02*
X042000Y043550D01*
X042200Y030800D02*
Y043350D01*
X043500Y044650D01*
X041800Y030634D02*
X045550Y026884D01*
Y023200D02*
Y026884D01*
X045800Y023850D02*
Y026917D01*
Y023850D02*
X046000Y023650D01*
Y023200D02*
Y023650D01*
Y024000D02*
X046450Y023550D01*
Y023200D02*
Y023550D01*
X030550Y033550D02*
X031050Y033050D01*
X025850Y033550D02*
X030550D01*
X020950Y036800D02*
Y037400D01*
X038150Y022600D02*
Y022950D01*
X038600Y011500D02*
X040000Y012900D01*
X023050Y011500D02*
X038600D01*
X020700Y013850D02*
X023050Y011500D01*
X020700Y013850D02*
Y021900D01*
X020950Y036800D02*
X021250Y036500D01*
X022900D01*
X025850Y033550D01*
X019450Y023150D02*
X020700Y021900D01*
X019450Y023150D02*
Y036350D01*
X020600Y037500D01*
X041650Y015050D02*
X043450D01*
X038300Y011700D02*
X041650Y015050D01*
X023100Y011700D02*
X038300D01*
X020900Y013900D02*
X023100Y011700D01*
X020900Y013900D02*
Y022000D01*
X019650Y023250D02*
X020900Y022000D01*
X019650Y023250D02*
Y035950D01*
X020600Y036900D01*
X037750Y016350D02*
Y016700D01*
X036750Y017700D02*
X037750Y016700D01*
X030550Y019250D02*
X032950D01*
X038600Y013600D01*
X039600D01*
X030800Y019500D02*
X032950D01*
X037600Y014850D01*
X039250D01*
X030900Y019850D02*
X032850D01*
X037250Y015450D01*
X037850D01*
X035450Y017700D02*
X036750D01*
X033300Y019850D02*
X035450Y017700D01*
X033300Y019850D02*
Y024750D01*
X038700Y016000D02*
X039250D01*
X036800Y017900D02*
X038700Y016000D01*
X035500Y017900D02*
X036800D01*
X033500Y019900D02*
X035500Y017900D01*
X033500Y019900D02*
Y024850D01*
X031750Y026300D02*
X033300Y024750D01*
X031750Y026300D02*
Y032650D01*
X030650Y033750D02*
X031750Y032650D01*
X025950Y033750D02*
X030650D01*
X023000Y036700D02*
X025950Y033750D01*
X022150Y036700D02*
X023000D01*
X021700Y037150D02*
X022150Y036700D01*
X031950Y026400D02*
X033500Y024850D01*
X031950Y026400D02*
Y032750D01*
X030750Y033950D02*
X031950Y032750D01*
X026100Y033950D02*
X030750D01*
X023100Y036950D02*
X026100Y033950D01*
X022450Y036950D02*
X023100D01*
X022150Y037250D02*
X022450Y036950D01*
X037900Y015950D02*
X038300Y015550D01*
X039450D01*
X039650Y015750D01*
Y016150D01*
X039400Y016400D02*
X039650Y016150D01*
X038600Y016400D02*
X039400D01*
X036900Y018100D02*
X038600Y016400D01*
X035550Y018100D02*
X036900D01*
X033700Y019950D02*
X035550Y018100D01*
X033700Y019950D02*
Y024950D01*
X032150Y026500D02*
X033700Y024950D01*
X032150Y026500D02*
Y032850D01*
X030850Y034150D02*
X032150Y032850D01*
X026200Y034150D02*
X030850D01*
X023200Y037150D02*
X026200Y034150D01*
X022750Y037150D02*
X023200D01*
X022500Y037400D02*
X022750Y037150D01*
X036100Y025000D02*
X038150Y022950D01*
X033950Y025000D02*
X036100D01*
X032400Y026550D02*
X033950Y025000D01*
X032400Y026550D02*
Y032900D01*
X030950Y034350D02*
X032400Y032900D01*
X026300Y034350D02*
X030950D01*
X023300Y037350D02*
X026300Y034350D01*
X023050Y037350D02*
X023300D01*
X022850Y037550D02*
X023050Y037350D01*
X032650Y027050D02*
X034150Y025550D01*
X032650Y027050D02*
Y032950D01*
X031050Y034550D02*
X032650Y032950D01*
X026400Y034550D02*
X031050D01*
X023150Y037800D02*
X026400Y034550D01*
X023100Y037800D02*
X023150D01*
X031050Y026250D02*
Y033050D01*
X044050Y024750D02*
X044400Y024400D01*
X044050Y024750D02*
Y026250D01*
X046150Y015850D02*
X049550Y012450D01*
X050400Y012050D02*
X051250Y011200D01*
X045250Y014850D02*
X048250Y011850D01*
X049600D01*
X050250Y011200D01*
X044800Y014650D02*
Y016150D01*
Y014650D02*
X048250Y011200D01*
X049250D01*
X052000Y012250D02*
X053050Y011200D01*
X049550Y012450D02*
X052800D01*
X054050Y011200D01*
X042650Y020750D02*
X045100D01*
X046750Y022400D01*
X050750Y023250D02*
X052500Y021500D01*
X054250D01*
X054750Y021000D01*
X048550Y014600D02*
X049750Y015800D01*
X051500D01*
X053200Y017500D01*
X054250D01*
X054750Y018000D01*
X046150Y015350D02*
X049250Y012250D01*
X052000D01*
X045600Y015200D02*
X048750Y012050D01*
X050400D01*
X047200Y019750D02*
Y027600D01*
X044700Y030100D02*
X047200Y027600D01*
X047400Y019650D02*
Y027683D01*
X047800Y016050D02*
Y027849D01*
X048000Y015650D02*
Y027931D01*
X045100Y029983D02*
X047400Y027683D01*
X045650Y029999D02*
X047800Y027849D01*
X046200Y016300D02*
X047600Y017700D01*
Y027766D01*
X044750Y033512D02*
Y034938D01*
X045450Y035638D01*
X044750Y033512D02*
X045450Y032812D01*
X042750Y037400D02*
X045100D01*
X045450Y029916D02*
Y032812D01*
X045100Y037400D02*
X045450Y037050D01*
Y035638D02*
Y037050D01*
X044373Y015323D02*
Y016623D01*
X047400Y019650D01*
X043950Y015250D02*
Y016500D01*
X047200Y019750D01*
X044700Y032000D02*
X045100Y032400D01*
X047550Y015800D02*
X047800Y016050D01*
X045100Y033450D02*
X045650Y032900D01*
X045100Y033450D02*
Y034400D01*
X045650Y029999D02*
Y032900D01*
X047850Y015500D02*
X048000Y015650D01*
X045100Y038350D02*
X045850Y037600D01*
X042750Y038350D02*
X045100D01*
X047950Y015100D02*
X048200Y015350D01*
Y028014D01*
X045100Y039300D02*
X046050Y038350D01*
Y030164D02*
Y038350D01*
Y030164D02*
X048200Y028014D01*
X045850Y030081D02*
Y037600D01*
Y030081D02*
X048000Y027931D01*
X045450Y029916D02*
X047600Y027766D01*
X045100Y029983D02*
Y031700D01*
X044700Y030100D02*
Y032000D01*
X041000Y023150D02*
Y035700D01*
D43*
X035750Y019900D02*
X038900D01*
X029850Y015000D02*
X031150D01*
X036150Y019700D02*
X039250D01*
X027950Y017950D02*
Y019950D01*
Y017950D02*
X028850Y017050D01*
X028900D01*
X029250Y017150D02*
X029600Y017500D01*
X029250Y016900D02*
Y017150D01*
X030050Y016400D02*
X030700D01*
X034850Y019950D02*
Y020800D01*
X035250Y019400D02*
X035750Y019900D01*
X035550Y019100D02*
X036150Y019700D01*
X038900Y019900D02*
X039250Y020250D01*
X034850Y020800D02*
X036250Y022200D01*
X038450D01*
X038750Y022500D01*
X031150Y015000D02*
X033900Y017750D01*
D46*
X016750Y023750D02*
Y029975D01*
X015734Y030991D02*
X016750Y029975D01*
X037850Y029500D02*
Y030850D01*
X037500Y029150D02*
X037850Y029500D01*
X033550Y029150D02*
X037500D01*
D48*
X054750Y018000D02*
D03*
Y016000D02*
D03*
Y017000D02*
D03*
X053750Y016000D02*
D03*
Y014000D02*
D03*
X054750Y015000D02*
D03*
X053750D02*
D03*
Y017000D02*
D03*
Y018000D02*
D03*
X054750Y019000D02*
D03*
X053750D02*
D03*
X054750Y020000D02*
D03*
X053750D02*
D03*
X054750Y021000D02*
D03*
X053750D02*
D03*
X054750Y022000D02*
D03*
X053750D02*
D03*
X054750Y023000D02*
D03*
X053750D02*
D03*
X037850Y030850D02*
D03*
X036850D02*
D03*
X014750Y048050D02*
D03*
Y049231D02*
D03*
Y050412D02*
D03*
Y051593D02*
D03*
Y052774D02*
D03*
Y053955D02*
D03*
Y055137D02*
D03*
X015734Y048641D02*
D03*
Y049822D02*
D03*
Y051003D02*
D03*
Y052184D02*
D03*
Y053365D02*
D03*
Y054546D02*
D03*
X016915Y048641D02*
D03*
Y049822D02*
D03*
Y051003D02*
D03*
Y052184D02*
D03*
Y053365D02*
D03*
Y054546D02*
D03*
X017900Y048050D02*
D03*
Y049231D02*
D03*
Y050412D02*
D03*
Y051593D02*
D03*
Y052774D02*
D03*
Y053956D02*
D03*
Y055137D02*
D03*
X014750Y030400D02*
D03*
Y031581D02*
D03*
Y032762D02*
D03*
Y033943D02*
D03*
Y035124D02*
D03*
Y036305D02*
D03*
Y037487D02*
D03*
X015734Y030991D02*
D03*
Y032172D02*
D03*
Y033353D02*
D03*
Y034534D02*
D03*
Y035715D02*
D03*
Y036896D02*
D03*
X016915Y030991D02*
D03*
Y032172D02*
D03*
Y033353D02*
D03*
Y034534D02*
D03*
Y035715D02*
D03*
Y036896D02*
D03*
X017900Y030400D02*
D03*
Y031581D02*
D03*
Y032762D02*
D03*
Y033943D02*
D03*
Y035124D02*
D03*
Y036306D02*
D03*
Y037487D02*
D03*
X051000Y014100D02*
D03*
Y015100D02*
D03*
Y017500D02*
D03*
X015750Y023750D02*
D03*
X054050Y011200D02*
D03*
X050250D02*
D03*
X049250D02*
D03*
D49*
X054750Y014000D02*
D03*
X051000Y013100D02*
D03*
Y016500D02*
D03*
D50*
X038850Y030850D02*
D03*
X016750Y023750D02*
D03*
X053050Y011200D02*
D03*
X051250D02*
D03*
D51*
X019820Y020746D02*
D03*
Y019746D02*
D03*
Y016054D02*
D03*
Y015054D02*
D03*
D52*
X018848Y019896D02*
D03*
Y015900D02*
D03*
Y019097D02*
D03*
Y018298D02*
D03*
Y017498D02*
D03*
Y016699D02*
D03*
D53*
X013202Y014723D02*
D03*
X013170Y021109D02*
D03*
D54*
X014450Y015400D02*
D03*
Y020400D02*
D03*
D55*
X032950Y014200D02*
D03*
X040000Y048350D02*
D03*
X029350Y041850D02*
D03*
X024300Y043150D02*
D03*
X029400Y047250D02*
D03*
X024100D02*
D03*
X024450Y053450D02*
D03*
X029300Y052650D02*
D03*
X029450Y058050D02*
D03*
X024150D02*
D03*
X038750Y022500D02*
D03*
X039250Y014850D02*
D03*
X039600Y013600D02*
D03*
X037850Y015450D02*
D03*
X027400Y021100D02*
D03*
X028750Y019950D02*
D03*
X027950D02*
D03*
X033850Y015300D02*
D03*
X029850Y015000D02*
D03*
X029250Y016900D02*
D03*
X030050Y016400D02*
D03*
X030000Y012200D02*
D03*
X028800Y015300D02*
D03*
X029150D02*
D03*
X028900Y017050D02*
D03*
Y017400D02*
D03*
X022350Y015050D02*
D03*
Y019850D02*
D03*
X029550Y013250D02*
D03*
X026100Y051900D02*
D03*
X031400D02*
D03*
X030900Y051050D02*
D03*
X025600D02*
D03*
X031400Y057300D02*
D03*
X030900Y056400D02*
D03*
X031400Y046450D02*
D03*
X030900Y045650D02*
D03*
X026100Y046450D02*
D03*
X025600Y045600D02*
D03*
X030900Y040200D02*
D03*
X031400Y041050D02*
D03*
X025600Y040150D02*
D03*
X045100Y036700D02*
D03*
X032100Y052400D02*
D03*
Y050500D02*
D03*
X026800Y052400D02*
D03*
Y050500D02*
D03*
X032100Y057800D02*
D03*
Y055900D02*
D03*
Y047000D02*
D03*
Y045100D02*
D03*
X026800Y041600D02*
D03*
Y039700D02*
D03*
X032100Y041600D02*
D03*
Y039700D02*
D03*
X026800Y045100D02*
D03*
Y047000D02*
D03*
Y055900D02*
D03*
Y057750D02*
D03*
X021000Y045750D02*
D03*
X019947Y045353D02*
D03*
Y044447D02*
D03*
X021000Y044000D02*
D03*
Y048100D02*
D03*
X019900Y047600D02*
D03*
X021000Y057150D02*
D03*
X019850Y057600D02*
D03*
Y058500D02*
D03*
X021000Y059000D02*
D03*
X019900Y046700D02*
D03*
X021000Y046250D02*
D03*
X019950Y055450D02*
D03*
X019900Y056350D02*
D03*
X021000Y056800D02*
D03*
Y055000D02*
D03*
Y048450D02*
D03*
X019900Y048850D02*
D03*
Y049800D02*
D03*
X021000Y050250D02*
D03*
Y050650D02*
D03*
X019900Y051100D02*
D03*
Y052000D02*
D03*
X021000Y052450D02*
D03*
X022350Y020600D02*
D03*
X026050Y019750D02*
D03*
X024250Y019250D02*
D03*
Y016250D02*
D03*
X026050Y016750D02*
D03*
X028750Y018250D02*
D03*
X031500Y015900D02*
D03*
X032150Y018900D02*
D03*
X030800Y021300D02*
D03*
X032900D02*
D03*
X020650Y051550D02*
D03*
Y058050D02*
D03*
Y055900D02*
D03*
Y049350D02*
D03*
Y047150D02*
D03*
Y044900D02*
D03*
X034000Y047550D02*
D03*
X034750Y049150D02*
D03*
X042600Y051750D02*
D03*
X044650Y050850D02*
D03*
X043550Y049700D02*
D03*
X039500D02*
D03*
X045650Y048450D02*
D03*
X044750Y046350D02*
D03*
X048000Y055950D02*
D03*
X021850Y051700D02*
D03*
X021450Y049800D02*
D03*
X021900Y054650D02*
D03*
X022150Y055000D02*
D03*
X019950Y038800D02*
D03*
X019850Y041050D02*
D03*
X020550Y037900D02*
D03*
X028500Y025200D02*
D03*
Y025800D02*
D03*
X028600Y035400D02*
D03*
Y036000D02*
D03*
X020600Y037500D02*
D03*
X020950Y037400D02*
D03*
X021700Y037150D02*
D03*
X022150Y037250D02*
D03*
X022500Y037400D02*
D03*
X022850Y037550D02*
D03*
X023100Y037800D02*
D03*
X021750Y034350D02*
D03*
X022250Y036150D02*
D03*
X030650Y017850D02*
D03*
X031950Y018200D02*
D03*
X034150Y017200D02*
D03*
X032100Y017400D02*
D03*
X034850Y019950D02*
D03*
X035250Y019400D02*
D03*
X035550Y019100D02*
D03*
X037850Y050550D02*
D03*
X037600Y050850D02*
D03*
X037350Y051150D02*
D03*
X038250Y046400D02*
D03*
X037350Y051650D02*
D03*
X040500Y016700D02*
D03*
X040150Y016900D02*
D03*
X039850Y017300D02*
D03*
X039650Y017650D02*
D03*
X039450Y018000D02*
D03*
X039250Y019700D02*
D03*
Y020250D02*
D03*
X043500Y044650D02*
D03*
X045550Y023200D02*
D03*
X046000D02*
D03*
X046450D02*
D03*
X048700Y047950D02*
D03*
X038150Y022600D02*
D03*
X040000Y012900D02*
D03*
X043450Y015050D02*
D03*
X020600Y036900D02*
D03*
X032750Y020450D02*
D03*
X037900Y015950D02*
D03*
X037750Y016350D02*
D03*
X033900Y017750D02*
D03*
X039250Y016000D02*
D03*
X034150Y025550D02*
D03*
X031050Y026250D02*
D03*
X037000Y014450D02*
D03*
X039200Y024050D02*
D03*
X037850Y023800D02*
D03*
X054600Y029500D02*
D03*
X054100Y042050D02*
D03*
X044250Y035400D02*
D03*
Y033750D02*
D03*
X032600Y036300D02*
D03*
X045250Y014850D02*
D03*
X044800Y016150D02*
D03*
X042650Y020750D02*
D03*
X046750Y022400D02*
D03*
X050750Y023250D02*
D03*
X048550Y014600D02*
D03*
X046150Y015850D02*
D03*
Y015350D02*
D03*
X045600Y015200D02*
D03*
X046200Y016300D02*
D03*
X042750Y037400D02*
D03*
X045100D02*
D03*
X044373Y015323D02*
D03*
X045100Y031700D02*
D03*
X043950Y015250D02*
D03*
X045100Y032400D02*
D03*
X047550Y015800D02*
D03*
X045100Y034400D02*
D03*
X047850Y015500D02*
D03*
X042750Y038350D02*
D03*
X045100D02*
D03*
X047950Y015100D02*
D03*
X045100Y039300D02*
D03*
X041000Y023150D02*
D03*
Y035700D02*
D03*
D56*
X030900Y019850D02*
D03*
X030400Y019900D02*
D03*
X029950Y019850D02*
D03*
X038000Y012350D02*
D03*
Y011000D02*
D03*
X044050Y027650D02*
D03*
X044400Y023200D02*
D03*
X044850D02*
D03*
X044050Y026250D02*
D03*
X046800Y027450D02*
D03*
X021750Y035750D02*
D03*
X021550Y025500D02*
D03*
X046650D02*
D03*
X038700Y025050D02*
D03*
X037550Y013300D02*
D03*
X047700Y011250D02*
D03*
X026100Y041100D02*
D03*
X038950Y026950D02*
D03*
X043500Y025800D02*
D03*
X043250Y032150D02*
D03*
X043700Y036100D02*
D03*
X044050Y023950D02*
D03*
X048850Y019250D02*
D03*
Y018650D02*
D03*
Y017450D02*
D03*
Y016850D02*
D03*
X046500Y012200D02*
D03*
X045900D02*
D03*
X043800D02*
D03*
X043200D02*
D03*
X041650D02*
D03*
X041050D02*
D03*
X036550Y016700D02*
D03*
Y017300D02*
D03*
Y018650D02*
D03*
Y019250D02*
D03*
Y021350D02*
D03*
Y021950D02*
D03*
X045100Y024550D02*
D03*
X043000D02*
D03*
X022350Y016000D02*
D03*
X044300Y052750D02*
D03*
X033100Y031750D02*
D03*
X039150Y051750D02*
D03*
X028150Y015700D02*
D03*
X037050Y046100D02*
D03*
X042200Y044650D02*
D03*
X040900D02*
D03*
X050700Y021250D02*
D03*
X049150Y021700D02*
D03*
X039450Y011500D02*
D03*
D57*
X012191Y045196D02*
D03*
Y057991D02*
D03*
Y027546D02*
D03*
Y040341D02*
D03*
D58*
X055421Y030891D02*
D03*
Y040399D02*
D03*
D59*
X020650Y028850D02*
D03*
X021450Y032950D02*
D03*
X020500Y030600D02*
D03*
X034600Y028000D02*
D03*
X032894Y034950D02*
D03*
X037350Y026300D02*
D03*
X048800Y022800D02*
D03*
X033550Y029150D02*
D03*
X035400Y023550D02*
D03*
D60*
X038100Y032650D02*
D03*
D61*
X027050Y031750D02*
D03*
X028400D02*
D03*
Y029650D02*
D03*
X027050D02*
D03*
D62*
X054250Y026000D02*
D03*
X012750Y012000D02*
D03*
X054250Y056250D02*
D03*
M02*
